<?xml version="1.0" standalone="no"?>
<!DOCTYPE svg PUBLIC "-//W3C//DTD SVG 20010904//EN"
 "http://www.w3.org/TR/2001/REC-SVG-20010904/DTD/svg10.dtd">
<svg version="1.0" xmlns="http://www.w3.org/2000/svg"
 width="1280.000000pt" height="1042.000000pt" viewBox="0 0 1280.000000 1042.000000"
 preserveAspectRatio="xMidYMid meet">
<metadata>
Created by potrace 1.15, written by Peter Selinger 2001-2017
</metadata>
<g transform="translate(0.000000,1042.000000) scale(0.100000,-0.100000)"
fill="#9c27b0" stroke="none">
<path d="M884 10401 c-23 -11 -43 -24 -46 -31 -2 -6 -10 -12 -18 -13 -24 -4
-88 -46 -109 -73 -10 -13 -22 -24 -26 -24 -10 0 -105 -82 -105 -91 0 -5 -24
-33 -52 -63 -29 -30 -60 -62 -68 -73 -63 -78 -82 -105 -84 -119 -2 -9 -9 -22
-18 -28 -20 -15 -68 -99 -68 -119 0 -9 -6 -20 -14 -24 -18 -11 -68 -111 -61
-123 3 -5 0 -12 -6 -15 -14 -9 -50 -92 -54 -128 -2 -16 -8 -34 -13 -40 -13
-16 -43 -118 -37 -127 3 -4 -2 -21 -11 -38 -8 -17 -17 -55 -20 -84 -3 -29 -10
-64 -15 -78 -15 -40 -22 -170 -22 -390 1 -248 7 -339 26 -376 8 -16 12 -34 10
-41 -7 -18 38 -103 61 -115 11 -6 26 -17 33 -24 9 -9 70 -12 233 -12 182 -1
223 2 235 14 8 9 15 20 15 26 0 13 -50 101 -62 109 -5 3 -10 14 -12 25 -5 24
-47 117 -55 124 -4 3 -13 37 -20 75 -8 39 -17 75 -22 81 -5 6 -4 39 3 75 6 35
11 71 12 80 1 9 24 40 52 68 27 29 51 57 52 62 2 5 9 9 17 9 7 0 34 9 61 21
27 11 58 24 69 29 31 13 151 31 238 35 43 3 82 7 87 10 4 2 45 -3 91 -12 66
-13 89 -23 111 -45 47 -48 56 -82 45 -178 -5 -47 -13 -94 -17 -105 -20 -48
-38 -114 -33 -119 4 -3 -1 -14 -9 -23 -18 -22 -58 -116 -58 -137 0 -8 -4 -16
-9 -18 -13 -5 -61 -104 -61 -126 0 -10 -4 -22 -10 -28 -6 -6 -5 -17 5 -32 15
-21 20 -21 249 -20 128 0 239 4 246 8 28 18 72 115 74 165 1 22 5 46 10 53 24
39 26 741 2 781 -4 6 -9 40 -11 77 -3 36 -8 71 -13 78 -5 6 -12 37 -15 68 -3
31 -13 73 -23 93 -9 19 -14 38 -11 41 7 7 -30 115 -43 128 -6 6 -10 19 -10 31
0 24 -37 107 -51 116 -6 3 -12 18 -13 32 -4 30 -53 117 -66 117 -6 0 -10 7
-10 17 0 23 -58 111 -82 124 -10 5 -16 14 -13 19 8 13 -166 191 -202 206 -18
8 -33 19 -33 24 0 16 -91 70 -116 70 -13 0 -26 5 -29 10 -9 15 -35 12 -81 -9z
m116 -482 c14 -11 33 -22 42 -25 10 -4 20 -16 24 -27 4 -12 25 -47 48 -77 22
-30 41 -59 41 -65 1 -15 45 -109 54 -115 4 -3 15 -45 24 -93 15 -80 15 -90 1
-112 -19 -28 -54 -38 -154 -41 -119 -3 -223 -13 -250 -23 -14 -5 -55 -13 -92
-16 -37 -4 -70 -11 -73 -16 -10 -15 -101 -11 -114 5 -20 24 -6 115 28 184 17
35 29 67 26 72 -3 5 -1 11 5 15 13 8 80 112 80 124 0 4 16 26 37 47 20 21 44
51 53 66 9 15 45 50 81 77 69 53 91 57 139 20z"/>
<path d="M4666 10411 c-4 -6 -18 -8 -31 -5 -29 7 -135 -14 -135 -27 0 -6 -8
-9 -17 -7 -20 5 -124 -37 -133 -53 -4 -5 -16 -11 -28 -14 -29 -5 -108 -60
-115 -80 -4 -8 -12 -15 -20 -15 -16 0 -97 -81 -97 -98 0 -6 -9 -16 -20 -22
-24 -13 -80 -93 -80 -114 0 -9 -4 -16 -10 -16 -13 0 -62 -87 -66 -117 -1 -14
-7 -29 -12 -32 -13 -8 -54 -112 -47 -119 3 -3 -1 -15 -9 -27 -7 -11 -19 -47
-25 -80 -7 -33 -17 -74 -22 -92 -18 -58 -24 -192 -21 -425 1 -26 6 -67 13 -90
6 -24 12 -62 14 -85 1 -23 10 -56 19 -74 9 -17 16 -40 16 -50 0 -24 29 -100
47 -120 7 -8 13 -23 13 -31 0 -19 46 -102 65 -118 8 -7 15 -17 15 -23 0 -17
73 -107 87 -107 8 0 17 -10 22 -22 10 -27 83 -88 104 -88 8 0 17 -7 20 -15 7
-18 99 -65 127 -65 11 0 20 -4 20 -10 0 -10 101 -43 122 -39 7 1 32 -3 54 -9
54 -16 267 -10 288 7 8 7 20 10 26 6 13 -8 109 23 133 43 9 8 20 13 23 9 9 -9
103 52 115 74 5 11 14 17 18 15 11 -7 94 80 97 101 2 10 8 19 14 21 16 6 60
98 60 126 0 13 4 26 10 28 36 12 33 314 -4 403 -14 32 -46 49 -46 24 0 -6 -14
-40 -31 -76 -17 -36 -32 -72 -33 -80 -1 -8 -7 -18 -13 -21 -5 -4 -31 -31 -58
-61 -60 -68 -164 -123 -245 -128 -30 -2 -67 -8 -83 -14 -18 -8 -31 -8 -40 -2
-11 9 -70 22 -123 26 -11 1 -27 7 -35 13 -8 7 -39 25 -69 41 -49 26 -180 140
-180 157 0 4 -18 34 -40 67 -22 33 -40 65 -40 71 0 16 -33 122 -40 128 -4 3
-7 36 -9 74 -1 39 -6 75 -11 81 -6 8 -6 33 1 70 6 33 8 72 5 87 -3 16 -2 37 4
46 14 27 31 112 24 123 -3 6 0 18 8 27 17 20 58 118 58 138 0 8 4 14 9 14 4 0
27 27 49 61 54 79 146 149 232 174 36 10 70 21 75 24 6 3 50 4 99 2 74 -3 97
-7 128 -27 58 -37 75 -57 82 -100 16 -90 17 -94 51 -110 37 -17 103 -12 140
10 11 7 32 16 46 19 29 7 89 69 89 91 0 8 7 27 15 42 17 33 20 120 4 129 -6 4
-8 14 -4 23 7 19 -42 122 -59 122 -7 0 -18 11 -24 24 -12 26 -96 89 -106 79
-3 -3 -14 2 -25 11 -24 22 -119 58 -132 50 -5 -3 -15 -1 -22 4 -20 16 -63 22
-181 29 -79 3 -116 2 -120 -6z"/>
<path d="M2157 10356 c-28 -23 -68 -111 -60 -134 3 -7 0 -18 -5 -25 -15 -18
-30 -119 -37 -249 -2 -37 -6 -72 -9 -77 -4 -5 -8 -82 -10 -170 -3 -88 -7 -164
-9 -168 -9 -15 -5 -768 4 -785 6 -10 5 -19 -1 -23 -6 -3 -8 -16 -5 -28 3 -12
7 -67 9 -122 7 -143 25 -298 36 -309 6 -6 10 -22 10 -37 0 -14 11 -38 24 -52
l24 -26 483 3 c292 2 508 7 544 14 73 13 125 31 125 43 0 5 10 9 22 9 28 0
118 60 118 78 0 8 9 16 20 19 22 6 80 88 80 113 0 10 6 23 14 29 14 12 36 87
36 126 1 11 3 48 6 83 3 35 3 71 -1 80 -4 9 -9 36 -10 59 -1 23 -12 61 -24 85
-11 25 -21 50 -21 56 0 23 -49 109 -65 115 -8 4 -15 14 -15 23 0 22 -61 103
-78 104 -7 0 -16 10 -21 23 -5 12 -31 42 -57 67 -43 39 -63 62 -130 143 -14
17 -11 23 36 76 27 33 50 64 50 70 0 6 6 11 13 11 16 0 73 69 87 104 5 15 14
26 20 26 10 0 62 95 65 120 1 8 7 28 13 43 25 59 7 269 -24 281 -8 3 -14 15
-14 26 0 26 -67 100 -91 100 -11 0 -22 7 -25 15 -6 16 -110 58 -124 50 -4 -2
-23 3 -41 12 -30 16 -83 18 -484 20 l-450 2 -28 -23z m756 -332 c48 -14 61
-23 71 -48 16 -39 26 -135 14 -142 -8 -5 -61 -103 -63 -114 0 -3 -27 -30 -60
-60 -33 -29 -64 -59 -68 -67 -4 -7 -14 -13 -21 -13 -12 0 -96 -57 -107 -73 -3
-4 -18 -14 -32 -22 -50 -26 -92 -50 -107 -61 -24 -18 -89 -5 -102 19 -11 21
-15 207 -5 224 3 4 9 42 13 83 4 41 10 77 13 80 3 3 20 33 36 68 27 56 37 67
96 101 52 30 76 38 122 40 31 1 67 5 79 10 13 5 32 5 43 1 11 -4 46 -16 78
-26z m-16 -839 c28 -25 56 -45 62 -45 6 0 11 -5 11 -11 0 -14 69 -111 87 -122
7 -4 13 -15 13 -22 0 -8 13 -43 29 -77 28 -61 29 -77 23 -188 -2 -26 -15 -50
-53 -94 -42 -49 -61 -63 -107 -78 -32 -10 -64 -22 -72 -26 -13 -7 -123 -16
-185 -15 -11 1 -50 9 -87 18 -59 16 -71 23 -97 61 -17 23 -31 47 -31 52 0 5
-6 15 -14 21 -7 6 -14 32 -15 59 0 26 -4 61 -9 77 -4 17 -7 73 -6 125 l2 95
43 33 c24 18 49 37 56 42 7 6 17 10 23 10 17 0 103 52 117 70 6 8 14 12 18 8
4 -3 31 7 62 23 30 16 60 29 67 29 6 0 34 -20 63 -45z"/>
<path d="M5748 10357 c-31 -26 -58 -87 -58 -133 0 -19 -4 -34 -9 -34 -12 0
-26 -100 -35 -242 -3 -38 -7 -72 -10 -77 -14 -22 -33 -1076 -20 -1111 3 -8 7
-83 8 -166 2 -83 6 -156 10 -162 3 -6 8 -42 11 -81 2 -38 8 -78 14 -88 5 -10
12 -30 16 -46 3 -15 14 -36 24 -46 17 -17 43 -19 437 -19 278 0 432 3 459 10
22 7 46 10 53 9 21 -4 122 29 122 39 0 6 10 10 23 10 25 0 117 54 130 76 4 8
14 14 21 14 17 0 86 75 86 94 0 7 10 20 23 29 12 8 33 39 46 68 14 30 35 77
48 105 14 29 25 67 25 85 0 19 4 39 8 44 4 6 10 21 14 35 9 35 19 399 11 419
-4 9 -8 47 -10 84 -2 37 -8 74 -15 82 -7 8 -10 21 -7 29 7 18 -17 121 -33 140
-6 9 -9 19 -6 24 7 12 -22 102 -40 123 -8 8 -14 26 -14 38 0 27 -38 103 -56
114 -8 4 -14 16 -14 26 0 21 -56 111 -69 111 -5 0 -13 10 -17 23 -10 31 -74
107 -90 107 -8 0 -19 11 -23 24 -10 24 -81 86 -99 86 -6 0 -15 6 -19 14 -12
20 -104 76 -125 76 -10 0 -18 4 -18 9 0 12 -98 51 -129 51 -15 0 -33 6 -39 13
-10 9 -88 13 -310 14 -293 2 -297 2 -324 -20z m605 -336 c26 -13 50 -27 53
-32 3 -5 14 -9 25 -9 10 0 19 -4 19 -9 0 -5 25 -34 55 -65 30 -30 55 -57 55
-60 0 -10 69 -115 80 -121 6 -4 8 -10 5 -15 -3 -4 9 -39 27 -77 17 -37 30 -72
29 -76 -1 -5 8 -40 20 -79 11 -39 23 -100 25 -135 2 -36 7 -69 10 -75 8 -12 8
-176 0 -273 -3 -38 -14 -97 -26 -129 -11 -33 -20 -68 -20 -78 0 -10 -8 -28
-19 -39 -10 -11 -30 -44 -46 -74 -15 -30 -31 -55 -36 -55 -8 0 -99 -65 -109
-79 -11 -14 -174 -41 -184 -31 -5 5 -16 10 -23 10 -8 0 -30 7 -51 17 -20 9
-41 17 -46 17 -5 1 -12 8 -15 16 -3 8 -24 42 -46 75 -22 33 -38 64 -37 68 1 4
-5 34 -14 65 -9 31 -20 93 -26 137 -9 80 -14 777 -5 792 2 4 10 40 17 78 6 39
26 99 43 135 17 36 31 68 31 73 1 9 52 37 85 46 40 11 74 6 124 -18z"/>
<path d="M7671 10350 c-12 -16 -26 -53 -32 -82 -6 -29 -15 -68 -20 -85 -6 -18
-14 -63 -19 -100 -5 -38 -14 -92 -20 -122 -6 -29 -9 -60 -5 -68 3 -9 1 -21 -4
-27 -5 -6 -15 -54 -21 -106 -6 -52 -16 -133 -22 -180 -5 -47 -11 -108 -13
-137 -2 -28 -6 -61 -10 -73 -4 -12 -9 -54 -11 -94 -3 -39 -9 -116 -15 -171 -5
-55 -12 -244 -14 -420 -6 -369 3 -484 42 -515 21 -17 64 -18 696 -18 371 0
679 3 685 7 23 14 16 84 -14 146 -16 33 -28 63 -26 67 3 11 -46 116 -57 123
-6 3 -11 15 -11 26 0 26 -47 119 -60 119 -6 0 -15 12 -20 26 -8 20 -14 24 -33
19 -32 -10 -87 -45 -87 -56 0 -5 -7 -9 -15 -9 -20 0 -131 -56 -140 -70 -3 -6
-10 -8 -14 -6 -3 3 -38 -5 -76 -16 -43 -12 -93 -19 -130 -17 -33 1 -71 2 -85
1 -14 0 -27 3 -30 6 -3 4 -33 21 -68 37 -56 27 -65 36 -93 90 -18 33 -35 62
-38 65 -4 3 -12 45 -18 93 -9 75 -8 97 8 154 10 37 16 70 13 74 -2 4 21 33 51
65 30 33 55 62 55 67 0 4 6 7 13 7 6 0 43 13 82 28 58 24 76 27 108 20 21 -5
55 -10 75 -12 20 -2 54 -10 74 -20 53 -23 79 -24 89 -3 5 9 14 25 19 35 23 39
52 108 54 129 1 12 7 28 13 35 18 21 53 120 47 130 -3 5 2 18 11 28 9 10 19
36 22 58 4 32 2 42 -13 50 -11 6 -21 10 -24 9 -3 0 -22 6 -44 13 -23 7 -54 10
-80 5 -22 -3 -59 -8 -80 -11 -55 -6 -114 -23 -121 -34 -3 -6 -16 -10 -28 -10
-27 0 -107 -29 -128 -47 -9 -8 -20 -13 -25 -11 -5 1 -26 -1 -46 -5 -47 -10
-90 10 -94 44 -2 13 -7 49 -12 79 -6 30 -6 61 -1 70 4 8 16 42 25 75 14 50 28
70 78 120 33 33 65 60 71 60 5 1 37 9 70 20 57 18 245 29 245 14 0 -5 29 -14
118 -36 13 -3 34 -15 47 -27 13 -12 39 -31 58 -41 l34 -18 34 34 c19 19 42 54
53 79 10 25 22 52 27 60 32 55 67 128 63 133 -3 3 3 18 15 34 28 40 35 74 17
98 -14 20 -27 20 -594 22 l-579 2 -22 -29z"/>
<path d="M9429 10361 c-11 -9 -21 -23 -22 -33 -2 -9 -8 -22 -14 -29 -16 -21
-34 -84 -35 -121 0 -18 -5 -38 -10 -45 -6 -7 -11 -44 -13 -82 -1 -38 -5 -73
-8 -78 -16 -26 -30 -437 -30 -868 1 -505 2 -563 14 -570 5 -4 7 -22 3 -42 -9
-49 29 -283 47 -283 5 0 11 -11 15 -25 3 -13 13 -26 22 -29 10 -3 112 -5 228
-5 l211 0 12 25 c11 26 -2 119 -20 138 -5 6 -9 24 -9 41 0 17 -7 55 -15 85 -8
30 -17 81 -20 113 -3 32 -9 66 -14 75 -5 9 -9 50 -10 91 -1 40 -4 77 -6 82 -3
4 0 39 6 76 6 37 12 75 13 84 1 20 96 149 109 149 6 0 40 12 76 26 65 26 83
28 211 20 14 -1 38 -7 53 -14 70 -30 107 -23 107 19 0 11 4 19 9 19 10 0 43
89 47 128 1 13 6 28 11 35 13 17 33 90 33 120 0 14 4 28 9 31 5 3 12 22 16 42
9 48 -16 78 -57 69 -19 -5 -28 -3 -28 6 0 9 -15 10 -57 4 -32 -4 -80 -9 -108
-11 -61 -5 -122 -21 -130 -34 -3 -6 -15 -10 -27 -10 -11 0 -48 -13 -82 -29
-69 -32 -137 -45 -180 -33 -27 7 -30 13 -33 58 -2 27 -8 62 -13 78 -7 19 -6
42 0 65 5 20 11 56 12 81 3 34 15 63 51 118 27 39 52 72 57 72 4 0 36 16 70
35 34 19 68 34 74 33 6 -1 43 1 81 5 47 5 92 2 135 -7 36 -8 69 -12 73 -9 5 3
16 -2 25 -9 26 -22 113 -68 129 -68 7 0 16 -7 19 -15 11 -27 43 -16 69 22 14
21 25 45 25 54 0 9 7 22 16 30 21 17 66 107 59 119 -3 4 2 15 10 24 26 25 55
99 55 139 0 30 -5 39 -23 46 -13 5 -294 9 -625 9 -543 0 -605 -2 -623 -17z"/>
<path d="M885 7682 c-16 -2 -36 -8 -42 -14 -7 -6 -19 -8 -28 -5 -18 8 -115
-20 -136 -39 -9 -8 -18 -11 -21 -8 -9 8 -89 -34 -120 -63 -14 -14 -30 -24 -35
-24 -13 3 -92 -63 -93 -77 0 -7 -11 -17 -24 -21 -22 -9 -91 -86 -91 -103 0 -4
-7 -13 -16 -20 -26 -21 -81 -107 -74 -117 3 -6 -1 -13 -9 -18 -18 -10 -66
-107 -66 -132 0 -11 -4 -21 -9 -23 -12 -5 -52 -118 -45 -129 3 -6 0 -16 -6
-25 -17 -19 -40 -122 -33 -141 3 -8 0 -18 -6 -23 -8 -4 -14 -37 -15 -81 -2
-41 -7 -81 -10 -90 -9 -21 0 -273 13 -364 5 -39 15 -84 22 -100 7 -17 13 -42
14 -58 2 -15 14 -51 27 -80 14 -28 35 -76 48 -105 14 -30 33 -60 43 -67 10 -7
19 -19 21 -27 3 -24 67 -99 93 -109 13 -5 22 -13 19 -17 -7 -11 86 -82 107
-82 9 0 20 -6 24 -14 11 -19 112 -68 124 -60 6 3 18 -1 27 -9 17 -14 110 -40
128 -36 5 1 27 -3 49 -9 32 -9 223 -11 305 -2 58 5 140 24 140 31 0 5 11 9 24
9 32 0 119 38 129 56 4 8 17 14 28 14 38 0 189 168 189 211 0 9 7 31 16 49 19
37 25 144 13 235 -5 33 -10 89 -13 125 -9 127 -17 195 -27 235 -6 21 -12 62
-14 90 -2 27 -9 64 -16 80 -7 17 -11 36 -10 43 3 17 -26 62 -40 62 -5 0 -26
-8 -47 -17 -20 -9 -44 -17 -53 -18 -32 -4 -119 -37 -119 -46 0 -5 -9 -9 -20
-9 -28 0 -126 -38 -140 -55 -7 -8 -16 -12 -21 -9 -11 6 -99 -43 -99 -55 0 -18
115 -120 150 -133 8 -3 28 -38 43 -77 24 -64 26 -78 18 -119 -15 -73 -34 -120
-51 -126 -14 -6 -72 -44 -98 -67 -7 -6 -34 -13 -60 -15 -26 -3 -62 -9 -80 -14
-23 -6 -54 -4 -100 5 -37 8 -75 15 -85 15 -10 0 -23 5 -30 11 -11 10 -60 42
-99 65 -10 6 -32 37 -49 70 -17 32 -38 66 -46 75 -7 9 -13 20 -11 25 2 10 -21
114 -29 127 -4 7 -11 94 -15 177 -1 40 10 188 15 197 3 5 8 36 11 69 3 32 15
86 27 119 12 33 22 67 23 75 1 8 17 44 36 80 18 36 35 71 36 78 1 7 11 20 23
30 11 9 36 37 57 62 20 25 39 44 43 43 3 -1 13 4 21 12 8 7 31 20 50 30 18 10
40 24 48 31 7 8 17 12 22 9 4 -3 39 1 76 9 60 13 77 13 148 -2 66 -13 85 -21
106 -45 35 -42 57 -89 58 -127 0 -17 9 -41 18 -51 16 -17 27 -19 82 -14 35 3
78 11 95 19 46 19 114 85 130 126 18 45 17 198 -1 209 -7 4 -14 18 -17 30 -5
25 -15 40 -54 83 -13 15 -28 25 -32 22 -4 -2 -13 5 -19 16 -12 23 -99 70 -130
70 -11 0 -20 4 -20 9 0 11 -117 44 -131 36 -5 -4 -16 -2 -24 5 -13 11 -203 21
-260 12z"/>
<path d="M2497 7674 c-2 -3 -99 -5 -214 -5 l-210 -1 -16 -28 c-10 -15 -17 -40
-17 -54 0 -14 -4 -26 -9 -26 -9 0 -35 -107 -30 -125 1 -5 -3 -28 -9 -50 -6
-22 -13 -67 -16 -100 -2 -33 -6 -67 -9 -75 -9 -23 -28 -267 -31 -385 -1 -38
-5 -76 -9 -82 -9 -14 -9 -22 -10 -508 -1 -336 7 -588 20 -609 4 -6 6 -23 5
-39 -4 -44 17 -108 41 -128 19 -15 47 -17 245 -17 l223 0 14 28 c13 24 12 33
-5 79 -11 28 -24 59 -29 69 -12 23 -41 147 -47 197 -2 22 -8 63 -13 90 -5 28
-9 81 -10 119 -1 39 -4 73 -7 77 -2 4 3 36 13 71 9 34 17 70 18 78 1 15 11 28
68 95 15 18 27 37 27 41 1 5 28 23 62 39 34 17 66 35 72 40 13 12 136 45 186
50 114 11 167 8 233 -16 68 -24 69 -24 89 -79 14 -41 20 -84 21 -168 1 -61 -1
-113 -5 -115 -4 -1 -9 -35 -12 -75 -3 -39 -8 -77 -12 -83 -11 -18 -33 -123
-27 -132 2 -4 0 -14 -6 -21 -17 -20 -43 -98 -43 -128 1 -16 -3 -28 -7 -28 -11
0 -47 -103 -56 -156 -10 -67 -5 -69 254 -71 216 -1 270 4 255 28 -3 6 1 18 9
27 21 23 29 78 43 297 8 120 9 767 1 880 -15 220 -19 260 -28 272 -6 6 -8 20
-5 30 3 10 1 43 -5 73 -5 30 -12 69 -13 85 -6 58 -19 130 -25 140 -3 6 -7 27
-8 47 -1 20 -10 56 -19 80 -8 24 -16 50 -16 58 0 23 -29 113 -42 129 -6 8 -15
28 -21 45 l-10 31 -160 1 c-88 1 -183 5 -212 8 -32 4 -54 2 -58 -4 -4 -6 -15
-8 -26 -5 -40 13 -37 -45 5 -108 14 -20 24 -37 21 -37 -7 0 46 -115 56 -121 5
-3 12 -18 15 -34 3 -16 17 -53 32 -84 14 -31 27 -60 27 -66 2 -28 29 -125 35
-125 4 0 8 -38 9 -85 2 -83 1 -86 -24 -95 -14 -5 -113 -12 -219 -14 -113 -2
-202 -9 -214 -15 -11 -6 -33 -11 -49 -11 -31 0 -114 -35 -125 -52 -11 -19 -57
7 -69 39 -6 16 -15 35 -19 43 -4 9 -3 45 2 80 5 36 6 74 4 84 -3 11 -1 25 4
30 4 6 14 40 20 76 7 36 16 74 21 85 13 34 32 99 35 121 1 11 7 29 13 40 19
34 41 96 41 117 0 11 7 29 16 38 9 10 17 35 18 55 1 29 -4 38 -21 44 -11 5
-23 7 -26 4z"/>
<path d="M4122 7673 c-44 -16 -95 -101 -94 -155 0 -15 -3 -30 -8 -33 -12 -8
-29 -123 -35 -243 -2 -39 -7 -76 -10 -82 -17 -28 -27 -1027 -12 -1285 10 -173
26 -309 37 -313 6 -2 10 -17 10 -34 0 -19 10 -39 29 -58 l28 -29 204 0 c267 0
256 -2 254 57 -3 67 -16 132 -27 132 -5 0 -8 10 -7 23 3 29 -11 129 -21 142
-4 6 -8 30 -9 54 0 24 -6 62 -12 85 -6 22 -12 61 -14 86 -8 141 -19 251 -25
255 -4 3 -5 36 -2 74 2 38 1 78 -3 88 -8 21 -9 336 -1 373 3 14 8 59 10 100 7
96 22 221 36 285 6 27 8 55 6 62 -3 7 1 25 9 40 8 16 17 56 21 88 4 33 10 65
14 70 9 12 32 108 29 121 -1 5 1 21 5 37 5 17 4 32 -3 41 -14 17 -77 30 -93
20 -12 -7 -283 -8 -296 -1 -4 2 -13 2 -20 0z"/>
<path d="M5291 7671 c-8 -5 -20 -7 -27 -4 -23 9 -34 -30 -22 -78 6 -24 16 -47
21 -50 5 -4 7 -14 4 -21 -6 -17 9 -103 24 -134 6 -11 9 -24 8 -30 -4 -13 11
-116 19 -128 3 -6 7 -40 9 -75 1 -36 5 -72 9 -80 4 -9 8 -38 9 -66 2 -27 5
-77 8 -110 18 -189 27 -668 13 -682 -3 -4 -6 -36 -6 -71 0 -36 -8 -105 -17
-154 -19 -101 -31 -115 -106 -119 l-47 -3 -47 70 c-27 39 -53 79 -59 89 -21
37 -41 41 -69 15 -14 -13 -25 -29 -25 -36 0 -7 -11 -30 -25 -50 -14 -20 -30
-55 -36 -78 -6 -23 -18 -55 -25 -73 -8 -17 -19 -66 -24 -109 -9 -68 -8 -81 8
-108 10 -17 30 -37 45 -44 15 -7 27 -17 27 -22 0 -12 67 -55 100 -64 14 -4 41
-15 60 -23 60 -28 256 -37 284 -14 8 7 20 10 26 6 29 -18 227 133 234 178 1
10 7 22 13 25 17 11 65 113 59 127 -3 8 1 19 9 25 13 11 33 81 40 137 2 16 9
51 15 78 6 28 9 62 6 77 -3 15 -1 30 3 33 13 7 12 777 -1 792 -5 7 -6 18 -2
24 4 7 6 40 4 73 -1 34 -4 95 -6 136 -12 276 -26 402 -46 427 -5 7 -7 17 -4
22 10 16 -20 78 -44 91 -11 6 -30 8 -42 4 -25 -8 -321 -7 -347 0 -9 3 -22 2
-30 -3z"/>
<path d="M6628 7674 c-3 -2 -78 -5 -168 -6 l-162 -2 -25 -38 c-14 -20 -26 -50
-27 -65 -1 -16 -7 -37 -13 -49 -13 -23 -34 -159 -38 -246 -2 -31 -6 -65 -9
-76 -4 -10 -8 -86 -11 -169 -2 -82 -6 -156 -9 -164 -6 -17 0 -903 7 -1014 13
-203 17 -239 27 -249 5 -5 10 -22 10 -38 0 -43 31 -98 60 -106 14 -4 109 -7
211 -7 212 0 225 4 215 64 -3 20 -10 72 -16 115 -5 44 -15 85 -21 92 -6 8 -9
20 -6 27 5 13 -9 108 -20 137 -3 8 -7 46 -9 84 -2 38 -9 75 -14 81 -11 13 2
101 19 134 6 10 7 22 3 26 -4 3 1 13 11 20 10 7 36 36 57 65 21 28 62 69 92
90 29 22 58 44 65 50 7 5 18 10 26 10 16 0 107 -95 108 -112 0 -7 14 -35 30
-63 32 -56 30 -50 54 -125 10 -30 24 -65 32 -78 7 -12 11 -27 8 -32 -3 -5 2
-35 10 -67 9 -32 19 -76 21 -98 2 -22 8 -67 14 -100 5 -33 11 -111 13 -173 3
-90 7 -116 20 -130 16 -15 44 -17 238 -18 275 -2 260 -10 254 138 -7 166 -20
264 -37 285 -5 7 -7 16 -4 21 7 12 -25 132 -35 132 -5 0 -9 11 -9 25 0 29 -27
103 -47 126 -7 8 -13 23 -13 33 0 20 -36 94 -58 119 -9 10 -17 25 -18 33 -4
24 -54 105 -70 111 -8 3 -14 12 -14 20 0 20 -57 100 -79 113 -10 5 -21 20 -24
33 -4 12 -27 44 -52 70 -25 26 -45 52 -45 57 0 11 66 111 79 120 16 12 81 98
81 108 0 6 6 15 14 19 17 10 77 91 80 108 1 7 14 27 30 46 16 18 35 49 43 69
9 19 19 42 24 50 24 38 59 123 54 128 -3 3 1 15 8 26 19 30 28 70 33 154 4 71
4 72 -23 83 -15 5 -45 7 -68 3 -22 -4 -100 -6 -172 -6 -131 2 -133 1 -149 -23
-9 -14 -14 -28 -11 -31 3 -3 -3 -22 -13 -42 -11 -21 -25 -59 -32 -87 -7 -27
-15 -52 -19 -55 -9 -7 -50 -101 -55 -124 -2 -11 -8 -22 -12 -25 -15 -10 -75
-121 -65 -121 4 0 1 -6 -8 -13 -23 -18 -79 -103 -79 -121 0 -8 -6 -19 -14 -23
-15 -8 -86 -97 -86 -108 0 -3 -24 -30 -52 -61 -29 -31 -52 -60 -50 -65 1 -5
-6 -12 -15 -16 -10 -4 -31 -17 -46 -29 -23 -19 -31 -21 -46 -12 -15 9 -19 26
-21 87 -2 42 -2 85 -2 96 8 143 10 172 16 185 3 8 8 42 10 75 2 33 6 67 9 75
12 31 29 132 23 137 -3 4 -2 11 3 17 14 18 42 126 35 137 -3 6 1 18 10 27 23
27 31 95 12 111 -8 7 -21 11 -28 8 -7 -2 -20 -1 -29 4 -9 5 -19 6 -21 3z"/>
<path d="M8205 7648 c-18 -22 -50 -126 -41 -135 2 -2 -2 -20 -10 -40 -9 -19
-17 -58 -20 -87 -2 -28 -11 -80 -19 -116 -8 -36 -12 -73 -9 -83 3 -10 1 -24
-6 -31 -6 -8 -12 -45 -14 -84 -2 -38 -7 -75 -11 -81 -4 -7 -8 -43 -10 -81 -1
-37 -6 -73 -10 -79 -3 -6 -8 -44 -10 -84 -1 -40 -5 -79 -9 -87 -7 -18 -19
-172 -20 -257 0 -35 -4 -63 -9 -63 -5 0 -8 -35 -6 -77 1 -43 -1 -85 -5 -93 -3
-8 -4 -76 -2 -150 3 -74 7 -211 9 -305 2 -93 5 -179 6 -190 4 -38 24 -64 55
-74 19 -6 262 -9 628 -8 516 2 599 4 612 17 13 13 13 27 5 90 -6 41 -17 88
-25 104 -7 16 -11 32 -9 37 7 10 -14 96 -29 124 -5 11 -11 35 -13 54 -3 47
-60 161 -80 161 -22 0 -81 -38 -93 -61 -6 -10 -16 -19 -21 -19 -11 0 -83 -52
-104 -74 -10 -11 -93 -45 -132 -53 -13 -3 -23 -8 -23 -12 0 -9 -183 -1 -190 8
-3 3 -31 24 -62 45 -32 22 -58 44 -58 50 0 13 -42 119 -50 126 -4 3 -7 34 -8
69 -2 35 -6 71 -11 80 -5 9 -6 51 -2 94 4 43 3 81 -1 83 -5 3 -4 13 2 23 5 10
10 49 11 87 0 38 5 85 10 106 5 20 11 58 12 85 2 26 6 55 10 63 12 31 25 112
20 131 -3 10 -1 19 4 19 11 0 33 87 33 131 0 16 4 29 8 29 8 0 37 92 37 120 1
8 4 20 7 25 15 24 48 122 48 142 0 12 4 23 8 25 9 3 52 105 52 122 0 6 11 34
25 61 29 60 30 83 6 112 -17 21 -25 21 -243 22 -217 0 -225 -1 -243 -21z"/>
<path d="M9673 7638 c-33 -23 -73 -99 -73 -138 0 -12 -5 -30 -10 -41 -6 -10
-13 -47 -15 -81 -3 -35 -10 -85 -15 -112 -6 -27 -10 -67 -10 -90 -1 -23 -3
-77 -6 -121 -3 -44 -7 -154 -10 -245 -12 -498 -14 -603 -7 -613 4 -7 6 -81 5
-165 -1 -85 1 -159 5 -165 4 -7 6 -42 4 -79 -1 -37 1 -73 5 -80 5 -7 9 -40 10
-74 1 -34 9 -75 18 -91 8 -17 13 -33 10 -36 -9 -8 24 -65 44 -76 21 -11 379
-12 408 -1 12 5 24 21 27 38 6 28 -12 116 -29 144 -5 7 -9 27 -10 43 0 17 -8
55 -16 85 -20 67 -35 147 -50 263 -6 48 -13 87 -17 87 -3 0 -7 34 -8 75 -1 41
-5 80 -9 86 -8 13 -14 132 -13 241 0 43 -2 82 -6 88 -8 14 -10 189 -1 197 3 3
6 39 6 79 0 40 4 83 9 96 31 81 46 108 57 108 15 0 110 -108 107 -120 -3 -12
46 -118 58 -125 5 -4 9 -16 9 -29 0 -13 13 -49 29 -82 16 -32 31 -71 35 -86 3
-14 16 -48 28 -75 12 -26 23 -59 24 -73 2 -14 12 -50 22 -80 11 -30 25 -82 32
-115 7 -33 18 -68 25 -79 8 -10 11 -24 8 -32 -7 -18 27 -117 43 -127 8 -4 14
-16 14 -26 0 -43 63 -73 158 -73 31 0 71 28 84 60 5 15 14 34 18 42 4 9 13 43
20 75 6 33 18 86 26 118 9 32 16 73 16 90 0 18 4 37 8 42 13 17 39 118 34 127
-3 5 -1 14 4 21 17 20 54 126 48 136 -3 5 0 14 8 20 8 6 24 40 36 74 12 34 38
92 56 128 19 37 34 72 34 79 0 14 93 110 107 110 17 0 60 -117 61 -165 6 -265
3 -423 -14 -625 -11 -147 -15 -180 -24 -215 -5 -22 -10 -59 -10 -82 0 -23 -5
-54 -11 -70 -6 -15 -12 -50 -15 -78 -2 -27 -11 -75 -19 -105 -9 -30 -16 -68
-17 -85 0 -16 -4 -34 -8 -40 -4 -5 -13 -33 -19 -62 -14 -56 -6 -84 27 -102 9
-5 111 -9 227 -9 275 0 269 -4 305 198 6 36 11 83 12 105 2 124 6 203 11 211
8 14 6 943 -3 949 -4 2 -5 36 -2 74 2 38 1 78 -3 88 -4 10 -8 50 -10 88 -5
137 -14 227 -26 241 -6 8 -9 20 -6 28 7 18 -17 121 -33 140 -6 9 -9 19 -6 24
3 5 -4 23 -15 40 -23 38 -65 58 -85 41 -9 -7 -18 -8 -26 -2 -20 15 -113 16
-136 2 -16 -10 -23 -10 -36 0 -19 16 -90 6 -126 -17 -14 -9 -28 -16 -31 -15
-9 3 -99 -77 -99 -87 0 -5 -22 -32 -50 -61 -27 -29 -50 -58 -50 -66 0 -7 -9
-21 -21 -31 -28 -23 -79 -97 -79 -115 0 -8 -6 -17 -13 -20 -8 -3 -26 -31 -42
-64 -15 -32 -32 -65 -37 -73 -41 -75 -58 -112 -58 -129 0 -26 -32 -37 -45 -15
-5 9 -20 32 -33 51 -13 20 -21 38 -18 40 6 7 -50 119 -64 128 -5 3 -10 14 -10
23 0 10 -15 40 -34 67 -19 28 -44 69 -56 92 -12 24 -34 56 -50 73 -16 17 -32
40 -35 51 -4 12 -38 52 -75 89 -70 70 -112 90 -158 76 -11 -4 -23 -3 -26 3 -8
12 -118 11 -134 -2 -9 -7 -16 -7 -24 1 -21 21 -110 14 -145 -10z"/>
<path d="M2630 4998 c-19 -5 -39 -14 -44 -19 -6 -5 -19 -9 -30 -9 -23 0 -106
-47 -123 -69 -6 -9 -15 -16 -20 -16 -17 0 -95 -68 -104 -91 -4 -13 -14 -24
-21 -24 -14 -1 -83 -84 -83 -100 0 -5 -7 -15 -16 -22 -21 -16 -69 -94 -74
-119 -2 -10 -13 -28 -23 -39 -11 -12 -28 -42 -37 -68 -10 -26 -31 -75 -47
-110 -16 -35 -27 -70 -24 -77 3 -8 -1 -20 -8 -28 -15 -15 -50 -126 -42 -134 3
-3 -1 -18 -10 -34 -8 -16 -17 -57 -21 -91 -3 -35 -10 -71 -14 -80 -35 -68 -24
-608 12 -608 5 0 8 -10 7 -22 -2 -31 30 -124 48 -138 7 -7 14 -19 14 -28 0
-23 48 -100 70 -112 11 -6 20 -16 20 -23 0 -17 70 -83 97 -91 11 -4 24 -13 27
-21 6 -17 103 -68 116 -60 4 3 14 -1 22 -8 15 -15 71 -29 188 -47 90 -14 524
-8 543 8 6 5 24 10 38 10 35 -1 129 31 129 43 0 5 8 9 17 9 24 0 123 62 123
77 0 7 6 13 13 13 18 0 93 80 102 108 3 12 10 22 15 22 13 0 70 102 63 113 -3
4 2 16 10 25 18 21 49 121 41 134 -3 5 -1 15 5 22 40 48 31 583 -11 633 -5 7
-8 19 -5 27 7 18 -17 121 -32 139 -6 8 -8 16 -5 19 7 8 -22 106 -36 124 -6 7
-13 25 -15 41 -3 25 -30 91 -54 133 -5 8 -19 39 -32 68 -13 29 -29 57 -37 61
-7 4 -14 14 -15 22 -4 26 -57 108 -77 119 -11 6 -20 18 -20 26 0 23 -164 183
-205 200 -19 8 -35 18 -35 23 0 12 -100 55 -125 53 -11 -1 -23 4 -27 11 -9 15
-199 19 -248 5z m200 -461 c25 -12 63 -41 85 -66 22 -25 51 -57 65 -71 13 -14
25 -29 25 -35 1 -16 55 -115 63 -115 4 0 13 -23 19 -51 7 -28 20 -65 29 -82 8
-18 17 -43 19 -57 2 -14 9 -45 15 -70 21 -79 30 -161 36 -315 6 -137 4 -156
-16 -215 -12 -36 -23 -72 -25 -82 -5 -21 -115 -132 -135 -134 -8 -1 -42 -12
-75 -24 -47 -17 -83 -21 -165 -22 -58 0 -125 5 -149 10 -25 6 -48 9 -53 6 -4
-3 -36 13 -71 34 -34 21 -71 42 -81 45 -11 4 -16 10 -13 13 3 3 -8 24 -24 47
-16 22 -29 46 -29 54 0 7 -4 13 -9 13 -5 0 -12 33 -16 73 -4 39 -11 77 -16 82
-4 6 -4 42 2 80 5 38 7 75 4 83 -2 7 -1 32 5 55 5 23 10 60 11 82 1 22 8 60
16 84 7 23 15 59 17 80 1 20 13 59 25 86 12 28 25 64 28 80 3 17 11 37 18 45
20 26 57 94 61 113 1 10 12 26 23 35 11 9 36 37 56 61 44 54 148 113 185 105
14 -3 45 -15 70 -27z"/>
<path d="M6306 5002 c-3 -5 -26 -9 -51 -10 -25 0 -64 -9 -87 -19 -24 -11 -67
-30 -96 -44 -30 -13 -60 -32 -67 -42 -7 -10 -20 -20 -29 -21 -21 -3 -86 -65
-97 -93 -5 -13 -14 -23 -21 -23 -16 0 -78 -89 -78 -112 0 -9 -6 -21 -14 -25
-18 -10 -67 -113 -59 -125 3 -5 -2 -17 -10 -26 -18 -20 -46 -112 -40 -129 2
-6 -3 -22 -11 -35 -15 -23 -35 -138 -44 -253 -9 -105 -9 -398 -1 -455 5 -30
13 -89 19 -130 6 -41 18 -85 26 -98 8 -12 12 -26 10 -31 -8 -12 34 -131 45
-131 5 0 9 -9 9 -21 0 -23 47 -110 67 -122 7 -4 13 -14 13 -21 0 -19 71 -106
87 -106 7 0 17 -9 21 -19 9 -25 92 -91 115 -91 9 0 17 -5 17 -10 0 -12 97 -60
121 -60 9 0 30 -7 48 -16 18 -9 57 -17 86 -18 30 -1 57 -5 61 -9 12 -11 122
-8 130 4 3 6 17 8 31 4 29 -7 133 14 133 27 0 4 12 8 26 8 29 0 124 38 124 50
0 5 15 13 33 19 18 6 48 26 66 45 l32 33 57 -53 c31 -30 59 -54 63 -54 4 0 33
-25 64 -55 32 -30 64 -55 71 -55 8 0 14 -6 14 -13 0 -14 40 -37 64 -37 31 0
47 37 53 123 4 53 2 91 -4 99 -6 7 -11 27 -11 43 -1 35 -30 115 -42 115 -4 0
-13 13 -18 30 -14 38 -72 111 -84 104 -20 -13 -25 42 -6 85 10 24 16 46 13 49
-3 3 1 15 9 27 18 27 46 121 39 129 -3 3 2 21 11 41 9 19 19 59 21 88 3 28 9
71 15 94 13 56 6 409 -9 427 -6 7 -9 26 -6 42 3 16 -1 54 -10 84 -8 30 -17 69
-19 85 -7 53 -26 115 -37 115 -6 0 -9 8 -7 18 3 24 -34 123 -49 129 -7 3 -13
14 -13 24 0 24 -56 115 -75 123 -8 3 -15 12 -15 21 0 20 -78 105 -96 105 -8 0
-14 6 -14 13 0 15 -90 77 -112 77 -9 0 -20 5 -24 11 -11 18 -92 50 -127 51
-18 1 -35 6 -39 11 -8 13 -284 21 -292 9z m237 -410 c49 -14 69 -27 115 -77
31 -33 57 -62 57 -65 1 -12 39 -106 48 -117 5 -7 10 -25 11 -40 4 -36 16 -103
23 -123 16 -47 17 -489 0 -516 -5 -9 -21 -107 -22 -134 0 -8 -5 -23 -11 -34
-10 -17 -13 -17 -42 -2 -17 9 -36 16 -42 16 -6 0 -19 8 -30 18 -10 9 -40 28
-66 42 -44 24 -174 143 -174 160 0 14 -40 99 -50 105 -4 3 -20 0 -34 -6 -19
-9 -27 -23 -35 -58 -13 -64 -6 -194 13 -233 9 -17 16 -40 16 -50 0 -23 33 -90
57 -114 10 -10 18 -21 18 -25 0 -16 69 -91 91 -99 13 -5 24 -16 24 -24 0 -8 5
-16 12 -18 7 -3 -2 -11 -19 -20 -26 -13 -46 -14 -118 -6 -47 5 -94 15 -103 23
-9 8 -37 30 -61 50 -25 20 -58 61 -74 93 -17 31 -34 60 -39 63 -5 3 -11 20
-13 37 -4 35 -24 113 -33 126 -3 5 -7 40 -9 79 -2 38 -6 73 -9 78 -7 13 -8
300 0 319 3 8 7 44 9 80 1 36 5 70 8 75 10 17 33 119 30 134 -1 8 2 17 7 20
13 8 62 107 62 126 0 8 3 15 8 15 4 0 31 23 61 51 29 28 63 53 75 54 11 2 44
8 71 14 57 11 85 8 168 -17z"/>
<path d="M10054 4999 c-3 -6 -15 -9 -25 -6 -21 6 -113 -16 -132 -30 -7 -5 -31
-15 -54 -21 -22 -7 -56 -26 -74 -43 -19 -17 -39 -32 -47 -33 -17 -3 -92 -77
-92 -91 0 -7 -9 -20 -21 -31 -25 -23 -71 -109 -62 -118 3 -3 -1 -14 -10 -24
-20 -21 -40 -107 -31 -134 3 -10 0 -26 -7 -34 -8 -10 -9 -31 -4 -72 4 -31 9
-73 11 -92 5 -54 25 -118 40 -131 8 -6 14 -18 14 -26 0 -23 38 -73 113 -145
38 -38 78 -68 88 -68 11 0 22 -6 25 -14 3 -8 31 -27 62 -42 31 -15 64 -31 72
-36 41 -23 108 -50 133 -53 16 -2 34 -8 40 -13 19 -15 109 -42 119 -36 5 3 16
0 24 -7 18 -15 112 -59 126 -59 11 0 140 -107 137 -112 -1 -2 3 -13 10 -25 6
-12 16 -45 21 -72 8 -42 6 -56 -12 -93 -33 -69 -54 -89 -130 -125 -52 -25 -90
-36 -138 -39 -36 -3 -70 -7 -77 -9 -15 -5 -196 17 -203 25 -3 3 -32 16 -65 29
-120 48 -234 203 -264 361 -7 36 -18 68 -23 71 -6 4 -8 14 -5 22 3 9 0 21 -8
27 -11 9 -22 3 -54 -26 -23 -20 -41 -45 -41 -55 0 -11 -4 -19 -10 -19 -13 0
-52 -78 -55 -110 -1 -14 -8 -45 -14 -69 -17 -60 0 -244 24 -271 9 -10 14 -24
10 -29 -8 -14 44 -110 67 -122 10 -5 18 -15 18 -22 0 -16 82 -97 98 -97 6 0
16 -8 21 -19 6 -10 36 -31 68 -46 32 -16 67 -33 77 -38 40 -19 122 -44 134
-40 7 3 19 -1 27 -7 8 -7 45 -15 82 -17 38 -3 94 -7 126 -10 32 -3 65 -2 75 2
9 4 47 8 85 10 37 1 73 7 79 13 7 7 22 12 35 12 30 0 133 39 133 51 0 5 8 9
17 9 24 0 123 62 123 77 0 7 5 13 12 13 16 0 98 80 98 96 0 6 9 19 21 30 25
23 71 109 62 118 -3 3 1 14 9 23 30 34 42 105 42 253 0 121 -3 152 -19 185
-10 22 -19 47 -20 56 -3 24 -54 107 -70 113 -8 3 -15 11 -15 19 0 16 -81 97
-98 97 -7 0 -15 7 -19 15 -7 19 -86 75 -113 80 -11 2 -28 11 -37 21 -19 18
-97 54 -120 54 -8 0 -21 7 -29 15 -8 8 -40 22 -72 31 -31 9 -66 20 -77 25 -74
30 -100 39 -121 39 -12 0 -26 5 -29 10 -4 6 -30 22 -58 37 -52 27 -58 29 -77
32 -5 0 -10 8 -10 16 0 8 -4 15 -10 15 -15 0 -75 93 -77 120 -1 14 3 50 9 81
10 54 12 57 75 100 36 24 73 45 82 46 9 0 46 6 82 11 51 8 79 7 125 -5 32 -8
66 -15 74 -16 8 -1 43 -21 77 -44 34 -24 67 -43 72 -43 6 0 11 -6 11 -14 0
-24 86 -94 125 -102 33 -6 40 -3 76 32 21 21 39 44 39 51 0 6 6 16 14 20 20
11 66 94 66 119 0 12 7 27 15 34 8 7 15 29 15 50 0 31 -8 46 -42 82 -46 48
-100 88 -117 88 -5 0 -27 11 -47 25 -20 14 -55 30 -78 36 -23 6 -56 18 -73 26
-49 21 -153 34 -305 39 -91 3 -139 0 -144 -7z"/>
<path d="M11788 5004 c-3 -3 -34 -7 -69 -10 -35 -2 -86 -8 -114 -14 -27 -5
-78 -14 -112 -21 -35 -6 -63 -15 -63 -19 0 -5 -15 -8 -34 -8 -31 0 -82 -20
-146 -57 -25 -14 -65 -109 -54 -127 3 -5 0 -15 -6 -24 -17 -20 -39 -119 -33
-144 3 -11 1 -20 -5 -20 -11 0 -22 -52 -29 -130 -12 -139 0 -154 86 -109 33
18 76 46 94 63 18 17 50 40 71 51 22 11 52 32 67 48 15 15 32 27 39 27 13 0
89 37 110 54 16 13 94 33 145 38 l30 3 6 -85 c3 -47 2 -92 -2 -100 -13 -24
-28 -112 -22 -127 3 -7 1 -19 -5 -26 -9 -11 -17 -49 -27 -133 -2 -16 -9 -56
-15 -88 -6 -33 -8 -66 -5 -74 3 -8 1 -20 -4 -26 -10 -11 -20 -124 -26 -266 -1
-36 -4 -92 -5 -126 -2 -33 0 -66 4 -73 4 -6 2 -19 -4 -27 -9 -10 -11 -32 -6
-72 4 -31 9 -130 10 -219 2 -104 8 -168 15 -177 6 -7 9 -21 5 -29 -7 -21 15
-127 27 -127 5 0 9 -10 9 -23 0 -13 10 -33 23 -44 21 -20 32 -21 245 -20 248
1 262 4 262 60 0 18 -7 43 -16 55 -8 12 -13 26 -10 31 7 11 -25 124 -37 132
-6 4 -7 14 -4 21 6 17 -9 103 -25 135 -6 11 -8 25 -5 30 3 4 1 28 -4 53 -27
136 -40 335 -39 595 0 226 4 313 18 400 5 33 7 66 5 73 -3 7 -1 18 5 25 6 6
16 41 23 77 13 65 31 100 78 153 21 23 30 26 60 21 20 -3 53 -12 74 -20 20 -7
37 -11 37 -7 0 4 26 -18 58 -48 31 -31 65 -59 75 -62 9 -4 17 -13 17 -21 0
-18 59 -68 74 -63 6 2 16 13 22 25 6 12 18 30 26 39 24 27 58 100 58 123 0 11
4 20 9 20 13 0 40 86 46 147 5 48 2 55 -26 88 -17 19 -37 35 -44 35 -8 0 -20
7 -29 15 -20 21 -102 55 -131 55 -13 0 -26 4 -29 8 -6 9 -108 34 -122 30 -5
-1 -25 3 -44 10 -20 7 -65 15 -100 18 -92 8 -476 14 -482 8z"/>
<path d="M139 4967 c-7 -12 -18 -26 -25 -30 -16 -9 -46 -105 -38 -119 3 -5 1
-14 -4 -21 -13 -15 -34 -126 -26 -139 3 -5 1 -21 -4 -36 -12 -30 -22 -165 -27
-354 -2 -70 -6 -131 -8 -135 -10 -17 -5 -778 5 -790 7 -9 7 -17 -1 -26 -6 -8
-9 -16 -7 -18 2 -2 7 -64 11 -138 3 -74 9 -139 12 -144 3 -6 7 -36 8 -68 2
-34 9 -69 19 -83 9 -14 13 -31 11 -39 -3 -7 5 -25 18 -39 23 -25 24 -25 202
-26 99 0 185 4 191 9 17 14 3 171 -18 196 -6 7 -8 19 -5 26 5 13 -9 108 -20
137 -3 8 -7 46 -9 84 -2 39 -8 72 -12 75 -4 4 -8 29 -8 56 0 28 -3 84 -7 125
-12 139 -19 304 -19 490 -1 156 3 214 18 305 1 6 2 13 3 18 2 13 58 -21 79
-48 11 -14 25 -25 31 -25 6 0 12 -4 12 -10 3 -20 6 -26 37 -75 18 -27 39 -53
47 -58 9 -4 13 -12 10 -17 -6 -9 51 -110 69 -122 6 -4 11 -13 12 -20 0 -11 30
-71 63 -128 5 -8 21 -43 37 -77 15 -35 31 -63 36 -63 4 0 8 -9 8 -19 0 -24 37
-111 56 -132 8 -9 14 -20 12 -25 -3 -13 22 -85 39 -113 8 -13 16 -33 17 -45 4
-37 37 -126 47 -126 5 0 8 -10 7 -23 -2 -24 20 -115 32 -132 4 -5 10 -35 14
-65 4 -30 13 -68 20 -85 7 -16 17 -43 22 -60 15 -49 40 -55 239 -53 99 0 187
5 197 9 19 10 53 93 44 108 -4 5 -2 12 3 15 15 9 28 111 35 276 2 36 5 92 6
126 2 33 0 66 -4 73 -4 6 -3 18 3 25 10 12 8 639 -2 871 -2 50 -5 123 -5 163
-1 40 -4 78 -8 84 -4 7 -8 37 -9 67 -2 82 -24 233 -36 247 -6 7 -12 29 -14 48
-1 19 -12 51 -24 70 -26 41 -48 45 -236 45 -112 0 -133 -3 -153 -19 -21 -17
-21 -21 -11 -72 6 -29 15 -57 19 -63 4 -5 10 -38 14 -73 3 -35 11 -72 16 -83
6 -11 13 -47 15 -80 3 -33 9 -68 14 -77 4 -9 11 -50 15 -91 3 -40 9 -78 13
-84 3 -5 7 -37 9 -71 1 -33 5 -104 9 -156 10 -146 9 -290 -3 -302 -8 -8 -17 0
-32 26 -12 20 -26 36 -31 36 -5 0 -9 8 -9 19 0 23 -49 113 -67 124 -7 4 -13
15 -13 24 0 21 -59 123 -71 123 -5 0 -9 7 -9 16 0 21 -59 124 -71 124 -5 0 -9
7 -9 16 0 21 -57 116 -76 127 -8 4 -14 14 -14 22 0 19 -56 107 -75 118 -8 4
-15 15 -15 23 0 21 -55 100 -75 107 -8 4 -15 15 -15 25 0 10 -22 42 -50 71
-27 29 -50 56 -50 61 0 14 -94 90 -112 90 -9 0 -19 4 -23 9 -3 6 -68 10 -145
10 -134 0 -141 -1 -151 -22z"/>
<path d="M3992 4944 c-26 -25 -62 -112 -55 -132 3 -7 0 -18 -5 -25 -10 -12
-21 -68 -28 -136 -2 -20 -8 -81 -14 -136 -6 -55 -12 -163 -15 -240 -2 -77 -6
-147 -9 -155 -7 -17 1 -882 8 -1003 3 -44 8 -87 11 -98 4 -10 8 -47 9 -82 2
-35 8 -72 14 -83 6 -10 13 -31 17 -47 3 -15 14 -36 24 -46 17 -17 38 -19 247
-19 126 0 237 4 247 10 21 11 22 46 1 76 -8 12 -13 26 -9 32 6 10 -11 93 -26
126 -6 11 -9 24 -8 30 4 13 -12 117 -19 129 -6 10 -9 45 -13 170 -3 80 28 140
102 194 29 23 57 47 62 56 4 8 15 15 23 15 17 0 94 46 110 66 7 8 21 17 33 19
26 5 87 40 119 69 13 12 25 19 27 16 5 -7 105 52 105 61 0 4 20 17 44 28 24
12 60 37 79 56 20 19 40 35 44 35 13 0 89 82 96 103 4 9 12 17 19 17 11 0 33
29 86 115 27 44 62 127 57 135 -3 5 1 23 10 40 26 50 21 290 -6 290 -5 0 -9
12 -9 28 0 30 -43 112 -66 125 -8 4 -14 12 -14 18 0 13 -65 70 -104 91 -73 40
-120 58 -151 58 -19 0 -36 4 -39 9 -4 6 -208 9 -494 9 l-487 -1 -23 -23z m679
-304 c30 -6 70 -11 89 -12 19 -1 39 -5 45 -10 5 -5 35 -24 66 -43 44 -27 58
-42 64 -67 24 -109 24 -111 -2 -178 -14 -36 -33 -72 -43 -80 -10 -8 -37 -37
-60 -64 -23 -28 -59 -62 -79 -76 -20 -15 -51 -42 -68 -60 -18 -19 -33 -30 -33
-26 0 8 -89 -50 -105 -68 -5 -6 -47 -24 -91 -39 -70 -25 -85 -27 -103 -15 -34
21 -49 82 -42 171 4 43 3 81 -1 83 -5 3 -3 14 2 24 6 11 11 53 13 95 1 41 4
75 7 75 5 0 30 90 33 120 2 19 41 75 80 117 23 24 41 33 81 38 40 6 76 15 92
24 1 1 26 -4 55 -9z"/>
<path d="M7724 4961 c-9 -6 -23 -27 -49 -72 -8 -15 -19 -51 -24 -80 -6 -30
-15 -76 -21 -104 -6 -27 -8 -61 -5 -73 3 -13 1 -30 -5 -37 -10 -12 -14 -58
-25 -305 -3 -69 -7 -130 -10 -137 -2 -7 0 -15 5 -18 7 -4 6 -13 0 -25 -6 -12
-8 -183 -5 -482 4 -458 9 -609 21 -638 3 -8 7 -41 9 -72 1 -32 10 -69 19 -83
9 -13 16 -31 16 -40 0 -8 9 -24 19 -34 18 -18 34 -19 241 -18 184 2 222 4 230
17 11 18 3 72 -17 116 -8 17 -13 35 -11 40 3 15 -13 108 -22 119 -4 6 -11 44
-15 85 -3 41 -11 81 -17 87 -6 7 -8 19 -5 26 3 8 1 46 -3 87 -7 67 -6 76 17
119 14 25 31 56 37 68 6 13 14 23 18 23 8 0 111 62 118 71 3 3 21 9 40 11 37
6 120 -24 120 -43 0 -5 23 -39 50 -74 28 -36 48 -65 46 -65 -8 0 44 -111 59
-127 9 -8 13 -18 10 -23 -5 -9 23 -99 37 -117 5 -6 11 -25 13 -42 5 -35 25
-112 33 -125 3 -6 7 -42 9 -80 2 -39 8 -75 13 -80 4 -4 6 -23 3 -41 -8 -49 17
-54 270 -53 250 2 253 2 243 72 -3 23 -7 74 -10 115 -2 40 -9 78 -15 84 -6 6
-11 25 -11 41 0 43 -19 108 -37 128 -8 9 -12 21 -9 26 5 8 -25 83 -53 132 -4
8 -19 37 -32 64 -13 26 -34 58 -46 70 -13 11 -23 27 -23 34 0 16 -57 94 -76
105 -8 4 -14 14 -14 21 0 7 -25 39 -55 71 -30 31 -55 59 -55 61 0 3 -10 18
-21 33 -17 24 -20 34 -12 58 5 15 15 28 20 28 16 0 103 67 114 88 5 9 15 17
22 17 18 0 83 70 92 98 3 12 12 22 19 22 16 0 66 90 66 119 0 11 4 21 10 21
14 0 42 104 35 133 -4 14 -2 28 4 31 14 9 14 60 0 128 -19 95 -40 159 -55 165
-8 3 -14 13 -14 22 0 22 -67 101 -85 101 -8 0 -19 8 -24 18 -11 20 -109 77
-118 69 -3 -3 -23 4 -45 15 -25 13 -60 21 -94 22 -30 0 -54 4 -54 8 0 9 -874
8 -886 -1z m692 -325 c42 -2 75 -11 113 -32 29 -16 61 -33 71 -38 10 -5 24
-30 33 -55 18 -54 30 -151 18 -151 -4 0 -16 -18 -26 -40 -10 -22 -24 -45 -31
-51 -8 -6 -12 -14 -9 -18 2 -4 -23 -29 -55 -57 -32 -27 -59 -55 -59 -61 -1 -7
-5 -14 -11 -14 -20 -3 -26 -6 -77 -39 -29 -18 -53 -37 -53 -41 0 -5 -7 -9 -15
-9 -17 0 -117 -48 -125 -60 -3 -4 -28 -11 -55 -14 -43 -6 -54 -4 -74 13 -27
23 -31 46 -31 171 0 108 6 182 21 245 6 28 12 59 13 71 0 11 23 50 49 85 47
64 49 66 113 79 36 8 68 18 71 22 2 5 17 6 33 3 15 -3 54 -7 86 -9z"/>
<path d="M141 2287 c-6 -6 -11 -16 -11 -23 0 -6 -6 -17 -14 -23 -15 -13 -40
-103 -38 -136 0 -10 -3 -25 -9 -31 -5 -7 -12 -44 -14 -84 -3 -39 -7 -75 -10
-81 -6 -9 -9 -46 -22 -289 -18 -312 -1 -803 28 -821 6 -3 8 -15 5 -25 -7 -22
17 -118 34 -139 6 -8 9 -18 6 -24 -8 -12 29 -108 49 -128 8 -8 13 -19 10 -23
-7 -11 53 -120 66 -120 5 0 15 -15 22 -33 14 -32 79 -97 97 -97 6 0 10 -6 10
-14 0 -16 63 -61 108 -77 17 -6 32 -14 32 -19 0 -11 88 -43 119 -42 14 0 29
-5 33 -11 3 -6 39 -12 80 -13 40 -1 80 -5 89 -9 24 -9 237 23 273 41 17 9 42
18 56 20 30 6 90 41 108 63 7 9 17 16 22 16 16 0 100 76 100 90 0 8 9 19 20
25 20 11 73 93 77 119 1 8 6 17 12 20 10 7 56 108 57 126 0 6 8 27 17 48 10
20 20 59 24 85 3 26 10 52 14 58 10 12 24 112 39 274 6 58 8 260 5 455 -4 361
-10 478 -24 530 -5 17 -9 41 -9 55 -1 39 -13 93 -25 115 -6 11 -12 30 -13 42
-6 49 -73 110 -90 82 -4 -6 -10 -6 -18 0 -19 16 -286 12 -311 -5 -12 -8 -25
-11 -30 -7 -13 13 3 -98 18 -121 8 -12 15 -33 15 -46 0 -33 21 -112 34 -127 6
-7 8 -20 4 -29 -3 -8 0 -48 8 -87 24 -122 36 -264 36 -421 0 -56 5 -105 11
-112 6 -7 8 -18 5 -23 -6 -8 -16 -161 -20 -286 -1 -22 -4 -44 -7 -50 -7 -10
-21 -83 -24 -120 -1 -11 -14 -47 -29 -80 -16 -33 -30 -68 -31 -77 -2 -9 -12
-25 -22 -35 -10 -11 -34 -37 -53 -59 -28 -31 -53 -45 -115 -66 -48 -16 -92
-25 -110 -22 -67 11 -121 28 -136 43 -8 9 -33 32 -55 52 -34 30 -115 170 -119
204 -2 20 -28 120 -33 130 -3 5 -7 32 -9 59 -2 27 -7 65 -12 84 -6 19 -8 46
-5 61 3 15 1 52 -4 82 -5 30 -6 86 -2 124 4 39 3 75 -1 80 -4 6 -4 17 2 25 5
8 9 47 9 85 0 39 4 97 10 130 6 33 9 70 5 82 -3 12 -1 24 4 27 9 6 27 109 23
140 -1 10 2 24 7 30 12 16 34 116 27 123 -3 4 0 16 7 27 38 60 45 174 11 186
-32 12 -411 9 -423 -3z"/>
<path d="M2033 2289 c-29 -10 -63 -57 -63 -85 0 -13 -4 -24 -9 -24 -12 0 -33
-113 -25 -134 3 -9 1 -23 -6 -31 -10 -11 -13 -88 -14 -298 -1 -276 6 -412 24
-472 4 -16 11 -57 14 -90 4 -33 13 -70 22 -83 8 -12 12 -27 9 -32 -7 -12 26
-130 37 -130 4 0 8 -11 8 -25 0 -29 27 -103 47 -126 7 -8 13 -23 13 -33 0 -14
21 -59 59 -126 4 -8 17 -33 27 -55 10 -22 32 -54 48 -72 15 -18 25 -33 21 -33
-10 0 58 -91 80 -106 11 -8 20 -18 20 -22 0 -15 78 -102 92 -102 7 0 16 -7 20
-16 8 -22 73 -82 98 -90 11 -4 26 -15 32 -24 15 -22 102 -74 110 -66 3 3 14 1
25 -5 15 -8 31 -5 73 15 29 15 56 33 59 41 3 8 11 15 18 15 15 0 208 195 208
210 0 6 17 27 39 49 21 21 47 57 57 80 10 22 21 41 25 41 11 0 69 95 69 112 0
9 7 21 16 29 19 15 65 104 58 112 -3 2 5 20 18 39 13 19 29 54 37 79 7 24 18
53 23 63 20 38 45 121 40 135 -2 7 0 16 6 20 13 8 42 119 35 137 -3 8 0 20 6
27 38 47 49 706 12 775 -5 9 -9 29 -9 43 1 40 -23 129 -33 129 -5 0 -9 10 -9
21 0 34 -41 97 -69 107 -34 12 -350 15 -376 3 -11 -5 -28 -12 -37 -15 -25 -8
-23 -63 4 -106 12 -19 32 -64 45 -99 13 -36 28 -68 34 -72 6 -3 9 -12 8 -20
-4 -19 21 -121 33 -136 6 -7 8 -19 5 -26 -2 -7 0 -37 5 -67 17 -104 29 -404
16 -425 -7 -13 -22 -116 -19 -133 1 -8 -2 -19 -7 -25 -11 -13 -33 -88 -38
-126 -1 -13 -6 -27 -11 -30 -11 -7 -53 -109 -53 -127 0 -7 -6 -17 -13 -21 -14
-9 -68 -90 -71 -107 -2 -11 -126 -139 -136 -141 -3 -1 -19 -4 -35 -8 -33 -8
-95 15 -95 35 0 6 -12 25 -27 43 -61 71 -68 81 -79 106 -7 14 -24 45 -40 70
-15 24 -38 73 -51 109 -12 36 -27 66 -33 68 -5 2 -10 16 -10 31 0 15 -9 54
-19 87 -11 32 -22 88 -26 124 -4 36 -10 69 -13 74 -12 20 0 316 17 425 5 36 8
68 5 72 -3 5 0 16 5 26 13 23 31 105 31 137 0 14 4 26 8 26 9 0 47 109 44 123
-1 4 4 18 13 30 34 48 12 95 -47 98 -112 5 -390 4 -405 -2z"/>
<path d="M3809 2279 c-10 -10 -21 -29 -23 -41 -24 -120 -28 -153 -23 -188 3
-22 1 -42 -3 -45 -9 -6 -11 -605 -2 -620 3 -5 7 -43 9 -84 1 -43 7 -78 14 -82
7 -4 9 -14 6 -23 -7 -17 7 -104 22 -141 5 -11 14 -49 21 -85 6 -36 15 -67 20
-70 4 -3 10 -26 14 -52 4 -26 18 -67 31 -92 13 -24 21 -46 19 -49 -7 -7 34
-107 51 -124 8 -8 13 -19 10 -23 -6 -10 42 -111 57 -121 4 -3 10 -15 12 -26 7
-32 55 -123 66 -123 6 0 10 -7 10 -15 0 -21 67 -125 80 -125 5 0 10 -6 10 -14
0 -18 80 -120 88 -112 3 3 13 -1 23 -10 13 -12 22 -13 38 -5 23 13 71 72 71
89 0 6 6 15 13 19 19 12 77 110 69 118 -4 4 0 12 9 18 20 15 69 99 69 119 0 8
8 25 19 36 10 12 28 43 41 69 28 59 32 66 73 128 17 28 32 54 32 60 0 5 12 16
27 24 26 15 28 14 62 -21 20 -20 36 -42 36 -48 0 -6 17 -37 37 -68 21 -31 42
-71 48 -88 7 -17 26 -52 43 -78 18 -26 32 -52 32 -58 0 -17 51 -102 67 -111 7
-4 13 -15 13 -24 0 -20 59 -113 71 -113 5 0 14 -11 19 -24 14 -39 55 -61 85
-48 14 7 25 16 25 22 0 5 18 28 40 51 21 22 47 58 57 80 9 21 20 39 24 39 10
0 69 97 69 115 0 8 6 18 14 22 16 9 66 106 66 127 0 8 4 16 9 18 13 5 61 105
61 128 0 11 4 20 9 20 9 0 52 94 56 120 1 8 12 37 24 64 13 27 26 66 28 88 3
21 9 38 13 38 4 0 15 28 24 62 10 35 24 83 31 108 14 45 24 90 45 210 6 36 16
86 21 111 15 67 20 141 25 359 5 219 -8 393 -30 416 -9 8 -13 20 -10 27 2 7
-7 24 -22 37 -25 25 -29 25 -201 25 -163 0 -176 -1 -189 -20 -8 -11 -12 -29
-9 -40 4 -11 12 -53 20 -93 7 -40 19 -80 25 -87 7 -8 10 -21 7 -29 -3 -8 1
-42 8 -77 18 -80 27 -186 26 -314 0 -118 -7 -244 -14 -265 -13 -35 -27 -122
-21 -131 3 -6 1 -15 -4 -22 -12 -15 -42 -124 -35 -131 2 -2 -2 -15 -10 -28 -8
-12 -22 -48 -32 -78 -10 -30 -21 -62 -26 -70 -28 -48 -63 -116 -64 -123 0 -13
-48 -47 -65 -46 -25 0 -54 32 -69 74 -7 22 -22 58 -31 80 -10 22 -24 65 -30
95 -7 30 -19 67 -26 81 -7 15 -11 29 -8 32 6 6 -14 115 -23 131 -3 5 -7 39 -9
77 -2 38 -6 75 -10 81 -13 20 -22 509 -10 538 3 8 7 47 10 85 2 39 9 88 14
110 9 35 16 107 13 142 -2 22 -68 31 -247 31 -179 1 -182 1 -204 -23 -21 -23
-22 -28 -11 -77 15 -67 31 -209 36 -313 7 -140 8 -273 2 -282 -4 -6 -7 -41 -8
-79 0 -38 -5 -86 -11 -107 -5 -21 -10 -61 -10 -88 -1 -27 -5 -49 -9 -49 -6 0
-19 -63 -25 -123 -1 -15 -7 -33 -12 -40 -11 -13 -36 -93 -37 -118 0 -9 -5 -22
-11 -30 -17 -21 -55 -98 -59 -120 -4 -20 -96 -119 -112 -119 -5 0 -24 26 -43
58 -19 31 -37 59 -40 62 -3 3 -13 37 -23 75 -10 39 -23 72 -28 73 -5 2 -9 18
-9 36 0 17 -7 56 -15 86 -8 30 -17 85 -19 123 -3 37 -8 72 -12 79 -8 13 -10
70 -14 335 -1 100 0 186 4 191 3 5 6 43 7 83 1 41 5 79 9 84 7 9 22 87 25 125
1 8 7 28 14 44 6 17 11 46 9 65 -4 44 3 43 -247 46 -166 1 -186 0 -202 -16z"/>
<path d="M6298 2291 c-27 -4 -53 -12 -59 -18 -16 -16 -21 -140 -9 -200 6 -27
12 -71 14 -98 2 -28 11 -67 20 -87 9 -19 16 -39 14 -44 -4 -16 32 -112 48
-124 7 -7 14 -20 14 -29 0 -21 58 -121 70 -121 6 0 10 -7 10 -16 0 -20 71
-113 86 -114 7 0 14 -10 18 -22 3 -13 26 -45 52 -73 45 -48 47 -53 48 -111 1
-61 1 -61 -56 -123 -32 -34 -58 -69 -58 -77 0 -8 -6 -14 -13 -14 -16 0 -82
-77 -91 -107 -4 -12 -13 -24 -20 -26 -19 -7 -76 -91 -76 -111 0 -9 -4 -16 -10
-16 -13 0 -62 -87 -66 -116 -1 -13 -9 -31 -18 -39 -8 -9 -23 -41 -32 -73 -9
-31 -20 -66 -25 -77 -15 -36 -29 -113 -23 -130 4 -8 1 -21 -4 -28 -6 -7 -13
-54 -15 -104 -7 -133 -14 -128 185 -130 188 -2 238 6 238 40 0 13 5 28 10 33
6 6 11 41 13 80 1 38 5 74 9 79 7 13 22 116 19 133 -1 8 2 19 7 25 14 18 42
107 42 133 0 12 4 24 9 26 9 3 61 102 61 116 0 6 21 32 46 58 25 27 49 59 54
72 5 12 13 21 17 20 5 -1 23 6 41 15 23 13 37 15 51 8 10 -6 21 -8 24 -4 4 3
10 -3 13 -13 4 -10 27 -45 51 -77 24 -31 43 -62 43 -67 0 -6 14 -40 32 -77 18
-38 31 -72 30 -76 -1 -5 6 -38 17 -75 11 -37 23 -100 27 -139 3 -40 9 -73 13
-73 3 0 7 -33 7 -72 1 -95 11 -136 38 -153 26 -16 403 -20 423 -3 7 5 17 7 22
4 6 -4 15 3 21 14 15 28 5 271 -11 281 -7 4 -9 14 -6 23 8 19 -11 115 -25 133
-5 7 -11 22 -12 35 -4 39 -37 128 -47 128 -5 0 -9 9 -9 20 0 24 -34 96 -58
123 -9 10 -17 24 -18 31 -3 19 -54 99 -72 114 -9 6 -17 18 -18 25 -2 17 -66
107 -75 107 -12 0 -45 79 -52 122 -4 24 -1 40 6 45 19 13 87 100 87 112 0 7 7
14 15 17 20 8 85 98 85 118 0 9 4 16 10 16 12 0 71 115 63 124 -3 3 1 14 9 23
19 21 50 122 42 135 -3 5 -1 15 5 22 14 17 31 182 30 293 -2 115 -27 165 -74
147 -8 -4 -21 -2 -28 4 -20 17 -281 13 -317 -4 l-30 -15 0 -157 c0 -140 -14
-279 -33 -322 -18 -41 -37 -105 -37 -125 0 -13 -4 -25 -8 -27 -10 -4 -72 -105
-72 -118 0 -5 -16 -12 -35 -16 -28 -5 -40 -1 -66 21 -18 14 -43 48 -57 73 -13
26 -31 58 -40 72 -9 14 -17 32 -17 40 -2 15 -21 81 -33 110 -11 28 -32 165
-38 245 -3 44 -9 84 -13 88 -5 5 -7 25 -4 45 3 21 0 50 -6 65 -9 22 -17 28
-43 28 -18 0 -100 2 -183 3 -82 2 -171 0 -197 -3z"/>
<path d="M8040 2290 c-8 -5 -26 -6 -40 -3 -38 7 -83 -33 -82 -73 1 -16 -4 -39
-10 -51 -21 -42 18 -370 51 -434 11 -20 18 -39 15 -42 -8 -7 33 -107 52 -128
9 -11 14 -22 11 -25 -8 -8 29 -83 56 -112 12 -12 22 -29 23 -37 3 -21 43 -83
68 -106 11 -11 21 -24 21 -28 0 -14 70 -100 81 -101 6 0 17 -13 24 -30 7 -16
33 -49 59 -72 25 -24 46 -46 46 -50 0 -3 21 -30 48 -58 26 -29 47 -59 47 -66
0 -8 -9 -37 -20 -65 -10 -29 -17 -56 -15 -60 3 -4 -2 -14 -10 -23 -19 -19 -55
-102 -55 -128 0 -10 -6 -25 -13 -33 -7 -7 -19 -39 -26 -71 -7 -33 -18 -76 -24
-98 -6 -21 -11 -87 -12 -146 0 -99 2 -110 23 -132 12 -14 19 -27 16 -31 -17
-16 57 -26 202 -26 219 1 247 4 271 37 17 23 19 35 11 87 -9 70 -13 239 -5
252 3 4 9 42 12 83 4 41 11 80 15 85 8 11 32 90 34 115 1 9 6 22 11 30 22 34
55 113 55 131 0 10 4 19 9 19 9 0 71 103 71 119 0 5 12 22 28 38 15 17 36 48
47 69 11 21 32 52 48 68 15 17 36 49 48 72 11 24 24 44 28 46 13 6 71 96 71
112 0 8 6 19 13 23 20 12 78 119 69 127 -4 4 0 13 9 19 17 13 50 89 54 125 2
13 8 28 13 35 5 7 15 37 21 67 7 30 16 74 22 98 15 71 23 278 10 286 -6 4 -11
18 -11 31 0 48 -37 59 -203 62 -100 2 -154 -1 -163 -8 -8 -6 -20 -9 -28 -6 -7
3 -19 0 -25 -6 -14 -14 -14 -104 0 -113 6 -3 8 -16 6 -28 -3 -11 -2 -52 2 -91
5 -38 5 -74 1 -80 -8 -11 -25 -114 -22 -129 2 -4 -2 -13 -7 -20 -11 -13 -51
-117 -51 -132 0 -7 -16 -36 -36 -65 -19 -29 -38 -66 -41 -81 -3 -15 -9 -28
-13 -28 -12 0 -80 -98 -80 -115 0 -8 -4 -15 -10 -15 -5 0 -31 -20 -57 -45 -50
-48 -58 -52 -77 -32 -7 6 -33 30 -57 53 -24 22 -55 62 -69 88 -14 26 -34 57
-45 69 -11 12 -20 26 -20 32 -1 17 -48 125 -55 125 -4 0 -10 19 -13 43 -3 23
-13 65 -21 92 -21 74 -35 203 -25 234 5 14 10 56 12 92 3 37 7 71 11 77 18 30
-44 89 -79 76 -8 -4 -21 -2 -28 4 -15 12 -277 14 -297 2z"/>
<path d="M9862 2289 c-27 -10 -39 -36 -23 -52 6 -6 11 -22 11 -36 0 -33 32
-131 42 -131 5 0 8 -8 7 -17 -4 -25 29 -119 47 -133 7 -7 14 -20 14 -29 0 -9
9 -31 20 -48 23 -39 63 -45 80 -13 6 11 15 20 21 20 12 0 101 59 110 73 4 5
19 10 35 12 53 6 109 18 119 26 6 4 44 4 85 -1 41 -5 78 -6 82 -4 4 2 18 -10
32 -29 27 -35 39 -113 19 -125 -6 -4 -26 -36 -44 -71 -18 -35 -45 -76 -59 -91
-14 -15 -34 -44 -45 -65 -11 -20 -34 -53 -51 -71 -17 -19 -37 -47 -45 -62 -7
-15 -30 -46 -49 -68 -19 -23 -42 -54 -50 -70 -8 -16 -27 -42 -42 -58 -16 -17
-37 -49 -49 -72 -11 -24 -24 -44 -28 -46 -13 -6 -71 -96 -71 -112 0 -8 -6 -19
-14 -23 -19 -11 -76 -106 -76 -127 0 -9 -4 -16 -10 -16 -11 0 -59 -91 -66
-123 -2 -11 -8 -23 -13 -27 -14 -8 -61 -117 -54 -124 4 -3 -1 -14 -9 -23 -19
-22 -52 -122 -44 -130 3 -4 -1 -17 -10 -31 -17 -25 -28 -113 -28 -216 0 -47 4
-61 20 -72 10 -7 26 -19 34 -26 11 -10 152 -13 685 -11 806 1 731 0 755 13 21
11 27 49 9 67 -5 5 -12 26 -13 45 -2 19 -14 57 -27 84 -12 27 -23 54 -23 59
-1 21 -38 111 -53 128 -9 9 -13 20 -10 23 3 4 -7 33 -24 65 -25 51 -33 59 -58
59 -26 0 -121 -62 -121 -80 0 -4 -37 -25 -82 -47 -111 -55 -209 -69 -321 -46
-85 17 -121 41 -151 101 -16 31 -16 36 4 101 11 37 20 75 20 84 0 8 4 17 8 19
12 4 75 118 66 118 -4 0 4 12 18 27 15 16 38 49 51 75 14 26 32 55 41 64 24
24 78 104 70 104 -4 0 9 16 28 35 19 20 44 52 54 72 10 20 35 54 55 75 20 21
44 54 53 73 9 19 20 35 24 35 12 0 82 98 82 115 0 8 6 15 13 15 12 1 82 96 82
112 0 5 6 12 12 16 18 11 83 105 83 119 0 7 6 16 13 20 19 12 77 107 77 126 0
10 4 17 10 17 12 0 60 93 60 115 0 9 7 27 16 40 8 13 16 43 17 67 1 36 -4 49
-31 78 l-32 35 -668 1 c-367 1 -677 -2 -690 -7z"/>
</g>
</svg>
