<svg class="animated" id="freepik_stories-cat-with-a-witch-hat" xmlns="http://www.w3.org/2000/svg" viewBox="0 0 500 500" version="1.1" xmlns:xlink="http://www.w3.org/1999/xlink" xmlns:svgjs="http://svgjs.com/svgjs"><style>svg#freepik_stories-cat-with-a-witch-hat:not(.animated) .animable {opacity: 0;}svg#freepik_stories-cat-with-a-witch-hat.animated #freepik--background-complete--inject-14 {animation: 3s Infinite  linear floating;animation-delay: 1s;}            @keyframes floating {                0% {                    opacity: 1;                    transform: translateY(0px);                }                50% {                    transform: translateY(-10px);                }                100% {                    opacity: 1;                    transform: translateY(0px);                }            }        </style><g id="freepik--background-complete--inject-14" class="animable animator-active" style="transform-origin: 243.915px 202.495px;"><circle cx="390.94" cy="65.51" r="37.09" style="fill: rgb(235, 235, 235); transform-origin: 390.94px 65.51px;" id="eloc8rnsaz36k" class="animable"></circle><path d="M371.82,82.09a3.32,3.32,0,0,1,1.05,2.38,3.63,3.63,0,0,1-1.05,2.63,3.25,3.25,0,0,1-2.71.93,3.83,3.83,0,0,1-2.33-1.12,11.7,11.7,0,0,0,2.3-.16,2.83,2.83,0,0,0,1.59-.79,3.69,3.69,0,0,0,.94-1.62A6.84,6.84,0,0,0,371.82,82.09Z" style="fill: rgb(219, 219, 219); transform-origin: 369.825px 85.0729px;" id="elnc5fq4h0uu" class="animable"></path><path d="M367.22,85.69a2.11,2.11,0,0,1-.92-1.64,2.52,2.52,0,0,1,.73-1.94,2.32,2.32,0,0,1,2-.66,2.4,2.4,0,0,1,1.59,1,10.71,10.71,0,0,0-1.56.31,1.94,1.94,0,0,0-.91.52,2.91,2.91,0,0,0-.62.93A5.45,5.45,0,0,0,367.22,85.69Z" style="fill: rgb(219, 219, 219); transform-origin: 368.457px 83.5566px;" id="el9i6unc519gi" class="animable"></path><path d="M417.13,47.18a3.27,3.27,0,0,1-.79,2.48,3.61,3.61,0,0,1-2.53,1.26,3.21,3.21,0,0,1-2.64-1.11,3.91,3.91,0,0,1-1-2.38A12.36,12.36,0,0,0,412,48.84a2.88,2.88,0,0,0,1.72.47,3.82,3.82,0,0,0,1.77-.58A7,7,0,0,0,417.13,47.18Z" style="fill: rgb(219, 219, 219); transform-origin: 413.658px 49.0533px;" id="elqmwm4q1hlur" class="animable"></path><path d="M411.3,46.82a2.11,2.11,0,0,1,.41-1.84,2.55,2.55,0,0,1,1.84-1,2.32,2.32,0,0,1,1.95.86,2.48,2.48,0,0,1,.55,1.78,11.74,11.74,0,0,0-1.38-.81,1.87,1.87,0,0,0-1-.21,2.88,2.88,0,0,0-1.09.28A6,6,0,0,0,411.3,46.82Z" style="fill: rgb(219, 219, 219); transform-origin: 413.648px 45.3978px;" id="eld9o3cja1q2" class="animable"></path><path d="M407.73,63.32A7.4,7.4,0,0,1,412,68.56a8.18,8.18,0,1,0-14.3,4,7.46,7.46,0,0,1,10.08-9.21Z" style="fill: rgb(219, 219, 219); transform-origin: 403.925px 65.8166px;" id="ellfxeg0vlfos" class="animable"></path><path d="M415.22,68.57a10.64,10.64,0,0,1-1.81,6.13A12.55,12.55,0,0,1,408.47,79a9,9,0,0,1-6.61.6,9.7,9.7,0,0,1-5.16-3.79,13,13,0,0,0,5.46,2.56,10,10,0,0,0,1.44.15,7.59,7.59,0,0,0,1.43-.11,9.23,9.23,0,0,0,2.73-.86c.43-.22.87-.46,1.29-.71a14.59,14.59,0,0,0,1.21-.85,12.51,12.51,0,0,0,2.13-2A14.76,14.76,0,0,0,415.22,68.57Z" style="fill: rgb(219, 219, 219); transform-origin: 405.961px 74.2692px;" id="eloqryr8cw3cc" class="animable"></path><path d="M373,45.38A2.75,2.75,0,0,1,374.93,47,3.05,3.05,0,1,0,370,49.47a2.71,2.71,0,0,1-.29-2A2.77,2.77,0,0,1,373,45.38Z" style="fill: rgb(219, 219, 219); transform-origin: 371.88px 46.7445px;" id="elxloadvx5cy8" class="animable"></path><path d="M376.13,46.77a3.74,3.74,0,0,1-.15,2.4,4.56,4.56,0,0,1-1.52,2,3.35,3.35,0,0,1-2.44.69,3.45,3.45,0,0,1-2.15-1.1,5.23,5.23,0,0,0,2.18.47,3.37,3.37,0,0,0,1.93-.7A5.56,5.56,0,0,0,376.13,46.77Z" style="fill: rgb(219, 219, 219); transform-origin: 373.065px 49.3256px;" id="elv71xbkwiwgh" class="animable"></path><path d="M384.93,88.37A3.93,3.93,0,0,1,388,90.16a4.34,4.34,0,1,0-6.33,4.68,4,4,0,0,1,3.24-6.47Z" style="fill: rgb(219, 219, 219); transform-origin: 383.704px 90.7649px;" id="elg27jfp1sbr8" class="animable"></path><path d="M389.64,89.54a5.71,5.71,0,0,1,.24,3.38A6.59,6.59,0,0,1,388.26,96a4.83,4.83,0,0,1-3.14,1.55,5.22,5.22,0,0,1-3.27-.88,6.85,6.85,0,0,0,3.19.25,4.85,4.85,0,0,0,2.63-1.47,7.42,7.42,0,0,0,1.61-2.68A8,8,0,0,0,389.64,89.54Z" style="fill: rgb(219, 219, 219); transform-origin: 385.94px 93.5509px;" id="eln2aio5jr5s" class="animable"></path><path d="M87.69,180.72q1.32,2.53,2.76,5c.49.82,1,1.64,1.46,2.43A31.31,31.31,0,0,0,87.69,180.72Z" style="fill: rgb(219, 219, 219); transform-origin: 89.8px 184.435px;" id="el12u54sta4ly9" class="animable"></path><path d="M93.58,190.47a22.34,22.34,0,0,1-1.67-2.32c4.59,11.37,3.08,24.32,10,36.11,4.74,6.08,9.63,11.89,14.44,17.8s9.66,11.8,14.24,17.77c1.13,1.5,2.26,3,3.25,4.48.24.37.47.74.66,1.06l.13.23a.28.28,0,0,1,.06.13c0-.06,0,.12.05.21.16.62-1.81,68.55-7.1,110.53l17.48.09c-.25-15.29-.63-59.26-1.25-74.55,0-1.17-.1-2.34-.14-3.5,2.9-3.52,5.74-7.05,8.56-10.64,1.58-2,3.15-4,4.69-6.09.78-1,1.54-2.09,2.3-3.15l1.12-1.67a17.12,17.12,0,0,0,1.14-2,4.47,4.47,0,0,0,.29-.65,6.77,6.77,0,0,0,.19-.74,9.17,9.17,0,0,0,.18-1.14c.1-.71.15-1.37.2-2,.09-1.31.14-2.6.18-3.88l0-1.12.81-.5c.7-.46,1.3-.93,1.87-1.39,1.15-.94,2.17-1.89,3.18-2.84,2-1.91,3.9-3.86,5.79-5.8s3.73-3.88,5.59-5.72c.47-.47.94-.92,1.41-1.34a13.07,13.07,0,0,1,1.29-1.07,16.23,16.23,0,0,1,3.31-1.4c5-1.58,10.32-2.44,15.6-4a10.33,10.33,0,0,0,2-.85A2,2,0,0,0,204,240l.3-.39.6-.8,2.49-3.16,5.05-6.3-5.66,5.75L204,238l-.7.75-.35.39a.64.64,0,0,1-.2.12,8.29,8.29,0,0,1-1.75.5c-5.18,1-10.59,1.23-16,2.35a18.76,18.76,0,0,0-4.26,1.32,13.91,13.91,0,0,0-2,1.28c-.58.42-1.13.85-1.67,1.28-2.15,1.72-4.21,3.46-6.27,5.18s-4.11,3.43-6.18,5c-.62.48-1.25.95-1.86,1.39.07-4.66.13-9.3.38-13.9.07-1.26.16-2.5.28-3.73a20.69,20.69,0,0,1,.57-3.45,12,12,0,0,1,1.79-2.77c.76-1,1.55-2,2.34-2.95,3.21-3.93,6.49-7.83,9.63-11.85,1.56-2,3.12-4.06,4.53-6.2l1-1.65c.31-.56.61-1.15.9-1.75a11.84,11.84,0,0,0,.8-3.87,57.57,57.57,0,0,0-.07-7.66c-.18-2.55-.45-5.07-.79-7.59.2,2.53.33,5.07.36,7.6a52.75,52.75,0,0,1-.34,7.56,11,11,0,0,1-.92,3.52c-.29.53-.6,1.07-.93,1.58L181.24,212c-1.5,2-3.15,3.93-4.79,5.85-2.72,3.09-5.52,6.11-8.32,9.15-1.23-1.83-2.46-3.69-3.63-5.56a81.62,81.62,0,0,1-4.09-7.16c-.28-.61-.56-1.22-.77-1.81a6.9,6.9,0,0,1-.32-1.78c-.11-1.31-.11-2.7-.09-4.08,0-2.78.19-5.58.32-8.38s.29-5.61.36-8.42a68.49,68.49,0,0,0-.15-8.47,13.35,13.35,0,0,0-.38-2.14l-.16-.53-.24-.52a7.1,7.1,0,0,0-.71-.87,32.83,32.83,0,0,1-2.51-3.32c-1.57-2.32-3-4.73-4.37-7.18,1.24,2.52,2.55,5,4,7.41a34.82,34.82,0,0,0,2.38,3.5l.35.41c.11.14.16.25.25.37l.17.44.13.48a14.68,14.68,0,0,1,.24,2,68.56,68.56,0,0,1-.27,8.34c-.21,2.78-.5,5.57-.78,8.36s-.56,5.58-.74,8.4c-.09,1.42-.17,2.84-.13,4.32a9.35,9.35,0,0,0,.34,2.37c.22.74.49,1.43.76,2.11A85.16,85.16,0,0,0,162,223c1.24,2.23,2.53,4.41,3.87,6.58-.74.81-1.47,1.63-2.19,2.48-.44.48-.84,1-1.26,1.52-.22.27-.42.58-.63.87a4.42,4.42,0,0,0-.56,1.13,22.27,22.27,0,0,0-.92,4c-.2,1.29-.37,2.58-.51,3.86-.55,5.11-.89,10.19-1.26,15.26l-.58,7.56c-.12,1.26-.23,2.51-.39,3.71-.07.61-.15,1.21-.25,1.75,0,.28-.11.54-.16.74s-.06.13-.07.18-9.4,7.78-14.12,11.68q-.16-2.61-.36-5.22c-.31-3.85-.62-7.66-1.26-11.66a24.88,24.88,0,0,0-.73-3.23,7,7,0,0,0-.45-1.12,3.32,3.32,0,0,0-.27-.5l-.24-.38c-.32-.48-.62-.9-.93-1.31-1.23-1.63-2.46-3.11-3.71-4.59s-2.46-2.84-3.71-4.25l1.22-1.69,2.46-3.41c1.63-2.31,3.25-4.64,4.77-7.11.76-1.23,1.48-2.52,2.14-3.87.18-.34.32-.72.48-1.07a9.38,9.38,0,0,0,.43-1.14,7.6,7.6,0,0,0,.35-1.26,6.63,6.63,0,0,0,.18-1.39,29.26,29.26,0,0,0-.41-4.51c-.22-1.41-.47-2.81-.73-4.19-1.06-5.53-2.34-11-3.68-16.4l-.51-2c-.08-.33-.21-.73-.24-1a3.8,3.8,0,0,1,0-.84,27.62,27.62,0,0,1,.88-4c.77-2.67,1.67-5.31,2.63-7.93-1.22,2.51-2.38,5-3.42,7.66a27.18,27.18,0,0,0-1.33,4.06,4.73,4.73,0,0,0-.11,1.24c0,.43.12.7.16,1.07l.31,2.06c.77,5.51,1.49,11,2,16.55.12,1.37.22,2.74.3,4.1a28.51,28.51,0,0,1,0,3.83,9,9,0,0,1-1.32,3,38.27,38.27,0,0,1-2.24,3.23c-1.63,2.14-3.41,4.22-5.22,6.29l-2.77,3.12c-.21.25-.43.49-.64.73-2.4-2.66-4.82-5.3-7.23-8s-4.67-5.1-7-7.64c1.69-6.19,3.45-12.39,5.33-18.51,1-3.12,2-6.34,3.14-9.23l.23-.54c.11-.29.22-.58.31-.88a7.47,7.47,0,0,0,.21-1.58,13.91,13.91,0,0,0-.19-2.79,36.73,36.73,0,0,0-1.23-5A181,181,0,0,0,113,174.36c-.67-1.52-1.34-3-2-4.55a13.63,13.63,0,0,1-.77-2.25,5.46,5.46,0,0,1,.18-2.29,28.78,28.78,0,0,1,4.61-8.67,29.36,29.36,0,0,0-5.29,8.46,6.32,6.32,0,0,0-.36,2.62,13.55,13.55,0,0,0,.65,2.49c.52,1.6,1.09,3.15,1.65,4.72a180.91,180.91,0,0,1,6.07,18.79,37.71,37.71,0,0,1,.8,4.69,11.12,11.12,0,0,1,0,2.16,4.74,4.74,0,0,1-.18.87c0,.1-.09.19-.13.29l-.29.58c-1.56,3.15-2.72,6.22-4,9.35-2,5-3.8,10.1-5.61,15.21-1.36-1.53-2.71-3.05-4-4.59a21.36,21.36,0,0,1-1.62-2,16,16,0,0,1-1.13-2.35c-.69-1.7-1.25-3.49-1.79-5.3-1.08-3.61-2-7.31-2.94-11L95.49,196c-.24-.92-.5-1.84-.8-2.76A12.06,12.06,0,0,0,93.58,190.47Z" style="fill: rgb(219, 219, 219); transform-origin: 152.175px 266.58px;" id="el6spb7ds630y" class="animable"></path><path d="M70.59,376.56s4.6-125.43,5.1-127.43,1.91-34.1,2.74-36.62,26.9-5.73,31.14-7.23,17.69-5,21.42-4,30.4,15.44,34.63,16.94S207.48,214,207.48,214s-25.91,1-27.66.75,2.5-6.35,3.37-7.1,1.87-13.45,1.87-13.45-3.12,12.08-3.74,12.58-4.73,7.1-6,7.35-8.6-1.12-9.84-1.75-30.4-17.93-34.76-18.81-23.16,3.87-24.41,3.74-21.8-.5-22.3-1.49S93.75,180,96.24,179.37s49.7-13.62,51.53-15.94S159.56,140,159.56,140s-12.62,19.1-14.78,20.43-25.25,5.48-26.41,5.48,4.49-12.12,5.48-13.12,14.45-9,14.45-9-16.77,6.48-18.43,8.14-7,12.95-7.64,13.45-19.1,6.15-21.26,7-21.22,27.24-21.89,27.4-1.86-17.44-1.86-18.6S86.65,165.09,88,163.26s6.81-25.74,7.47-27.4-2.66-14.78-2.66-14.78.5,12.12,0,13.62-8.14,24.41-9.8,25.57-15.61,10.26-16.27,10.26-2.16-26.37-3.49-28.69-15.78-24.75-16.94-26.58,2-19.6,2-19.6-6.64,17.28-5.15,21.76,4.49,11,4.49,11l-10.3-2.32c-1.5-.33-7.14-9-7.14-9s3.65,10.8,4.65,11.63,15.61,6,16.27,6.64a57.39,57.39,0,0,1,5,9.63c.33,1.5,1.16,15.95,1.16,15.95s-15-9.8-17.11-12.46-11.62-11.29-11.62-11.29S38,149.81,39,150.81s18.44,16.11,18.44,16.11-2,54.05-2.91,58.54c-2.46,11.9-23.25,151.1-23.25,151.1Z" style="fill: rgb(235, 235, 235); transform-origin: 118.02px 236.11px;" id="el3to69u9dzvl" class="animable"></path><path d="M428.81,156.56c-1,1.9-2,3.77-3.1,5.63-.55.92-1.08,1.84-1.65,2.73A35.07,35.07,0,0,1,428.81,156.56Z" style="fill: rgb(235, 235, 235); transform-origin: 426.435px 160.74px;" id="el7nus1pxktkp" class="animable"></path><path d="M422.19,167.51a26.16,26.16,0,0,0,1.87-2.59c-5.15,12.76-3.45,27.31-11.2,40.55-5.32,6.84-10.81,13.36-16.22,20s-10.85,13.25-16,20c-1.27,1.67-2.54,3.37-3.65,5-.27.42-.53.83-.74,1.19l-.15.26a.45.45,0,0,0-.07.15c0-.07,0,.13-.05.23-.18.7,2,77,8,124.17l-19.64.1c.29-17.18.71-66.57,1.41-83.74,0-1.32.11-2.63.16-3.93-3.26-4-6.45-7.93-9.62-12q-2.67-3.37-5.27-6.85-1.31-1.72-2.58-3.53l-1.26-1.88a19.34,19.34,0,0,1-1.28-2.24,3.55,3.55,0,0,1-.32-.73,7.52,7.52,0,0,1-.22-.83c-.1-.48-.16-.89-.21-1.28-.1-.8-.16-1.55-.21-2.29-.11-1.48-.16-2.93-.21-4.37l0-1.26c-.33-.19-.62-.37-.91-.56a23.4,23.4,0,0,1-2.1-1.56c-1.29-1.05-2.44-2.12-3.58-3.18-2.25-2.15-4.37-4.34-6.5-6.52s-4.18-4.36-6.28-6.43c-.53-.52-1.06-1-1.59-1.5a13.33,13.33,0,0,0-1.44-1.2,17.63,17.63,0,0,0-3.72-1.57C313,227.37,307,226.41,301,224.67a11,11,0,0,1-2.29-.95,2.39,2.39,0,0,1-.64-.57l-.33-.45-.68-.89-2.79-3.56-5.68-7.07,6.36,6.46,3.16,3.27.78.84.39.44a1,1,0,0,0,.23.14,10.09,10.09,0,0,0,2,.56c5.82,1.06,11.89,1.37,18,2.64a20.89,20.89,0,0,1,4.79,1.48,16.68,16.68,0,0,1,2.23,1.43c.65.48,1.27,1,1.87,1.44,2.42,1.93,4.73,3.89,7,5.82s4.63,3.85,6.95,5.64c.7.54,1.4,1.07,2.09,1.56-.08-5.23-.15-10.44-.43-15.62-.07-1.4-.18-2.8-.31-4.18a24,24,0,0,0-.64-3.87,13.4,13.4,0,0,0-2-3.12c-.85-1.1-1.74-2.21-2.63-3.32-3.6-4.4-7.28-8.79-10.82-13.31-1.74-2.26-3.49-4.55-5.08-7l-1.16-1.85c-.35-.63-.7-1.29-1-2a13.36,13.36,0,0,1-.9-4.34,63.39,63.39,0,0,1,.09-8.61c.19-2.86.49-5.69.88-8.53-.23,2.85-.38,5.7-.41,8.55a60.05,60.05,0,0,0,.38,8.49,12.56,12.56,0,0,0,1,4c.32.6.67,1.2,1,1.78l1.21,1.72c1.69,2.26,3.54,4.42,5.39,6.57,3,3.48,6.2,6.87,9.34,10.28,1.39-2.05,2.76-4.14,4.08-6.24,1.65-2.64,3.26-5.33,4.6-8,.31-.68.62-1.37.86-2a7.68,7.68,0,0,0,.36-2c.12-1.48.12-3,.1-4.6-.05-3.12-.21-6.26-.36-9.41s-.32-6.3-.4-9.45a77.63,77.63,0,0,1,.16-9.52,17.05,17.05,0,0,1,.43-2.4l.18-.6.27-.59a8,8,0,0,1,.8-1,38.38,38.38,0,0,0,2.82-3.73c1.76-2.61,3.37-5.31,4.91-8.06-1.39,2.82-2.87,5.61-4.5,8.32a40.69,40.69,0,0,1-2.68,3.93l-.4.46c-.12.16-.17.28-.27.42l-.19.49-.15.54a18.52,18.52,0,0,0-.28,2.27,77.5,77.5,0,0,0,.32,9.37c.23,3.12.55,6.25.86,9.39s.63,6.27.84,9.44c.11,1.59.19,3.19.15,4.85a10.38,10.38,0,0,1-.39,2.66,23.62,23.62,0,0,1-.85,2.37,94.2,94.2,0,0,1-4.35,8.57c-1.39,2.51-2.84,5-4.34,7.4.82.91,1.65,1.83,2.46,2.78.49.54.94,1.14,1.42,1.71.23.31.46.65.7,1a4.8,4.8,0,0,1,.63,1.26,24.77,24.77,0,0,1,1,4.51c.23,1.45.42,2.9.57,4.33.62,5.74,1,11.45,1.42,17.15l.65,8.49c.14,1.41.26,2.82.44,4.17.08.69.17,1.36.29,2,.05.31.11.6.17.83s.06.14.07.2,10.56,8.74,15.87,13.12c.12-2,.26-3.91.4-5.87.36-4.32.7-8.6,1.42-13.09a26.53,26.53,0,0,1,.82-3.63,7.74,7.74,0,0,1,.5-1.26,3.9,3.9,0,0,1,.31-.56l.27-.43c.36-.53.7-1,1.05-1.48,1.37-1.83,2.76-3.48,4.17-5.15s2.76-3.19,4.15-4.77c-.44-.63-.92-1.28-1.36-1.9l-2.76-3.83c-1.83-2.59-3.65-5.21-5.36-8a47.54,47.54,0,0,1-2.41-4.34c-.2-.39-.36-.81-.54-1.2a11.27,11.27,0,0,1-.48-1.29,9.16,9.16,0,0,1-.4-1.41,8.47,8.47,0,0,1-.19-1.56,33.65,33.65,0,0,1,.45-5.07c.25-1.59.53-3.16.83-4.71,1.19-6.22,2.63-12.32,4.13-18.42l.58-2.29c.08-.36.22-.81.26-1.1a4.11,4.11,0,0,0,0-.94,29.57,29.57,0,0,0-1-4.48c-.86-3-1.87-6-3-8.91,1.37,2.83,2.67,5.68,3.84,8.61a31.22,31.22,0,0,1,1.5,4.56,5,5,0,0,1,.11,1.4c0,.48-.12.78-.17,1.2l-.34,2.31c-.87,6.19-1.68,12.4-2.24,18.59-.13,1.54-.24,3.08-.33,4.6a32.33,32.33,0,0,0,0,4.31,10.34,10.34,0,0,0,1.48,3.32,43.27,43.27,0,0,0,2.53,3.63c1.83,2.4,3.82,4.74,5.86,7.07l3.1,3.51.73.81q4-4.48,8.12-8.93c2.6-2.87,5.24-5.73,7.85-8.59-1.9-7-3.87-13.92-6-20.8-1.1-3.5-2.2-7.11-3.54-10.36l-.25-.61c-.12-.32-.25-.65-.35-1a8.82,8.82,0,0,1-.24-1.77,15.86,15.86,0,0,1,.22-3.14,41.39,41.39,0,0,1,1.38-5.66c2.28-7.26,5.39-14,8.38-20.87.76-1.7,1.51-3.4,2.22-5.11a15.51,15.51,0,0,0,.87-2.53,6.35,6.35,0,0,0-.2-2.58,32.65,32.65,0,0,0-5.18-9.73A33.13,33.13,0,0,1,404,139a7.29,7.29,0,0,1,.41,2.93,15.82,15.82,0,0,1-.74,2.81c-.57,1.79-1.22,3.53-1.85,5.29A201.58,201.58,0,0,0,395,171.12a38.48,38.48,0,0,0-.9,5.27,11,11,0,0,0,0,2.43,6.09,6.09,0,0,0,.19,1,1.87,1.87,0,0,1,.15.32l.33.65c1.75,3.54,3.05,7,4.44,10.5,2.19,5.67,4.27,11.36,6.3,17.09,1.53-1.72,3-3.43,4.54-5.15a26.17,26.17,0,0,0,1.82-2.3,19.06,19.06,0,0,0,1.27-2.64c.76-1.9,1.4-3.92,2-6,1.21-4.06,2.24-8.21,3.29-12.35l1.61-6.24c.28-1,.57-2.07.9-3.1A13.93,13.93,0,0,1,422.19,167.51Z" style="fill: rgb(235, 235, 235); transform-origin: 356.325px 253.045px;" id="el5npwsc6vtx8" class="animable"></path><path d="M431.71,376.56s-3-82.31-3.34-83.62-1.26-22.37-1.8-24-17.66-3.76-20.44-4.74-11.6-3.27-14.06-2.61-19.94,10.13-22.72,11.11-27.46-2.78-27.46-2.78,17,.66,18.14.49-1.63-4.16-2.2-4.65-1.23-8.83-1.23-8.83,2,7.93,2.45,8.25,3.11,4.66,3.93,4.83a25.6,25.6,0,0,0,6.45-1.15c.82-.41,19.95-11.77,22.81-12.34s15.2,2.53,16,2.45,14.3-.33,14.63-1-6.38-10.38-8-10.79-32.61-8.94-33.81-10.46-7.74-15.37-7.74-15.37,8.28,12.53,9.7,13.41,16.56,3.59,17.33,3.59-2.95-8-3.6-8.61-9.48-5.88-9.48-5.88,11,4.25,12.1,5.34,4.57,8.5,5,8.83,12.53,4,13.95,4.57,13.92,17.88,14.36,18,1.22-11.45,1.22-12.21S421.17,237.8,420.3,236.6s-4.47-16.89-4.9-18,1.74-9.7,1.74-9.7-.33,8,0,8.93,5.34,16,6.43,16.79,10.25,6.73,10.68,6.73,1.42-17.3,2.29-18.83,10.35-16.24,11.12-17.44-1.31-12.86-1.31-12.86,4.36,11.34,3.38,14.28-3,7.19-3,7.19,5.78-1.31,6.76-1.52,4.69-5.89,4.69-5.89-2.4,7.09-3.05,7.63-10.25,3.92-10.68,4.36a37.33,37.33,0,0,0-3.27,6.32c-.22,1-.77,10.46-.77,10.46s9.81-6.43,11.23-8.17,7.63-7.41,7.63-7.41-6.21,8.28-6.87,8.94S440.35,239,440.35,239s1.3,35.46,1.91,38.41c1.61,7.81,15.26,99.15,15.26,99.15Z" style="fill: rgb(219, 219, 219); transform-origin: 400.58px 284.39px;" id="el8p505gz9xf6" class="animable"></path><path d="M293,46.41H240.15S252,29.28,261.28,29.28,273.34,40.7,273.34,40.7s6.57-5.33,12.66-4.38S293,46.41,293,46.41Z" style="fill: rgb(235, 235, 235); transform-origin: 266.575px 37.845px;" id="el53mi8ymcdqu" class="animable"></path><path d="M197.9,85.33h-103s14.11-31.5,29.2-33.47,22.31,23.41,22.31,23.41,9.73-9,17.39-9,13.56,11.81,13.56,11.81S192.65,70,197.9,85.33Z" style="fill: rgb(235, 235, 235); transform-origin: 146.4px 68.5405px;" id="elbigqowj61br" class="animable"></path></g><g id="freepik--Shadow--inject-14" class="animable" style="transform-origin: 252.85px 437.7px;"><ellipse cx="252.85" cy="437.7" rx="199.53" ry="23.44" style="fill: rgb(235, 235, 235); transform-origin: 252.85px 437.7px;" id="elhte25b5nlb" class="animable"></ellipse></g><g id="freepik--Floor--inject-14" class="animable" style="transform-origin: 250px 376.49px;"><polygon points="27.88 376.49 83.41 376.25 138.94 376.16 250 375.99 361.06 376.16 416.59 376.25 472.12 376.49 416.59 376.74 361.06 376.82 250 376.99 138.94 376.82 83.41 376.74 27.88 376.49" style="fill: rgb(38, 50, 56); transform-origin: 250px 376.49px;" id="el5da1xg0o49v" class="animable"></polygon></g><g id="freepik--Cat--inject-14" class="animable" style="transform-origin: 234.674px 300.091px;"><path d="M170.43,342s-21.87,7.93-26,21.63S162.26,412,162.26,412s-9.8,6.43-10.7,9,4,6.67,4,6.67-.18,3.06,3.42,5.41,8.48,0,8.48,0a15.31,15.31,0,0,0,7.93,1.8c4.68-.18,14.78-11.72,15.86-13.52S170.43,342,170.43,342Z" style="fill: rgb(255, 199, 39); transform-origin: 167.601px 388.448px;" id="el7npzbeolyhw" class="animable"></path><path d="M150.68,354.69a29.82,29.82,0,0,0-6.34,7.38,33.56,33.56,0,0,0-2.16,4.43,19.92,19.92,0,0,0-1.39,4.65c-.13.93-.28,1.85-.38,2.79a8.39,8.39,0,0,0,0,2.5c0,.07.11.07.14,0a5.93,5.93,0,0,0,.4-1.3c.13-.5.3-1,.46-1.48.3-.93.66-1.83,1-2.74a52.24,52.24,0,0,1,2.34-5.58c.89-1.78,1.94-3.47,3-5.17a35.81,35.81,0,0,1,3.59-4.9A.43.43,0,0,0,150.68,354.69Z" style="fill: rgb(255, 199, 39); transform-origin: 145.883px 365.517px;" id="ely846lhefl1a" class="animable"></path><path d="M147.17,362.87a21.82,21.82,0,0,0-1.53,1.92,17.22,17.22,0,0,0-1.11,2,18.68,18.68,0,0,0-1.49,4.61,21.49,21.49,0,0,0,.16,9.64.15.15,0,0,0,.3,0h0c.28-1.5.39-3,.59-4.56s.39-3,.7-4.53a41.63,41.63,0,0,1,1.18-4.38,20.08,20.08,0,0,1,1.89-4.2A.44.44,0,0,0,147.17,362.87Z" style="fill: rgb(255, 199, 39); transform-origin: 145.23px 371.98px;" id="el6n2gu3rhaaf" class="animable"></path><g id="elrcdj43d5d6"><g style="opacity: 0.1; transform-origin: 165.802px 388.448px;" class="animable"><path d="M170.43,342s-21.87,7.93-26,21.63S162.26,412,162.26,412s-9.8,6.43-10.7,9,4,6.67,4,6.67-.18,3.06,3.42,5.41,8.48,0,8.48,0a15.31,15.31,0,0,0,7.93,1.8c4.68-.18,14.78-11.72,15.86-13.52S170.43,342,170.43,342Z" id="eltpmjy9mnni" class="animable" style="transform-origin: 167.601px 388.448px;"></path><path d="M150.68,354.69a29.82,29.82,0,0,0-6.34,7.38,33.56,33.56,0,0,0-2.16,4.43,19.92,19.92,0,0,0-1.39,4.65c-.13.93-.28,1.85-.38,2.79a8.39,8.39,0,0,0,0,2.5c0,.07.11.07.14,0a5.93,5.93,0,0,0,.4-1.3c.13-.5.3-1,.46-1.48.3-.93.66-1.83,1-2.74a52.24,52.24,0,0,1,2.34-5.58c.89-1.78,1.94-3.47,3-5.17a35.81,35.81,0,0,1,3.59-4.9A.43.43,0,0,0,150.68,354.69Z" id="elnjyzg3ks7ea" class="animable" style="transform-origin: 145.883px 365.517px;"></path><path d="M147.17,362.87a21.82,21.82,0,0,0-1.53,1.92,17.22,17.22,0,0,0-1.11,2,18.68,18.68,0,0,0-1.49,4.61,21.49,21.49,0,0,0,.16,9.64.15.15,0,0,0,.3,0h0c.28-1.5.39-3,.59-4.56s.39-3,.7-4.53a41.63,41.63,0,0,1,1.18-4.38,20.08,20.08,0,0,1,1.89-4.2A.44.44,0,0,0,147.17,362.87Z" id="elfyiz7gftp19" class="animable" style="transform-origin: 145.23px 371.98px;"></path></g></g><path d="M191.22,421.26c-1.08,1.81-11.18,13.35-15.86,13.52a15.29,15.29,0,0,1-7.94-1.8s-4.87,2.35-8.46,0-3.43-5.41-3.43-5.41-4.87-4.14-4-6.66,10.7-9,10.7-9c5.28-.9,11.05,1.15,11.05,1.15a20.59,20.59,0,0,0-8.19-2.06,21.29,21.29,0,0,1,12.35,2.06,48,48,0,0,0,13.12,4C191.12,419.54,191.36,421,191.22,421.26Z" style="fill: rgb(255, 255, 255); transform-origin: 171.342px 422.804px;" id="el3uyyhy432bi" class="animable"></path><path d="M191.22,421.26c-1.08,1.81-11.18,13.35-15.86,13.52a15.76,15.76,0,0,1-5.19-.67l10.38-19.64a54.21,54.21,0,0,0,10,2.64C191.12,419.54,191.36,421,191.22,421.26Z" style="fill: rgb(219, 219, 219); transform-origin: 180.715px 424.631px;" id="elyf4qliy51z" class="animable"></path><path d="M160.75,415.53a23.44,23.44,0,0,0-2.71,2.25,12.14,12.14,0,0,0-2.38,2.87c-1.16,2.15-.5,4.67-.21,7,0,.1.16.09.15,0a10.67,10.67,0,0,1,1-6.56,26.56,26.56,0,0,1,4.28-5.34C161,415.61,160.85,415.46,160.75,415.53Z" style="fill: rgb(38, 50, 56); transform-origin: 157.962px 421.617px;" id="elrydm30rz5b" class="animable"></path><path d="M173.8,419.71a22,22,0,0,0-5.43,5.59,9.27,9.27,0,0,0-1.23,3.5,10.39,10.39,0,0,0,.44,4c0,.07.13.07.14,0,.18-1.25.29-2.51.56-3.75a13.31,13.31,0,0,1,1.25-3.26,20.29,20.29,0,0,1,1.89-3c.78-1,1.65-2,2.47-3C173.94,419.77,173.87,419.66,173.8,419.71Z" style="fill: rgb(38, 50, 56); transform-origin: 170.505px 426.275px;" id="elm1kp4ldagoo" class="animable"></path><path d="M142.06,214c-3.55.48-10.74-50.47,1.5-67.22,1.76-2.41,39,15.44,39.55,16.75S149.37,213,142.06,214Z" style="fill: rgb(255, 199, 39); transform-origin: 159.914px 180.28px;" id="elah2ds4fle4k" class="animable"></path><g id="el72ym9hgljb3"><path d="M183.11,163.49c.18.41-3.05,5.4-7.78,12.08-8-13.13-31.07-27.35-31.64-27s-4.37,14.31-4.78,29.5c-.47,18,3.5,30.06,5.42,34.79a5.66,5.66,0,0,1-2.27,1.11c-3.54.48-10.73-50.47,1.51-67.23C145.32,144.33,182.54,162.18,183.11,163.49Z" style="opacity: 0.2; transform-origin: 159.919px 180.245px;" class="animable"></path></g><path d="M153.55,208.92a46.84,46.84,0,0,0-1.19-4.7,42.1,42.1,0,0,0-1.63-4.53,35.14,35.14,0,0,0-4.79-8.25,23.14,23.14,0,0,0-3.29-3.42c-.59-.53-1.24-1-1.88-1.46s-1.33-.86-2-1.22a21.36,21.36,0,0,0-2.16-1c-.75-.25-1.49-.57-2.27-.75a28,28,0,0,0-4.74-.92,21.09,21.09,0,0,1,9.51,2,21.5,21.5,0,0,1,7.64,6.17,30.41,30.41,0,0,1,4.72,8.59A35.47,35.47,0,0,1,153.55,208.92Z" style="fill: rgb(38, 50, 56); transform-origin: 141.575px 195.792px;" id="elaizat170k3b" class="animable"></path><path d="M155.7,207.69a51.78,51.78,0,0,0-.67-6.93,59.38,59.38,0,0,0-1.46-6.79,50.23,50.23,0,0,0-5.39-12.71,43.38,43.38,0,0,0-4-5.62,45.06,45.06,0,0,0-4.91-4.86,39.16,39.16,0,0,0-5.65-4,50.37,50.37,0,0,0-6.22-3.15,40.25,40.25,0,0,1,12.36,6.54A39.73,39.73,0,0,1,149,180.75a47.51,47.51,0,0,1,5.28,13A48.81,48.81,0,0,1,155.7,207.69Z" style="fill: rgb(38, 50, 56); transform-origin: 141.572px 185.66px;" id="elfjbj6xd6ww" class="animable"></path><path d="M273.33,222.54c3.34,1.26,21.87-46.73,13.74-65.83-1.16-2.74-41.46,6.22-42.31,7.38S266.43,219.93,273.33,222.54Z" style="fill: rgb(255, 199, 39); transform-origin: 266.925px 189.378px;" id="eljgbfes3r9dq" class="animable"></path><g id="elvkd3gickyn"><path d="M244.77,164.09c-.27.35,1.74,5.94,4.84,13.52,10.79-11,36.45-19.61,36.93-19.15s1,14.93-2,29.82c-3.61,17.62-10.22,28.48-13.15,32.66a5.77,5.77,0,0,0,1.95,1.59c3.35,1.27,21.88-46.72,13.75-65.82C285.9,154,245.61,162.94,244.77,164.09Z" style="opacity: 0.2; transform-origin: 266.94px 189.378px;" class="animable"></path></g><path d="M273.78,208.92a35.08,35.08,0,0,1,2.1-9.51,30.41,30.41,0,0,1,4.72-8.59,21.68,21.68,0,0,1,7.64-6.17,21.13,21.13,0,0,1,9.52-2,27.78,27.78,0,0,0-4.74.92c-.78.18-1.52.5-2.28.75a21.2,21.2,0,0,0-2.15,1c-.71.36-1.36.81-2,1.22s-1.29.93-1.87,1.46a23.21,23.21,0,0,0-3.3,3.42,35.14,35.14,0,0,0-4.79,8.25,50.61,50.61,0,0,0-2.81,9.23Z" style="fill: rgb(38, 50, 56); transform-origin: 285.77px 195.782px;" id="ellyf3j9a5hl" class="animable"></path><path d="M271.62,207.69a48.47,48.47,0,0,1,1.4-13.92,47.8,47.8,0,0,1,5.27-13,39.76,39.76,0,0,1,9.28-10.57,40.2,40.2,0,0,1,12.35-6.54,50.24,50.24,0,0,0-6.21,3.15,39.26,39.26,0,0,0-5.66,4,44.1,44.1,0,0,0-4.9,4.86,42.44,42.44,0,0,0-4,5.62A49.52,49.52,0,0,0,273.76,194a55.39,55.39,0,0,0-1.46,6.79A51.79,51.79,0,0,0,271.62,207.69Z" style="fill: rgb(38, 50, 56); transform-origin: 285.746px 185.675px;" id="elfypjnrmwp4m" class="animable"></path><path d="M129.57,238.85c0,6.6,8.23,25.59,25.24,38.93,0,0,6.42,84.08,7.83,90.94s19.34,58.92,19.28,59.64-7.76,7-8.76,9.1a19.41,19.41,0,0,0-1.39,5.68c0,.48,4.52,5.52,7.16,5.72,0,0,7.81,5.05,14.08,1.79,0,0,5.82,1.16,9,.08s10.75-8.35,13.47-10.79,1.81-7.28,1.81-7.28l18.87,1.43s1.17,8.46,2.31,11,8.68,7.89,11.65,8.47,8.08-1.67,8.08-1.67,5.3,1.6,9,1,6.23-5.79,6.23-5.79a21.6,21.6,0,0,0,5.66-3.19c1.94-1.78-2.6-8.63-5.25-10.28a12.17,12.17,0,0,0-4.92-1.82s52.64-1.32,62.85-2.48,20.52-3.51,22-6.77.56-67.93-2.87-76.87-21.76-34.18-28.34-39.5-41.66-38.82-41.66-38.82,14.89-19.4,16.64-32c.53-3.82-36.34-61.32-49.44-69.78s-63.29-4.27-69.37-.67C161,175.38,129.57,235.05,129.57,238.85Z" style="fill: rgb(255, 199, 39); transform-origin: 242.011px 307.148px;" id="elvxvx8ekrh9f" class="animable"></path><path d="M163,361.27c.17-1.79.38-3.59.66-5.38a.57.57,0,0,0-1.1-.27,36.66,36.66,0,0,0-1.36,5.34,39.32,39.32,0,0,0-.49,5.53c-.11,3.5-.11,7.39,1.56,10.57,0,.05.13,0,.14,0,.54-3.45.05-7,.17-10.49C162.67,364.78,162.86,363,163,361.27Z" style="fill: rgb(255, 199, 39); transform-origin: 162.167px 366.165px;" id="eli5e9wj58n7" class="animable"></path><path d="M163.7,349.08a23.26,23.26,0,0,0-4.5,9.71,25.79,25.79,0,0,0-.78,5.31,23.76,23.76,0,0,0,0,2.67,13.55,13.55,0,0,0,.61,2.59c0,.09.19.1.2,0,.13-.84.38-1.67.47-2.51s.16-1.65.28-2.47c.26-1.69.53-3.38,1-5.05a72.32,72.32,0,0,1,3.6-9.62C164.77,349.2,164.13,348.58,163.7,349.08Z" style="fill: rgb(255, 199, 39); transform-origin: 161.498px 359.163px;" id="eltxurh1kg3tf" class="animable"></path><path d="M135.57,226.92a47.45,47.45,0,0,0-3.51,4.82,36,36,0,0,0-2.67,5.3,35.11,35.11,0,0,0-1.94,5.64,52.68,52.68,0,0,0-.85,6c0,.23.29.33.36.09.55-1.87,1.29-3.69,2-5.5s1.33-3.64,2.09-5.43,1.6-3.55,2.44-5.31,1.67-3.51,2.64-5.2C136.35,227,135.83,226.6,135.57,226.92Z" style="fill: rgb(255, 199, 39); transform-origin: 131.391px 237.855px;" id="elyfd552rvw6" class="animable"></path><path d="M133.44,234.66a31.84,31.84,0,0,0-2.31,5,30.83,30.83,0,0,0-1.29,5.26,29.79,29.79,0,0,0,.47,10.73.1.1,0,0,0,.19,0,59.9,59.9,0,0,1,.94-10.52,51.76,51.76,0,0,1,1.09-5.09,52.62,52.62,0,0,1,1.5-5.07C134.17,234.55,133.61,234.34,133.44,234.66Z" style="fill: rgb(255, 199, 39); transform-origin: 131.806px 245.112px;" id="eltsmracgu69c" class="animable"></path><path d="M292.88,226.43a46.77,46.77,0,0,0-4.38-5.05c-.1-.11-.3,0-.21.17a64,64,0,0,1,6,10.1c.85,1.72,1.68,3.46,2.39,5.24s1.36,3.69,2,5.55c.75,2.09,1.31,4.24,1.92,6.37a.08.08,0,0,0,.15,0C300.83,240.76,297.65,232.79,292.88,226.43Z" style="fill: rgb(255, 199, 39); transform-origin: 294.509px 235.099px;" id="el0zd9bpjg82a" class="animable"></path><path d="M297.33,246.08a21.85,21.85,0,0,0-.16-2.42,32.16,32.16,0,0,0-.86-4.88,58.22,58.22,0,0,0-3.56-9.19c-.08-.17-.37,0-.31.14,1,3.05,1.66,6.25,2.39,9.38.36,1.55.75,3.09,1.15,4.63.2.78.38,1.58.6,2.35s.34,1.59.61,2.34c0,.06.13.07.14,0A23,23,0,0,0,297.33,246.08Z" style="fill: rgb(255, 199, 39); transform-origin: 294.896px 238.999px;" id="ele8ymcjjbbst" class="animable"></path><path d="M341.34,324.36c-1.47-1.91-2.9-3.84-4.4-5.71a51.56,51.56,0,0,0-4.91-5.22c-1.76-1.63-3.54-3.24-5.43-4.72s-4-2.78-6-4.13c-1.08-.74-2.23-1.38-3.35-2.07s-2.35-1.46-3.56-2.14c-.08-.05-.15.07-.07.13,2,1.4,3.9,2.81,5.75,4.36s3.56,3.07,5.32,4.63,3.58,3.08,5.32,4.67c.9.82,1.78,1.65,2.65,2.5s1.77,1.57,2.64,2.36c2,1.8,4,3.54,5.83,5.48C341.25,324.59,341.42,324.46,341.34,324.36Z" style="fill: rgb(255, 199, 39); transform-origin: 327.473px 312.444px;" id="elge4yn0nk5ru" class="animable"></path><path d="M355.09,351.06a57.31,57.31,0,0,0-3-6.17c-1.08-2-2.25-4-3.49-6a49.88,49.88,0,0,0-4.12-5.39c-1.67-1.95-3.45-3.79-5.17-5.7-.06-.07-.16,0-.1.11,2.89,3.49,5,7.51,7.43,11.34,1.18,1.9,2.33,3.82,3.41,5.78s2,4,3,6c1.13,2.25,2.32,4.48,3.45,6.73.16.31.61.07.53-.24A47.22,47.22,0,0,0,355.09,351.06Z" style="fill: rgb(255, 199, 39); transform-origin: 348.115px 342.838px;" id="eldl5g3f0tim" class="animable"></path><path d="M356.12,361.25a31.6,31.6,0,0,0-1.5-5.12c-.62-1.61-1.34-3.16-2.11-4.7a39.8,39.8,0,0,0-2.65-4.72c-.05-.06-.17,0-.14.06.63,1.61,1.32,3.2,1.92,4.82s1.12,3.29,1.63,5,1,3.32,1.58,5,1,3.33,1.57,5a.2.2,0,0,0,.39-.07A28.18,28.18,0,0,0,356.12,361.25Z" style="fill: rgb(255, 199, 39); transform-origin: 353.263px 356.707px;" id="elbqwqmugggqb" class="animable"></path><path d="M163.63,180.14c-3.24,4.11-6.57,8.19-9.53,12.5s-5.76,8.81-8.3,13.39a79.06,79.06,0,0,0-4,8.08.1.1,0,0,0,.18.1c3-4.31,5.66-8.88,8.42-13.35s5.62-8.86,8.4-13.31c1.56-2.51,3.2-5,4.89-7.39C163.66,180.14,163.64,180.13,163.63,180.14Z" style="fill: rgb(38, 50, 56); transform-origin: 152.739px 197.2px;" id="el910ysh1eejf" class="animable"></path><path d="M281.34,207c-2.92-4.53-5.76-9.09-8.91-13.47s-6.35-8.54-9.79-12.61c0,0-.12,0-.09.07,2.89,4.49,5.92,8.88,9,13.23s6.44,8.56,9.63,12.87A.08.08,0,0,0,281.34,207Z" style="fill: rgb(38, 50, 56); transform-origin: 271.948px 194.028px;" id="el5ezkgllfx2r" class="animable"></path><path d="M228.15,333.66c-6.44-.47-12-4.86-14.66-9.93a18.27,18.27,0,0,1-2-6.47,6.2,6.2,0,0,0,1.55-.81,10.26,10.26,0,0,0,3-4.05,14.79,14.79,0,0,0,1.46-5.49c.06-1.38,0-3.66-1.67-4.31s-3,.89-3.57,2a22.18,22.18,0,0,0-1.77,5.28,23.4,23.4,0,0,0-.53,6.18,4.3,4.3,0,0,1-1.28-.06c-3.48-.65-5-3.88-5.37-6.72a33.42,33.42,0,0,1,.28-10,51.68,51.68,0,0,1,7.55-19.15c.46-.72.9-1.45,1.4-2.15.05-.08-.09-.15-.14-.07-4.59,6.38-8.49,13.16-10.15,20.66a31.27,31.27,0,0,0-.67,11.11c.48,3.39,2.36,6.93,6.41,7.75a6.41,6.41,0,0,0,2.09.09,20,20,0,0,0,.74,3.57,18.81,18.81,0,0,0,14.82,12.69,20.07,20.07,0,0,0,2.46.2C228.44,334.06,228.42,333.69,228.15,333.66ZM211.33,314a24.27,24.27,0,0,1,.62-5c.2-.84.44-1.68.72-2.51a7.24,7.24,0,0,1,1-2.15c.41-.52,1.22-1.3,2-.82s.71,1.45.75,2.11a11.69,11.69,0,0,1-1,5.09c-.75,1.77-2,4.1-4,5C211.34,315.16,211.32,314.58,211.33,314Z" style="fill: rgb(38, 50, 56); transform-origin: 214.857px 305.933px;" id="el2553uce2sxs" class="animable"></path><path d="M222.15,388.22c-4-4.58-18.28-22.64-21.5-27.71-6.48-10.19-11.84-21.11-17.43-31.73-3.17-6-6.75-13.16-9.73-19.27-.05-.09-.21-.05-.17.05,4.82,11,8.6,21.65,13.27,31.66A157.82,157.82,0,0,0,206.12,372c4.26,5.39,10.92,11.51,15.82,16.42C222,388.47,222.24,388.33,222.15,388.22Z" style="fill: rgb(38, 50, 56); transform-origin: 197.742px 348.945px;" id="elt8hm8eq7ep" class="animable"></path><path d="M218.53,414c-.07-6.5-.4-13-.76-19.48-.2-3.69-.45-7.39-.59-11.08a.13.13,0,0,0-.26,0c0,6.5-.19,13-.23,19.51s.13,13,.43,19.48c.18,3.71.51,7.4.81,11.09a.14.14,0,0,0,.27,0c.12-3.25.31-6.5.34-9.76S218.56,417.25,218.53,414Z" style="fill: rgb(38, 50, 56); transform-origin: 217.621px 408.467px;" id="elt8k8666h3a" class="animable"></path><path d="M236.36,425.18c0-3.19-.05-6.38-.17-9.57q-.34-9.57-.93-19.13c-.22-3.63-.52-7.27-.75-10.9a.2.2,0,0,0-.4,0c.07,6.38,0,12.76.19,19.14s.43,12.76.84,19.13c.11,1.8.23,3.59.38,5.38.07.86.15,1.71.22,2.56s.22,1.73.27,2.6a.09.09,0,0,0,.17,0,37.56,37.56,0,0,0,.18-4.38C236.38,428.42,236.37,426.8,236.36,425.18Z" style="fill: rgb(38, 50, 56); transform-origin: 235.241px 409.915px;" id="eltqpuv4cns6b" class="animable"></path><path d="M288,377.84q1.1-8.18,2.31-16.32a.14.14,0,0,0-.28,0q-1.24,7.13-2.59,14.23c-.89,4.7-1.62,9.43-2.59,14.12a67.48,67.48,0,0,1-4.69,13.43c-1.93,4.38-3.85,8.77-5.69,13.2-1,2.49-2.08,5-3.09,7.48-.51,1.25-1,2.49-1.52,3.75s-.93,2.64-1.42,3.95a.14.14,0,0,0,.26.12c.56-1.09,1.18-2.12,1.72-3.22s1.06-2.18,1.57-3.28c1-2.2,2.08-4.39,3.1-6.59,2.05-4.4,4-8.82,6-13.25,1-2.15,1.89-4.31,2.71-6.52a52.72,52.72,0,0,0,1.87-6.78C286.77,387.42,287.39,382.6,288,377.84Z" style="fill: rgb(38, 50, 56); transform-origin: 279.369px 396.631px;" id="el0g3rd56mhpx" class="animable"></path><path d="M215.52,439.93c-2.73,2.45-10.26,9.72-13.47,10.8s-9-.07-9-.07c-6.27,3.25-14.08-1.79-14.08-1.79-2.64-.21-7.2-5.25-7.16-5.73a19.34,19.34,0,0,1,1.39-5.68c1-2.09,8.7-8.38,8.76-9.11,4.67-1.07,9.34-1.54,18.14,1.39a18.4,18.4,0,0,0-10.59-3.07s17.5-1.3,27.86,6C217.33,432.66,218.23,437.49,215.52,439.93Z" style="fill: rgb(255, 255, 255); transform-origin: 194.646px 439.166px;" id="el04olt4k60635" class="animable"></path><path d="M185.78,433.66a23.31,23.31,0,0,0-3.57,2.84,12.34,12.34,0,0,0-2.71,3.43,10.15,10.15,0,0,0-1.08,4,13.7,13.7,0,0,0,.89,4.81c0,.07.15.06.14,0a19.28,19.28,0,0,1-.06-4.68,10.16,10.16,0,0,1,1.41-3.62,24,24,0,0,1,2.36-3.31c.92-1.08,2-2,2.88-3.12C186.19,433.81,186,433.53,185.78,433.66Z" style="fill: rgb(38, 50, 56); transform-origin: 182.257px 441.208px;" id="elhiga1rxbvpv" class="animable"></path><path d="M200.24,435.36a22.53,22.53,0,0,0-6.06,6.55,10.55,10.55,0,0,0-.64,8.68.08.08,0,0,0,.15,0,21.47,21.47,0,0,1,.36-4.38,18.49,18.49,0,0,1,1.44-3.79,23.86,23.86,0,0,1,2.13-3.62c.86-1.14,1.77-2.24,2.7-3.32C200.36,435.41,200.3,435.31,200.24,435.36Z" style="fill: rgb(38, 50, 56); transform-origin: 196.614px 442.994px;" id="elmdcnzeenpb" class="animable"></path><path d="M279.09,443.9a21.6,21.6,0,0,1-5.66,3.19s-2.57,5.22-6.22,5.8-9-1-9-1-5.11,2.26-8.07,1.68-10.52-6-11.66-8.48-2.31-11-2.31-11c4.41-2.72,14.59-6.42,26.31-4.71,0,0-6.66-.36-11.8,1.62,0,0,9.92-.82,18.21.8l1.77.38.05,0a13.13,13.13,0,0,1,3.1,1.42C276.49,435.27,281,442.12,279.09,443.9Z" style="fill: rgb(255, 255, 255); transform-origin: 257.859px 441.305px;" id="ellm7omr8bpi" class="animable"></path><path d="M261.92,443.62c-.56-2.85-3.72-4.08-6.1-5-.09,0-.16.08-.07.13,2.12,1.13,4.59,2.66,4.75,5.35a9.89,9.89,0,0,1-.85,3.85c-.45,1.26-1,2.49-1.41,3.76,0,.09.09.14.15.08a12.13,12.13,0,0,0,2.61-3.65A7.18,7.18,0,0,0,261.92,443.62Z" style="fill: rgb(38, 50, 56); transform-origin: 258.843px 445.218px;" id="elv96f9w3m1y" class="animable"></path><path d="M274.22,439c-1.65-2.21-4.74-3-7.28-3.49a.06.06,0,0,0,0,.12c2.35.87,4.76,1.72,6,4.06,1.17,2.17.94,5,.42,7.33a.1.1,0,0,0,.19.07C275,444.75,276,441.43,274.22,439Z" style="fill: rgb(38, 50, 56); transform-origin: 271.026px 441.332px;" id="elnblj1h23m9c" class="animable"></path><g id="elpzrkdyr154"><path d="M180.57,277.51s20.32,5.28,31.5,5,30.14-7,30.14-7-17.89,49.64-28.37,51.87S180.57,277.51,180.57,277.51Z" style="opacity: 0.1; transform-origin: 211.39px 301.48px;" class="animable"></path></g><path d="M235.56,270.46c-.93.68-1.91,1.28-2.84,2s-1.83,1.38-2.76,2.06c-1.85,1.35-3.74,2.65-5.69,3.87-3.89,2.46-7.85,4.81-11.78,7.21-.06,0-.05.17,0,.14,7-2,13.31-5.8,19.14-10.14.81-.6,1.6-1.21,2.37-1.86s1.56-1.49,2.33-2.24A.65.65,0,0,0,235.56,270.46Z" style="fill: rgb(255, 199, 39); transform-origin: 224.497px 278.055px;" id="ely7zieyt7vl" class="animable"></path><path d="M241.73,264.45c-2.68,2.47-5,5.29-7.46,7.93-1.24,1.32-2.53,2.6-3.84,3.85s-2.61,2.58-4,3.76c-1.59,1.36-3.27,2.56-4.94,3.81-.06.05,0,.17,0,.14a29.75,29.75,0,0,0,4.79-2.56,49.46,49.46,0,0,0,4.55-3.24,64.94,64.94,0,0,0,7.91-7.91,39.46,39.46,0,0,0,3.84-5.09C243,264.58,242.19,264,241.73,264.45Z" style="fill: rgb(255, 199, 39); transform-origin: 232.08px 274.117px;" id="elhihy26hdipr" class="animable"></path><path d="M211.2,284.84a18.39,18.39,0,0,1-2.54-1c-.79-.33-1.57-.71-2.34-1.09-1.59-.78-3.19-1.51-4.77-2.32a66.26,66.26,0,0,1-9.18-5.36c-.21-.16-.5.11-.29.31a34.75,34.75,0,0,0,8.61,6.6,26.36,26.36,0,0,0,5,2c.88.23,1.76.4,2.64.58s1.88.22,2.79.43A.08.08,0,0,0,211.2,284.84Z" style="fill: rgb(255, 199, 39); transform-origin: 201.626px 280.011px;" id="elmxxw4xu0ng" class="animable"></path><path d="M204.47,284.82c-3.8-1.7-7.45-3.58-11.09-5.6-1.78-1-3.56-2-5.32-3a24.1,24.1,0,0,1-5.13-3.7c-.13-.13-.33.05-.24.2a16.32,16.32,0,0,0,4.5,4.34,43.2,43.2,0,0,0,5.26,3.44,46.54,46.54,0,0,0,12,4.48C204.49,285,204.55,284.85,204.47,284.82Z" style="fill: rgb(255, 199, 39); transform-origin: 193.588px 278.729px;" id="elz5dqo9xhmm" class="animable"></path><path d="M181.41,194.11c-10.12,0-15.22,7.77-15.22,16.85,0,7.35,6,14.86,15.73,14.86s15.73-8.82,15.73-15.73A16,16,0,0,0,181.41,194.11Z" style="fill: rgb(38, 50, 56); transform-origin: 181.92px 209.964px;" id="el675x3jqcase" class="animable"></path><path d="M182.39,196c-9.52,0-14.31,7.3-14.31,15.83,0,6.91,5.65,14,14.78,14s14.79-8.29,14.79-14.78A15,15,0,0,0,182.39,196Z" style="fill: rgb(255, 255, 255); transform-origin: 182.865px 210.914px;" id="ell7bat5t5ma" class="animable"></path><path d="M182.49,199.25c-7.45,0-11.2,5.72-11.2,12.4a11.17,11.17,0,0,0,11.57,10.93c7.15,0,11.58-6.49,11.58-11.57A11.75,11.75,0,0,0,182.49,199.25Z" style="fill: rgb(38, 50, 56); transform-origin: 182.865px 210.918px;" id="elk2j4dvb1xrb" class="animable"></path><path d="M185.94,199.37c-3.38,0-5.09,2.6-5.09,5.63a5.08,5.08,0,0,0,5.26,5,5.4,5.4,0,0,0,5.25-5.26A5.33,5.33,0,0,0,185.94,199.37Z" style="fill: rgb(255, 255, 255); transform-origin: 186.105px 204.686px;" id="eltxa2neyi5y" class="animable"></path><path d="M247.53,194.11c10.13,0,15.22,7.77,15.22,16.85,0,7.35-6,14.86-15.72,14.86S231.3,217,231.3,210.09A16,16,0,0,1,247.53,194.11Z" style="fill: rgb(38, 50, 56); transform-origin: 247.025px 209.964px;" id="elxgy48wgjfde" class="animable"></path><path d="M246.56,196c9.52,0,14.3,7.3,14.3,15.83,0,6.91-5.64,14-14.78,14S231.3,217.53,231.3,211A15,15,0,0,1,246.56,196Z" style="fill: rgb(255, 255, 255); transform-origin: 246.08px 210.914px;" id="elibblp083myk" class="animable"></path><path d="M246.46,199.25c7.45,0,11.19,5.72,11.19,12.4a11.17,11.17,0,0,1-11.57,10.93c-7.15,0-11.57-6.49-11.57-11.57A11.75,11.75,0,0,1,246.46,199.25Z" style="fill: rgb(38, 50, 56); transform-origin: 246.08px 210.918px;" id="eloaulcd7r32o" class="animable"></path><path d="M250.47,199.37c-3.38,0-5.08,2.6-5.08,5.63a5.08,5.08,0,0,0,5.25,5,5.41,5.41,0,0,0,5.26-5.26A5.33,5.33,0,0,0,250.47,199.37Z" style="fill: rgb(255, 255, 255); transform-origin: 250.645px 204.686px;" id="el00fza9zta2acl" class="animable"></path><path d="M221.77,215.28c-.14,1-6.48,4.54-7.21,4.54s-7.06-3.58-7.21-4.54,5.72-1.32,7.21-1.32S221.92,214.32,221.77,215.28Z" style="fill: rgb(38, 50, 56); transform-origin: 214.56px 216.89px;" id="elfp6z41skfws" class="animable"></path><path d="M198,223.3a33.05,33.05,0,0,0,4.05,4.06,13.84,13.84,0,0,0,2.3,1.55,4.67,4.67,0,0,0,2.42.6A6.4,6.4,0,0,0,211,227a16.56,16.56,0,0,0,2.62-4.7l1-2.66.94,2.66A19.24,19.24,0,0,0,218,227c1,1.4,2.42,2.58,4,2.46a9.79,9.79,0,0,0,4.79-2.28A32.39,32.39,0,0,0,231,223.3a23.61,23.61,0,0,1-3.57,4.56,13.52,13.52,0,0,1-2.3,1.87,7.24,7.24,0,0,1-2.89,1.16,5.12,5.12,0,0,1-3.25-.63,9,9,0,0,1-2.38-2.08,14.41,14.41,0,0,1-1.69-2.52,22.16,22.16,0,0,1-1.25-2.75h1.89a18.1,18.1,0,0,1-1.32,2.77,13.58,13.58,0,0,1-1.8,2.49,9.62,9.62,0,0,1-2.48,2,6.57,6.57,0,0,1-3.14.77,5.72,5.72,0,0,1-3-1,12.72,12.72,0,0,1-2.3-1.93A23.46,23.46,0,0,1,198,223.3Z" style="fill: rgb(38, 50, 56); transform-origin: 214.5px 225.29px;" id="el5y3m7lz8j32" class="animable"></path><path d="M165.63,221.82c-7.1-1.8-14.26-3.32-21.46-4.66s-14.41-2.54-21.67-3.44q-2.72-.39-5.44-.69c-1.82-.21-3.63-.45-5.45-.63-3.64-.34-7.28-.7-10.93-1-7.3-.63-14.61-.85-21.94-1.1l5.5-.08c1.83,0,3.67,0,5.5,0l5.49.14c1.84,0,3.67.18,5.5.27,7.32.38,14.62,1.14,21.9,2.06s14.51,2.19,21.69,3.68q5.38,1.13,10.73,2.44C158.59,219.77,162.14,220.7,165.63,221.82Z" style="fill: rgb(38, 50, 56); transform-origin: 122.185px 216.02px;" id="el7hlek8fyz8" class="animable"></path><path d="M162,225.55c-3.28-.42-6.55-.82-9.84-1.15s-6.56-.68-9.85-1c-6.57-.58-13.15-1.07-19.74-1.36-3.29-.21-6.59-.31-9.88-.43s-6.6-.16-9.89-.17l-4.95,0-5,.08c-3.3,0-6.59.21-9.9.25,6.58-.6,13.18-1,19.79-1.07s13.23.06,19.83.37,13.2.85,19.77,1.59S155.53,224.3,162,225.55Z" style="fill: rgb(38, 50, 56); transform-origin: 122.475px 223.116px;" id="el87rzdidkwb3" class="animable"></path><path d="M163.22,229.93c-2.75,0-5.5,0-8.25,0s-5.5.07-8.25.16c-5.5.16-11,.34-16.48.7s-11,.69-16.45,1.17-10.94,1-16.43,1.57q4.08-.71,8.16-1.31c2.73-.36,5.46-.73,8.2-1,5.47-.64,11-1,16.47-1.4s11-.47,16.52-.47S157.73,229.46,163.22,229.93Z" style="fill: rgb(38, 50, 56); transform-origin: 130.29px 231.44px;" id="elt7yg84zkwes" class="animable"></path><path d="M265.73,221.82c3.49-1.12,7-2,10.58-3s7.14-1.69,10.73-2.44c7.18-1.49,14.42-2.69,21.69-3.68s14.57-1.68,21.9-2.06c1.83-.09,3.66-.22,5.49-.27l5.5-.14c1.83,0,3.67,0,5.5,0l5.49.08c-7.32.25-14.64.47-21.93,1.1-3.65.26-7.29.62-10.93,1-1.82.18-3.63.42-5.45.63s-3.63.43-5.44.69c-7.26.9-14.48,2.11-21.67,3.44S272.83,220,265.73,221.82Z" style="fill: rgb(38, 50, 56); transform-origin: 309.17px 216.025px;" id="ell1rwqior2ap" class="animable"></path><path d="M269.34,225.55c6.49-1.25,13-2.14,19.61-2.88s13.17-1.22,19.77-1.59,13.21-.47,19.82-.37,13.22.47,19.8,1.07c-3.31,0-6.6-.27-9.9-.25l-4.95-.08-4.95,0c-3.3,0-6.59.11-9.89.17s-6.59.22-9.88.43c-6.59.29-13.17.78-19.74,1.36q-4.93.42-9.85,1C275.89,224.73,272.62,225.13,269.34,225.55Z" style="fill: rgb(38, 50, 56); transform-origin: 308.84px 223.112px;" id="elmj65b1sj0a" class="animable"></path><path d="M268.14,229.93c5.49-.47,11-.59,16.51-.6s11,.19,16.52.47,11,.76,16.47,1.4c2.74.3,5.47.67,8.2,1s5.44.84,8.15,1.31c-5.48-.54-10.94-1.13-16.43-1.57s-11-.88-16.45-1.17-11-.54-16.47-.7c-2.75-.09-5.5-.13-8.25-.16S270.89,229.91,268.14,229.93Z" style="fill: rgb(38, 50, 56); transform-origin: 301.065px 231.42px;" id="el2jlmxd0r8y4" class="animable"></path><path d="M353,361.44s.75,14.32.8,16.12c0,0,6.78,5.58,5.25,8.38-1.17,2.13-6.13,5.31-35.88.63s-66.51-2.62-68.68,22.08,24.7,36.05,65.44,34.61,68.14-16,68.86-41.64C389.32,382.63,370.13,365,353,361.44Z" style="fill: rgb(255, 199, 39); transform-origin: 321.584px 402.411px;" id="el27vqwwhskaf" class="animable"></path><path d="M388.66,393.34a32.27,32.27,0,0,0-4.1-7.29c-.06-.08-.18,0-.13.07a23.89,23.89,0,0,1,2.9,6.75,50.77,50.77,0,0,1,1.18,7.15,38.44,38.44,0,0,1-.58,11.2c-.26,1.28-.63,2.53-.91,3.81a53.3,53.3,0,0,1-2.58,8.4c-.15.37.45.61.63.27a49.13,49.13,0,0,0,3.42-7.36,38.58,38.58,0,0,0,1.77-7.88A29.7,29.7,0,0,0,388.66,393.34Z" style="fill: rgb(255, 199, 39); transform-origin: 387.513px 404.94px;" id="elko5ennut9qg" class="animable"></path><path d="M387.57,399.11a.07.07,0,1,0-.14,0,32.58,32.58,0,0,1-.79,7c-.47,2.28-1,4.56-1.6,6.81a50.37,50.37,0,0,1-2.25,6.64c-.44,1.05-.92,2.08-1.43,3.1s-1,2.16-1.56,3.2-1.3,2.29-2,3.43-1.45,2.19-2.19,3.27c-.14.21.17.44.35.27a38,38,0,0,0,4.6-5.45,35.83,35.83,0,0,0,3.56-6.26,39.63,39.63,0,0,0,3.64-13.95C387.92,404.5,387.72,401.81,387.57,399.11Z" style="fill: rgb(255, 199, 39); transform-origin: 381.697px 415.965px;" id="el4d6y2pdo4pb" class="animable"></path><path d="M366.49,379.73c-2.06,4.14-6.2,6.83-10.56,8-5.5,1.55-11.28.75-16.83-.13-5.89-.94-11.8-1.76-17.71-2.52-5.64-.72-11.29-1.43-17-1.84-11-.8-22.52-.42-32.95,3.67A30.05,30.05,0,0,0,259,395.61a26.56,26.56,0,0,0-5.77,12.64,23.74,23.74,0,0,0,10,23.22,22.5,22.5,0,0,0,2.86,1.64.09.09,0,0,0,.08-.15c-7.33-5.37-12.67-13.66-11.64-22.58a25.24,25.24,0,0,1,5.23-12.5,27.89,27.89,0,0,1,11.59-8.55c10.13-4.21,21.36-4.67,32.17-4,11.42.75,22.76,2.61,34.11,4,5.58.69,11.39,1.29,16.92,0a18.34,18.34,0,0,0,10.73-6.7,13.76,13.76,0,0,0,1.51-2.77C366.82,379.7,366.58,379.55,366.49,379.73Z" style="fill: rgb(38, 50, 56); transform-origin: 309.869px 406.38px;" id="elc45kievk625" class="animable"></path></g><g id="freepik--witch-hat--inject-14" class="animable" style="transform-origin: 228.364px 160.616px;"><path d="M324.67,254.79c-1.58-1.19-42-43.49-95.06-71.59-52.13-27.6-107.87-41.07-108.88-41.41,0,0,52.14-8.12,67.6-3.29A346.65,346.65,0,0,1,224.24,152c6.34,2.78,12.3,5.65,17.89,8.52,2.21,1.11,4.33,2.24,6.42,3.38q4.32,2.3,8.24,4.57A324.55,324.55,0,0,1,286.93,188c2.78,2,5.15,3.82,7.06,5.3,1,.79,1.95,1.48,2.69,2.06,1.24,1,2.14,1.69,2.68,2.07C304.74,201.16,324.79,254.86,324.67,254.79Z" style="fill: rgb(38, 50, 56); transform-origin: 222.7px 195.878px;" id="elqpglsb7oq2p" class="animable"></path><path d="M301.35,198.61c-5-4.18-40.17-37.44-102.88-57.38h-.05c-3.9-1.26-7.92-2.44-12-3.57,10.6-10.79,34.57-27.16,36-26.42S251.53,84,276.5,72.51c11.79-5.41,47.64-8.8,53.6-3.16,3.36,3.19,5.74,24.43,5.89,42.52.12,13.91-1.09,25.95-4.15,26.46-7.12,1.22-14.23-26.09-17.21-24.56s-3.66,4.16-2.85,10.76-7.37,8.54-7.37,8.54-.66,1.49,2.68,11.36S301.35,198.61,301.35,198.61Z" style="fill: rgb(38, 50, 56); transform-origin: 261.209px 132.526px;" id="elouvmjgen2o" class="animable"></path><path d="M301.35,198.61c-1.81.29-6.67-2.72-14-7.57-9.93-6.51-24.39-16.3-42-25.65-30.71-16.29-56.58-25.14-58.92-27.74-1.34-1.48,7.77-11.45,13.63-12.44,4.61-.78,41.61,12.15,76.38,34.66a253.47,253.47,0,0,1,27.69,20.61C305.79,182,302.7,198.4,301.35,198.61Z" style="fill: rgb(255, 199, 39); transform-origin: 245.453px 161.903px;" id="el224nrct4rnzh" class="animable"></path><path d="M248.24,173.92l-37.82-20,13.64-25.73,37.82,20.06ZM219.82,151l25.53,13.54,7.13-13.44L227,137.55Z" style="fill: rgb(235, 235, 235); transform-origin: 236.15px 151.055px;" id="ele90pgss20ua" class="animable"></path></g><g id="freepik--Bats--inject-14" class="animable" style="transform-origin: 247.77px 195.75px;"><path d="M409.41,124.5s.38,10.81-4.79,16.58c-.6.67-4.33-3.48-4.33-3.48v2.07a3,3,0,0,0-3.15,1.8l-2-1.66s1.79,5.32,1.31,6.43-13-.93-16.93-4.91c-.41-.41-2.55,7.46-8.91,11.33,0,0,6.29-1.38,9.67,2.83,0,0,6.91-5.8,12.58,1.59,0,0,5.52-6.9,13.81-1,0,0-2.07-8.09,7.6-11.47,0,0-2.83-8.57,5.39-12.78,0,0-1.31-7.39,4.28-12A37.73,37.73,0,0,1,409.41,124.5Z" style="fill: rgb(38, 50, 56); transform-origin: 397.275px 138.455px;" id="elq1w3b22n54" class="animable"></path><path d="M426.21,169.88s-4.13,4.75-8.62,5.15c-.52,0-.46-3.2-.46-3.2l-.83.88a1.77,1.77,0,0,0-2.05-.49l-.17-1.48s-1.35,3-2,3.25-5.13-5.54-5.24-8.81c0-.34-4,2.16-8.29,1.28,0,0,3.22,1.91,3,5,0,0,5.25.27,4.72,5.66,0,0,5.09-.74,6.28,5.05,0,0,2.33-4.26,7.79-1.86,0,0,2.2-4.76,7.36-3.29,0,0,2.38-3.66,6.57-3.38A21.78,21.78,0,0,1,426.21,169.88Z" style="fill: rgb(38, 50, 56); transform-origin: 416.41px 173.659px;" id="elwgdx3yhvy8" class="animable"></path><path d="M89.81,262.17s-5.8,3.86-10.72,3c-.57-.11.44-3.55.44-3.55l-1.13.7a2,2,0,0,0-2.06-1.12l.25-1.64s-2.31,2.78-3.08,2.89-3.87-7.42-3-10.94c.08-.37-5,1.12-9.24-1.06,0,0,2.89,3,1.72,6.27,0,0,5.52,1.82,3.38,7.43,0,0,5.66.7,5.25,7.23,0,0,3.73-3.87,8.86.29,0,0,3.74-4.45,8.83-1.37,0,0,3.62-3.22,8-1.69A24.28,24.28,0,0,1,89.81,262.17Z" style="fill: rgb(38, 50, 56); transform-origin: 79.29px 261.06px;" id="elw6x7djgcp6a" class="animable"></path></g><defs>     <filter id="active" height="200%">         <feMorphology in="SourceAlpha" result="DILATED" operator="dilate" radius="2"></feMorphology>                <feFlood flood-color="#32DFEC" flood-opacity="1" result="PINK"></feFlood>        <feComposite in="PINK" in2="DILATED" operator="in" result="OUTLINE"></feComposite>        <feMerge>            <feMergeNode in="OUTLINE"></feMergeNode>            <feMergeNode in="SourceGraphic"></feMergeNode>        </feMerge>    </filter>    <filter id="hover" height="200%">        <feMorphology in="SourceAlpha" result="DILATED" operator="dilate" radius="2"></feMorphology>                <feFlood flood-color="#ff0000" flood-opacity="0.5" result="PINK"></feFlood>        <feComposite in="PINK" in2="DILATED" operator="in" result="OUTLINE"></feComposite>        <feMerge>            <feMergeNode in="OUTLINE"></feMergeNode>            <feMergeNode in="SourceGraphic"></feMergeNode>        </feMerge>            <feColorMatrix type="matrix" values="0   0   0   0   0                0   1   0   0   0                0   0   0   0   0                0   0   0   1   0 "></feColorMatrix>    </filter></defs></svg>