<svg id="Digital_content" height="512" viewBox="0 0 64 64" width="512" xmlns="http://www.w3.org/2000/svg" data-name="Digital content"><path d="m3 3h58v58h-58z" fill="#91d1f5"/><path d="m41 45h16v12h-16z" fill="#ec455a"/><path d="m47 49v4l4-2z" fill="#fff"/><path d="m41 16h16v11h-16z" fill="#fff"/><path d="m47.671 20.59-6.671-4.59h16l-6.671 4.59a2.358 2.358 0 0 1 -2.658 0z" fill="#e0e0e2"/><path d="m41 31h16v10h-16z" fill="#ffc740"/><path d="m35 61v-7.54a5.991 5.991 0 0 0 -4.28-5.74l-2.16-.65a5.007 5.007 0 0 1 -3.56-4.79v-5.28h-8v5.28a5.007 5.007 0 0 1 -3.56 4.79l-2.16.65a5.991 5.991 0 0 0 -4.28 5.74v7.54z" fill="#8cc63e"/><path d="m27.97 46.85c-.27 2.33-3.28 4.15-6.97 4.15s-6.7-1.82-6.97-4.15a5 5 0 0 0 2.97-4.57v-5.28h8v5.28a5 5 0 0 0 2.97 4.57z" fill="#ffcbbe"/><path d="m21 42a8 8 0 0 1 -8-8v-11h16v11a8 8 0 0 1 -8 8z" fill="#ffddce"/><path d="m11 26h2a0 0 0 0 1 0 0v5a0 0 0 0 1 0 0h-2a2 2 0 0 1 -2-2v-1a2 2 0 0 1 2-2z" fill="#ffcbbe"/><path d="m31 26h2a0 0 0 0 1 0 0v5a0 0 0 0 1 0 0h-2a2 2 0 0 1 -2-2v-1a2 2 0 0 1 2-2z" fill="#ffcbbe" transform="matrix(-1 0 0 -1 62 57)"/><path d="m9 16h14a6 6 0 0 1 6 6v3a0 0 0 0 1 0 0h-12.306a7.694 7.694 0 0 1 -7.694-7.694v-1.306a0 0 0 0 1 0 0z" fill="#3e3d42"/><path d="m3 3h52v8h-52z" fill="none"/><path d="m3 3h58v8h-58z" fill="#006ca9"/><g fill="#3e3d42"><path d="m48 35h2v2h-2z"/><path d="m21 38c2.243 0 4-1.318 4-3h-2c0 .408-.779 1-2 1s-2-.592-2-1h-2c0 1.682 1.757 3 4 3z"/><path d="m44 35h2v2h-2z"/><path d="m52 35h2v2h-2z"/><path d="m18 32a1 1 0 0 0 1-1v-1a1 1 0 0 0 -2 0v1a1 1 0 0 0 1 1z"/><path d="m24 32a1 1 0 0 0 1-1v-1a1 1 0 0 0 -2 0v1a1 1 0 0 0 1 1z"/></g><path d="m6 6h2v2h-2z" fill="#ec455a"/><path d="m10 6h2v2h-2z" fill="#ffc740"/><path d="m14 6h2v2h-2z" fill="#8cc63e"/></svg>