<svg xmlns="http://www.w3.org/2000/svg" viewBox="0 0 500 500"><g id="freepik--Floor--inject-106"><path d="M409,247.81c-88.41-51.05-231.28-51.05-319.12,0S2.55,381.61,91,432.65s231.28,51.05,319.12,0S497.45,298.85,409,247.81Z" style="fill:#f5f5f5"></path></g><g id="freepik--Shadows--inject-106"><path d="M154.69,330.68c29.62-17.1,77.49-17.1,106.91,0,26,15.11,28.89,38.51,8.79,55.55,16.22-1,33,2.09,45.42,9.29,21.75,12.63,21.63,33.12-.25,45.76s-57.26,12.64-79,0c-17.3-10.06-20.75-25.08-10.42-37.16-24.93,3.6-52.37-.23-71.79-11.51C124.92,375.51,125.07,347.78,154.69,330.68Z" style="fill:#e0e0e0"></path><path d="M88.52,373.21c-6.54-3.77-17.11-3.77-23.61,0s-6.46,9.9.08,13.68,17.11,3.77,23.6,0S95.06,377,88.52,373.21Z" style="fill:#e0e0e0"></path></g><g id="freepik--Plant--inject-106"><path d="M92.59,351.49,76.75,352l-15.83-.46c-.68,10.69,1.4,21.59,4.28,26.91h0a7.24,7.24,0,0,0,3.14,3.19c4.67,2.7,12.22,2.7,16.86,0a7,7,0,0,0,3.13-3.27C91.2,373,93.26,362.13,92.59,351.49Z" style="fill:#fff"></path><path d="M87.91,345c6.2,3.59,6.24,9.39.07,13s-16.18,3.59-22.39,0-6.23-9.38-.07-13S81.71,341.42,87.91,345Z" style="fill:#ebebeb"></path><path d="M85.46,346.43c4.84,2.79,4.86,7.32.06,10.12s-12.63,2.79-17.47,0-4.87-7.33-.06-10.12S80.62,343.64,85.46,346.43Z" style="fill:#e0e0e0"></path><g style="opacity:0.15"><path d="M85.46,346.43c4.84,2.79,4.86,7.32.06,10.12s-12.63,2.79-17.47,0-4.87-7.33-.06-10.12S80.62,343.64,85.46,346.43Z"></path></g><path d="M102.78,283.93c-35.68,11.68-36,35.55-28,52.55,2,3.44,8.17,5.29,13.52-15.85L79,321.83l10.93-5.54,2.83-8.48-9.1.68,11.55-4.86A171.38,171.38,0,0,1,102.78,283.93Z" style="fill:#BA68C8"></path><path d="M102.78,283.93c-35.68,11.68-36,35.55-28,52.55,2,3.44,8.17,5.29,13.52-15.85L79,321.83l10.93-5.54,2.83-8.48-9.1.68,11.55-4.86A171.38,171.38,0,0,1,102.78,283.93Z" style="opacity:0.2"></path><path d="M102.78,283.93c-35.68,11.68-36,35.55-28,52.55,2,3.44,8.17,5.29,13.52-15.85L79,321.83l10.93-5.54,2.83-8.48-9.1.68,11.55-4.86A171.38,171.38,0,0,1,102.78,283.93Z" style="fill:#fff;opacity:0.2"></path><path d="M92.69,289.9c-18.81,14.28-20.51,30.65-15.2,47.74C75.61,322.59,73.58,307.37,92.69,289.9Z" style="fill:#fff"></path><path d="M42.35,308.17c35.17,5,39.44,27.13,34.77,44.3C75.8,356,70.39,358.75,61.9,340l8.93-.44-11.09-3.34-4.05-7.42,8.59-.89-11.57-2.6A163.18,163.18,0,0,0,42.35,308.17Z" style="fill:#BA68C8"></path><path d="M42.35,308.17c35.17,5,39.44,27.13,34.77,44.3C75.8,356,70.39,358.75,61.9,340l8.93-.44-11.09-3.34-4.05-7.42,8.59-.89-11.57-2.6A163.18,163.18,0,0,0,42.35,308.17Z" style="fill:#fff;opacity:0.2"></path><path d="M42.35,308.17c35.17,5,39.44,27.13,34.77,44.3C75.8,356,70.39,358.75,61.9,340l8.93-.44-11.09-3.34-4.05-7.42,8.59-.89-11.57-2.6A163.18,163.18,0,0,0,42.35,308.17Z" style="opacity:0.1"></path><path d="M52.74,312.06c19.9,10.17,24.2,25.14,22.09,41.94C74.08,339.67,73.44,325.16,52.74,312.06Z" style="fill:#fff"></path><path d="M113.08,316.48c-32.26.53-38.58,20-36.3,36,.79,3.34,5.36,6.41,15.12-9.58l-8-1.4,10.37-1.77,4.48-6.24-7.64-1.75,10.72-1.06A148,148,0,0,1,113.08,316.48Z" style="fill:#BA68C8"></path><path d="M103.28,318.82c-19.07,6.94-24.63,19.95-24.6,35.33C81,341.32,83.15,328.31,103.28,318.82Z" style="fill:#fff"></path><path d="M113.08,316.48c-32.26.53-38.58,20-36.3,36,.79,3.34,5.36,6.41,15.12-9.58l-8-1.4,10.37-1.77,4.48-6.24-7.64-1.75,10.72-1.06A148,148,0,0,1,113.08,316.48Z" style="fill:#fff;opacity:0.2"></path></g><g id="freepik--Character--inject-106"><path d="M247.29,271.76c10.1,7,21.48,11.87,29.92,21.27C293,310.6,293.33,338.86,281,359s-35.38,32.16-58.82,34.92c-24.59,2.9-50.39-3.89-69.68-19.41s-31.56-39.77-31.55-64.52,12.69-49.41,33.43-62.94c18.92-12.33,46.1-15.85,65.08-1.74,9.6,7.14,16,17.68,25.57,24.83C245.74,270.66,246.51,271.22,247.29,271.76Z" style="fill:#455a64"></path><path d="M247.29,271.76c10.1,7,21.48,11.87,29.92,21.27C293,310.6,293.33,338.86,281,359s-35.38,32.16-58.82,34.92c-24.59,2.9-50.39-3.89-69.68-19.41s-31.56-39.77-31.55-64.52,12.69-49.41,33.43-62.94c18.92-12.33,46.1-15.85,65.08-1.74,9.6,7.14,16,17.68,25.57,24.83C245.74,270.66,246.51,271.22,247.29,271.76Z" style="opacity:0.2"></path><path d="M247.29,271.76c10.1,7,21.48,11.87,29.92,21.27C293,310.6,293.33,338.86,281,359s-35.38,32.16-58.82,34.92c-24.59,2.9-50.39-3.89-69.68-19.41s-31.56-39.77-31.55-64.52,12.69-49.41,33.43-62.94c18.92-12.33,46.1-15.85,65.08-1.74,9.6,7.14,16,17.68,25.57,24.83C245.74,270.66,246.51,271.22,247.29,271.76Z" style="fill:#fff;opacity:0.1"></path><path d="M243.18,374.68c0-.17-.05-.34-.07-.51A26.6,26.6,0,0,0,221.56,352,83.77,83.77,0,0,1,194,341.45c-6-3.64-11.73-8.11-18.5-10.09a30.1,30.1,0,0,0-19.93,1.16c5.68-6,15.43-8.6,23.22-5.9-5.39-8.25-10.14-17.14-12-26.83s-.54-20.3,5.3-28.24A28.43,28.43,0,0,1,216,269.2c5.78,6.32,9,15.22,12.83,22.9,2.73,5.52,5.55,11.17,10.05,15.37,6.78,6.35,16.53,8.63,23.57,14.7,8,6.89,11.41,17.89,11.44,28.42a83.38,83.38,0,0,1-3.08,21,79.87,79.87,0,0,1-28.84,17.64A31.32,31.32,0,0,0,243.18,374.68Z" style="opacity:0.1"></path><path d="M134.1,306.54a72.24,72.24,0,0,1,61.64-70.15,51.21,51.21,0,0,1,7,1.17,70.43,70.43,0,0,0-66.7,69c-.46,23,10.81,46.52,30.14,62.82,15.15,12.77,35.28,21.24,57.4,24.29l-1.42.18c-2,.24-4,.4-6,.51-19.66-3.81-37.45-11.91-51.22-23.52C145.16,354.19,133.64,330.15,134.1,306.54Z" style="fill:#fff"></path><path d="M268.93,367c-1,4.1-1.23,11.49-1.23,11.49l-2.73-1a7,7,0,0,0-7.58,1.72l-.13.14a2.75,2.75,0,0,1-3.8.17h0a2.74,2.74,0,0,1-.93-2l-.37-11.61Z" style="fill:#ffa8a7"></path><path d="M258.4,410.12c5.66,6.06,16.08,11.35,23.65,6.19l-.85,1.92c-7.57,5.17-18-.12-23.65-6.18s-2-10.25-7.08-15.62a18.65,18.65,0,0,1-4.41-6.54c.23-.58.45-1.33.71-2.2a23.34,23.34,0,0,0,4.55,6.81C256.41,399.88,252.74,404.07,258.4,410.12Z" style="fill:#f5f5f5"></path><path d="M249.56,381.37a10.91,10.91,0,0,0,1.78-4.13,2.45,2.45,0,0,1,1.12-1.69l.07,1.95a2.74,2.74,0,0,0,4.73,1.81l.13-.14a7,7,0,0,1,7.58-1.72l2.77,1a2.13,2.13,0,0,1,1.38,2c-.18,7.94,3.53,18.48,7.42,24.28,4,1.65,7.45,7.1,5.69,11.1l-.18.4c-7.57,5.16-18-.13-23.65-6.19s-2-10.24-7.08-15.62a23.34,23.34,0,0,1-4.55-6.81A25.13,25.13,0,0,1,249.56,381.37Z" style="fill:#BA68C8"></path><path d="M249.56,381.37a10.91,10.91,0,0,0,1.78-4.13,2.45,2.45,0,0,1,1.12-1.69l.07,1.95a2.74,2.74,0,0,0,4.73,1.81l.13-.14a7,7,0,0,1,7.58-1.72l2.77,1a2.13,2.13,0,0,1,1.38,2c-.18,7.94,3.53,18.48,7.42,24.28,4,1.65,7.45,7.1,5.69,11.1l-.18.4c-7.57,5.16-18-.13-23.65-6.19s-2-10.24-7.08-15.62a23.34,23.34,0,0,1-4.55-6.81A25.13,25.13,0,0,1,249.56,381.37Z" style="opacity:0.30000000000000004"></path><path d="M249.56,381.37a10.91,10.91,0,0,0,1.78-4.13,2.45,2.45,0,0,1,1.12-1.69l.07,1.95a2.74,2.74,0,0,0,4.73,1.81l.13-.14a7,7,0,0,1,7.58-1.72l2.77,1a2.13,2.13,0,0,1,1.38,2c-.18,7.94,3.53,18.48,7.42,24.28,4,1.65,7.45,7.1,5.69,11.1l-.18.4c-7.57,5.16-18-.13-23.65-6.19s-2-10.24-7.08-15.62a23.34,23.34,0,0,1-4.55-6.81A25.13,25.13,0,0,1,249.56,381.37Z" style="fill:#fff;opacity:0.2"></path><path d="M260.64,392.83a1,1,0,0,1-1.29-.44,1,1,0,0,1,.4-1.28,11,11,0,0,1,10.87,0c.17.62.35,1.25.54,1.86C268,391.37,264.7,390.77,260.64,392.83Z" style="fill:#fff"></path><path d="M259.24,388.53a1,1,0,0,1-.89-1.71,11.61,11.61,0,0,1,11.32.09q.16,1,.39,1.95C266.76,387.11,263.43,386.42,259.24,388.53Z" style="fill:#fff"></path><path d="M262.17,397.1a1,1,0,0,1-1.29-.44,1,1,0,0,1,.4-1.28,11,11,0,0,1,10.64-.1q.36,1,.75,2A10.62,10.62,0,0,0,262.17,397.1Z" style="fill:#fff"></path><path d="M276.54,404.81c4,1.65,7.45,7.1,5.69,11.1l-.18.4c-7.46,5.08-17.67,0-23.39-5.92C263.43,401.05,273.39,403.38,276.54,404.81Z" style="fill:#fff"></path><path d="M263.84,401.27a1,1,0,0,1-.89-1.72,11,11,0,0,1,10.66-.09c.34.74.69,1.45,1,2.13C271.35,399.85,268,399.15,263.84,401.27Z" style="fill:#fff"></path><path d="M280.83,390.06c.71,4.17,3.51,11,3.51,11l-2.91.17a7,7,0,0,0-6.24,4.63l-.07.19a2.73,2.73,0,0,1-3.39,1.68h0a2.71,2.71,0,0,1-1.66-1.43l-5-10.48Z" style="fill:#ffa8a7"></path><path d="M288.61,433.78c7.62,3.26,19.29,3.89,24.13-3.89V432c-4.84,7.78-16.51,7.15-24.13,3.89s-6-8.57-12.79-11.43a18.62,18.62,0,0,1-6.67-4.21c0-.62-.13-1.4-.23-2.3a23.19,23.19,0,0,0,6.9,4.4C282.65,425.21,281,430.53,288.61,433.78Z" style="fill:#f5f5f5"></path><path d="M268.92,411a11,11,0,0,0,0-4.5,2.39,2.39,0,0,1,.34-2l.85,1.76a2.74,2.74,0,0,0,5.05-.25l.07-.19a7,7,0,0,1,6.24-4.63l3-.17a2.14,2.14,0,0,1,2.08,1.31c3,7.34,10.69,15.49,16.59,19.22,4.32-.1,9.68,3.49,9.68,7.86v.43c-4.84,7.78-16.51,7.15-24.13,3.89s-6-8.57-12.79-11.43a23.19,23.19,0,0,1-6.9-4.4A24.33,24.33,0,0,1,268.92,411Z" style="fill:#BA68C8"></path><path d="M268.92,411a11,11,0,0,0,0-4.5,2.39,2.39,0,0,1,.34-2l.85,1.76a2.74,2.74,0,0,0,5.05-.25l.07-.19a7,7,0,0,1,6.24-4.63l3-.17a2.14,2.14,0,0,1,2.08,1.31c3,7.34,10.69,15.49,16.59,19.22,4.32-.1,9.68,3.49,9.68,7.86v.43c-4.84,7.78-16.51,7.15-24.13,3.89s-6-8.57-12.79-11.43a23.19,23.19,0,0,1-6.9-4.4A24.33,24.33,0,0,1,268.92,411Z" style="opacity:0.30000000000000004"></path><path d="M268.92,411a11,11,0,0,0,0-4.5,2.39,2.39,0,0,1,.34-2l.85,1.76a2.74,2.74,0,0,0,5.05-.25l.07-.19a7,7,0,0,1,6.24-4.63l3-.17a2.14,2.14,0,0,1,2.08,1.31c3,7.34,10.69,15.49,16.59,19.22,4.32-.1,9.68,3.49,9.68,7.86v.43c-4.84,7.78-16.51,7.15-24.13,3.89s-6-8.57-12.79-11.43a23.19,23.19,0,0,1-6.9-4.4A24.33,24.33,0,0,1,268.92,411Z" style="fill:#fff;opacity:0.2"></path><path d="M283.67,417.06a1,1,0,0,1-1.5-1.22,11.06,11.06,0,0,1,9.95-4.37c.41.51.82,1,1.25,1.49C289.78,412.77,286.56,413.54,283.67,417.06Z" style="fill:#fff"></path><path d="M280.67,413.69a1,1,0,0,1-1.35.12.94.94,0,0,1-.16-1.33A11.6,11.6,0,0,1,289.55,408q.54.81,1.14,1.62C287,409.36,283.64,410.07,280.67,413.69Z" style="fill:#fff"></path><path d="M286.8,420.35a1,1,0,0,1-1.35.12,1,1,0,0,1-.16-1.34,11,11,0,0,1,9.69-4.39c.49.52,1,1,1.49,1.51C292.89,416.06,289.68,416.83,286.8,420.35Z" style="fill:#fff"></path><path d="M303.06,421.6c4.32-.1,9.68,3.49,9.68,7.86v.43c-4.77,7.67-16.16,7.16-23.79,4C289.54,423.45,299.6,421.56,303.06,421.6Z" style="fill:#fff"></path><path d="M290,423.49a1,1,0,0,1-1.51-1.21,11,11,0,0,1,9.72-4.39c.61.54,1.21,1,1.81,1.53C296.31,419.15,293,419.86,290,423.49Z" style="fill:#fff"></path><path d="M236.05,290.91l38.15,21.26a18.92,18.92,0,0,1,9.39,20L276.18,372l6.07,19.29c-5.24,7-17.26,7.38-17.26,7.38-6.71-13.45-11.64-19.17-15.45-30.45s-6.35-19.05-6.35-19.05l-31.68-8.66a37.55,37.55,0,0,1-27.46-31.95c-.54-4.79-.57-8.06-.57-8.06Z" style="fill:#263238"></path><path d="M235.76,301.63a18.07,18.07,0,0,1-4.27,11.63l26.92,16.85a19.34,19.34,0,0,1,8.24,10.75L276.18,372l-8.59-34.71a15.76,15.76,0,0,0-7-9.6l-24.86-15.36C238.27,306,235.76,301.63,235.76,301.63Z" style="opacity:0.2"></path><path d="M205.6,316.53a1.4,1.4,0,0,0,.05.5.08.08,0,0,1,0,0,1.45,1.45,0,0,0,.2.39l0,0a2.44,2.44,0,0,0,.34.39l0,0a3.05,3.05,0,0,0,.51.37l27.92,16.22a4.41,4.41,0,0,0,.8.35l.31.1.41.1.49.08.12,0c.23,0,.46,0,.68,0h.11c.23,0,.45,0,.68,0h.1c.22,0,.44-.06.65-.11l.12,0,.56-.17.1,0a3.92,3.92,0,0,0,.62-.29l46.06-26.59a3.78,3.78,0,0,0,.53-.37l.13-.15a3,3,0,0,0,.24-.26,1.51,1.51,0,0,0,.09-.18,1.26,1.26,0,0,0,.13-.26c0-.06,0-.13,0-.19a2.34,2.34,0,0,0,0-.26v1.64a2.17,2.17,0,0,1,0,.25c0,.07,0,.13,0,.19a1.66,1.66,0,0,1-.13.27c0,.05-.05.11-.09.17s-.16.18-.24.27-.08.1-.13.14a3.1,3.1,0,0,1-.53.37l-46.06,26.6a5.07,5.07,0,0,1-.62.29l-.1,0a5.18,5.18,0,0,1-.56.17l-.12,0a4.64,4.64,0,0,1-.65.11h-.1a5.17,5.17,0,0,1-.68,0h-.11a5.27,5.27,0,0,1-.68,0h-.12a3.86,3.86,0,0,1-.49-.09l-.41-.1-.31-.09a5.23,5.23,0,0,1-.8-.35l-27.92-16.23a2.58,2.58,0,0,1-.51-.37l0,0a2.38,2.38,0,0,1-.34-.38l0-.05a1.2,1.2,0,0,1-.2-.39,0,0,0,0,0,0,0,1.58,1.58,0,0,1,0-.37h0v-1.77Z" style="fill:#e0e0e0"></path><path d="M205.6,316.53a1.4,1.4,0,0,0,.05.5.08.08,0,0,1,0,0,1.45,1.45,0,0,0,.2.39l0,0a2.44,2.44,0,0,0,.34.39l0,0a3.05,3.05,0,0,0,.51.37l27.92,16.22a4.41,4.41,0,0,0,.8.35l.31.1.41.1.49.08.12,0c.23,0,.46,0,.68,0h.11c.23,0,.45,0,.68,0h.1c.22,0,.44-.06.65-.11l.12,0,.56-.17.1,0a3.92,3.92,0,0,0,.62-.29l46.06-26.59a3.78,3.78,0,0,0,.53-.37l.13-.15a3,3,0,0,0,.24-.26,1.51,1.51,0,0,0,.09-.18,1.26,1.26,0,0,0,.13-.26c0-.06,0-.13,0-.19a2.34,2.34,0,0,0,0-.26v1.64a2.17,2.17,0,0,1,0,.25c0,.07,0,.13,0,.19a1.66,1.66,0,0,1-.13.27c0,.05-.05.11-.09.17s-.16.18-.24.27-.08.1-.13.14a3.1,3.1,0,0,1-.53.37l-46.06,26.6a5.07,5.07,0,0,1-.62.29l-.1,0a5.18,5.18,0,0,1-.56.17l-.12,0a4.64,4.64,0,0,1-.65.11h-.1a5.17,5.17,0,0,1-.68,0h-.11a5.27,5.27,0,0,1-.68,0h-.12a3.86,3.86,0,0,1-.49-.09l-.41-.1-.31-.09a5.23,5.23,0,0,1-.8-.35l-27.92-16.23a2.58,2.58,0,0,1-.51-.37l0,0a2.38,2.38,0,0,1-.34-.38l0-.05a1.2,1.2,0,0,1-.2-.39,0,0,0,0,0,0,0,1.58,1.58,0,0,1,0-.37h0v-1.77Z" style="opacity:0.2"></path><path d="M287.61,306.69a1.26,1.26,0,0,1-.13.26,1.51,1.51,0,0,1-.09.18,3,3,0,0,1-.24.26l-.13.15a3.78,3.78,0,0,1-.53.37L240.43,334.5a3.92,3.92,0,0,1-.62.29l-.1,0-.56.17-.12,0c-.21.05-.43.08-.65.11h-.1c-.23,0-.45,0-.68,0h-.11c-.22,0-.45,0-.68,0l-.12,0-.49-.08-.41-.1-.31-.1a4.41,4.41,0,0,1-.8-.35l-27.92-16.22a3.05,3.05,0,0,1-.51-.37l0,0a2.44,2.44,0,0,1-.34-.39l0,0a1.45,1.45,0,0,1-.2-.39.08.08,0,0,0,0,0,1.4,1.4,0,0,1-.05-.5,2.09,2.09,0,0,1,1.19-1.58l46.06-26.59a6.29,6.29,0,0,1,5.73,0l27.92,16.22a2,2,0,0,1,1.19,1.66,2.34,2.34,0,0,1,0,.26C287.63,306.56,287.63,306.63,287.61,306.69Z" style="fill:#e0e0e0"></path><path d="M283.78,306.24,239,332.08l-.18.08-.1,0a2.37,2.37,0,0,1-.35.1l-.24.05-.17,0-.44,0h0l-.46,0-.29-.05-.36-.1a1.44,1.44,0,0,1-.31-.13l-14.4-8.37L267.92,297Z" style="fill:#e0e0e0"></path><path d="M237.5,332.39h0Z" style="fill:#263238"></path><path d="M241.2,299.13l8.42,5a.85.85,0,0,1,0,1.47L237,312.83a1.39,1.39,0,0,1-1.41,0l-8.42-4.95a.85.85,0,0,1,0-1.47l12.59-7.27A1.42,1.42,0,0,1,241.2,299.13Z" style="fill:#e0e0e0"></path><path d="M283.78,306.24,239,332.08l-.18.08-.1,0a2.37,2.37,0,0,1-.35.1l-.24.05-.17,0-.44,0h0l-.46,0-.29-.05-.36-.1a1.44,1.44,0,0,1-.31-.13l-14.4-8.37L267.92,297Z" style="opacity:0.4"></path><path d="M241.2,299.13l8.42,5a.85.85,0,0,1,0,1.47L237,312.83a1.39,1.39,0,0,1-1.41,0l-8.42-4.95a.85.85,0,0,1,0-1.47l12.59-7.27A1.42,1.42,0,0,1,241.2,299.13Z" style="opacity:0.4"></path><path d="M237.83,332.85l4.77-30.32a5.56,5.56,0,0,1,2.72-4l46.38-27a1.35,1.35,0,0,1,1.23-.08h0l1.11.55-.38.14a1.4,1.4,0,0,1,.13.82L289,303.34a5.6,5.6,0,0,1-2.72,4l-46.38,27a1.88,1.88,0,0,1-.3.12l0,.45-1.07-.53h0A1.39,1.39,0,0,1,237.83,332.85Z" style="fill:#e0e0e0"></path><path d="M237.83,332.85l4.77-30.32a5.56,5.56,0,0,1,2.72-4l46.38-27a1.35,1.35,0,0,1,1.23-.08h0l1.11.55-.38.14a1.4,1.4,0,0,1,.13.82L289,303.34a5.6,5.6,0,0,1-2.72,4l-46.38,27a1.88,1.88,0,0,1-.3.12l0,.45-1.07-.53h0A1.39,1.39,0,0,1,237.83,332.85Z" style="opacity:0.30000000000000004"></path><path d="M246.25,299l46.38-27a1.41,1.41,0,0,1,2.09,1.43L290,303.81a5.6,5.6,0,0,1-2.72,4l-46.38,27a1.4,1.4,0,0,1-2.09-1.42L243.53,303A5.6,5.6,0,0,1,246.25,299Z" style="fill:#e0e0e0"></path><path d="M268.73,299.81a10.2,10.2,0,0,0-4.6,6.63c-.31,2.36,1.26,3.24,3.5,1.94a10.28,10.28,0,0,0,4.61-6.63C272.54,299.39,271,298.51,268.73,299.81Z" style="fill:#fff"></path><path d="M241.34,253.74,253.91,264l8.29-13.45-10.43-11.75C242.6,242.82,241.34,253.74,241.34,253.74Z" style="fill:#f28f8f"></path><path d="M222.9,219c9.88-1.11,10.79,1.08,17.2,7.12S253,239,253,239c-9.88,4.83-11,16.58-11,16.58-5.38-4.17-9.93-7.47-9.93-7.47Z" style="fill:#455a64"></path><path d="M222.9,219c9.88-1.11,10.79,1.08,17.2,7.12S253,239,253,239c-9.88,4.83-11,16.58-11,16.58-5.38-4.17-9.93-7.47-9.93-7.47Z" style="fill:#fff;opacity:0.5"></path><path d="M186.82,226.86c14.05-6.58,24.59-7.35,36.08-7.85,17.2,11.07,10.76,20.29,10.46,35.07s-3.51,23.71,6.74,39.08c-22.54,18-51,12.31-57.81,8C177.9,260.23,179.18,230,186.82,226.86Z" style="fill:#455a64"></path><path d="M186.82,226.86c14.05-6.58,24.59-7.35,36.08-7.85,17.2,11.07,10.76,20.29,10.46,35.07s-3.51,23.71,6.74,39.08c-22.54,18-51,12.31-57.81,8C177.9,260.23,179.18,230,186.82,226.86Z" style="fill:#fff;opacity:0.7000000000000001"></path><path d="M229.65,196.63a12,12,0,0,0,1.28-16.15,6.59,6.59,0,0,0,2.75-3.37,3.5,3.5,0,0,0-5.11-4,4.9,4.9,0,0,0-2.68-5.42,4.62,4.62,0,0,0-5.57,1.8,3.13,3.13,0,0,0-2.52-2.78,6.32,6.32,0,0,0-3.93.76c-1.22.6-2.33,1.39-3.56,2a29.38,29.38,0,0,1-6.64,1.74,13.74,13.74,0,0,0-6.29,2.58c-1.75,1.49-3,4.59-1.7,6.95a3.75,3.75,0,0,0-2.9-1.09,3.67,3.67,0,0,0-2.62,1.54c1.54.7,3,1.47,4.57,2.16-1.52-.46-3.52.83-4.11,2.29a8.7,8.7,0,0,0-.17,4.67,61.88,61.88,0,0,0,5.42,17.1c1.35,2.79,3.16,5.7,6.1,6.69Z" style="fill:#37474f"></path><path d="M229.5,182.14a14.84,14.84,0,0,1-9.85,4.14c-3.47,0-6.82-1.1-10.16-2a7.76,7.76,0,0,1-2.3,4.24,8.82,8.82,0,0,1-4.73,2.06,30.19,30.19,0,0,1,0,9.44,1.77,1.77,0,0,1-1.19,1.45c-1.13.33-1.87-.82-2.42-1.76a7.7,7.7,0,0,0-2.44-2.72,3.8,3.8,0,0,0-3.53-.36,3.68,3.68,0,0,0-1.86,2.27,6.7,6.7,0,0,0-.14,3,9,9,0,0,0,1.94,4.57,6.16,6.16,0,0,0,4.34,2.24,4.49,4.49,0,0,0,4.18-2.06l.08.3a11.77,11.77,0,0,0,.45,1.46,12.5,12.5,0,0,0,9.13,7.81c2.12.45,4.47.87,6.86,1.23,1.18.18,2.37.35,3.55.49a8.55,8.55,0,0,0,9.44-7C232.42,201.8,233,191.17,229.5,182.14Z" style="fill:#ffa8a7"></path><path d="M201.83,208.38v15.9a17.56,17.56,0,0,0,12.8,7.08,6.24,6.24,0,0,0,4.59-1.17,3.72,3.72,0,0,0-.47-5.9,2.05,2.05,0,0,1-.93-1.7v-5.17c-2.39-.36-4.74-.78-6.86-1.23A12.5,12.5,0,0,1,201.83,208.38Z" style="fill:#ffa8a7"></path><path d="M212.45,219.69a33.74,33.74,0,0,0,5.37.95v-3.22c-2.39-.36-4.74-.78-6.86-1.23a12.47,12.47,0,0,1-8.82-7.12,12.76,12.76,0,0,0,3.22,6.65A15.29,15.29,0,0,0,212.45,219.69Z" style="opacity:0.2"></path><path d="M222.59,193.66h-2.06a15,15,0,0,0-14.2-1.45v2.17l.57.3a22.25,22.25,0,0,1,.52,4.25A5.64,5.64,0,0,0,209,202.7c1.13,1,2.75,1.08,4.23,1.1a8,8,0,0,0,3.52-.51,5.65,5.65,0,0,0,2.68-3.22c.51-1.35.42-2.14,1.05-3.76a1.21,1.21,0,0,1,1.13-.76,1.12,1.12,0,0,1,1.05.76c.59,1.62.51,2.41,1,3.76a5.58,5.58,0,0,0,2.51,3.22,7.06,7.06,0,0,0,3.29.51,5.7,5.7,0,0,0,4-1.1,5.88,5.88,0,0,0,1.47-3.77,24,24,0,0,1,.49-4.25l.53-.3v-2.17A13.32,13.32,0,0,0,222.59,193.66Zm-3.09,1.11-.09.77a17.94,17.94,0,0,1-1,4.1,4.7,4.7,0,0,1-2.12,2.59,5.94,5.94,0,0,1-2.53.41h-.46a5.42,5.42,0,0,1-3.5-.84,4.45,4.45,0,0,1-1.2-3c0-.36-.06-.73-.09-1.11-.07-1,0-3.3.08-4.94a13.43,13.43,0,0,1,3.61-.49,13.68,13.68,0,0,1,7.24,2.11C219.53,194.41,219.5,194.77,219.5,194.77Zm14.37,2.89c0,.38-.05.75-.08,1.11a4.59,4.59,0,0,1-1.13,3,4.82,4.82,0,0,1-3.27.84H229a5.26,5.26,0,0,1-2.37-.41,4.64,4.64,0,0,1-2-2.59,18.63,18.63,0,0,1-1-4.1l-.08-.77s0-.36.08-.43a12.23,12.23,0,0,1,6.78-2.11,11.74,11.74,0,0,1,3.37.49C233.88,194.36,233.93,196.63,233.87,197.66Z" style="fill:#BA68C8"></path><path d="M206.33,192.21l-11.57,4.16a5,5,0,0,1,2.26,1.06c.13.11,9.31-3.05,9.31-3.05Z" style="fill:#BA68C8"></path><polygon points="221.55 195.73 227.38 202.79 222.03 204.69 221.55 195.73" style="fill:#f28f8f"></polygon><path d="M213.3,196.61a1.61,1.61,0,1,0,1.62-1.59A1.6,1.6,0,0,0,213.3,196.61Z" style="fill:#37474f"></path><path d="M226.76,196.18a1.61,1.61,0,1,0,1.62-1.6A1.61,1.61,0,0,0,226.76,196.18Z" style="fill:#37474f"></path><path d="M225.92,189.06l4.29.49a2.3,2.3,0,0,0-1.8-1.89A2.72,2.72,0,0,0,225.92,189.06Z" style="fill:#37474f"></path><path d="M216,188.52,212,190.31a2.27,2.27,0,0,1,1.13-2.35A2.7,2.7,0,0,1,216,188.52Z" style="fill:#37474f"></path><path d="M216.26,207.66l4.75,1.59a3,3,0,0,1-3.26,1.41A2.65,2.65,0,0,1,216.26,207.66Z" style="fill:#f28f8f"></path><path d="M216.26,207.66l4.75,1.59a3,3,0,0,1-3.26,1.41A2.65,2.65,0,0,1,216.26,207.66Z" style="opacity:0.30000000000000004"></path><path d="M219.32,210.6a2.82,2.82,0,0,1-1.57.06,2.41,2.41,0,0,1-1.51-2.2,2.73,2.73,0,0,1,3.08,2.14Z" style="fill:#f28f8f"></path><path d="M231.14,230.15,227.08,232a1.62,1.62,0,0,0-.77,2.2h0a1.61,1.61,0,0,0,1.74.87l10-1.79-3-3.87Z" style="fill:#f28f8f"></path><path d="M240.07,233.72l12.6,29.68a8.74,8.74,0,0,0,11.17,4.74h0a8.73,8.73,0,0,0,3.68-13.62l-20.58-25.66a12.19,12.19,0,0,0-2.48-2.33l-6.27-4.43a13.43,13.43,0,0,0-6-2.34h0l-3.06-2.24a3,3,0,0,0-2.91-.39l-4.71,1.81h0a3.08,3.08,0,0,0,3.54,1.72l1.88-.47,2.2,1.62-2.86,4a2.49,2.49,0,0,0,.5,3.42l5.4,4.15a1.94,1.94,0,0,0,1.74.31h0a1.93,1.93,0,0,0,1.33-2.24v0A6.85,6.85,0,0,0,240.07,233.72Z" style="fill:#ffa8a7"></path><path d="M229.17,221.81a7.41,7.41,0,0,1,2-1.62l-3.78.28Z" style="fill:#f28f8f"></path><path d="M190.55,265.14l-4.29,14.73,26.26,18.65,8.83,3.71a13.9,13.9,0,0,1,5.85,4.66l7.2,10c.8,1.67-3,4.39-4.75,4.85h0a6.48,6.48,0,0,1-6-1.49l-5.56-5.09-1.53-.54a23.34,23.34,0,0,1-11.17-8.38h0l-30.78-11.95a11.78,11.78,0,0,1-7.11-14l5.11-19Z" style="fill:#ffa8a7"></path><path d="M190.58,267.2l7.29-21.79s.24-19.95-8.22-19.33-12.76,5.52-19.27,35.09l-.14.64A35.13,35.13,0,0,0,190.58,267.2Z" style="fill:#455a64"></path><path d="M190.58,267.2l7.29-21.79s.24-19.95-8.22-19.33-12.76,5.52-19.27,35.09l-.14.64A35.13,35.13,0,0,0,190.58,267.2Z" style="fill:#fff;opacity:0.5"></path></g><g id="freepik--light-bulb--inject-106"><g id="freepik--freepik--light--inject-77--inject-106"><path d="M210.83,149.16a3.53,3.53,0,1,1-3.59-3.47,3.53,3.53,0,0,1,3.59,3.47Z" style="fill:#37474f"></path><path d="M203,149.54c-2.36-1.32-2.4-3.51-.08-4.9a9.35,9.35,0,0,1,8.48-.13c2.36,1.32,2.4,3.51.08,4.89A9.35,9.35,0,0,1,203,149.54Z" style="fill:#455a64"></path><path d="M202.88,148.27c-2.44-1.36-2.48-3.62-.09-5.05a9.67,9.67,0,0,1,8.75-.14c2.43,1.36,2.47,3.61.07,5A9.6,9.6,0,0,1,202.88,148.27Z" style="fill:#37474f"></path><path d="M202.73,147c-2.5-1.4-2.54-3.72-.06-5.14a10,10,0,0,1,9-.14c2.51,1.4,2.56,3.73.09,5.2A10,10,0,0,1,202.73,147Z" style="fill:#455a64"></path><path d="M202.56,145.59c-2.58-1.43-2.61-3.83-.08-5.35a10.25,10.25,0,0,1,9.28-.15c2.59,1.44,2.63,3.84.08,5.36A10.25,10.25,0,0,1,202.56,145.59Z" style="fill:#37474f"></path><path d="M202.42,144.19c-2.67-1.53-2.69-3.92-.09-5.48a10.46,10.46,0,0,1,9.48-.14c2.64,1.46,2.68,3.91.08,5.47A10.47,10.47,0,0,1,202.42,144.19Z" style="fill:#455a64"></path><path d="M206.52,102.89a16.81,16.81,0,0,0-16.58,17V120c.21,13.37,11.25,15.42,11.36,20.79a2.91,2.91,0,0,0,1.74,2.35,9.1,9.1,0,0,0,8.21-.12,2.89,2.89,0,0,0,1.64-2.39h0c-.09-5.38,10.9-7.78,10.69-21.15a16.8,16.8,0,0,0-17-16.58Z" style="fill:#BA68C8"></path><g style="opacity:0.6000000000000001"><path d="M206.52,102.89a16.81,16.81,0,0,0-16.58,17V120c.21,13.37,11.25,15.42,11.36,20.79a2.91,2.91,0,0,0,1.74,2.35,9.1,9.1,0,0,0,8.21-.12,2.89,2.89,0,0,0,1.64-2.39h0c-.09-5.38,10.9-7.78,10.69-21.15a16.8,16.8,0,0,0-17-16.58Z" style="fill:#fff"></path></g><path d="M204.07,142.43c-1.68-1-1.76-2.55-.11-3.55a6.86,6.86,0,0,1,6.18-.09c1.68,1,1.75,2.55.06,3.57A6.82,6.82,0,0,1,204.07,142.43Z" style="fill:#BA68C8"></path><path d="M209.36,140.14a.58.58,0,0,1-.58-.54,41.6,41.6,0,0,1,1-9.63,19.2,19.2,0,0,1,.8-2.68,8.06,8.06,0,0,1-1.48-.71,9.86,9.86,0,0,1-2.28-1.89,10.33,10.33,0,0,1-2.2,1.92,8.65,8.65,0,0,1-1.46.73,20.76,20.76,0,0,1,.89,2.66,40,40,0,0,1,1.33,9.61.58.58,0,0,1-.58.56.57.57,0,0,1-.56-.57,40.58,40.58,0,0,0-1.3-9.31,18.62,18.62,0,0,0-.89-2.64,3.6,3.6,0,0,1-3.2-.89,1.84,1.84,0,0,1-.29-2.36,1.53,1.53,0,0,1,1.55-.67,4.32,4.32,0,0,1,2.57,2.57,6.44,6.44,0,0,0,1.31-.66,8.59,8.59,0,0,0,2.12-1.87,4.13,4.13,0,0,1-.89-3.19,1.51,1.51,0,0,1,1.52-1.16,1.49,1.49,0,0,1,1.54,1.11,4.13,4.13,0,0,1-.78,3.22,9.16,9.16,0,0,0,2.16,1.81,6.45,6.45,0,0,0,1.34.6,4.39,4.39,0,0,1,2.49-2.64,1.51,1.51,0,0,1,1.56.67,1.81,1.81,0,0,1-.21,2.35,3.61,3.61,0,0,1-3.17,1,19.14,19.14,0,0,0-.82,2.67,40.75,40.75,0,0,0-1,9.35.57.57,0,0,1-.55.59Zm-9.49-15.27a.35.35,0,0,0-.31.22c-.28.38.05.79.16.9a2.28,2.28,0,0,0,1.83.57,3.22,3.22,0,0,0-1.59-1.7Zm12.37,1.57a2.34,2.34,0,0,0,1.83-.65c.09-.11.42-.52.14-.91a.38.38,0,0,0-.41-.19C213.41,124.76,212.83,125.3,212.24,126.44Zm-5.42-5.82a.37.37,0,0,0-.44.31h0a2.77,2.77,0,0,0,.48,1.87,2.83,2.83,0,0,0,.4-1.88.39.39,0,0,0-.44-.32h0Z" style="fill:#fff"></path></g><path d="M206.53,96.51a.71.71,0,0,1-.29,0,1.11,1.11,0,0,1-1.13-1.08L205,89.75a1.09,1.09,0,0,1,1.06-1.12h0a1.1,1.1,0,0,1,1.12,1.08l.13,5.73A1.12,1.12,0,0,1,206.53,96.51Z" style="fill:#e0e0e0"></path><path d="M194.37,100.06a1.09,1.09,0,0,1-1.25-.47l-3-4.9A1.11,1.11,0,0,1,192,93.54l3,4.89a1.11,1.11,0,0,1-.37,1.52A.85.85,0,0,1,194.37,100.06Z" style="fill:#e0e0e0"></path><path d="M185.62,109.22a1.06,1.06,0,0,1-.85-.09l-5-2.76a1.1,1.1,0,0,1-.45-1.49,1.12,1.12,0,0,1,1.5-.44l5,2.75a1.1,1.1,0,0,1,.43,1.49A1.07,1.07,0,0,1,185.62,109.22Z" style="fill:#e0e0e0"></path><path d="M182.61,121.52a.81.81,0,0,1-.27.11l-5.73.12a1.08,1.08,0,0,1-1.12-1v0a1.09,1.09,0,0,1,1-1.13h0l5.74-.19a1.11,1.11,0,0,1,1.09,1.12,1.12,1.12,0,0,1-.76,1Z" style="fill:#e0e0e0"></path><path d="M237.27,120.31a.79.79,0,0,1-.27.1l-5.75.07a1.1,1.1,0,1,1,0-2.19l5.73-.14a1.11,1.11,0,0,1,.33,2.16Z" style="fill:#e0e0e0"></path><path d="M228,108.28a1.1,1.1,0,0,1-.88-2l4.91-3a1.07,1.07,0,0,1,1.48.35h0a1.09,1.09,0,0,1-.35,1.51h0l-4.9,3A1.23,1.23,0,0,1,228,108.28Z" style="fill:#e0e0e0"></path><path d="M218.84,99.52a1.1,1.1,0,0,1-1.28-1.58l2.78-5a1.1,1.1,0,0,1,1.93,1l-2.76,5A1.1,1.1,0,0,1,218.84,99.52Z" style="fill:#e0e0e0"></path></g><g id="freepik--Window--inject-106"><polygon points="313.18 257.87 313.15 249.88 307.79 246.79 307.81 254.59 307.81 254.59 307.81 254.76 313.18 257.87 313.18 257.87" style="fill:#e0e0e0"></polygon><path d="M313.44,374.16l-.26-116.3-5.37-3.09.26,116.11a1.75,1.75,0,0,0,.7,1.56h0l5.3,3.23A1.74,1.74,0,0,1,313.44,374.16Z" style="fill:#BA68C8"></path><path d="M313.44,374.16l-.26-116.3-5.37-3.09.26,116.11a1.75,1.75,0,0,0,.7,1.56h0l5.3,3.23A1.74,1.74,0,0,1,313.44,374.16Z" style="fill:#fff;opacity:0.2"></path><path d="M315.91,375.57a3.41,3.41,0,0,1-.48.22A2.56,2.56,0,0,0,315.91,375.57Z" style="fill:#455a64"></path><path d="M315.1,375.87l-.11,0Z" style="fill:#455a64"></path><path d="M314.24,375.78h0Z" style="fill:#455a64"></path><path d="M313.17,249.87v-4.6a5.42,5.42,0,0,1,2.45-4.27L455,160.55a1.77,1.77,0,0,1,1.72-.18l-5.31-3.24h0a1.7,1.7,0,0,0-1.78.15L310.25,237.73a5.4,5.4,0,0,0-2.46,4.26v4.6h0v.19l5.36,3.09Z" style="fill:#BA68C8"></path><path d="M313.17,249.87v-4.6a5.42,5.42,0,0,1,2.45-4.27L455,160.55a1.77,1.77,0,0,1,1.72-.18l-5.31-3.24h0a1.7,1.7,0,0,0-1.78.15L310.25,237.73a5.4,5.4,0,0,0-2.46,4.26v4.6h0v.19l5.36,3.09Z" style="fill:#fff;opacity:0.30000000000000004"></path><polygon points="313.18 257.87 313.15 249.88 307.79 246.79 307.81 254.59 307.81 254.59 307.81 254.76 313.18 257.87 313.18 257.87" style="opacity:0.2"></polygon><path d="M455,160.55c1.36-.78,2.47-.15,2.47,1.42v4.6l-144.27,83.3v-4.6a5.42,5.42,0,0,1,2.45-4.27Z" style="fill:#BA68C8"></path><path d="M445.62,168.16c.72-.42,1.32-.08,1.32.76a2.94,2.94,0,0,1-1.32,2.28c-.72.42-1.32.08-1.32-.76A2.91,2.91,0,0,1,445.62,168.16Z" style="fill:#fff"></path><path d="M449.64,165.84c.73-.42,1.32-.08,1.33.75a2.91,2.91,0,0,1-1.32,2.28c-.73.42-1.32.08-1.32-.75A2.87,2.87,0,0,1,449.64,165.84Z" style="fill:#fff"></path><path d="M453.66,163.52c.73-.42,1.32-.09,1.33.75a2.91,2.91,0,0,1-1.32,2.28c-.73.42-1.32.08-1.32-.75A2.87,2.87,0,0,1,453.66,163.52Z" style="fill:#fff"></path><path d="M342.19,228.55c.54-.31,1-.26,1.3.14l1.31,2c.26.4.76.46,1.3.15l111.33-64.28,0,8-144.27,83.3,0-8,4.28-2.47a3.27,3.27,0,0,0,1.3-1.65l1.29-3.52a3.24,3.24,0,0,1,1.3-1.64Z" style="fill:#e0e0e0"></path><path d="M457.45,174.57l.26,116.29a5.44,5.44,0,0,1-2.45,4.26L315.91,375.57c-1.36.78-2.47.15-2.47-1.41l-.26-116.3Z" style="fill:#BA68C8"></path><g style="opacity:0.4"><path d="M457.45,174.57l.26,116.29a5.44,5.44,0,0,1-2.45,4.26L315.91,375.57c-1.36.78-2.47.15-2.47-1.41l-.26-116.3Z" style="fill:#fff"></path></g><path d="M451.74,171.5c1-.56,1.76-.12,1.76,1a3.87,3.87,0,0,1-1.74,3L329.63,246c-1,.56-1.76.11-1.76-1a3.87,3.87,0,0,1,1.75-3Z" style="fill:#fff"></path><path d="M315.48,250.59a.17.17,0,0,1,.19,0c.09.06.08.25,0,.41l-.77,1.26,2-1.17c.14-.08.25,0,.25.14a.56.56,0,0,1-.24.43l-2,1.16.78.37c.1,0,.11.22,0,.39a.51.51,0,0,1-.18.2.18.18,0,0,1-.17,0l-1.24-.59-.05,0h0l0-.1,0-.13v0l.05-.1,1.23-2A.5.5,0,0,1,315.48,250.59Z" style="fill:#e0e0e0"></path><path d="M319.86,248.06a.21.21,0,0,1,.17,0l1.24.59.05.06h0l0,.11,0,.12v0l-.05.09-1.23,2a.55.55,0,0,1-.17.17.17.17,0,0,1-.18,0c-.09-.06-.09-.24,0-.41l.77-1.25-2,1.17c-.14.07-.25,0-.25-.15a.54.54,0,0,1,.25-.42l2-1.17-.77-.37c-.11,0-.11-.22,0-.39A.51.51,0,0,1,319.86,248.06Z" style="fill:#e0e0e0"></path><path d="M324,245.67a1.08,1.08,0,0,1,.84-.16l.19-.25a.49.49,0,0,1,.13-.12.17.17,0,0,1,.13,0c.09,0,.13.1.11.22l-.1.76a.54.54,0,0,1-.11.26.47.47,0,0,1-.13.12l-.06,0-.6.17a.15.15,0,0,1-.19-.13.49.49,0,0,1,.12-.34l.05-.08a.89.89,0,0,0-.38.11,2,2,0,0,0-.88,1.54c0,.56.4.79.89.5a1.92,1.92,0,0,0,.78-1A.53.53,0,0,1,325,247a.24.24,0,0,1,.12,0c.12,0,.17.16.1.33a3,3,0,0,1-1.21,1.52c-.76.44-1.38.09-1.38-.79A3,3,0,0,1,324,245.67Z" style="fill:#e0e0e0"></path><g style="opacity:0.30000000000000004"><path d="M315.48,250.59a.17.17,0,0,1,.19,0c.09.06.08.25,0,.41l-.77,1.26,2-1.17c.14-.08.25,0,.25.14a.56.56,0,0,1-.24.43l-2,1.16.78.37c.1,0,.11.22,0,.39a.51.51,0,0,1-.18.2.18.18,0,0,1-.17,0l-1.24-.59-.05,0h0l0-.1,0-.13v0l.05-.1,1.23-2A.5.5,0,0,1,315.48,250.59Z"></path></g><g style="opacity:0.30000000000000004"><path d="M319.86,248.06a.21.21,0,0,1,.17,0l1.24.59.05.06h0l0,.11,0,.12v0l-.05.09-1.23,2a.55.55,0,0,1-.17.17.17.17,0,0,1-.18,0c-.09-.06-.09-.24,0-.41l.77-1.25-2,1.17c-.14.07-.25,0-.25-.15a.54.54,0,0,1,.25-.42l2-1.17-.77-.37c-.11,0-.11-.22,0-.39A.51.51,0,0,1,319.86,248.06Z"></path></g><g style="opacity:0.30000000000000004"><path d="M324,245.67a1.08,1.08,0,0,1,.84-.16l.19-.25a.49.49,0,0,1,.13-.12.17.17,0,0,1,.13,0c.09,0,.13.1.11.22l-.1.76a.54.54,0,0,1-.11.26.47.47,0,0,1-.13.12l-.06,0-.6.17a.15.15,0,0,1-.19-.13.49.49,0,0,1,.12-.34l.05-.08a.89.89,0,0,0-.38.11,2,2,0,0,0-.88,1.54c0,.56.4.79.89.5a1.92,1.92,0,0,0,.78-1A.53.53,0,0,1,325,247a.24.24,0,0,1,.12,0c.12,0,.17.16.1.33a3,3,0,0,1-1.21,1.52c-.76.44-1.38.09-1.38-.79A3,3,0,0,1,324,245.67Z"></path></g><polygon points="397.63 238.9 397.85 317.72 321.74 361.66 321.52 282.84 397.63 238.9" style="fill:#fff"></polygon><polygon points="387.04 261.78 352.76 316.3 352.81 329.81 359.41 316.7 352.81 329.81 347.85 316 387.04 261.78" style="fill:#BA68C8"></polygon><polygon points="387.04 261.78 352.76 316.3 352.81 329.81 359.41 316.7 352.81 329.81 347.85 316 387.04 261.78" style="opacity:0.30000000000000004"></polygon><polygon points="352.76 316.3 359.41 316.7 352.81 329.81 352.76 316.3" style="fill:#BA68C8"></polygon><polygon points="352.76 316.3 359.41 316.7 352.81 329.81 352.76 316.3" style="opacity:0.5"></polygon><polygon points="387.04 261.78 347.85 316 331.47 315.01 387.04 261.78" style="fill:#BA68C8"></polygon><polygon points="352.76 316.3 387.04 261.78 379.87 317.93 359.41 316.7 352.76 316.3" style="fill:#BA68C8"></polygon><polygon points="331.47 315.01 347.85 316 352.81 329.81 359.41 316.7 359.41 316.7 379.87 317.93 387.04 261.78 331.47 315.01" style="fill:#fff;opacity:0.30000000000000004"></polygon><path d="M450.87,181.78c1.39-.8,2.52-.16,2.52,1.44a5.52,5.52,0,0,1-2.51,4.34L341.52,250.75c-1.39.8-2.52.16-2.53-1.44A5.54,5.54,0,0,1,341.5,245Z" style="fill:#BA68C8"></path><g style="opacity:0.7000000000000001"><path d="M450.87,181.78c1.39-.8,2.52-.16,2.52,1.44a5.52,5.52,0,0,1-2.51,4.34L341.52,250.75c-1.39.8-2.52.16-2.53-1.44A5.54,5.54,0,0,1,341.5,245Z" style="fill:#fff"></path></g><path d="M333.59,249.38c1.39-.8,2.52-.16,2.52,1.44a5.52,5.52,0,0,1-2.5,4.34l-9.74,5.75c-1.39.81-2.52.16-2.52-1.43a5.5,5.5,0,0,1,2.51-4.34Z" style="fill:#BA68C8"></path><path d="M342.58,255.1c1.39-.8,2.52-.16,2.52,1.44a5.5,5.5,0,0,1-2.51,4.34l-18.95,11.06c-1.39.81-2.52.17-2.53-1.43a5.52,5.52,0,0,1,2.51-4.34Z" style="fill:#BA68C8"></path><path d="M369.83,239.24c1.39-.8,2.52-.16,2.52,1.44a5.5,5.5,0,0,1-2.51,4.34l-18.95,11.06c-1.39.81-2.52.17-2.53-1.43a5.52,5.52,0,0,1,2.51-4.34Z" style="fill:#BA68C8"></path><path d="M397.08,223.38c1.39-.8,2.52-.16,2.52,1.44a5.51,5.51,0,0,1-2.51,4.34l-18.95,11.06c-1.39.81-2.52.17-2.53-1.43a5.52,5.52,0,0,1,2.51-4.34Z" style="fill:#BA68C8"></path><path d="M424.33,207.52c1.39-.8,2.52-.16,2.52,1.44a5.51,5.51,0,0,1-2.51,4.34l-18.95,11.06c-1.39.81-2.52.16-2.53-1.43a5.52,5.52,0,0,1,2.51-4.34Z" style="fill:#BA68C8"></path><path d="M451.58,191.66c1.39-.8,2.52-.16,2.52,1.44a5.51,5.51,0,0,1-2.51,4.34L432.64,208.5c-1.39.81-2.52.16-2.53-1.43a5.52,5.52,0,0,1,2.51-4.34Z" style="fill:#BA68C8"></path><g style="opacity:0.2"><path d="M342.58,255.1c1.39-.8,2.52-.16,2.52,1.44a5.5,5.5,0,0,1-2.51,4.34l-18.95,11.06c-1.39.81-2.52.17-2.53-1.43a5.52,5.52,0,0,1,2.51-4.34Z" style="fill:#fff"></path><path d="M369.83,239.24c1.39-.8,2.52-.16,2.52,1.44a5.5,5.5,0,0,1-2.51,4.34l-18.95,11.06c-1.39.81-2.52.17-2.53-1.43a5.52,5.52,0,0,1,2.51-4.34Z" style="fill:#fff"></path><path d="M397.08,223.38c1.39-.8,2.52-.16,2.52,1.44a5.51,5.51,0,0,1-2.51,4.34l-18.95,11.06c-1.39.81-2.52.17-2.53-1.43a5.52,5.52,0,0,1,2.51-4.34Z" style="fill:#fff"></path><path d="M424.33,207.52c1.39-.8,2.52-.16,2.52,1.44a5.51,5.51,0,0,1-2.51,4.34l-18.95,11.06c-1.39.81-2.52.16-2.53-1.43a5.52,5.52,0,0,1,2.51-4.34Z" style="fill:#fff"></path><path d="M451.58,191.66c1.39-.8,2.52-.16,2.52,1.44a5.51,5.51,0,0,1-2.51,4.34L432.64,208.5c-1.39.81-2.52.16-2.53-1.43a5.52,5.52,0,0,1,2.51-4.34Z" style="fill:#fff"></path></g><polygon points="433.15 219.69 433.16 224.58 406.06 240.27 406.04 235.38 433.15 219.69" style="fill:#BA68C8"></polygon><polygon points="439.88 223.8 439.89 226.78 406.07 246.25 406.07 243.26 439.88 223.8" style="fill:#BA68C8"></polygon><g style="opacity:0.1"><polygon points="433.15 219.69 433.16 224.58 406.06 240.27 406.04 235.38 433.15 219.69" style="fill:#fff"></polygon><polygon points="439.88 223.8 439.89 226.78 406.07 246.25 406.07 243.26 439.88 223.8" style="fill:#fff"></polygon><polygon points="434.06 244.88 434.07 247.87 406.13 264.18 406.12 261.19 434.06 244.88" style="fill:#fff"></polygon><polygon points="439.92 235.75 439.93 238.74 406.11 258.2 406.1 255.22 439.92 235.75" style="fill:#fff"></polygon><polygon points="421.9 240.1 421.91 243.09 406.09 252.22 406.08 249.24 421.9 240.1" style="fill:#fff"></polygon></g><polygon points="438.49 280.06 438.49 283.16 407.06 301.42 407.05 298.32 438.49 280.06" style="fill:#BA68C8"></polygon><polygon points="452.65 266.17 452.66 269.27 407.04 295.79 407.03 292.7 452.65 266.17" style="fill:#BA68C8"></polygon><g style="opacity:0.1"><polygon points="438.49 280.06 438.49 283.16 407.06 301.42 407.05 298.32 438.49 280.06" style="fill:#fff"></polygon><polygon points="452.65 266.17 452.66 269.27 407.04 295.79 407.03 292.7 452.65 266.17" style="fill:#fff"></polygon></g><polygon points="434.06 244.88 434.07 247.87 406.13 264.18 406.12 261.19 434.06 244.88" style="fill:#BA68C8"></polygon><polygon points="439.92 235.75 439.93 238.74 406.11 258.2 406.1 255.22 439.92 235.75" style="fill:#BA68C8"></polygon><polygon points="421.9 240.1 421.91 243.09 406.09 252.22 406.08 249.24 421.9 240.1" style="fill:#BA68C8"></polygon></g><g id="freepik--Icon--inject-106"><path d="M144.37,79.35h0a4.77,4.77,0,0,0-4-2.62,1.62,1.62,0,0,0-.52.11L76.11,113.71a3.47,3.47,0,0,0-1.74,3v52.76a3.3,3.3,0,0,0,4.42,2.95h0l.14,0,63.79-36.91a3.42,3.42,0,0,0,1.73-3V79.72A.75.75,0,0,0,144.37,79.35Z" style="fill:#BA68C8"></path><path d="M74.37,116.68v52.76a3.3,3.3,0,0,0,4.42,2.95h0a.85.85,0,0,1-1.14-.8V118.82a3.42,3.42,0,0,1,.58-1.89l-3.51-1.75A3.35,3.35,0,0,0,74.37,116.68Z" style="fill:#fff;opacity:0.2"></path><path d="M140.42,76.73a1.62,1.62,0,0,0-.52.11L76.11,113.71a3.38,3.38,0,0,0-1.38,1.47l3.51,1.75a3.4,3.4,0,0,1,1.15-1.08L143.18,79a.85.85,0,0,1,1.19.37h0A4.77,4.77,0,0,0,140.42,76.73Z" style="fill:#fff;opacity:0.4"></path><path d="M144.37,79.35h0a4.77,4.77,0,0,0-4-2.62,1.62,1.62,0,0,0-.52.11L76.11,113.71a3.47,3.47,0,0,0-1.74,3v52.76a3.3,3.3,0,0,0,4.42,2.95h0l.14,0,63.79-36.91a3.42,3.42,0,0,0,1.73-3V79.72A.75.75,0,0,0,144.37,79.35Z" style="fill:#fff;opacity:0.30000000000000004"></path><g style="opacity:0.6000000000000001"><polygon points="102.02 116.72 123.75 118.59 102.11 145.5 102.02 116.72" style="fill:#fff"></polygon></g></g><g id="freepik--Pictures--inject-106"><path d="M104.41,229.21l.49-.27.5-.26,0,7.57L83.66,248.67l-24.58,14,0-6.37.13-.13.5-.48a20.12,20.12,0,0,1,3.49-2.6l.14-.08.21-.12A20.05,20.05,0,0,1,66,251.75l.69-.25a44.19,44.19,0,0,1,8.87-1.58l.87-.12a22.1,22.1,0,0,0,7.25-2.26l.55-.31.46-.27c4.16-2.57,8-7.1,11.85-11.11l.59-.61.29-.29.53-.53.27-.26a34,34,0,0,1,6-4.8Z" style="fill:#BA68C8"></path><path d="M104.41,229.21l.49-.27.5-.26,0,7.57L83.66,248.67l-24.58,14,0-6.37.13-.13.5-.48a20.12,20.12,0,0,1,3.49-2.6l.14-.08.21-.12A20.05,20.05,0,0,1,66,251.75l.69-.25a44.19,44.19,0,0,1,8.87-1.58l.87-.12a22.1,22.1,0,0,0,7.25-2.26l.55-.31.46-.27c4.16-2.57,8-7.1,11.85-11.11l.59-.61.29-.29.53-.53.27-.26a34,34,0,0,1,6-4.8Z" style="opacity:0.4"></path><path d="M78.58,227.16c2.69-1.55,4.88-.3,4.89,2.8a10.7,10.7,0,0,1-4.86,8.41c-2.7,1.56-4.88.31-4.89-2.78A10.71,10.71,0,0,1,78.58,227.16Z" style="fill:#fff"></path><path d="M83.66,247.54a22.1,22.1,0,0,1-7.25,2.26A22.1,22.1,0,0,0,83.66,247.54Z" style="fill:#5d3464"></path><path d="M63.75,243.45a6,6,0,0,1,1.11-.5,6.25,6.25,0,0,1,3.21,0L74.32,244a5.08,5.08,0,0,0,3.34-.78,11.45,11.45,0,0,0,3.21-2.9,14.5,14.5,0,0,1,3.61-3.67l.14-.08a4.14,4.14,0,0,1,3-.33,4.88,4.88,0,0,0,3.36-.75,11.55,11.55,0,0,0,3.46-3.25c1.19-1.62,2.39-3.25,3.49-4.83a16.86,16.86,0,0,1,2.91-3.49,6.31,6.31,0,0,1,.76-.51,6.52,6.52,0,0,1,3.78-.73l0,6-.5.26-.46.25-.28.17a34,34,0,0,0-6,4.8l-.27.26-.53.53-.29.29-.59.61c-3.86,4-7.69,8.54-11.85,11.11l-.46.27-.55.31a22.1,22.1,0,0,1-7.25,2.26l-.87.12a44.19,44.19,0,0,0-8.87,1.58l-.69.25a20.05,20.05,0,0,0-2.45,1.16l-.21.12-.14.08a20.12,20.12,0,0,0-3.49,2.6l-.5.48-.13.13,0-8.11c.42-.6.85-1.17,1.3-1.71A13.91,13.91,0,0,1,63.75,243.45Z" style="fill:#BA68C8"></path><g style="opacity:0.2"><path d="M63.75,243.45a6,6,0,0,1,1.11-.5,6.25,6.25,0,0,1,3.21,0L74.32,244a5.08,5.08,0,0,0,3.34-.78,11.45,11.45,0,0,0,3.21-2.9,14.5,14.5,0,0,1,3.61-3.67l.14-.08a4.14,4.14,0,0,1,3-.33,4.88,4.88,0,0,0,3.36-.75,11.55,11.55,0,0,0,3.46-3.25c1.19-1.62,2.39-3.25,3.49-4.83a16.86,16.86,0,0,1,2.91-3.49,6.31,6.31,0,0,1,.76-.51,6.52,6.52,0,0,1,3.78-.73l0,6-.5.26-.46.25-.28.17a34,34,0,0,0-6,4.8l-.27.26-.53.53-.29.29-.59.61c-3.86,4-7.69,8.54-11.85,11.11l-.46.27-.55.31a22.1,22.1,0,0,1-7.25,2.26l-.87.12a44.19,44.19,0,0,0-8.87,1.58l-.69.25a20.05,20.05,0,0,0-2.45,1.16l-.21.12-.14.08a20.12,20.12,0,0,0-3.49,2.6l-.5.48-.13.13,0-8.11c.42-.6.85-1.17,1.3-1.71A13.91,13.91,0,0,1,63.75,243.45Z"></path></g><path d="M55,232.38,109.3,201l.12,43.33L55.14,275.71Zm50.36-9.7,0-14.77L59,234.66l.1,34.2,46.34-26.76,0-5.85,0-7.57,0-6" style="fill:#BA68C8"></path><g style="opacity:0.6000000000000001"><path d="M55,232.38,109.3,201l.12,43.33L55.14,275.71Zm50.36-9.7,0-14.77L59,234.66l.1,34.2,46.34-26.76,0-5.85,0-7.57,0-6" style="fill:#fff"></path></g><path d="M59.08,262.69l24.58-14,21.76-12.42,0,5.85L59.1,268.86Z" style="fill:#455a64"></path><path d="M59,234.66l46.34-26.75,0,14.77a6.52,6.52,0,0,0-3.78.73,6.31,6.31,0,0,0-.76.51,16.86,16.86,0,0,0-2.91,3.49c-1.1,1.58-2.3,3.21-3.49,4.83A11.55,11.55,0,0,1,91,235.49a4.88,4.88,0,0,1-3.36.75,4.14,4.14,0,0,0-3,.33l-.14.08a14.5,14.5,0,0,0-3.61,3.67,11.45,11.45,0,0,1-3.21,2.9,5.08,5.08,0,0,1-3.34.78l-6.25-1.08a6.25,6.25,0,0,0-3.21,0,6,6,0,0,0-1.11.5,13.91,13.91,0,0,0-3.41,3.05c-.45.54-.88,1.11-1.3,1.71Zm19.61,3.71A10.7,10.7,0,0,0,83.47,230c0-3.1-2.2-4.35-4.89-2.8a10.71,10.71,0,0,0-4.86,8.43c0,3.09,2.19,4.34,4.89,2.78" style="fill:#BA68C8"></path><path d="M66,251.75a20.05,20.05,0,0,0-2.45,1.16A20.05,20.05,0,0,1,66,251.75Z" style="fill:#5d3464"></path><path d="M330.22,150l60.2-34.76.17,61.85-60.2,34.76Zm54.68,23.85L384.76,125l-48.85,28.2.14,48.81,48.85-28.2" style="fill:#BA68C8"></path><path d="M330.22,150l60.2-34.76.17,61.85-60.2,34.76Zm54.68,23.85L384.76,125l-48.85,28.2.14,48.81,48.85-28.2" style="fill:#fff;opacity:0.6000000000000001"></path><polygon points="360.75 144.32 374.91 145.54 360.16 163.95 346 162.73 360.75 144.32" style="fill:#fafafa"></polygon><polygon points="374.91 145.54 374.92 164.24 360.16 182.65 360.16 163.95 374.91 145.54" style="fill:#ebebeb"></polygon><polygon points="346 162.73 360.16 163.95 360.16 182.65 346 181.43 346 162.73" style="fill:#e0e0e0"></polygon><path d="M335.91,153.21,384.76,125l.14,48.81L336.05,202Zm39,11v-18.7l-14.16-1.22L346,162.73v18.7l14.16,1.22,14.76-18.41" style="fill:#BA68C8"></path><g style="opacity:0.2"><path d="M335.91,153.21,384.76,125l.14,48.81L336.05,202Zm39,11v-18.7l-14.16-1.22L346,162.73v18.7l14.16,1.22,14.76-18.41" style="fill:#fff"></path></g><path d="M386,91l27.65-16,.12,41.73-27.65,16Zm17.82,18,0-.16a11.81,11.81,0,0,1,1.66-4.61,17.1,17.1,0,0,0,2.68-8.58c0-5.25-3.73-7.38-8.3-4.76s-8.32,9.1-8.3,14.34c0,2.77,1,4.66,2.67,5.46a3.3,3.3,0,0,1,1.72,2.65l0,.18a2.12,2.12,0,0,0,.66,1.35V116l.47-.27v.38l-.47.28v1.13l.47-.27v.39l-.48.27v1.14l.47-.28v.73l0,.26c.14,1.08,1,1.44,2,.85l-.1.06,0,.08c0,.32.29.43.59.25l.43-.24a1.34,1.34,0,0,0,.59-.94v-.09l-.1.05a4.54,4.54,0,0,0,2-3.19l0-.3v-.72l.47-.27v-1.14l-.47.27v-.38l.47-.28v-1.13l-.48.27v-.39l.48-.27v-1.14a6.51,6.51,0,0,0,.66-2.11m.64-20.83c-.06.15,0,.29.08.3l.11,0a.44.44,0,0,0,.2-.24l1.74-4.49c.06-.15,0-.29-.08-.3a.27.27,0,0,0-.12,0,.43.43,0,0,0-.19.24l-1.74,4.49m-11.29,2.94c-.1.13-.14.31-.07.39L394.84,94c0,.06.12.06.2,0l.11-.1a.38.38,0,0,0,.08-.4L393.47,91c0-.06-.11-.06-.19,0a.35.35,0,0,0-.12.1m13.41,18.82a.39.39,0,0,0,.08-.4l-1.76-2.46c0-.06-.11-.07-.19,0a.26.26,0,0,0-.11.1.38.38,0,0,0-.09.4l1.76,2.47a.15.15,0,0,0,.2,0l.11-.1m-11.28,2.94c0-.16,0-.3-.09-.3a.13.13,0,0,0-.11,0,.43.43,0,0,0-.19.24l-1.74,4.48c-.06.16,0,.3.08.31l.11,0a.53.53,0,0,0,.2-.24l1.74-4.49M391.67,111a.38.38,0,0,0,.09-.4.15.15,0,0,0-.2,0,.38.38,0,0,0-.11.11l-3,3.75a.37.37,0,0,0-.08.4.14.14,0,0,0,.19,0l.11-.11,3-3.75m19.76-9.49c.06-.16,0-.29-.08-.3l-3-.26a.18.18,0,0,0-.12,0,.48.48,0,0,0-.19.24c-.06.16,0,.29.08.3l3,.26.11,0a.48.48,0,0,0,.19-.24M408.06,90a.38.38,0,0,0-.08.4.14.14,0,0,0,.2,0l.11-.1,3-3.75a.38.38,0,0,0,.08-.4.15.15,0,0,0-.2,0,.5.5,0,0,0-.11.1l-3,3.75m-19.75,9.5c-.07.15,0,.29.08.3l3,.26.11,0a.47.47,0,0,0,.19-.24c.07-.16,0-.3-.08-.31l-3-.25a.15.15,0,0,0-.11,0,.49.49,0,0,0-.19.25M399.6,85.6v4c0,.14.1.2.23.13a.52.52,0,0,0,.22-.39v-4c0-.14-.1-.2-.23-.13a.52.52,0,0,0-.22.39M413,93.22a.49.49,0,0,0,.22-.39c0-.14-.1-.2-.22-.12l-3.5,2a.51.51,0,0,0-.22.39.14.14,0,0,0,.23.13l3.49-2m-26.43,15c0,.14.1.2.23.13l3.49-2a.47.47,0,0,0,.22-.39c0-.14-.1-.19-.22-.12l-3.49,2a.51.51,0,0,0-.23.39" style="fill:#BA68C8"></path><path d="M400.74,119.74v.09a1.34,1.34,0,0,1-.59.94l-.43.24c-.3.18-.55.07-.59-.25l0-.08.1-.06,1.44-.83Z" style="fill:#37474f"></path><path d="M402.69,116.3l0,.3a4.54,4.54,0,0,1-2,3.19l-1.44.83c-1,.59-1.88.23-2-.85l0-.26Z" style="fill:#455a64"></path><polygon points="397.14 117.65 397.13 117.26 402.69 114.06 402.69 114.44 397.14 117.65" style="fill:#37474f"></polygon><polygon points="403.16 112.65 403.16 113.78 402.69 114.06 397.13 117.26 396.66 117.53 396.66 116.4 397.13 116.13 402.68 112.92 403.16 112.65" style="fill:#455a64"></polygon><path d="M402.56,99.48c.46-.27.84,0,.84.48l0,4.13a3,3,0,0,1-.45,1.49l-.67,1.17a2.37,2.37,0,0,0-.34,1.16v3.9l-.34.19v-3.9a3.1,3.1,0,0,1,.44-1.48l.68-1.18a2.37,2.37,0,0,0,.34-1.15v-4.14c0-.31-.23-.44-.51-.28a1.1,1.1,0,0,0-.5.87v3.76a1.87,1.87,0,0,1-.84,1.46c-.46.27-.84.05-.84-.48l0-3.77c0-.32-.22-.45-.5-.29a1.1,1.1,0,0,0-.5.87v3.77a1.87,1.87,0,0,1-.84,1.45c-.46.27-.84,0-.84-.48v-3.77c0-.32-.23-.45-.51-.29a1.12,1.12,0,0,0-.5.87V108a.79.79,0,0,0,.35.75l.68.39a1.07,1.07,0,0,1,.44,1V114l-.33.19v-3.9a.84.84,0,0,0-.35-.76l-.68-.38a1.07,1.07,0,0,1-.44-1l0-4.14a1.84,1.84,0,0,1,.84-1.44c.46-.27.84,0,.84.48v3.76c0,.32.23.46.51.3a1.13,1.13,0,0,0,.5-.88v-3.77a1.84,1.84,0,0,1,.84-1.45c.46-.27.84,0,.84.48v3.77c0,.32.23.45.51.29a1.1,1.1,0,0,0,.5-.87v-3.77A1.87,1.87,0,0,1,402.56,99.48Z" style="fill:#fff"></path><path d="M417.32,68.63l-35,20.22.14,50.22,35-20.23Zm-31.21,64.06L386,91l27.65-16,.12,41.73-27.65,16" style="fill:#BA68C8"></path><g style="opacity:0.6000000000000001"><path d="M417.32,68.63l-35,20.22.14,50.22,35-20.23Zm-31.21,64.06L386,91l27.65-16,.12,41.73-27.65,16" style="fill:#fff"></path></g><polygon points="397.14 119.51 397.14 118.78 402.69 115.58 402.69 116.3 397.14 119.51" style="fill:#37474f"></polygon><polygon points="403.16 114.17 403.16 115.31 402.69 115.58 397.14 118.78 396.67 119.06 396.66 117.92 397.14 117.65 402.69 114.44 403.16 114.17" style="fill:#455a64"></polygon><polygon points="397.13 115.74 402.68 112.53 402.68 112.92 397.13 116.13 397.13 115.74" style="fill:#37474f"></polygon><path d="M399.85,90.91c4.59-2.63,8.3-.5,8.32,4.75a17.1,17.1,0,0,1-2.68,8.58,11.81,11.81,0,0,0-1.66,4.61l0,.16a6.51,6.51,0,0,1-.66,2.11l-1.18.69v-3.9a2.37,2.37,0,0,1,.34-1.16l.67-1.17a3,3,0,0,0,.45-1.49l0-4.13c0-.53-.38-.75-.84-.48a1.87,1.87,0,0,0-.84,1.45v3.77a1.1,1.1,0,0,1-.5.87c-.28.16-.51,0-.51-.29v-3.77c0-.53-.38-.75-.84-.48a1.84,1.84,0,0,0-.84,1.45v3.77a1.13,1.13,0,0,1-.5.88c-.28.16-.51,0-.51-.3v-3.76c0-.53-.38-.75-.84-.48a1.84,1.84,0,0,0-.84,1.44l0,4.14a1.07,1.07,0,0,0,.44,1l.68.38a.84.84,0,0,1,.35.76v3.9l-1.19.69a2.12,2.12,0,0,1-.66-1.35l0-.18a3.3,3.3,0,0,0-1.72-2.65c-1.63-.8-2.66-2.69-2.67-5.46C391.55,100,395.29,93.55,399.85,90.91Z" style="fill:#BA68C8"></path><path d="M402.06,106.62a3.1,3.1,0,0,0-.44,1.48V112l-3.46,2v-3.9a1.07,1.07,0,0,0-.44-1l-.68-.39a.79.79,0,0,1-.35-.75v-4.14a1.12,1.12,0,0,1,.5-.87c.28-.16.51,0,.51.29V107c0,.53.38.75.84.48a1.87,1.87,0,0,0,.84-1.45v-3.77a1.1,1.1,0,0,1,.5-.87c.28-.16.5,0,.5.29l0,3.77c0,.53.38.75.84.48a1.87,1.87,0,0,0,.84-1.46v-3.76a1.1,1.1,0,0,1,.5-.87c.28-.16.51,0,.51.28v4.14a2.37,2.37,0,0,1-.34,1.15Z" style="fill:#BA68C8"></path><g style="opacity:0.4"><path d="M399.85,90.91c4.59-2.63,8.3-.5,8.32,4.75a17.1,17.1,0,0,1-2.68,8.58,11.81,11.81,0,0,0-1.66,4.61l0,.16a6.51,6.51,0,0,1-.66,2.11l-1.18.69v-3.9a2.37,2.37,0,0,1,.34-1.16l.67-1.17a3,3,0,0,0,.45-1.49l0-4.13c0-.53-.38-.75-.84-.48a1.87,1.87,0,0,0-.84,1.45v3.77a1.1,1.1,0,0,1-.5.87c-.28.16-.51,0-.51-.29v-3.77c0-.53-.38-.75-.84-.48a1.84,1.84,0,0,0-.84,1.45v3.77a1.13,1.13,0,0,1-.5.88c-.28.16-.51,0-.51-.3v-3.76c0-.53-.38-.75-.84-.48a1.84,1.84,0,0,0-.84,1.44l0,4.14a1.07,1.07,0,0,0,.44,1l.68.38a.84.84,0,0,1,.35.76v3.9l-1.19.69a2.12,2.12,0,0,1-.66-1.35l0-.18a3.3,3.3,0,0,0-1.72-2.65c-1.63-.8-2.66-2.69-2.67-5.46C391.55,100,395.29,93.55,399.85,90.91Z" style="fill:#fff"></path><path d="M402.06,106.62a3.1,3.1,0,0,0-.44,1.48V112l-3.46,2v-3.9a1.07,1.07,0,0,0-.44-1l-.68-.39a.79.79,0,0,1-.35-.75v-4.14a1.12,1.12,0,0,1,.5-.87c.28-.16.51,0,.51.29V107c0,.53.38.75.84.48a1.87,1.87,0,0,0,.84-1.45v-3.77a1.1,1.1,0,0,1,.5-.87c.28-.16.5,0,.5.29l0,3.77c0,.53.38.75.84.48a1.87,1.87,0,0,0,.84-1.46v-3.76a1.1,1.1,0,0,1,.5-.87c.28-.16.51,0,.51.28v4.14a2.37,2.37,0,0,1-.34,1.15Z" style="fill:#fff"></path></g><polygon points="403.15 111.12 403.16 112.26 402.68 112.53 397.13 115.74 396.66 116.01 396.65 114.88 403.15 111.12" style="fill:#455a64"></polygon><path d="M388.5,99.29a.15.15,0,0,1,.11,0l3,.25c.11,0,.15.15.08.31a.47.47,0,0,1-.19.24l-.11,0-3-.26c-.11,0-.15-.15-.08-.3A.49.49,0,0,1,388.5,99.29Z" style="fill:#fff"></path><path d="M404.7,107.06c.08,0,.15,0,.19,0l1.76,2.46a.39.39,0,0,1-.08.4l-.11.1a.15.15,0,0,1-.2,0l-1.76-2.47a.38.38,0,0,1,.09-.4A.26.26,0,0,1,404.7,107.06Z" style="fill:#fff"></path><path d="M413,92.71c.12-.08.22,0,.22.12a.49.49,0,0,1-.22.39l-3.49,2a.14.14,0,0,1-.23-.13.51.51,0,0,1,.22-.39Z" style="fill:#fff"></path><path d="M411.19,86.19a.15.15,0,0,1,.2,0,.38.38,0,0,1-.08.4l-3,3.75-.11.1a.14.14,0,0,1-.2,0,.38.38,0,0,1,.08-.4l3-3.75A.5.5,0,0,1,411.19,86.19Z" style="fill:#fff"></path><path d="M391.56,110.59a.15.15,0,0,1,.2,0,.38.38,0,0,1-.09.4l-3,3.75-.11.11a.14.14,0,0,1-.19,0,.37.37,0,0,1,.08-.4l3-3.75A.38.38,0,0,1,391.56,110.59Z" style="fill:#fff"></path><path d="M406.38,83.45a.27.27,0,0,1,.12,0c.1,0,.14.15.08.3l-1.74,4.49a.44.44,0,0,1-.2.24l-.11,0c-.11,0-.14-.15-.08-.3l1.74-4.49A.43.43,0,0,1,406.38,83.45Z" style="fill:#fff"></path><path d="M390.26,105.82c.12-.07.22,0,.22.12a.47.47,0,0,1-.22.39l-3.49,2c-.13.07-.23,0-.23-.13a.51.51,0,0,1,.23-.39Z" style="fill:#fff"></path><path d="M399.82,85.21c.13-.07.23,0,.23.13v4a.52.52,0,0,1-.22.39c-.13.07-.23,0-.23-.13v-4A.52.52,0,0,1,399.82,85.21Z" style="fill:#fff"></path><path d="M393.28,91c.08,0,.15,0,.19,0l1.76,2.47a.38.38,0,0,1-.08.4L395,94c-.08,0-.16,0-.2,0l-1.75-2.47c-.07-.08,0-.26.07-.39A.35.35,0,0,1,393.28,91Z" style="fill:#fff"></path><path d="M408.2,101a.18.18,0,0,1,.12,0l3,.26c.11,0,.14.14.08.3a.48.48,0,0,1-.19.24l-.11,0-3-.26c-.1,0-.14-.14-.08-.3A.48.48,0,0,1,408.2,101Z" style="fill:#fff"></path><path d="M395.09,112.61a.13.13,0,0,1,.11,0c.11,0,.14.14.09.3l-1.74,4.49a.53.53,0,0,1-.2.24l-.11,0c-.1,0-.14-.15-.08-.31l1.74-4.48A.43.43,0,0,1,395.09,112.61Z" style="fill:#fff"></path><polygon points="288.62 151.27 295.54 148.93 289.35 160.23 281.21 170.15 288.62 151.27" style="fill:#455a64"></polygon><polygon points="311.1 122.17 302.83 151.88 289.61 167.16 286.12 177.09 271.28 185.66 281.21 170.15 289.35 160.23 295.54 148.93 311.1 122.17" style="fill:#37474f"></polygon><polygon points="336.7 95.88 336.82 137.18 330.89 130.52 327.12 134.74 311.1 122.17 295.54 148.93 288.62 151.27 281.21 170.15 271.28 185.66 286.12 177.09 302.87 167.42 311.2 162.61 336.85 147.8 271.28 185.66 271.13 133.74 336.7 95.88" style="fill:#BA68C8"></polygon><polygon points="336.7 95.88 336.82 137.18 330.89 130.52 327.12 134.74 311.1 122.17 295.54 148.93 288.62 151.27 281.21 170.15 271.28 185.66 286.12 177.09 302.87 167.42 311.2 162.61 336.85 147.8 271.28 185.66 271.13 133.74 336.7 95.88" style="opacity:0.2"></polygon><polygon points="330.89 130.52 336.82 137.18 336.85 147.8 311.2 162.61 313.62 157.85 320.35 150.61 330.89 130.52" style="fill:#455a64"></polygon><polygon points="311.1 122.17 327.12 134.74 312.54 151.06 302.87 167.42 286.12 177.09 289.61 167.16 302.83 151.88 311.1 122.17" style="fill:#455a64"></polygon><path d="M265.44,130.49l76.92-44.41.18,65-76.92,44.42Zm71.38,6.69-.12-41.3-65.57,37.86.15,51.92,65.57-37.86,0-10.62" style="fill:#BA68C8"></path><path d="M265.44,130.49l76.92-44.41.18,65-76.92,44.42Zm71.38,6.69-.12-41.3-65.57,37.86.15,51.92,65.57-37.86,0-10.62" style="fill:#fff;opacity:0.6000000000000001"></path><polygon points="330.89 130.52 320.35 150.61 313.62 157.85 311.2 162.61 302.87 167.42 312.54 151.06 327.12 134.74 330.89 130.52" style="fill:#37474f"></polygon><polygon points="143.37 159.85 143.46 190.87 104.29 213.48 104.2 182.46 143.37 159.85" style="fill:#BA68C8"></polygon><g style="opacity:0.1"><polygon points="143.37 159.85 143.46 190.87 104.29 213.48 104.2 182.46 143.37 159.85"></polygon></g><path d="M100.8,180.53l46-26.53.11,38.8-46,26.53Zm42.66,10.33-.09-31-39.16,22.61.08,31,39.17-22.62" style="fill:#BA68C8"></path><g style="opacity:0.6000000000000001"><path d="M100.8,180.53l46-26.53.11,38.8-46,26.53Zm42.66,10.33-.09-31-39.16,22.61.08,31,39.17-22.62" style="fill:#fff"></path></g><path d="M136.67,168.77c.7-.41,1.27-.08,1.28.73l.05,18a2.79,2.79,0,0,1-1.27,2.19L130,193.57c2.9-4,4.81-8.9,4.79-13.26s-1.94-7.08-4.86-7.67Z" style="fill:#37474f"></path><path d="M123.81,178c4.15-2.39,7.53-.47,7.54,4.3a16.49,16.49,0,0,1-7.49,13c-4.16,2.4-7.54.48-7.55-4.29A16.54,16.54,0,0,1,123.81,178ZM121.5,187a5.08,5.08,0,0,0,2.32-4c0-1.48-1-2.07-2.33-1.33a5.12,5.12,0,0,0-2.33,4c0,1.47,1,2.07,2.34,1.32" style="fill:#263238"></path><path d="M117.63,179.76c-2.91,4-4.81,8.9-4.8,13.26s1.94,7.09,4.86,7.68l-6.7,3.86c-.7.41-1.27.08-1.27-.72l-.06-18a2.79,2.79,0,0,1,1.27-2.2Z" style="fill:#37474f"></path><path d="M121.49,181.62c1.28-.74,2.33-.15,2.33,1.33a5.08,5.08,0,0,1-2.32,4c-1.29.75-2.34.15-2.34-1.32A5.12,5.12,0,0,1,121.49,181.62Z" style="fill:#fff"></path><path d="M130,172.64c2.92.59,4.85,3.32,4.86,7.67s-1.89,9.3-4.79,13.26a20.88,20.88,0,0,1-6.17,5.74,9,9,0,0,1-6.18,1.39c-2.92-.59-4.85-3.33-4.86-7.68s1.89-9.3,4.8-13.26A20.88,20.88,0,0,1,123.8,174,8.93,8.93,0,0,1,130,172.64Zm-6.11,22.66a16.49,16.49,0,0,0,7.49-13c0-4.77-3.39-6.69-7.54-4.3a16.54,16.54,0,0,0-7.5,13c0,4.77,3.39,6.69,7.55,4.29" style="fill:#455a64"></path><path d="M323.38,65.87l49.39-28.51.14,50.74-49.38,28.51Zm44.86,19.57-.11-40L328.05,68.54l.12,40,40.07-23.14" style="fill:#BA68C8"></path><path d="M323.38,65.87l49.39-28.51.14,50.74-49.38,28.51Zm44.86,19.57-.11-40L328.05,68.54l.12,40,40.07-23.14" style="fill:#fff;opacity:0.6000000000000001"></path><polygon points="368.13 45.4 328.05 68.54 328.17 108.58 368.24 85.44 368.13 45.4" style="fill:#BA68C8"></polygon><path d="M343.62,72.77a2.82,2.82,0,0,1,1,1.42,10.83,10.83,0,0,0-1.36,3.51,6.72,6.72,0,0,1-.91.64,8.18,8.18,0,0,1-1.12.52,13.16,13.16,0,0,1,.81-3.08A16.4,16.4,0,0,1,343.62,72.77Z" style="fill:#f0f0f0"></path><path d="M337.59,79.14a3.6,3.6,0,0,0,.72.12,7.14,7.14,0,0,0,2.95-.4,9.28,9.28,0,0,0-.1,1.48,8.2,8.2,0,0,0,.11,1.35,19.56,19.56,0,0,0-2.94,3c-.27.33-.51.65-.72.94-2.32,1.09-2.78,0-2.79-1.64S335.27,80.74,337.59,79.14Z" style="fill:#f0f0f0"></path><path d="M352.67,79.83a4.75,4.75,0,0,0,2.46.87,6.6,6.6,0,0,0,.76,0c1,1.88.18,3.46-1,5a6.17,6.17,0,0,1-1.57,1.49,1.69,1.69,0,0,1-2.27-.41c0-.32,0-.65,0-1a9.75,9.75,0,0,0-.5-3.3,15.25,15.25,0,0,0,1.12-1.25A13.93,13.93,0,0,0,352.67,79.83Z" style="fill:#f0f0f0"></path><path d="M355,73.75a6.84,6.84,0,0,1,3-.4,4.56,4.56,0,0,1,.72.11c1.91.46,1.71,2,1,3.84a5.42,5.42,0,0,1-2.13,2.94,3.76,3.76,0,0,1-1.68.48,6.6,6.6,0,0,1-.76,0,4.75,4.75,0,0,1-2.46-.87c.15-.23.29-.46.43-.7a16.43,16.43,0,0,0,1.12-2.31,13.91,13.91,0,0,0,.68-2.34C355,74.23,355,74,355,73.75Z" style="fill:#fff"></path><path d="M351.64,78.41a2.8,2.8,0,0,0,1,1.42c.15-.23.29-.46.43-.7-.14.24-.28.47-.43.7a13.93,13.93,0,0,1-1,1.41,15.25,15.25,0,0,1-1.12,1.25l-.47.44.47-.45a2.86,2.86,0,0,0-1-1.45A11.39,11.39,0,0,0,351.64,78.41Z" style="fill:#e0e0e0"></path><path d="M353.9,74.27a6.85,6.85,0,0,1,1.13-.52c0,.24-.08.48-.13.73a13.91,13.91,0,0,1-.68,2.34,16.43,16.43,0,0,1-1.12,2.31c-.14.24-.28.47-.43.7a2.8,2.8,0,0,1-1-1.42A11.31,11.31,0,0,0,353,74.9,6,6,0,0,1,353.9,74.27Z" style="fill:#f0f0f0"></path><path d="M358.69,67c2.32-1.09,2.77,0,2.78,1.64s-.45,3.25-2.77,4.85a4.56,4.56,0,0,0-.72-.11,6.84,6.84,0,0,0-3,.4,10.9,10.9,0,0,0,.11-1.49,7.21,7.21,0,0,0-.12-1.35,19.58,19.58,0,0,0,3-3Z" style="fill:#f0f0f0"></path><path d="M350.54,82.48a9.86,9.86,0,0,1,.5,3.31c0,.35,0,.68,0,1-.22,2.8-1.4,4-2.82,4.82s-2.6,1-2.83-1.56a9.34,9.34,0,0,1,0-1,15.18,15.18,0,0,1,.48-3.86l.46-.1a7.38,7.38,0,0,0,1.91-.79,10.86,10.86,0,0,0,1.9-1.41Z" style="fill:#fff"></path><path d="M355,70.92a7,7,0,0,1,.12,1.34,10.9,10.9,0,0,1-.11,1.49c0,.24-.08.48-.13.73.05-.25.09-.49.13-.73a6.85,6.85,0,0,0-1.13.52,6,6,0,0,0-.9.63,8.41,8.41,0,0,0,.14-1.48A5.38,5.38,0,0,0,353,72.1a4.38,4.38,0,0,0,.91-.41A9,9,0,0,0,355,70.92Z" style="fill:#e0e0e0"></path><path d="M349.53,81a2.86,2.86,0,0,1,1,1.45l-.47.45a10.86,10.86,0,0,1-1.9,1.41,7.38,7.38,0,0,1-1.91.79l-.46.09a11,11,0,0,1,1-2.61,5.06,5.06,0,0,0,1.37-.57A7.21,7.21,0,0,0,349.53,81Z" style="fill:#f0f0f0"></path><path d="M341.27,81.69c0,.2.08.4.13.59a5,5,0,0,0,.7,1.53,3.47,3.47,0,0,0,1.12,1,3.55,3.55,0,0,0,.44.21,23.15,23.15,0,0,1-2.45,3.7c-.27.33-.52.63-.76.89a7.5,7.5,0,0,1-1.67,1.46,1.42,1.42,0,0,1-2.15-.48c-.71-1-.92-2.32,1-5,.21-.29.45-.61.72-.94A19.56,19.56,0,0,1,341.27,81.69Z" style="fill:#fff"></path><path d="M343.66,85a3.25,3.25,0,0,0,1,.24,4.81,4.81,0,0,0,1.13,0,15.18,15.18,0,0,0-.48,3.86,9.34,9.34,0,0,0,0,1,6.39,6.39,0,0,1-2.27,3,2.5,2.5,0,0,1-1.57.32c-1.23-.1-2-.77-1.07-3.77.24-.26.49-.56.76-.89A23.15,23.15,0,0,0,343.66,85Z" style="fill:#f0f0f0"></path><path d="M344.68,82.43a2.93,2.93,0,0,0,2.11.18,11,11,0,0,0-1,2.61l.46-.09-.46.09a4.34,4.34,0,0,1-1.13.06,3.25,3.25,0,0,1-1-.24,3.55,3.55,0,0,1-.44-.21,3.55,3.55,0,0,0,.44.21A11.19,11.19,0,0,0,344.68,82.43Z" style="fill:#e0e0e0"></path><path d="M352.64,67.57a3.36,3.36,0,0,1,1.55,1.22,5.17,5.17,0,0,1,.83,2.13,9,9,0,0,1-1.12.77,4.38,4.38,0,0,1-.91.41,2.87,2.87,0,0,0-1.38-1.93A11,11,0,0,1,352.64,67.57Z" style="fill:#f0f0f0"></path><path d="M357.52,61.51a1.41,1.41,0,0,1,2.14.48c.71,1,.92,2.32-1,5l-.72.94a19.58,19.58,0,0,1-3,3,5.18,5.18,0,0,0-.83-2.12,3.36,3.36,0,0,0-1.55-1.22,22.68,22.68,0,0,1,2.44-3.71c.27-.33.52-.63.76-.89A7.3,7.3,0,0,1,357.52,61.51Z" style="fill:#fff"></path><path d="M350.5,67.38a4.26,4.26,0,0,1,1.12-.06,3.63,3.63,0,0,1,1,.24,11.27,11.27,0,0,0-1,2.61A2.92,2.92,0,0,0,349.5,70,11.46,11.46,0,0,0,350.5,67.38Z" style="fill:#e0e0e0"></path><path d="M342.4,80.91a4.32,4.32,0,0,1,.9-.41,2.9,2.9,0,0,0,1.38,1.93,11.19,11.19,0,0,1-1,2.61,3.55,3.55,0,0,1-.44-.21,3.47,3.47,0,0,1-1.12-1,5,5,0,0,1-.7-1.53c0-.19-.09-.39-.13-.59A8.91,8.91,0,0,1,342.4,80.91Z" style="fill:#f0f0f0"></path><path d="M348.13,70.56A5.72,5.72,0,0,1,349.5,70a2.92,2.92,0,0,1,2.11.18A2.87,2.87,0,0,1,353,72.1a5.38,5.38,0,0,1,.15,1.32A8.41,8.41,0,0,1,353,74.9,11.61,11.61,0,0,1,349.53,81a7.21,7.21,0,0,1-1.37,1,5.06,5.06,0,0,1-1.37.57,2.93,2.93,0,0,1-2.11-.18,2.9,2.9,0,0,1-1.38-1.93,5.85,5.85,0,0,1-.15-1.32,7.58,7.58,0,0,1,.15-1.48,10.83,10.83,0,0,1,1.36-3.51,11.3,11.3,0,0,1,2.1-2.62A8.46,8.46,0,0,1,348.13,70.56Z" style="fill:#BA68C8"></path><g style="opacity:0.5"><path d="M348.13,70.56A5.72,5.72,0,0,1,349.5,70a2.92,2.92,0,0,1,2.11.18A2.87,2.87,0,0,1,353,72.1a5.38,5.38,0,0,1,.15,1.32A8.41,8.41,0,0,1,353,74.9,11.61,11.61,0,0,1,349.53,81a7.21,7.21,0,0,1-1.37,1,5.06,5.06,0,0,1-1.37.57,2.93,2.93,0,0,1-2.11-.18,2.9,2.9,0,0,1-1.38-1.93,5.85,5.85,0,0,1-.15-1.32,7.58,7.58,0,0,1,.15-1.48,10.83,10.83,0,0,1,1.36-3.51,11.3,11.3,0,0,1,2.1-2.62A8.46,8.46,0,0,1,348.13,70.56Z" style="fill:#fff"></path></g><path d="M338.72,72.36a3.64,3.64,0,0,1,1.68-.47,4.87,4.87,0,0,1,.76,0,4.75,4.75,0,0,1,2.46.87,16.4,16.4,0,0,0-1.54,3,13.16,13.16,0,0,0-.81,3.08,7.21,7.21,0,0,1-3,.4,3.6,3.6,0,0,1-.72-.12c-1.9-.46-1.71-2-1-3.83A5.46,5.46,0,0,1,338.72,72.36Z" style="fill:#fff"></path><path d="M341.26,78.86a7.79,7.79,0,0,0,1.13-.52,6.72,6.72,0,0,0,.91-.64,7.58,7.58,0,0,0-.15,1.48,5.85,5.85,0,0,0,.15,1.32,4.32,4.32,0,0,0-.9.41,8.91,8.91,0,0,0-1.13.78c0,.2.08.4.13.59,0-.19-.09-.39-.13-.59a8.2,8.2,0,0,1-.11-1.35A9.28,9.28,0,0,1,341.26,78.86Z" style="fill:#e0e0e0"></path><path d="M353.2,59.52a2.64,2.64,0,0,1,1.57-.32c1.23.1,2,.77,1.07,3.77-.24.26-.49.56-.76.89a23,23,0,0,0-2.44,3.7,3.63,3.63,0,0,0-1-.24,4.26,4.26,0,0,0-1.12.06,15.72,15.72,0,0,0,.48-3.87c0-.35,0-.67,0-.95A6.36,6.36,0,0,1,353.2,59.52Z" style="fill:#f0f0f0"></path><path d="M348.12,68.27a6.86,6.86,0,0,1,2.38-.89,11.46,11.46,0,0,1-1,2.61,5.72,5.72,0,0,0-1.37.57,8.46,8.46,0,0,0-1.37,1,2.85,2.85,0,0,1-1-1.45A11.56,11.56,0,0,1,348.12,68.27Z" style="fill:#f0f0f0"></path><path d="M345.75,70.11a2.9,2.9,0,0,0,1,1.46,11.3,11.3,0,0,0-2.1,2.62,2.82,2.82,0,0,0-1-1.42,15.69,15.69,0,0,1,1-1.41A15.25,15.25,0,0,1,345.75,70.11Z" style="fill:#e0e0e0"></path><path d="M348.1,61c1.43-.82,2.61-1,2.84,1.57,0,.28,0,.6,0,.95a15.72,15.72,0,0,1-.48,3.87,6.86,6.86,0,0,0-2.38.89,11.56,11.56,0,0,0-2.36,1.85,9.81,9.81,0,0,1-.51-3.3c0-.35,0-.69,0-1C345.5,63,346.68,61.81,348.1,61Z" style="fill:#fff"></path><path d="M343,65.4a1.69,1.69,0,0,1,2.27.42c0,.31,0,.65,0,1a10,10,0,0,0,.5,3.29,15.25,15.25,0,0,0-1.12,1.25,15.69,15.69,0,0,0-1,1.41,4.75,4.75,0,0,0-2.46-.87,4.87,4.87,0,0,0-.76,0c-1-1.89-.18-3.47,1.05-5A6.35,6.35,0,0,1,343,65.4Z" style="fill:#f0f0f0"></path></g></svg>