<svg class="animated" id="freepik_stories-diary" xmlns="http://www.w3.org/2000/svg" viewBox="0 0 500 500" version="1.1" xmlns:xlink="http://www.w3.org/1999/xlink" xmlns:svgjs="http://svgjs.com/svgjs"><style>svg#freepik_stories-diary:not(.animated) .animable {opacity: 0;}svg#freepik_stories-diary.animated #freepik--background-complete--inject-12 {animation: 1s 1 forwards cubic-bezier(.36,-0.01,.5,1.38) lightSpeedLeft;animation-delay: 0s;}svg#freepik_stories-diary.animated #freepik--Floor--inject-12 {animation: 1s 1 forwards cubic-bezier(.36,-0.01,.5,1.38) slideDown;animation-delay: 0s;}svg#freepik_stories-diary.animated #freepik--speech-bubble--inject-12 {animation: 1s 1 forwards cubic-bezier(.36,-0.01,.5,1.38) lightSpeedRight;animation-delay: 0s;}svg#freepik_stories-diary.animated #freepik--Diary--inject-12 {animation: 1s 1 forwards cubic-bezier(.36,-0.01,.5,1.38) slideDown;animation-delay: 0s;}svg#freepik_stories-diary.animated #freepik--Character--inject-12 {animation: 1s 1 forwards cubic-bezier(.36,-0.01,.5,1.38) slideLeft;animation-delay: 0s;}svg#freepik_stories-diary.animated #freepik--Plant--inject-12 {animation: 1s 1 forwards cubic-bezier(.36,-0.01,.5,1.38) zoomOut;animation-delay: 0s;}            @keyframes lightSpeedLeft {              from {                transform: translate3d(-50%, 0, 0) skewX(20deg);                opacity: 0;              }              60% {                transform: skewX(-10deg);                opacity: 1;              }              80% {                transform: skewX(2deg);              }              to {                opacity: 1;                transform: translate3d(0, 0, 0);              }            }                    @keyframes slideDown {                0% {                    opacity: 0;                    transform: translateY(-30px);                }                100% {                    opacity: 1;                    transform: translateY(0);                }            }                    @keyframes lightSpeedRight {              from {                transform: translate3d(50%, 0, 0) skewX(-20deg);                opacity: 0;              }              60% {                transform: skewX(10deg);                opacity: 1;              }              80% {                transform: skewX(-2deg);              }              to {                opacity: 1;                transform: translate3d(0, 0, 0);              }            }                    @keyframes slideLeft {                0% {                    opacity: 0;                    transform: translateX(-30px);                }                100% {                    opacity: 1;                    transform: translateX(0);                }            }                    @keyframes zoomOut {                0% {                    opacity: 0;                    transform: scale(1.5);                }                100% {                    opacity: 1;                    transform: scale(1);                }            }        </style><g id="freepik--background-complete--inject-12" class="animable" style="transform-origin: 243.495px 226.99px;"><rect x="60.31" y="37.67" width="104.1" height="150.89" style="fill: rgb(224, 224, 224); transform-origin: 112.36px 113.115px;" id="el7cs2lyy0psc" class="animable"></rect><rect x="55.1" y="37.67" width="104.1" height="150.89" style="fill: rgb(245, 245, 245); transform-origin: 107.15px 113.115px;" id="el970n7h348i" class="animable"></rect><rect x="68.03" y="54.01" width="78.24" height="118.21" style="fill: rgb(255, 255, 255); transform-origin: 107.15px 113.115px;" id="elv8sna26x1xr" class="animable"></rect><path d="M146.27,172.22s0-.2,0-.58,0-.94,0-1.67c0-1.49,0-3.66,0-6.49,0-5.66,0-13.92-.07-24.35,0-20.84-.07-50.36-.12-85.12l.26.26L68,54.3h0l.28-.29c0,44.6,0,85.71,0,118.21L68,172l57,.12,15.73.06,4.13,0c.93,0,1.43,0,1.43,0s-.46,0-1.38,0l-4.09,0-15.68.06L68,172.45h-.22v-.23c0-32.5,0-73.61-.06-118.21v-.28H68l78.23,0h.26V54c-.06,34.83-.1,64.41-.13,85.29,0,10.41-.05,18.64-.07,24.29,0,2.81,0,5,0,6.44,0,.71,0,1.26,0,1.64S146.27,172.22,146.27,172.22Z" style="fill: rgb(224, 224, 224); transform-origin: 107.105px 113.09px;" id="el7hb4sg2js4w" class="animable"></path><path d="M159.49,37.67a17.59,17.59,0,0,1-1.85,2.7c-1.21,1.61-2.93,3.81-4.89,6.19s-3.79,4.49-5.14,6a18.18,18.18,0,0,1-2.29,2.34,19.62,19.62,0,0,1,2-2.6l5-6.08,5-6.08A20.1,20.1,0,0,1,159.49,37.67Z" style="fill: rgb(224, 224, 224); transform-origin: 152.405px 46.285px;" id="elmb1qqawkk2r" class="animable"></path><path d="M146.67,171.84a96.72,96.72,0,0,0,13.64,17.07" style="fill: rgb(255, 255, 255); transform-origin: 153.49px 180.375px;" id="elxo8alsmf3uo" class="animable"></path><path d="M160.31,188.91a16.12,16.12,0,0,1-2.38-2.17,75.57,75.57,0,0,1-9.68-12.1,15.25,15.25,0,0,1-1.58-2.8,21.53,21.53,0,0,1,1.91,2.57c1.15,1.61,2.77,3.82,4.65,6.17s3.68,4.41,5,5.89A20.78,20.78,0,0,1,160.31,188.91Z" style="fill: rgb(224, 224, 224); transform-origin: 153.49px 180.375px;" id="elt85dpdy50sk" class="animable"></path><path d="M55.08,188.44q6.83-8.4,13.64-16.82" style="fill: rgb(255, 255, 255); transform-origin: 61.9px 180.03px;" id="el0708v9k0slg" class="animable"></path><path d="M68.72,171.62a103.82,103.82,0,0,1-6.6,8.59,103.24,103.24,0,0,1-7,8.23,105.82,105.82,0,0,1,6.6-8.59A105.47,105.47,0,0,1,68.72,171.62Z" style="fill: rgb(224, 224, 224); transform-origin: 61.92px 180.03px;" id="el9cnvf3sxsqt" class="animable"></path><path d="M55.1,37.67a96.78,96.78,0,0,1,6.62,7.91,94.3,94.3,0,0,1,6.17,8.27,98.09,98.09,0,0,1-6.62-7.92A93.38,93.38,0,0,1,55.1,37.67Z" style="fill: rgb(224, 224, 224); transform-origin: 61.495px 45.76px;" id="elkb1wysksn7o" class="animable"></path><rect x="95.7" y="78.01" width="26.2" height="74.38" style="fill: rgb(224, 224, 224); transform-origin: 108.8px 115.2px;" id="el8ouow4euqjj" class="animable"></rect><rect x="28.74" y="247.8" width="224.25" height="103.42" style="fill: rgb(245, 245, 245); transform-origin: 140.865px 299.51px;" id="eloe5s8e20kr" class="animable"></rect><path d="M247.66,346.35H33.88V253.24H247.66ZM35.27,345h211V254.64h-211Z" style="fill: rgb(224, 224, 224); transform-origin: 140.77px 299.795px;" id="eltsijs14o69h" class="animable"></path><rect x="253" y="247.8" width="54.78" height="103.42" style="fill: rgb(224, 224, 224); transform-origin: 280.39px 299.51px;" id="elgoxf00aaojm" class="animable"></rect><path d="M34.57,282.06H247a.28.28,0,0,0,0-.56H34.57a.28.28,0,0,0,0,.56Z" style="fill: rgb(224, 224, 224); transform-origin: 140.785px 281.78px;" id="elt3h8evq6dk" class="animable"></path><path d="M141.46,281.78a231.09,231.09,0,0,0,.07-28.1.29.29,0,0,0-.57,0,235.21,235.21,0,0,0,.07,28.1.22.22,0,0,0,.43,0Z" style="fill: rgb(224, 224, 224); transform-origin: 141.249px 267.698px;" id="elpbzk366vtm" class="animable"></path><path d="M198.63,267.73a2.9,2.9,0,1,1-2.9-2.89A2.89,2.89,0,0,1,198.63,267.73Z" style="fill: rgb(224, 224, 224); transform-origin: 195.73px 267.74px;" id="el1m576h9petyi" class="animable"></path><path d="M87.17,267.73a2.9,2.9,0,1,1-2.9-2.89A2.89,2.89,0,0,1,87.17,267.73Z" style="fill: rgb(224, 224, 224); transform-origin: 84.27px 267.74px;" id="els42vcmw3vc" class="animable"></path><circle cx="140.77" cy="299.8" r="2.89" style="fill: rgb(224, 224, 224); transform-origin: 140.77px 299.8px;" id="ell2ljqgc3fub" class="animable"></circle><polygon points="55.55 351.23 44.01 416.16 50.5 416.16 71.79 351.23 55.55 351.23" style="fill: rgb(224, 224, 224); transform-origin: 57.9px 383.695px;" id="elsxqsveqkfge" class="animable"></polygon><polygon points="237.13 351.23 246.78 416.27 240.29 416.27 220.89 351.23 237.13 351.23" style="fill: rgb(224, 224, 224); transform-origin: 233.835px 383.75px;" id="el871a4zti6vn" class="animable"></polygon><polygon points="280.48 351.23 291.42 416.27 284.93 416.27 264.25 351.23 280.48 351.23" style="fill: rgb(224, 224, 224); transform-origin: 277.835px 383.75px;" id="el7navkgo0qm4" class="animable"></polygon><path d="M143.47,329.07a2.9,2.9,0,1,1-2.9-2.9A2.89,2.89,0,0,1,143.47,329.07Z" style="fill: rgb(224, 224, 224); transform-origin: 140.57px 329.07px;" id="elrvasb4yo07k" class="animable"></path><path d="M34.57,314.09H247a.29.29,0,0,0,0-.57H34.57a.29.29,0,0,0,0,.57Z" style="fill: rgb(224, 224, 224); transform-origin: 140.785px 313.805px;" id="ele03x6ovun8" class="animable"></path><path d="M428.79,324.85c-.09.12-.88-.36-1.77-1.07s-1.52-1.37-1.42-1.49.88.36,1.77,1.07S428.89,324.73,428.79,324.85Z" style="fill: rgb(224, 224, 224); transform-origin: 427.195px 323.57px;" id="ele1o8b7xqua" class="animable"></path><path d="M452.88,288.85c.15-3.37.24-6.82-.82-10s-3.52-6.14-6.82-6.82c-3.76-.78-7.62,1.6-9.73,4.81s-2.83,7.11-3.46,10.9a385.69,385.69,0,0,0-4.72,79.16l15.4,2.16C449.5,341.42,451.65,317.27,452.88,288.85Z" style="fill: rgb(235, 235, 235); transform-origin: 439.968px 320.47px;" id="elheve7og34dq" class="animable"></path><path d="M443.1,271.9a.7.7,0,0,1-.07.25c-.07.18-.15.41-.25.69l-1,2.66c-.21.58-.5,1.21-.73,1.93l-.75,2.33c-.27.84-.55,1.73-.86,2.68s-.52,2-.79,3.05a132.6,132.6,0,0,0-3,15.24c-.83,5.79-1.38,12.21-1.81,18.95-.79,13.49-.91,25.73-1.26,34.59-.16,4.43-.31,8-.48,10.48-.08,1.21-.15,2.16-.19,2.85,0,.3,0,.54-.07.74a1,1,0,0,1,0,.25.93.93,0,0,1,0-.25c0-.2,0-.45,0-.74,0-.7,0-1.65.09-2.86.1-2.47.19-6.05.31-10.48.24-8.86.3-21.1,1.09-34.62.43-6.75,1-13.18,1.86-19a128.41,128.41,0,0,1,3.1-15.27c.29-1.07.57-2.09.84-3.05l.9-2.68c.29-.83.55-1.6.8-2.32s.54-1.34.77-1.91c.48-1.11.85-2,1.13-2.63l.3-.68A.85.85,0,0,1,443.1,271.9Z" style="fill: rgb(224, 224, 224); transform-origin: 437.466px 320.245px;" id="elhtbn4cjmkwd" class="animable"></path><path d="M444.53,271.91a11.14,11.14,0,0,1,1.88,3.18,23.49,23.49,0,0,1,1.4,10c-.41,8.5-1.17,20.23-2.18,33.18s-2.15,24.65-3.06,33.11c-.45,4.23-.84,7.65-1.13,10-.15,1.14-.27,2.05-.35,2.72,0,.28-.08.51-.11.7a.68.68,0,0,1-.05.24.73.73,0,0,1,0-.24c0-.2,0-.43.05-.72l.24-2.72c.24-2.42.56-5.84,1-10,.81-8.47,1.87-20.17,2.89-33.12s1.84-24.67,2.34-33.15a24.21,24.21,0,0,0-1.21-9.87A21.25,21.25,0,0,0,444.53,271.91Z" style="fill: rgb(224, 224, 224); transform-origin: 444.4px 318.475px;" id="els4d7k2hho1" class="animable"></path><path d="M455.2,311.76a8.15,8.15,0,0,1-2.91-.75,8.51,8.51,0,0,1-2.74-1.27,8.18,8.18,0,0,1,2.92.75A8.39,8.39,0,0,1,455.2,311.76Z" style="fill: rgb(224, 224, 224); transform-origin: 452.375px 310.75px;" id="el2ibu61ju196" class="animable"></path><path d="M457.06,296.07a9.26,9.26,0,0,1-2.78,1.54,9.08,9.08,0,0,1-3,1,9.52,9.52,0,0,1,2.78-1.54A9.36,9.36,0,0,1,457.06,296.07Z" style="fill: rgb(224, 224, 224); transform-origin: 454.17px 297.34px;" id="els7f4oxps9r" class="animable"></path><path d="M456.1,283.26a9.61,9.61,0,0,1-4.56-.31,4.79,4.79,0,0,1,2.3-.12A5.06,5.06,0,0,1,456.1,283.26Z" style="fill: rgb(224, 224, 224); transform-origin: 453.82px 283.073px;" id="elttaggwjceg" class="animable"></path><path d="M440.21,275.05c-.13.08-.81-.76-1.51-1.87s-1.17-2.09-1-2.17.8.76,1.51,1.87S440.34,275,440.21,275.05Z" style="fill: rgb(224, 224, 224); transform-origin: 438.949px 273.03px;" id="elq7hr2713pcg" class="animable"></path><path d="M435,282.8a4.72,4.72,0,0,1-2.19.23c-1.21,0-2.18-.17-2.18-.33a4.64,4.64,0,0,1,2.19-.22A4.54,4.54,0,0,1,435,282.8Z" style="fill: rgb(224, 224, 224); transform-origin: 432.815px 282.753px;" id="elqo0kujik7vk" class="animable"></path><path d="M431.19,298.3a5.47,5.47,0,0,1-2.31-.64c-1.21-.49-2.15-1-2.09-1.14a5.31,5.31,0,0,1,2.3.63C430.3,297.64,431.24,298.15,431.19,298.3Z" style="fill: rgb(224, 224, 224); transform-origin: 428.99px 297.41px;" id="elaflyp8628oe" class="animable"></path><path d="M430.78,311.33c0,.15-.84.46-2,.69s-2,.3-2.07.15.85-.45,2-.69S430.75,311.18,430.78,311.33Z" style="fill: rgb(224, 224, 224); transform-origin: 428.743px 311.749px;" id="elhpo77meibwr" class="animable"></path><path d="M429,332.65c0,.15-.91.44-2.08.65a4.5,4.5,0,0,1-2.18.11c0-.15.91-.44,2.08-.65A4.5,4.5,0,0,1,429,332.65Z" style="fill: rgb(224, 224, 224); transform-origin: 426.87px 333.03px;" id="elku2uqncsu2" class="animable"></path><path d="M427.83,344.41c.07.14-.7.69-1.73,1.23s-1.92.88-2,.74.71-.68,1.74-1.22S427.76,344.28,427.83,344.41Z" style="fill: rgb(224, 224, 224); transform-origin: 425.964px 345.397px;" id="el782s4sevbpq" class="animable"></path><path d="M437.44,357.77c-.13.08-.81-.86-1.51-2.09a6.29,6.29,0,0,1-1-2.36c.14-.07.81.86,1.52,2.09A6.3,6.3,0,0,1,437.44,357.77Z" style="fill: rgb(224, 224, 224); transform-origin: 436.185px 355.546px;" id="elbbpmrabfw0s" class="animable"></path><path d="M440.21,335.57c.11.11-.64,1-1.68,2s-2,1.75-2.07,1.64.65-1,1.68-2A6.8,6.8,0,0,1,440.21,335.57Z" style="fill: rgb(224, 224, 224); transform-origin: 438.338px 337.395px;" id="elztcqlw7bqed" class="animable"></path><path d="M439.6,323.93c-.11.1-.81-.47-1.56-1.28s-1.27-1.56-1.16-1.66.81.47,1.56,1.28S439.71,323.83,439.6,323.93Z" style="fill: rgb(224, 224, 224); transform-origin: 438.24px 322.46px;" id="elrxka54b0oxr" class="animable"></path><path d="M441.51,309.05c.11.1-.52,1-1.41,2s-1.7,1.71-1.81,1.61.51-1,1.4-2S441.39,309,441.51,309.05Z" style="fill: rgb(224, 224, 224); transform-origin: 439.9px 310.858px;" id="el0v5az6wb4tmh" class="animable"></path><path d="M442.58,298.25c-.11.11-1-.58-2-1.54s-1.68-1.82-1.57-1.93,1,.58,2,1.54S442.69,298.14,442.58,298.25Z" style="fill: rgb(224, 224, 224); transform-origin: 440.795px 296.515px;" id="elx4jk0aaktvg" class="animable"></path><path d="M444.69,283.65a5.29,5.29,0,0,1-1,2.18c-.67,1.13-1.32,2-1.45,1.91a5.42,5.42,0,0,1,1-2.19C443.9,284.42,444.56,283.57,444.69,283.65Z" style="fill: rgb(224, 224, 224); transform-origin: 443.465px 285.696px;" id="elvzimf0igqto" class="animable"></path><path d="M448.65,270.12c.14.07-.25,1.05-.87,2.19s-1.22,2-1.35,1.92a5.14,5.14,0,0,1,.87-2.18C447.91,270.91,448.52,270.05,448.65,270.12Z" style="fill: rgb(224, 224, 224); transform-origin: 447.554px 272.176px;" id="el1k8hlrjwt69" class="animable"></path><path d="M453.15,276.27c.07.13-.55.56-1.37,1s-1.55.6-1.62.47.55-.57,1.38-1S453.09,276.13,453.15,276.27Z" style="fill: rgb(224, 224, 224); transform-origin: 451.655px 277.004px;" id="elr8d8nwntpfr" class="animable"></path><path d="M453.26,324.85a6.27,6.27,0,0,1-3-.73,6.11,6.11,0,0,1-2.61-1.67,15,15,0,0,1,2.82,1.17A14.73,14.73,0,0,1,453.26,324.85Z" style="fill: rgb(224, 224, 224); transform-origin: 450.455px 323.65px;" id="eldlxsov33jbk" class="animable"></path><path d="M451.42,335.14c0,.15-.9.46-2.07.68a4.45,4.45,0,0,1-2.18.14c0-.15.9-.45,2.08-.68A4.55,4.55,0,0,1,451.42,335.14Z" style="fill: rgb(224, 224, 224); transform-origin: 449.295px 335.552px;" id="el9to1cew6urg" class="animable"></path><path d="M449.16,352.79a6,6,0,0,1-2.34-2.06,5.85,5.85,0,0,1-1.47-2.75,18,18,0,0,1,1.9,2.41A18.44,18.44,0,0,1,449.16,352.79Z" style="fill: rgb(224, 224, 224); transform-origin: 447.255px 350.385px;" id="elp2b0fzpky09" class="animable"></path><path d="M424.41,360.86c-.1-.12.53-.82,1.4-1.56s1.65-1.26,1.75-1.14-.53.81-1.4,1.56S424.51,361,424.41,360.86Z" style="fill: rgb(224, 224, 224); transform-origin: 425.985px 359.513px;" id="elpbxgugz6uz" class="animable"></path><path d="M417.29,322.35c-1-3.13-2.88-6.78-6.17-6.83a5.46,5.46,0,0,0-4.62,3.09,11.45,11.45,0,0,0-1.24,5.67,147.2,147.2,0,0,0,7.06,41h12A142.45,142.45,0,0,0,417.29,322.35Z" style="fill: rgb(235, 235, 235); transform-origin: 414.785px 340.4px;" id="elw75mjre1mps" class="animable"></path><path d="M395.55,302.64c-1.68-6.72-6.69-10.35-12.52-10.68-5.31.93-7.37,6.16-8,11.52s1,10.69,2.67,15.83q7.92,24.75,15.83,49.5l15-1.63C403.75,345.07,401,324.58,395.55,302.64Z" style="fill: rgb(235, 235, 235); transform-origin: 391.711px 330.385px;" id="elyoduq9cedxp" class="animable"></path><path d="M411.12,315.52a13.72,13.72,0,0,0-1,1.7,11.09,11.09,0,0,0-.57,5.32c.24,2.28.5,5,.88,8s.94,6.33,1.61,9.78c1.36,6.91,2.89,13.11,3.87,17.63.49,2.25.86,4.09,1.09,5.36.1.58.19,1.07.26,1.46a2.54,2.54,0,0,1,.05.52s-.08-.16-.16-.49-.22-.87-.36-1.45c-.31-1.34-.74-3.13-1.26-5.32-1.07-4.49-2.66-10.67-4-17.6-.68-3.47-1.21-6.79-1.57-9.83-.19-1.52-.32-3-.44-4.32s-.26-2.61-.33-3.77a11,11,0,0,1,.76-5.43A4.87,4.87,0,0,1,411.12,315.52Z" style="fill: rgb(224, 224, 224); transform-origin: 413.215px 340.405px;" id="elxxuz7elisr" class="animable"></path><path d="M383.25,291.53a19.09,19.09,0,0,0-1.81,2.43,17,17,0,0,0-2.27,7.83,36,36,0,0,0,1.85,12l4.26,14.46c3,10.25,5.69,19.53,7.66,26.32l2.26,8c.24.9.44,1.63.59,2.18a5.12,5.12,0,0,1,.17.77,3.79,3.79,0,0,1-.28-.74c-.17-.54-.4-1.26-.69-2.15l-2.42-7.94c-2-6.78-4.77-16-7.81-26.27L380.53,314c-1.28-4.46-2-8.67-1.75-12.21a16.77,16.77,0,0,1,2.48-7.91A9.24,9.24,0,0,1,383.25,291.53Z" style="fill: rgb(224, 224, 224); transform-origin: 387.345px 328.525px;" id="elw83kiz7b16j" class="animable"></path><path d="M405.22,365.58a5.85,5.85,0,0,1-.33-.72c-.2-.48-.52-1.18-.86-2.1-.71-1.84-1.62-4.55-2.57-7.95s-1.88-7.49-2.79-12.06-1.81-9.6-2.81-14.88-2.2-10.25-3.55-14.69A81.28,81.28,0,0,0,388,301.65a60.12,60.12,0,0,0-4-7.26c-.51-.84-1-1.45-1.26-1.88a4.74,4.74,0,0,1-.42-.68,4.12,4.12,0,0,1,.51.61c.31.42.81,1,1.35,1.83a54.62,54.62,0,0,1,4.2,7.21A78,78,0,0,1,392.8,313a149.36,149.36,0,0,1,3.6,14.73c1,5.28,1.92,10.31,2.77,14.89s1.77,8.66,2.67,12.06,1.75,6.12,2.4,8c.3.94.59,1.65.75,2.14A3.76,3.76,0,0,1,405.22,365.58Z" style="fill: rgb(224, 224, 224); transform-origin: 393.77px 328.705px;" id="elk3u1kj0vs6k" class="animable"></path><path d="M378,316.84c0,.15-.78.47-1.82.72s-1.91.34-1.95.19.78-.47,1.82-.72S377.93,316.69,378,316.84Z" style="fill: rgb(224, 224, 224); transform-origin: 376.114px 317.295px;" id="el62osbav9ju8" class="animable"></path><path d="M376.38,306.63a18.86,18.86,0,0,1-5.05.2,5.14,5.14,0,0,1,2.51-.48A5.21,5.21,0,0,1,376.38,306.63Z" style="fill: rgb(224, 224, 224); transform-origin: 373.855px 306.608px;" id="elw9uxkmfg1p8" class="animable"></path><path d="M378.07,297.31c-.1.11-.91-.42-1.82-1.18s-1.55-1.48-1.45-1.6.91.41,1.81,1.18S378.17,297.19,378.07,297.31Z" style="fill: rgb(224, 224, 224); transform-origin: 376.435px 295.919px;" id="elw0otr5lmzn" class="animable"></path><path d="M382.63,288.68c.15,0,.11.76.09,1.64s0,1.6-.18,1.63-.4-.71-.37-1.65S382.49,288.64,382.63,288.68Z" style="fill: rgb(224, 224, 224); transform-origin: 382.454px 290.315px;" id="elcz79e4vyarg" class="animable"></path><path d="M392,292.74c.12.09-.24.83-.82,1.65s-1.14,1.42-1.27,1.33.24-.83.82-1.65S391.83,292.66,392,292.74Z" style="fill: rgb(224, 224, 224); transform-origin: 390.954px 294.231px;" id="el74rpu6dwdjg" class="animable"></path><path d="M398,303.25c.05.14-.72.59-1.73,1s-1.88.63-1.94.49.72-.59,1.73-1S398,303.11,398,303.25Z" style="fill: rgb(224, 224, 224); transform-origin: 396.165px 303.995px;" id="ely0kd3u9iovn" class="animable"></path><path d="M401.68,314.07a4.55,4.55,0,0,1-2.37,1,4.43,4.43,0,0,1-2.59.09,10.37,10.37,0,0,1,2.47-.62A9.62,9.62,0,0,1,401.68,314.07Z" style="fill: rgb(224, 224, 224); transform-origin: 399.2px 314.691px;" id="el7d9vco5ro0a" class="animable"></path><path d="M384.82,311c-.14-.05,0-.8.24-1.67s.61-1.55.76-1.51,0,.8-.24,1.67S385,311,384.82,311Z" style="fill: rgb(224, 224, 224); transform-origin: 385.322px 309.409px;" id="elctehkhemxb4" class="animable"></path><path d="M387.18,324.58a5.12,5.12,0,0,1,.67-2.25c.52-1.18,1-2.09,1.18-2a5.19,5.19,0,0,1-.67,2.25C387.84,323.73,387.31,324.64,387.18,324.58Z" style="fill: rgb(224, 224, 224); transform-origin: 388.105px 322.453px;" id="elj7rqrfiqk1" class="animable"></path><path d="M381.37,328.29c-.06.15-1-.11-2.16-.47s-2.07-.69-2-.84a4.1,4.1,0,0,1,2.21.31C380.55,327.66,381.43,328.15,381.37,328.29Z" style="fill: rgb(224, 224, 224); transform-origin: 379.29px 327.638px;" id="elnbgxyxtdqwh" class="animable"></path><path d="M384.72,339.36c.08.13-.56.74-1.44,1.36s-1.66,1-1.75.91.56-.73,1.44-1.36S384.63,339.24,384.72,339.36Z" style="fill: rgb(224, 224, 224); transform-origin: 383.124px 340.491px;" id="el4inq699vjj3" class="animable"></path><path d="M387.4,350.4c0,.15-.76.47-1.77.71s-1.86.33-1.9.18.76-.46,1.77-.71S387.37,350.25,387.4,350.4Z" style="fill: rgb(224, 224, 224); transform-origin: 385.564px 350.844px;" id="el3jqxnlpsyjl" class="animable"></path><path d="M402,323.29c.08.13-.6.67-1.58,1s-1.86.41-1.88.27.74-.43,1.68-.79S401.9,323.16,402,323.29Z" style="fill: rgb(224, 224, 224); transform-origin: 400.273px 323.941px;" id="elxzf7v9n70zm" class="animable"></path><path d="M404.06,340.46c-.07.14-.88-.1-1.81-.54s-1.63-.91-1.57-1.05.88.11,1.81.55S404.12,340.32,404.06,340.46Z" style="fill: rgb(224, 224, 224); transform-origin: 402.37px 339.665px;" id="el1effhls829g" class="animable"></path><path d="M407.73,352.75a5.64,5.64,0,0,1-2.38-.64c-1.26-.49-2.24-1-2.18-1.15a5.83,5.83,0,0,1,2.38.64C406.81,352.09,407.79,352.61,407.73,352.75Z" style="fill: rgb(224, 224, 224); transform-origin: 405.45px 351.855px;" id="eljgwceugjckf" class="animable"></path><path d="M388,362.38c-.08-.14.91-.8,2-1.7s2-1.68,2.13-1.58-.61,1.09-1.79,2A4.92,4.92,0,0,1,388,362.38Z" style="fill: rgb(224, 224, 224); transform-origin: 390.07px 360.736px;" id="elj3b428bbcgf" class="animable"></path><path d="M397.71,356.13c-.16,0-.37-.81-.75-1.77s-.76-1.71-.63-1.81.75.57,1.15,1.61S397.85,356.12,397.71,356.13Z" style="fill: rgb(224, 224, 224); transform-origin: 397.054px 354.335px;" id="elq5z7nqwbttn" class="animable"></path><path d="M395.13,341.35c-.09.12-.72-.18-1.4-.67s-1.17-1-1.08-1.11.71.17,1.4.67S395.22,341.23,395.13,341.35Z" style="fill: rgb(224, 224, 224); transform-origin: 393.89px 340.461px;" id="elj4jo7k3hzq" class="animable"></path><path d="M417.78,318.19c.09.12-.52.73-1.37,1.35s-1.6,1-1.69.9.52-.72,1.37-1.34S417.69,318.07,417.78,318.19Z" style="fill: rgb(224, 224, 224); transform-origin: 416.25px 319.313px;" id="el1zzo2t3hxqe" class="animable"></path><path d="M421.19,327.52c0,.15-.94.35-2.12.22s-2.08-.53-2-.67,1,0,2.09.12S421.18,327.37,421.19,327.52Z" style="fill: rgb(224, 224, 224); transform-origin: 419.128px 327.397px;" id="el4nnnll8lph8" class="animable"></path><path d="M406.52,329.61c0,.15-.85.47-2,.54s-2.06-.12-2-.27.91-.2,2-.28S406.49,329.46,406.52,329.61Z" style="fill: rgb(224, 224, 224); transform-origin: 404.519px 329.841px;" id="elsjfdectm15" class="animable"></path><path d="M407.78,320.79c0,.15-.91.17-1.89-.28s-1.54-1.15-1.44-1.25.78.34,1.67.75S407.8,320.64,407.78,320.79Z" style="fill: rgb(224, 224, 224); transform-origin: 406.109px 320.066px;" id="el9tvz82zz6xc" class="animable"></path><path d="M422.45,337.54c-.08.13-1-.3-2.05-1s-1.83-1.3-1.75-1.43a5,5,0,0,1,2.05,1C421.75,336.77,422.53,337.41,422.45,337.54Z" style="fill: rgb(224, 224, 224); transform-origin: 420.55px 336.337px;" id="el0xvatcv44j2r" class="animable"></path><rect x="379.97" y="363.73" width="78.28" height="13.87" style="fill: rgb(224, 224, 224); transform-origin: 419.11px 370.665px;" id="el92rj1lcggdp" class="animable"></rect><polygon points="385.82 374.85 395.34 416.31 441.99 416.31 452.41 374.85 385.82 374.85" style="fill: rgb(224, 224, 224); transform-origin: 419.115px 395.58px;" id="elhdsyejqeyuq" class="animable"></polygon><path d="M458.21,377.62c0,.15-17.66.27-39.43.27s-39.44-.12-39.44-.27,17.65-.28,39.44-.28S458.21,377.47,458.21,377.62Z" style="fill: rgb(235, 235, 235); transform-origin: 418.775px 377.615px;" id="elxl2y46qvucg" class="animable"></path><path d="M414.68,329.92c-.13.08-.67-.55-1.2-1.4s-.86-1.6-.73-1.68.67.54,1.2,1.39S414.8,329.84,414.68,329.92Z" style="fill: rgb(224, 224, 224); transform-origin: 413.713px 328.38px;" id="elg34s6jhgv5a" class="animable"></path><path d="M414.7,341.08a4.44,4.44,0,0,1,.41-2.11c.37-1.11.79-2,.94-1.93a4.44,4.44,0,0,1-.41,2.11C415.27,340.26,414.85,341.13,414.7,341.08Z" style="fill: rgb(224, 224, 224); transform-origin: 415.375px 339.059px;" id="elefldnxkjx1a" class="animable"></path><path d="M418.53,352.8c-.14.06-.73-.87-1.31-2.09a5.61,5.61,0,0,1-.81-2.33c.14-.07.72.87,1.31,2.09A5.88,5.88,0,0,1,418.53,352.8Z" style="fill: rgb(224, 224, 224); transform-origin: 417.47px 350.59px;" id="ely5ztwcy80eq" class="animable"></path><path d="M410.26,362.23c-.12-.1.35-.83,1-1.63s1.35-1.36,1.46-1.26-.35.83-1,1.63S410.37,362.33,410.26,362.23Z" style="fill: rgb(224, 224, 224); transform-origin: 411.489px 360.785px;" id="elu6tqwarxhg" class="animable"></path><path d="M408.52,345.11c0,.15-.78.14-1.68,0s-1.61-.41-1.59-.56.78-.14,1.69,0S408.55,345,408.52,345.11Z" style="fill: rgb(224, 224, 224); transform-origin: 406.885px 344.83px;" id="elmrxzfu35lu" class="animable"></path></g><g id="freepik--Floor--inject-12" class="animable" style="transform-origin: 250px 416px;"><path d="M449.46,416c0,.14-89.31.26-199.45.26S50.54,416.12,50.54,416s89.29-.26,199.47-.26S449.46,415.83,449.46,416Z" style="fill: rgb(38, 50, 56); transform-origin: 250px 416px;" id="elxs5t046n2ga" class="animable"></path></g><g id="freepik--speech-bubble--inject-12" class="animable" style="transform-origin: 157.52px 122.73px;"><g id="elyqgtdg6f8ge"><circle cx="157.52" cy="122.73" r="46.2" style="fill: rgb(250, 250, 250); transform-origin: 157.52px 122.73px; transform: rotate(-45deg);" class="animable" id="elbocv085eytm"></circle></g><path d="M200.86,153.88c0,.05-.5.09-1.3.45a6,6,0,0,0-2.7,2.45,5.73,5.73,0,0,0-.79,2.38,5,5,0,0,0,.58,2.79,5.48,5.48,0,0,0,10.23-.89,5,5,0,0,0,.08-2.84,5.69,5.69,0,0,0-1.18-2.22,6,6,0,0,0-3.08-1.94c-.86-.22-1.36-.17-1.36-.22a1.26,1.26,0,0,1,.36,0,2.23,2.23,0,0,1,.44,0,3.58,3.58,0,0,1,.59.08A6,6,0,0,1,206,155.8a6,6,0,0,1,1.3,2.32,5.33,5.33,0,0,1-.05,3.06,6.21,6.21,0,0,1-1.84,2.83,5.52,5.52,0,0,1-6.82.59,6.22,6.22,0,0,1-2.29-2.47,5.24,5.24,0,0,1-.58-3,5.9,5.9,0,0,1,.88-2.51,6,6,0,0,1,2.89-2.44,3.79,3.79,0,0,1,.57-.19,2.23,2.23,0,0,1,.43-.08A1.69,1.69,0,0,1,200.86,153.88Z" style="fill: rgb(38, 50, 56); transform-origin: 201.596px 159.669px;" id="el5h8yr177qio" class="animable"></path><path d="M210.78,166.6s-.24.05-.65.23a3,3,0,0,0-1.34,1.22,2.75,2.75,0,0,0-.4,1.19,2.59,2.59,0,0,0,.29,1.39,2.74,2.74,0,0,0,5.11-.45,2.55,2.55,0,0,0,0-1.42,2.9,2.9,0,0,0-.59-1.1,3,3,0,0,0-1.54-1c-.43-.11-.68-.08-.68-.11l.18,0h.22a1.13,1.13,0,0,1,.3,0,3,3,0,0,1,1.63.95,2.9,2.9,0,0,1,.65,1.16,2.63,2.63,0,0,1,0,1.52,3,3,0,0,1-.91,1.41,2.77,2.77,0,0,1-3.41.3,3.12,3.12,0,0,1-1.14-1.23,2.63,2.63,0,0,1-.29-1.5,3,3,0,0,1,.44-1.25,2.94,2.94,0,0,1,1.44-1.22,1.35,1.35,0,0,1,.29-.09.59.59,0,0,1,.21,0Z" style="fill: rgb(38, 50, 56); transform-origin: 211.134px 169.44px;" id="el7a13le40ixo" class="animable"></path><path d="M203.57,125.07s0-.25,0-.75,0-1.23,0-2.19c0-.48,0-1,0-1.61s-.13-1.24-.19-1.94-.16-1.45-.24-2.25a7.8,7.8,0,0,0-.2-1.24c-.09-.42-.18-.86-.27-1.3a44.09,44.09,0,0,0-4.46-12.47,45.94,45.94,0,0,0-11-13.6l-1.91-1.58c-.67-.49-1.38-.94-2.09-1.43L182.11,84a9.57,9.57,0,0,0-1.1-.68L178.69,82c-.4-.21-.79-.43-1.19-.63l-1.24-.53-2.53-1.07c-.86-.33-1.77-.57-2.66-.86l-1.36-.42c-.23-.07-.45-.15-.68-.21l-.7-.14a43.26,43.26,0,0,0-5.76-1c-1-.09-2-.24-3-.27h-3c-.51,0-1,0-1.53,0l-1.54.16c-1,.12-2.07.18-3.11.34A49.21,49.21,0,0,0,144.18,79l-1.55.48-.77.25-.75.32-3,1.27c-1,.48-2,1-2.94,1.56-.48.28-1,.51-1.46.82l-1.4.94a53.33,53.33,0,0,0-5.42,4.15l-2.45,2.45-.62.61-.56.67-1.12,1.35L121,95.17l-1,1.46-1,1.47-.5.74c-.15.25-.29.52-.43.78-.57,1-1.14,2.1-1.72,3.15l-1.41,3.33A45.32,45.32,0,0,0,113.46,135c.36,1.15.71,2.3,1.07,3.45l1.39,3.31.35.82.42.78.85,1.56.84,1.56,1,1.46,1,1.46.49.72.56.67,2.19,2.68a52,52,0,0,0,5,4.68l1.3,1.08c.43.36.92.64,1.37,1,.93.62,1.82,1.28,2.76,1.85l2.89,1.58.72.39.74.32,1.49.64a48.24,48.24,0,0,0,6,2.09c1,.27,2,.44,3,.66l1.52.31c.5.09,1,.12,1.52.18l3,.31c1,.06,2,0,3,0a41.43,41.43,0,0,0,5.82-.38l.71-.07c.24,0,.47-.09.7-.13l1.39-.28c.92-.2,1.85-.34,2.74-.59l2.62-.81,1.3-.4,1.24-.51,2.43-1a11.51,11.51,0,0,0,1.17-.57l1.13-.61c.75-.41,1.5-.79,2.22-1.22l2.06-1.37a45.86,45.86,0,0,0,12.3-12.42c.37-.54.74-1.06,1.07-1.58l.89-1.62.85-1.55c.14-.26.29-.5.41-.76l.33-.77c.43-1,.85-2,1.25-2.93s.61-1.88.9-2.74l.41-1.27a9.43,9.43,0,0,0,.32-1.21c.16-.79.32-1.54.46-2.22s.3-1.32.39-1.91l.17-1.6c.11-.95.19-1.68.24-2.18s.1-.74.1-.74,0,.25,0,.74-.12,1.23-.2,2.19c0,.48-.1,1-.16,1.61s-.23,1.22-.36,1.91l-.45,2.23A8.09,8.09,0,0,1,202,135c-.13.41-.26.84-.4,1.27-.28.87-.52,1.82-.89,2.76s-.8,1.93-1.24,2.95c-.11.26-.21.52-.33.78s-.26.51-.4.77l-.85,1.56-.88,1.63c-.34.53-.71,1.05-1.07,1.59a45.89,45.89,0,0,1-12.33,12.54l-2.07,1.39c-.72.42-1.48.81-2.23,1.23l-1.14.61a9.79,9.79,0,0,1-1.17.58l-2.45,1c-.42.18-.83.36-1.25.52l-1.3.41-2.64.82c-.9.25-1.83.39-2.76.6l-1.4.28c-.23.05-.47.11-.7.14l-.72.08a45.33,45.33,0,0,1-5.87.39c-1,0-2,0-3,0l-3-.31c-.51-.06-1-.08-1.54-.17l-1.53-.32c-1-.22-2.06-.39-3.08-.65a51.38,51.38,0,0,1-6.07-2.11l-1.5-.64c-.26-.11-.51-.21-.76-.33l-.72-.39-2.91-1.59c-.95-.57-1.86-1.24-2.79-1.86-.46-.32-1-.61-1.39-1l-1.31-1.09a51.58,51.58,0,0,1-5-4.71l-2.22-2.7-.56-.68-.5-.73-1-1.47-1-1.47-.86-1.57-.85-1.58-.43-.79-.35-.83-1.41-3.33-1.08-3.49a45.87,45.87,0,0,1,1.48-29.15c.48-1.12,1-2.24,1.43-3.36l1.73-3.17.44-.79.51-.74,1-1.49,1-1.47,1.14-1.36,1.13-1.37.56-.67.63-.62c.83-.82,1.65-1.65,2.48-2.46a52.79,52.79,0,0,1,5.46-4.19l1.42-.94c.46-.32,1-.55,1.47-.83,1-.52,2-1.09,3-1.57L141,79.63l.76-.32.78-.25,1.56-.48a48.83,48.83,0,0,1,6.25-1.49c1.05-.16,2.1-.22,3.14-.34l1.55-.16c.51,0,1,0,1.55,0h3.06c1,0,2,.19,3,.27a42,42,0,0,1,5.8,1l.71.14c.23.06.46.14.68.21l1.37.43c.9.29,1.81.53,2.68.87l2.54,1.08,1.26.54c.4.2.79.43,1.19.64L181.17,83a8.54,8.54,0,0,1,1.11.69l1.07.73c.71.49,1.42,1,2.1,1.45l1.91,1.59a45.78,45.78,0,0,1,11,13.72,43.74,43.74,0,0,1,4.41,12.54c.09.45.18.89.26,1.31a8.11,8.11,0,0,1,.2,1.25c.07.8.15,1.56.21,2.26s.15,1.35.17,1.94,0,1.14,0,1.62c0,1,0,1.69,0,2.19S203.57,125.07,203.57,125.07Z" style="fill: rgb(38, 50, 56); transform-origin: 157.485px 122.745px;" id="el6qw1a9bw1gp" class="animable"></path><path d="M170.65,122.75a4.3,4.3,0,1,0,4.18-4.41A4.3,4.3,0,0,0,170.65,122.75Z" style="fill: rgb(38, 50, 56); transform-origin: 174.949px 122.638px;" id="el9lq4tr6p5aa" class="animable"></path><path d="M153.44,123.22a4.3,4.3,0,1,0,4.18-4.41A4.31,4.31,0,0,0,153.44,123.22Z" style="fill: rgb(38, 50, 56); transform-origin: 157.739px 123.108px;" id="elhn9azr5buwq" class="animable"></path><path d="M136.22,121.54a4.3,4.3,0,1,0,5.83-1.73A4.3,4.3,0,0,0,136.22,121.54Z" style="fill: rgb(38, 50, 56); transform-origin: 140px 123.59px;" id="elgx19htluqxg" class="animable"></path></g><g id="freepik--Diary--inject-12" class="animable" style="transform-origin: 364.63px 144.565px;"><path d="M437.12,174.91l1.16-2.62,2.77,1.22a6.65,6.65,0,1,0,5.38-12.17l-3-1.43,1.16-2.62,3,1.43a9.52,9.52,0,0,1-7.69,17.41Z" style="fill: rgb(224, 224, 224); transform-origin: 445.072px 167.064px;" id="eljh2t3igh9c" class="animable"></path><path d="M437.12,174.91a4.77,4.77,0,0,1,.69.26l1.85.75a10.66,10.66,0,0,0,3,.82,9.46,9.46,0,0,0,4.1-.5,9.29,9.29,0,0,0,6.2-8.06,9.21,9.21,0,0,0-1.61-6,9.05,9.05,0,0,0-2.34-2.36,23.19,23.19,0,0,0-3.1-1.61l-1.48-.69.34-.13c-.39.88-.77,1.76-1.15,2.61l-.13-.33,2.06,1a15.33,15.33,0,0,1,2,1,6.89,6.89,0,0,1,2.8,7.53,6.81,6.81,0,0,1-7.93,4.89,10.68,10.68,0,0,1-2.37-.88l-1.85-.85.14,0q-.56,1.18-.9,1.89a6.32,6.32,0,0,1-.35.69,5.17,5.17,0,0,1,.24-.67l.82-2,0-.1.1,0,1.86.79a10.3,10.3,0,0,0,2.33.82,6.58,6.58,0,0,0,5.64-1.67,6.47,6.47,0,0,0,1.63-6.83,6.3,6.3,0,0,0-2.48-3.19,15.32,15.32,0,0,0-1.94-1l-2.07-1-.23-.1.1-.23,1.16-2.63.11-.24.24.11,1.47.7,1.62.76.8.41.76.48a9.94,9.94,0,0,1,2.47,2.5A9.7,9.7,0,0,1,442.65,177a10.48,10.48,0,0,1-3.09-.93l-1.84-.88A3.88,3.88,0,0,1,437.12,174.91Z" style="fill: rgb(38, 50, 56); transform-origin: 445.264px 166.976px;" id="el0tyy03eqif2g" class="animable"></path><path d="M460.07,118.63,303.36,61.45a2.24,2.24,0,0,0-2.86,1.29l-38.75,99.42a2.24,2.24,0,0,0,1.35,2.93l75.75,26.53.27.12,74.1,37.61a2.24,2.24,0,0,0,3.08-1.12l45.07-106.62A2.24,2.24,0,0,0,460.07,118.63Z" style="fill: #151515; transform-origin: 361.572px 145.454px;" id="eliqr0pkuiay" class="animable"></path><path d="M454.46,116.46l4,12.1,3-7.44a2,2,0,0,0-1.18-2.61Z" style="fill: rgb(224, 224, 224); transform-origin: 458.029px 122.51px;" id="elo1v33af9677" class="animable"></path><path d="M340.58,189.52c-42.64-30.07-73.6-24.9-73.6-24.9L306.4,59.93c33.4-5,74.78,27.42,74.78,27.42Z" style="fill: rgb(250, 250, 250); transform-origin: 324.08px 124.463px;" id="ell8i6udky2ln" class="animable"></path><path d="M340.58,189.52s.06-.17.19-.5.31-.81.56-1.44c.5-1.28,1.23-3.15,2.19-5.58l8.27-21C358.91,143,369,117.49,381,87.26l.08.27a172.65,172.65,0,0,0-15.7-10.47,163.58,163.58,0,0,0-17.7-9.14A109.14,109.14,0,0,0,328,61.35a67.57,67.57,0,0,0-10.55-1.53,52,52,0,0,0-10.79.35l-.17,0,.2-.16L267.17,164.7l-.23-.29a66.67,66.67,0,0,1,17.23.6,105.43,105.43,0,0,1,15.08,3.47,128.82,128.82,0,0,1,23,9.69c3.1,1.53,5.69,3.19,8,4.54,1.13.7,2.23,1.29,3.15,1.93l2.53,1.71,3.46,2.35,1.19.82-1.18-.76-3.5-2.29c-1.54-1-3.43-2.3-5.75-3.6s-4.9-3-8-4.49a129.37,129.37,0,0,0-23-9.58,106.53,106.53,0,0,0-15-3.41,66.36,66.36,0,0,0-17.11-.56l-.35,0,.12-.32c11-29.18,24.62-65.46,39.38-104.71l0-.15h.15l.17,0a52.43,52.43,0,0,1,10.9-.36,67.08,67.08,0,0,1,10.63,1.55,108.2,108.2,0,0,1,19.79,6.61,162.63,162.63,0,0,1,17.74,9.18,169.58,169.58,0,0,1,15.74,10.52l.14.11-.07.16-29.46,73.82-8.37,20.89-2.22,5.51-.57,1.41C340.65,189.37,340.58,189.52,340.58,189.52Z" style="fill: rgb(38, 50, 56); transform-origin: 324.07px 124.339px;" id="el4o59lurbxdv" class="animable"></path><path d="M419.42,222.05a19.94,19.94,0,0,0-14.62,3.08l7.89,4.5a2.64,2.64,0,0,0,3.69-1.17Z" style="fill: rgb(224, 224, 224); transform-origin: 412.11px 225.857px;" id="elp8yso01yj49" class="animable"></path><path d="M457.13,111.78s-28.21-27.53-75.95-24.43l-40.6,102.17s59.34,20.83,72.65,34.49Z" style="fill: rgb(250, 250, 250); transform-origin: 398.855px 155.558px;" id="el3gyid307af5" class="animable"></path><path d="M457.13,111.78l-.19.53-.6,1.58c-.54,1.4-1.34,3.46-2.37,6.14-2.09,5.38-5.13,13.23-9,23.13-7.73,19.85-18.68,47.94-31.54,80.94l-.13.34-.26-.26a43,43,0,0,0-6.95-5.4c-2.51-1.61-5.14-3.11-7.82-4.56-5.38-2.89-11-5.56-16.82-8.16-11.6-5.17-23.84-10-36.48-14.67l-4.5-1.62-.25-.09.1-.25c15.21-38.24,29.25-73.52,40.65-102.16l.05-.13h.13a111,111,0,0,1,33.54,2.94,107.51,107.51,0,0,1,24.1,9.11,95.93,95.93,0,0,1,13.9,8.83c1.51,1.15,2.61,2.1,3.34,2.74l.82.75.26.27-.29-.25-.83-.72c-.75-.63-1.86-1.56-3.37-2.69a98.47,98.47,0,0,0-13.94-8.71,107.37,107.37,0,0,0-24.07-9,111.1,111.1,0,0,0-33.43-2.85l.18-.13L340.82,189.62l-.15-.34,4.5,1.62c12.65,4.65,24.89,9.51,36.51,14.69,5.8,2.61,11.45,5.29,16.85,8.19,2.69,1.46,5.32,3,7.84,4.59a43.81,43.81,0,0,1,7,5.47l-.39.08,31.69-80.74,9.12-23.13,2.44-6.15c.28-.69.49-1.22.64-1.58S457.13,111.78,457.13,111.78Z" style="fill: rgb(38, 50, 56); transform-origin: 398.675px 155.673px;" id="elox2a2zz2qn" class="animable"></path><polygon points="433 189.13 429.63 187.49 447.5 147.13 450.38 148.03 433 189.13" style="fill: rgb(224, 224, 224); transform-origin: 440.005px 168.13px;" id="elpkwlc33wsx" class="animable"></polygon><path d="M457.27,192.87l-2.7.94-1-2.87A6.66,6.66,0,0,0,441,195.32L446.13,210l-2.71,1-5.13-14.73a9.52,9.52,0,0,1,18-6.26Z" style="fill: rgb(224, 224, 224); transform-origin: 447.516px 197.306px;" id="el3ms3l6hoz2m" class="animable"></path><path d="M457.27,192.87a2.39,2.39,0,0,1-.1-.24l-.26-.67c-.24-.59-.51-1.44-1-2.52a9.42,9.42,0,0,0-7.62-5.57,9.33,9.33,0,0,0-9.79,12.33c.49,1.38,1,2.8,1.49,4.24q1.5,4.32,3.11,8.92l.54,1.54-.33-.16,2.7-.94-.16.33-4.3-12.41c-.33-1-.69-1.9-1-2.9a6.68,6.68,0,0,1-.08-3,6.83,6.83,0,0,1,13.29-.53l.83,2.47-.11-.05,2-.65a5.44,5.44,0,0,1,.71-.21,5.8,5.8,0,0,1-.64.26l-2,.76-.08,0,0-.08c-.25-.7-.54-1.52-.89-2.45a6.86,6.86,0,0,0-1.71-2.85A6.46,6.46,0,0,0,441,191.93a6.39,6.39,0,0,0,.09,2.78c.26.91.65,1.88,1,2.85l4.34,12.4.09.24-.25.09-2.7.94-.25.09-.08-.25-.54-1.54q-1.61-4.59-3.11-8.93c-.49-1.44-1-2.85-1.47-4.24a9.88,9.88,0,0,1-.46-4.36,9.71,9.71,0,0,1,4-6.8,9.68,9.68,0,0,1,12,.63,9.39,9.39,0,0,1,2.52,3.53c.45,1.11.69,2,.89,2.62.08.27.15.49.21.67A.8.8,0,0,1,457.27,192.87Z" style="fill: rgb(38, 50, 56); transform-origin: 447.437px 197.367px;" id="elvoec0gqga9" class="animable"></path><g id="el8qnywsx1o8e"><rect x="440.01" y="200.85" width="25.66" height="16.46" rx="2.75" style="fill: #151515; transform-origin: 452.84px 209.08px; transform: rotate(-19.2deg);" class="animable" id="elnxiapdqkltj"></rect></g><g id="elzto9dni5qdb"><g style="opacity: 0.5; transform-origin: 452.209px 208.552px;" class="animable" id="ele7o31jy2c3"><path d="M454.16,206.35a2.14,2.14,0,1,0-1.9,2.84l1.05,3,1.11-.38-1.06-3A2.15,2.15,0,0,0,454.16,206.35Z" id="el7hga2375m1y" class="animable" style="transform-origin: 452.209px 208.552px;"></path></g></g><path d="M444.21,219.15c-.06,0-1-2.56-2.12-5.76s-2-5.8-1.92-5.82,1,2.55,2.12,5.75S444.26,219.13,444.21,219.15Z" style="fill: rgb(250, 250, 250); transform-origin: 442.189px 213.36px;" id="elkok60igqvyq" class="animable"></path><path d="M451.45,210.2a.73.73,0,0,1-.28,0,2.53,2.53,0,0,1-.71-.35,3,3,0,0,1-.48-4.61,3,3,0,0,1,.62-.49.75.75,0,0,1,.27-.11,6.61,6.61,0,0,0-.77.7,3,3,0,0,0,.45,4.39A6.7,6.7,0,0,0,451.45,210.2Z" style="fill: rgb(250, 250, 250); transform-origin: 450.282px 207.427px;" id="el8wunpu5bywj" class="animable"></path><path d="M365.35,105.51a2.65,2.65,0,0,1-.55-.33l-1.5-1c-.65-.45-1.44-1-2.38-1.62s-2-1.36-3.19-2.1c-2.37-1.54-5.27-3.26-8.54-5.08s-6.95-3.64-10.88-5.4-7.79-3.22-11.31-4.47-6.76-2.2-9.49-2.93c-1.36-.4-2.61-.68-3.69-1s-2-.5-2.81-.67l-1.77-.42a3.1,3.1,0,0,1-.61-.18,2.71,2.71,0,0,1,.63.08l1.79.32c.78.14,1.74.33,2.83.59s2.36.52,3.72.89c2.75.69,6,1.65,9.55,2.84s7.41,2.69,11.37,4.44,7.63,3.65,10.91,5.46,6.15,3.61,8.5,5.19c1.2.77,2.23,1.52,3.16,2.17s1.7,1.22,2.33,1.7l1.44,1.11A3.37,3.37,0,0,1,365.35,105.51Z" style="fill: rgb(38, 50, 56); transform-origin: 336.99px 92.91px;" id="elnyye0e52b39" class="animable"></path><path d="M349.94,109.08a2.19,2.19,0,0,1-.55-.29c-.34-.2-.86-.49-1.53-.85a52.69,52.69,0,0,0-5.85-2.7c-2.53-1-5.62-2-9-3.21-1.71-.6-3.49-1.19-5.36-1.88A8.54,8.54,0,0,1,325,98.61a4.51,4.51,0,0,1-1.53-2.81,3.24,3.24,0,0,1,0-.43l.38.23a6.74,6.74,0,0,1-6,.13,4.51,4.51,0,0,1-2.2-2,2,2,0,0,1-.12-1.53,1.73,1.73,0,0,1,1.15-1,1.19,1.19,0,0,1,1.42.49,1.35,1.35,0,0,1-.12,1.45,4.38,4.38,0,0,1-2.09,1.47,8.13,8.13,0,0,1-4.39.72,4.42,4.42,0,0,1-3.1-1.94,3.06,3.06,0,0,1-.25-2.74,2.61,2.61,0,0,1,1.1-1.35,1.48,1.48,0,0,1,.58-.21s-.2.08-.52.3a2.55,2.55,0,0,0-1,1.33,2.87,2.87,0,0,0,.3,2.52A4.21,4.21,0,0,0,311.47,95a7.79,7.79,0,0,0,4.17-.76,4,4,0,0,0,1.87-1.32.88.88,0,0,0,.1-1,.73.73,0,0,0-.89-.27,1.26,1.26,0,0,0-.83.71,1.56,1.56,0,0,0,.12,1.15,4.08,4.08,0,0,0,2,1.75,6.22,6.22,0,0,0,5.56-.13l.38-.2v.44a2.36,2.36,0,0,0,0,.37,4,4,0,0,0,1.36,2.48,8.35,8.35,0,0,0,2.5,1.45c1.82.68,3.63,1.29,5.33,1.89,3.4,1.21,6.48,2.27,9,3.33a44.91,44.91,0,0,1,5.81,2.86c.66.39,1.16.71,1.49.95A3.25,3.25,0,0,1,349.94,109.08Z" style="fill: rgb(38, 50, 56); transform-origin: 328.939px 99.085px;" id="elmeb7ezbrrhr" class="animable"></path><path d="M358.41,119.67a2.12,2.12,0,0,1-.54-.17l-1.51-.58-5.54-2.21-18.18-7.49L314.5,101.6a20.14,20.14,0,0,0-5.67-1.61,20.85,20.85,0,0,0-2.17,0,1.74,1.74,0,0,1,.55-.11,8.85,8.85,0,0,1,1.63,0,19.08,19.08,0,0,1,5.8,1.47c4.68,1.87,11.1,4.53,18.2,7.48L351,116.37l5.47,2.37,1.48.67A2.14,2.14,0,0,1,358.41,119.67Z" style="fill: rgb(38, 50, 56); transform-origin: 332.535px 109.756px;" id="el3rbo1lbwmne" class="animable"></path><path d="M352.62,125.2a6.78,6.78,0,0,0-1.93-1.49,9.84,9.84,0,0,0-2.75-.84c-1.11-.2-2.39-.24-3.83-.38a10.78,10.78,0,0,1-4.56-1.26,9.81,9.81,0,0,1-2-1.77,3.26,3.26,0,0,0-2.23-1.19,21.37,21.37,0,0,0-2.84.29,4.26,4.26,0,0,1-1.58-.11,3.84,3.84,0,0,1-1.42-.8c-.82-.71-1.43-1.55-2.18-2.29a30.71,30.71,0,0,0-2.35-2.19,27.29,27.29,0,0,0-10.65-5.71,16.22,16.22,0,0,0-5.28-.36,4.65,4.65,0,0,1-2.47-.45,2.17,2.17,0,0,1-1.26-2,1.65,1.65,0,0,1,1.47-1.51,1.09,1.09,0,0,1,1,.46,1.3,1.3,0,0,1,.21.94,2,2,0,0,1-.87,1.41,2.13,2.13,0,0,1-1.36.24,5,5,0,0,1-1.75-.63,2,2,0,0,1-.54-.36,3.13,3.13,0,0,1,.59.26,5.07,5.07,0,0,0,1.72.53,2,2,0,0,0,1.21-.25,1.74,1.74,0,0,0,.71-1.23.86.86,0,0,0-.85-1,1.34,1.34,0,0,0-1.13,1.21,1.84,1.84,0,0,0,1.09,1.58,4.22,4.22,0,0,0,2.27.37,16.16,16.16,0,0,1,5.4.32,27.35,27.35,0,0,1,10.88,5.79,31.52,31.52,0,0,1,2.38,2.22c.76.76,1.4,1.62,2.14,2.26a3.24,3.24,0,0,0,1.23.7,3.8,3.8,0,0,0,1.39.11,20.06,20.06,0,0,1,2.93-.28,3.24,3.24,0,0,1,1.43.44,5.72,5.72,0,0,1,1.09.91,9.11,9.11,0,0,0,1.88,1.72,10.64,10.64,0,0,0,4.37,1.27c1.41.15,2.72.22,3.85.45a9.49,9.49,0,0,1,2.78,1,5.29,5.29,0,0,1,1.47,1.14,3.42,3.42,0,0,1,.29.39C352.6,125.15,352.63,125.2,352.62,125.2Z" style="fill: rgb(38, 50, 56); transform-origin: 328.036px 114.167px;" id="elr20qlvr9ow" class="animable"></path><path d="M348.75,132a1.75,1.75,0,0,1-.49-.19l-1.35-.64-5-2.37c-4.19-2-10-4.69-16.55-7.45-3.27-1.37-6.38-2.69-9.26-3.75a35.23,35.23,0,0,0-7.86-2,14.07,14.07,0,0,1-3.08-.73,5.82,5.82,0,0,1-2-1.29,3.94,3.94,0,0,1-.85-1.26,1.38,1.38,0,0,1-.14-.51,5.07,5.07,0,0,0,1.13,1.62,5.91,5.91,0,0,0,2,1.17,14.05,14.05,0,0,0,3,.63,34.14,34.14,0,0,1,8,1.89c2.91,1,6,2.35,9.31,3.72,6.53,2.76,12.35,5.51,16.5,7.6,2.09,1,3.75,1.91,4.9,2.52.52.3,1,.53,1.31.73A2.17,2.17,0,0,1,348.75,132Z" style="fill: rgb(38, 50, 56); transform-origin: 325.46px 121.905px;" id="elw4utnp61ls8" class="animable"></path><path d="M345.16,140.52a2.28,2.28,0,0,1-.49-.19l-1.35-.64-5-2.38c-4.19-2-10-4.69-16.55-7.45-3.27-1.37-6.38-2.69-9.26-3.74a35.3,35.3,0,0,0-7.86-2,14.09,14.09,0,0,1-3.08-.72,6,6,0,0,1-2-1.3,3.81,3.81,0,0,1-.85-1.25,1.47,1.47,0,0,1-.14-.51,5.1,5.1,0,0,0,1.13,1.61,5.64,5.64,0,0,0,2,1.17,13.57,13.57,0,0,0,3,.63,34.21,34.21,0,0,1,8,1.9c2.91,1,6,2.34,9.3,3.71,6.54,2.77,12.36,5.52,16.51,7.6,2.08,1,3.75,1.91,4.9,2.53l1.31.72C345,140.4,345.17,140.5,345.16,140.52Z" style="fill: rgb(38, 50, 56); transform-origin: 321.87px 130.43px;" id="elotgzj1y0qom" class="animable"></path><path d="M314.7,72.22a1.57,1.57,0,0,1,.34.09,2.3,2.3,0,0,1,.9.5,1.69,1.69,0,0,1,.41,1.93c-.06.17-.12.34-.19.5a3,3,0,0,1-1.91,1.88,3,3,0,0,1-1.76-.06.25.25,0,0,1-.12-.08.35.35,0,0,1,0-.32s.7-1.46,2-4.27l.06-.09A.27.27,0,0,1,314.7,72.22Zm1.13,2.38a1.64,1.64,0,0,0,.07-.89,1.19,1.19,0,0,0-.87-.85l-.3-.07L313,76.6l.11,0a2,2,0,0,0,1.2-.08A2.84,2.84,0,0,0,315.83,74.6Z" id="elu9iy3egrhkm" class="animable" style="transform-origin: 314.412px 74.7173px;"></path><path d="M316.15,77.14c0-.07.05-.15.08-.23a2.54,2.54,0,0,1,.67-.87,1,1,0,0,1,1-.26,1.28,1.28,0,0,1,.24.11.6.6,0,0,1,.23.75l0,.07a1.07,1.07,0,0,1-.62.61,1.3,1.3,0,0,1-.91,0l-.16-.07a.59.59,0,0,0,0,.13.58.58,0,0,0,0,.31c0,.1.13.19.31.27l.24.05a1.83,1.83,0,0,0,.56-.08.54.54,0,0,1,.29,0l.08,0a.21.21,0,0,1,.05.21.22.22,0,0,1-.05.08,1,1,0,0,1-.65.23,1.86,1.86,0,0,1-.77-.06.67.67,0,0,1-.21-.09C316.05,78.14,316,77.74,316.15,77.14Zm1.44-.91a1.45,1.45,0,0,0-.71.61.51.51,0,0,0,.15.07.72.72,0,0,0,.52,0,.61.61,0,0,0,.37-.37c.05-.16,0-.26-.08-.3A.53.53,0,0,0,317.59,76.23Z" id="elbs3eyajaxor" class="animable" style="transform-origin: 317.248px 77.1023px;"></path><path d="M318.52,77.86l.09-.23a2.48,2.48,0,0,1,.67-.88,1.06,1.06,0,0,1,1-.26.71.71,0,0,1,.33.22.22.22,0,0,1,.21,0l.09,0c.07.06.08.16,0,.31a2.9,2.9,0,0,1-.16.39c-.26.6-.42,1-.47,1.12a.77.77,0,0,0,0,.3.31.31,0,0,0,.18.27.29.29,0,0,0,.13,0c.34,0,.75-.39,1.23-1.14a.76.76,0,0,1-.21-.19.69.69,0,0,1-.11-.67.53.53,0,0,1,.16-.23.52.52,0,0,1,.55-.1.75.75,0,0,1,.28.18.46.46,0,0,1,.11.48,1.49,1.49,0,0,1-.1.26l.24-.06a.57.57,0,0,1,.3,0,.34.34,0,0,1,.17.11.16.16,0,0,1,.06.14.45.45,0,0,1,0,.09,3.37,3.37,0,0,0-.49.93,1.73,1.73,0,0,0-.1.54c0,.2.06.31.18.35a.86.86,0,0,0,.37,0,.65.65,0,0,1,.34,0,.18.18,0,0,1,.09.07.17.17,0,0,1,0,.17c0,.12-.17.21-.37.29a1.13,1.13,0,0,1-.68,0l-.08,0a.7.7,0,0,1-.4-.59,1.68,1.68,0,0,1,.11-.79c0-.07,0-.14.08-.22.09-.23.17-.39.22-.49a.63.63,0,0,1-.24,0l-.11.19c-.63,1-1.27,1.44-1.93,1.23a.67.67,0,0,1-.47-.61l-.13.07a1,1,0,0,1-.76.1.65.65,0,0,1-.33-.22A1.19,1.19,0,0,1,318.52,77.86Zm1.72-.51a2.94,2.94,0,0,0,.15-.31.55.55,0,0,0-.14-.09l-.13,0a1,1,0,0,0-.68.4,2.09,2.09,0,0,0-.46.78.3.3,0,0,0,0,.12c-.05.22,0,.34.09.38a.45.45,0,0,0,.25,0,1.61,1.61,0,0,0,.32-.14l.13-.18A6.28,6.28,0,0,0,320.24,77.35Zm1.64-.07a.3.3,0,0,0,.15.32,1.78,1.78,0,0,0,.11-.24s0,0,0,0a.12.12,0,0,0-.09-.12h0A.13.13,0,0,0,321.88,77.28Z" id="elx17ysyplif" class="animable" style="transform-origin: 321.042px 78.4141px;"></path><path d="M328.33,76.62a1.68,1.68,0,0,1,.33.09,2.55,2.55,0,0,1,.91.49,1.7,1.7,0,0,1,.4,1.94c-.05.17-.12.33-.18.49a3,3,0,0,1-1.91,1.89,3.12,3.12,0,0,1-1.76-.06.27.27,0,0,1-.12-.09.3.3,0,0,1,0-.31s.69-1.47,2-4.27a.26.26,0,0,1,.05-.09A.25.25,0,0,1,328.33,76.62ZM329.46,79a1.54,1.54,0,0,0,.06-.89,1.18,1.18,0,0,0-.87-.84,1.77,1.77,0,0,0-.29-.07L326.58,81l.1,0a2,2,0,0,0,1.2-.09A2.79,2.79,0,0,0,329.46,79Z" id="elbtjq0qr8ziv" class="animable" style="transform-origin: 328.037px 79.112px;"></path><path d="M330.82,80.2l-.17.39c-.26.6-.41,1-.46,1.12a.77.77,0,0,0,0,.3q0,.22.18.27h.07a.81.81,0,0,0,.33-.06.56.56,0,0,1,.32,0,.16.16,0,0,1,.08.06.21.21,0,0,1,0,.2.59.59,0,0,1-.37.27,1.2,1.2,0,0,1-.7,0,.66.66,0,0,1-.39-.34,1.38,1.38,0,0,1,0-1c.05-.14.17-.42.36-.82l.2-.41a.14.14,0,0,0,0-.06c.11-.21.23-.29.37-.24l.07,0Q330.9,79.94,330.82,80.2Zm-.09-1a.21.21,0,0,1,.06-.1.23.23,0,0,1,.25-.06.33.33,0,0,1,.1.06.24.24,0,0,1,.06.25.24.24,0,0,1-.06.11.24.24,0,0,1-.25.06.41.41,0,0,1-.11-.07A.21.21,0,0,1,330.73,79.23Z" id="eldl34vwo5wx" class="animable" style="transform-origin: 330.415px 80.9138px;"></path><path d="M331.28,82a1.36,1.36,0,0,1,.09-.23,2.42,2.42,0,0,1,.67-.87,1,1,0,0,1,1-.26.75.75,0,0,1,.34.22.21.21,0,0,1,.2,0,.19.19,0,0,1,.09,0c.08,0,.09.16,0,.31s-.07.19-.16.39c-.27.6-.42,1-.47,1.12a.7.7,0,0,0,0,.29q0,.23.18.27a.27.27,0,0,0,.13,0c.34,0,.75-.39,1.22-1.15a.86.86,0,0,1-.2-.18.7.7,0,0,1-.11-.67.54.54,0,0,1,.71-.33.61.61,0,0,1,.28.18.48.48,0,0,1,.11.48c0,.07-.06.16-.1.26l.24-.07a.7.7,0,0,1,.3,0,.42.42,0,0,1,.17.11c0,.06.07.11.06.14l-.06.09a3.64,3.64,0,0,0-.48.94,1.78,1.78,0,0,0-.11.54c0,.19.07.31.19.35a.93.93,0,0,0,.37,0,.77.77,0,0,1,.34,0,.18.18,0,0,1,.08.07.17.17,0,0,1,0,.17.55.55,0,0,1-.37.29,1.09,1.09,0,0,1-.69,0l-.08,0a.72.72,0,0,1-.4-.59A1.87,1.87,0,0,1,335,83a2,2,0,0,1,.08-.22,3.09,3.09,0,0,1,.22-.49.92.92,0,0,1-.24,0l-.11.18c-.63,1-1.28,1.45-1.93,1.24a.67.67,0,0,1-.47-.61l-.13.07a1,1,0,0,1-.77.1.68.68,0,0,1-.32-.22A1.14,1.14,0,0,1,331.28,82Zm1.72-.5a3.07,3.07,0,0,0,.14-.31.34.34,0,0,0-.13-.09l-.13,0a.94.94,0,0,0-.69.4,2.23,2.23,0,0,0-.46.78l0,.12c-.05.21,0,.34.1.38a.45.45,0,0,0,.25,0,1.12,1.12,0,0,0,.31-.15.91.91,0,0,0,.14-.18A7.27,7.27,0,0,0,333,81.47Zm1.64-.07c0,.11,0,.22.15.31a1.89,1.89,0,0,0,.11-.23v0q0-.09-.09-.12h0A.12.12,0,0,0,334.64,81.4Z" id="elh1q45s3cw1u" class="animable" style="transform-origin: 333.779px 82.5573px;"></path><path d="M337.28,82c.14.05.18.16.13.32a1.76,1.76,0,0,1-.09.21,8.07,8.07,0,0,0-.45,1c-.15.46-.11.74.12.82a.3.3,0,0,0,.16,0c.24-.07.52-.44.85-1.11a4.49,4.49,0,0,0,.28-.58.14.14,0,0,0,0-.07h0a.24.24,0,0,1,.31-.14l.07,0a.27.27,0,0,1,.06.33l0,.07s0,0,0,0l-1.1,2.28c.65-.22,1-.36,1.15-.41a.45.45,0,0,1,.28,0l.08,0a.2.2,0,0,1,0,.19.46.46,0,0,1-.28.24c-.27.12-.8.31-1.58.59l-.49,1a.85.85,0,0,1-.54.46.72.72,0,0,1-.46,0,.8.8,0,0,1-.52-1,.77.77,0,0,1,.3-.43,1.64,1.64,0,0,1,.38-.16l1-.34.25-.55a1,1,0,0,1-.45,0,1,1,0,0,1-.21-.1c-.34-.24-.39-.71-.16-1.43a5.34,5.34,0,0,1,.45-1C337,82.06,337.13,82,337.28,82Zm-.84,4.47.18-.38-.44.16a.54.54,0,0,0-.35.26.49.49,0,0,0,0,.12.2.2,0,0,0,.16.21.21.21,0,0,0,.11,0C336.21,86.84,336.32,86.71,336.44,86.46Z" id="elxelcusoatqn" class="animable" style="transform-origin: 337.189px 84.6189px;"></path><path d="M365.18,95.56s-.16,0-.46-.06a7.43,7.43,0,0,0-1.33.06,3.15,3.15,0,0,1-1,0,1.57,1.57,0,0,1-1-.66,1.46,1.46,0,0,1,0-1.42,4.3,4.3,0,0,1,.9-1.19l.17.38a24.48,24.48,0,0,0-5.92,1.16l-.67.22.36-.6.2-.32a22.72,22.72,0,0,1,4-4.89l.21.39c-2,.46-3.67.83-4.84,1.08a9.81,9.81,0,0,1-1.87.31,9.39,9.39,0,0,1,1.81-.58c1.15-.31,2.81-.75,4.79-1.25l.84-.21-.63.6a24.15,24.15,0,0,0-3.88,4.82l-.19.32-.31-.38a22.81,22.81,0,0,1,6.06-1.12l.62,0-.45.41c-.68.64-1.25,1.48-.88,2.1a1.91,1.91,0,0,0,1.71.64,5.46,5.46,0,0,1,1.36.06A.87.87,0,0,1,365.18,95.56Z" style="fill: rgb(38, 50, 56); transform-origin: 359.555px 91.79px;" id="elz4vh6s04g3h" class="animable"></path><path d="M350.53,184.9c-.77,1.94,1.85,3.86,3.84,3.22s3.14-2.69,3.85-4.65,1.21-4.11,2.65-5.62a8,8,0,0,1,6.45-2,28.36,28.36,0,0,1,6.72,1.82,96.54,96.54,0,0,0,18.88,4.53c4.63.63,9.78.78,13.48-2.08,2.64-2.05,4-5.28,5.3-8.37,4.49-11,8.73-22.22,10.26-34,.38-3,.56-6.14-.8-8.81-1.88-3.71-6.13-5.43-10-6.86l-38.81,9.85Z" style="fill: rgb(224, 224, 224); transform-origin: 386.313px 155.163px;" id="el80pf1mmtkia" class="animable"></path><g id="elur7bng4ox1"><rect x="362.71" y="120.28" width="65.49" height="52.36" style="fill: rgb(250, 250, 250); transform-origin: 395.455px 146.46px; transform: rotate(-75.45deg);" class="animable" id="elhm2nkz580t8"></rect></g><path d="M412.57,184.73s0-.11.07-.31.13-.5.22-.89c.2-.79.49-1.95.88-3.45.77-3,1.89-7.41,3.32-13l11.8-45.79.12.2L378.3,108.37h0l.23-.14c-6.1,23.47-11.78,45.27-16.49,63.39l-.11-.2L398.66,181l10.27,2.71,2.7.72.94.26-.91-.22-2.69-.68-10.25-2.61-36.87-9.49-.15,0,0-.15,16.42-63.41,0-.18.18,0h0l50.67,13.17.16,0,0,.16c-4.93,18.85-9.07,34.71-12,45.86-1.46,5.55-2.61,9.93-3.41,12.93-.39,1.48-.69,2.63-.9,3.41l-.24.87C412.6,184.64,412.57,184.73,412.57,184.73Z" style="fill: rgb(38, 50, 56); transform-origin: 395.415px 146.34px;" id="elkof3mkrjan" class="animable"></path><g id="elxsim5v2mq7k"><rect x="365.02" y="123.53" width="60.89" height="45.77" style="fill: rgb(69, 90, 100); transform-origin: 395.465px 146.415px; transform: rotate(-75.5476deg);" class="animable" id="el3u87nkdub5h"></rect></g><polygon points="380.97 111.2 403.16 138.93 382.62 147.21 389.59 158.25 365.67 170.14 380.97 111.2" style="fill: rgb(69, 90, 100); transform-origin: 384.415px 140.67px;" id="elom346dz8nh" class="animable"></polygon><path d="M401.82,158a4.79,4.79,0,1,1,5.84-3.43A4.8,4.8,0,0,1,401.82,158Z" style="fill: rgb(69, 90, 100); transform-origin: 403.024px 153.363px;" id="elpl2oy069sf9" class="animable"></path><g id="elhk3m1ebzph4"><g style="opacity: 0.3; transform-origin: 384.415px 140.67px;" class="animable" id="elqq1n0nuq1xg"><polygon points="380.97 111.2 403.16 138.93 382.62 147.21 389.59 158.25 365.67 170.14 380.97 111.2" id="el15p8i8aoo0x" class="animable" style="transform-origin: 384.415px 140.67px;"></polygon></g></g><g id="ela8251sws2pg"><g style="opacity: 0.3; transform-origin: 403.024px 153.363px;" class="animable" id="elgvtu1x9xos"><path d="M401.82,158a4.79,4.79,0,1,1,5.84-3.43A4.8,4.8,0,0,1,401.82,158Z" id="el807m6inuk7j" class="animable" style="transform-origin: 403.024px 153.363px;"></path></g></g><path d="M384.25,87.28s1.16.26.2,3.4-36,96-36,96l2.4-1.94,2,4.06s30.44-80.36,36.31-98a4.13,4.13,0,0,0-5.51-5.12,12.2,12.2,0,0,0-2.54,1.53Z" style="fill: #151515; transform-origin: 368.912px 137.08px;" id="el7hbkbu24nws" class="animable"></path><path d="M438.87,122a3.37,3.37,0,0,1-.51-.2l-1.42-.67c-1.23-.57-3-1.4-5.26-2.35-4.47-1.91-10.77-4.29-17.67-7-3.46-1.37-6.74-2.7-9.77-3.78-1.51-.54-2.91-1.14-4.29-1.54a15,15,0,0,1-3.7-1.57,8.68,8.68,0,0,0-2.93-1.31,5.89,5.89,0,0,0-2.41.09,8.61,8.61,0,0,0-1.91.83,1.63,1.63,0,0,1,.43-.35,5.34,5.34,0,0,1,1.43-.67,5.69,5.69,0,0,1,2.51-.18,8.47,8.47,0,0,1,3.07,1.27,15.12,15.12,0,0,0,3.64,1.48c1.38.38,2.8,1,4.32,1.5,3.06,1.06,6.34,2.38,9.8,3.74,6.9,2.74,13.18,5.18,17.63,7.19,2.22,1,4,1.87,5.2,2.5q.92.48,1.38.75A1.9,1.9,0,0,1,438.87,122Z" style="fill: rgb(38, 50, 56); transform-origin: 413.935px 112.617px;" id="elwu09r3d614" class="animable"></path><path d="M444.63,119.19a14.65,14.65,0,0,1-2.27-1.09c-1.38-.71-3.3-1.67-5.46-2.64s-4.15-1.76-5.6-2.32a14.91,14.91,0,0,1-2.33-1,10.85,10.85,0,0,1,2.45.62,56.23,56.23,0,0,1,11.12,5A10.29,10.29,0,0,1,444.63,119.19Z" style="fill: rgb(38, 50, 56); transform-origin: 436.8px 115.665px;" id="el9bf67v8g8eb" class="animable"></path><path d="M404.29,199.4a2.71,2.71,0,0,1-.6,0,11.35,11.35,0,0,1-1.71-.26,14.21,14.21,0,0,1-5.69-2.76,14.69,14.69,0,0,1-3-3.25c-.44-.68-.8-1.41-1.28-2.05a2.07,2.07,0,0,0-1.92-1.08c-.77.12-1.38.84-2.15,1.4a2.51,2.51,0,0,1-1.41.57,1.92,1.92,0,0,1-1.46-.63,12.24,12.24,0,0,1-1.43-2.62,2.5,2.5,0,0,0-2-1.65c-2.06,0-3.67,2.35-6.09,2a4.63,4.63,0,0,1-2.65-1.75,15.16,15.16,0,0,0-2-2.07,5.36,5.36,0,0,0-4.85-.7,5.23,5.23,0,0,0-3.2,2.69l-.13.27-.16-.23a9.61,9.61,0,0,1-1.75-5,9.8,9.8,0,0,1,0-1.43,1.71,1.71,0,0,1,.1-.48s-.07.67,0,1.89a9.79,9.79,0,0,0,1.84,4.83l-.29,0a5.54,5.54,0,0,1,3.38-2.95,5.77,5.77,0,0,1,5.27.71,14.75,14.75,0,0,1,2.06,2.12,4.29,4.29,0,0,0,2.37,1.58,4.53,4.53,0,0,0,2.85-.84,6.62,6.62,0,0,1,3.18-1.21,2.46,2.46,0,0,1,1.53.64,4.5,4.5,0,0,1,.92,1.29,12.09,12.09,0,0,0,1.34,2.51,1.38,1.38,0,0,0,1.07.47,2,2,0,0,0,1.14-.46c.71-.49,1.34-1.3,2.37-1.47a2,2,0,0,1,1.41.32,3.89,3.89,0,0,1,.95.95c.51.71.86,1.45,1.27,2.09a14.2,14.2,0,0,0,2.85,3.2,14.63,14.63,0,0,0,5.51,2.85C403.47,199.31,404.3,199.34,404.29,199.4Z" style="fill: rgb(38, 50, 56); transform-origin: 382.537px 189.893px;" id="eldueiac1l9p" class="animable"></path><path d="M404.7,205.62c-.06.13-8.27-3.15-18.34-7.32s-18.2-7.68-18.14-7.81,8.26,3.15,18.34,7.32S404.75,205.49,404.7,205.62Z" style="fill: rgb(38, 50, 56); transform-origin: 386.46px 198.055px;" id="elrastrimbi17" class="animable"></path><path d="M315.34,139.43c0,.06-1.26-.76-3.3-2a28.31,28.31,0,0,0-8.43-3.47c-1.76-.37-3.46-.55-5-.77a36.74,36.74,0,0,1-4.11-.74,18.42,18.42,0,0,1-2.68-.89,3.54,3.54,0,0,1-.91-.48c0-.09,1.37.53,3.67,1,1.15.25,2.54.44,4.09.62s3.28.36,5.06.74a25.59,25.59,0,0,1,8.52,3.67c1,.63,1.79,1.19,2.33,1.59A3.51,3.51,0,0,1,315.34,139.43Z" style="fill: rgb(38, 50, 56); transform-origin: 303.125px 135.252px;" id="el5n4am0t4tw" class="animable"></path><path d="M328.76,158.85a2.49,2.49,0,0,1,.54-.15l1.57-.38a57.31,57.31,0,0,0,5.69-1.72c1.18-.43,2.46-.94,3.8-1.54a14.17,14.17,0,0,0,2-1.05,4.6,4.6,0,0,0,1.6-1.62,2.17,2.17,0,0,0-.06-2.19,3.28,3.28,0,0,0-2-1.32c-1.71-.51-3.47.3-5.26,1a11.35,11.35,0,0,1-2.42.67l-.23,0-.06-.21c-.52-1.84,0-3.62-.42-5.14a3,3,0,0,0-1.24-1.83,2,2,0,0,0-2,0c-1.29.69-1.7,2.19-1.9,3.47a24.72,24.72,0,0,0-.3,3.69,26.22,26.22,0,0,0,.5,5.31c.24,1.24.43,1.91.4,1.92a2,2,0,0,1-.19-.47c-.11-.32-.25-.79-.4-1.41a23.76,23.76,0,0,1-.67-5.35,25.4,25.4,0,0,1,.25-3.76,7.76,7.76,0,0,1,.55-2.07A3.67,3.67,0,0,1,330,143a2.47,2.47,0,0,1,2.47,0,3.49,3.49,0,0,1,1.47,2.11c.49,1.72-.05,3.5.44,5.13l-.28-.18a11.18,11.18,0,0,0,2.31-.65,25.46,25.46,0,0,1,2.71-.93,5.34,5.34,0,0,1,2.86,0,3.79,3.79,0,0,1,2.31,1.55,2.68,2.68,0,0,1,.07,2.68,5.09,5.09,0,0,1-1.78,1.79,13.53,13.53,0,0,1-2.08,1c-1.36.6-2.65,1.09-3.85,1.49a45.66,45.66,0,0,1-5.76,1.57c-.69.15-1.23.24-1.6.29A2.16,2.16,0,0,1,328.76,158.85Z" style="fill: rgb(38, 50, 56); transform-origin: 336.197px 150.768px;" id="el0vmdt1mmrb7l" class="animable"></path><path d="M320.88,150.77a10.55,10.55,0,0,0-3.6-3.21,22.75,22.75,0,0,0-4.95-1.86c-1.93-.52-4.09-1-6.33-1.69-4.48-1.27-8.46-2.66-11.31-3.75-1.42-.54-2.56-1-3.35-1.35a6.69,6.69,0,0,1-1.19-.58,6.36,6.36,0,0,1,1.27.39l3.4,1.19c2.87,1,6.86,2.33,11.33,3.6,2.23.65,4.37,1.18,6.31,1.73a21,21,0,0,1,5,2,9,9,0,0,1,2.75,2.38,4.89,4.89,0,0,1,.53.84C320.85,150.66,320.9,150.77,320.88,150.77Z" style="fill: rgb(38, 50, 56); transform-origin: 305.517px 144.55px;" id="elz5rhyvgy42s" class="animable"></path><path d="M325,160.61a2.09,2.09,0,0,1-.48-.17l-1.31-.55-4.8-2.14c-2-.9-4.42-2-7.12-3.14a49.2,49.2,0,0,0-9-2.87,33.13,33.13,0,0,0-4.87-.58,7.34,7.34,0,0,1-4.47-1.32,4,4,0,0,1-1.26-1.87,2.38,2.38,0,0,1,.33-2.12,2.49,2.49,0,0,1,1.79-.89,1.63,1.63,0,0,1,1.62,2.49,2.55,2.55,0,0,1-1.06,1,3.34,3.34,0,0,1-2.29.18,7.72,7.72,0,0,1-1.36-.48c-.3-.14-.45-.22-.44-.24s.64.26,1.84.52a3.2,3.2,0,0,0,2.11-.23,2.4,2.4,0,0,0,.91-.93,1.41,1.41,0,0,0,0-1.35c-.48-.88-2.1-.74-2.8.16a2,2,0,0,0-.23,1.73,3.41,3.41,0,0,0,1.12,1.63,7.12,7.12,0,0,0,4.2,1.19,30.56,30.56,0,0,1,4.94.57,47.5,47.5,0,0,1,9.11,2.94c2.7,1.15,5.08,2.3,7.08,3.25l4.73,2.28,1.28.65A1.7,1.7,0,0,1,325,160.61Z" style="fill: rgb(38, 50, 56); transform-origin: 307.64px 152.776px;" id="elw7h59brnro" class="animable"></path><path d="M330.86,171.87c-.05.06-1.13-.88-3-2.26A55.33,55.33,0,0,0,312,161.26c-2.19-.74-3.57-1.1-3.55-1.18a3.53,3.53,0,0,1,1,.15c.63.12,1.55.35,2.66.68a45.88,45.88,0,0,1,8.39,3.42,46.55,46.55,0,0,1,7.57,5c.9.74,1.6,1.36,2.07,1.82S330.89,171.84,330.86,171.87Z" style="fill: rgb(38, 50, 56); transform-origin: 319.656px 165.976px;" id="el4d1zddyvahq" class="animable"></path></g><g id="freepik--Character--inject-12" class="animable" style="transform-origin: 245.004px 293.448px;"><path d="M309.45,199.34c-1.22-3.39-3-6.75-2.87-10.36.14-4.51,3.2-8.42,4.07-12.85,1-4.95-.86-10-1.86-14.91-1.46-7.18-1.17-14.57-1.32-21.9s-.79-14.83-3.92-21.45-9.22-12.25-16.5-13L231.12,142.4c-1.17,13.61-9.74,26.72-6.69,40,.61,2.67,1.68,5.22,2.15,7.92a36.64,36.64,0,0,1,.13,8.57q-.39,6.1-.79,12.21c-.11,1.84-.2,3.83.79,5.39,1.11,1.75,3.26,2.49,5.26,3.06A194.57,194.57,0,0,0,298,227c3.41-.21,7.07-.62,9.59-2.92,2.13-1.95,3-4.92,3.45-7.78A35,35,0,0,0,309.45,199.34Z" style="fill: rgb(38, 50, 56); transform-origin: 267.611px 166.106px;" id="eltpfqnutukhb" class="animable"></path><path d="M230.72,136.19c2.73-11.6,5.53-23.67,15.13-30.71,8.57-6.28,18.14-7.79,28.72-7,5.22.38,11,3,15.5,5.71,6.11,3.73,8.52,11,11.32,17.57,5.6,13.22,4.26,30.83,0,35.6l-55.36,27c-9.47-5.33-15.84-7.88-18-18.52C226.51,158.57,229,143.39,230.72,136.19Z" style="fill: rgb(38, 50, 56); transform-origin: 266.331px 141.324px;" id="el1ty7fms10qh" class="animable"></path><path d="M246.68,116.27l34.58-9c11.09-1.25,18.56,12.36,19.33,23.49.87,12.36,1.44,27.49,0,36.73-2.82,18.58-17,21-17,21s0,.28-.11,5.8l.1,12.41C279,221.8,263.76,220,244.7,212.16l-3.81-89.23A6.52,6.52,0,0,1,246.68,116.27Z" style="fill: rgb(255, 190, 157); transform-origin: 271.178px 162.639px;" id="eloecnlnxsahm" class="animable"></path><path d="M293.52,146.83a2.37,2.37,0,0,1-2.28,2.42,2.28,2.28,0,0,1-2.46-2.13,2.37,2.37,0,0,1,2.27-2.42A2.27,2.27,0,0,1,293.52,146.83Z" style="fill: rgb(38, 50, 56); transform-origin: 291.15px 146.974px;" id="elaqjz81j9x8" class="animable"></path><path d="M297.37,140.89c-.3.31-2.11-1-4.67-1s-4.43,1.31-4.71,1c-.14-.14.16-.7,1-1.3a6.61,6.61,0,0,1,3.77-1.19,6.34,6.34,0,0,1,3.72,1.17C297.24,140.19,297.51,140.75,297.37,140.89Z" style="fill: rgb(38, 50, 56); transform-origin: 292.681px 139.669px;" id="el5nyop2xxpbh" class="animable"></path><path d="M270.94,146.83a2.39,2.39,0,0,1-2.28,2.42,2.29,2.29,0,0,1-2.47-2.13,2.39,2.39,0,0,1,2.28-2.42A2.27,2.27,0,0,1,270.94,146.83Z" style="fill: rgb(38, 50, 56); transform-origin: 268.565px 146.974px;" id="elyuiwhnm4p4r" class="animable"></path><path d="M272.19,140.58c-.29.31-2.1-1-4.66-1s-4.43,1.32-4.71,1c-.14-.14.16-.7,1-1.3a6.49,6.49,0,0,1,3.77-1.19,6.29,6.29,0,0,1,3.72,1.17C272.07,139.88,272.34,140.44,272.19,140.58Z" style="fill: rgb(38, 50, 56); transform-origin: 267.508px 139.36px;" id="elpltjxmvgytb" class="animable"></path><path d="M281.62,158.24c0-.15,1.58-.43,4.15-.78.66-.07,1.27-.21,1.38-.65a3.36,3.36,0,0,0-.45-1.94q-.93-2.37-2-5c-2.73-7.08-4.71-12.89-4.43-13s2.74,5.54,5.47,12.61c.66,1.74,1.29,3.4,1.89,5a3.77,3.77,0,0,1,.35,2.56,1.61,1.61,0,0,1-1.07,1,4.85,4.85,0,0,1-1.1.17C283.24,158.36,281.63,158.39,281.62,158.24Z" style="fill: rgb(38, 50, 56); transform-origin: 284.155px 147.604px;" id="elt6w2feqo7kn" class="animable"></path><path d="M283.59,188.53a47.19,47.19,0,0,1-24.89-6.46s6.23,13,24.79,11.09Z" style="fill: rgb(235, 153, 110); transform-origin: 271.145px 187.711px;" id="elzceelsxh8e" class="animable"></path><path d="M273.19,163.08a4.11,4.11,0,0,1,3.41-1.89,5.33,5.33,0,0,1,4.89,2.38,3.3,3.3,0,0,1,.23,2.4c-.17.41,0,.21-.35.49a9.34,9.34,0,0,1-3.81,2.4,4,4,0,0,1-4.25-1.53A4.07,4.07,0,0,1,273.19,163.08Z" style="fill: rgb(235, 153, 110); transform-origin: 277.248px 165.08px;" id="elfjjvl0l3c7i" class="animable"></path><path d="M273.63,160.16c.42,0,.46,2.75,2.86,4.69s5.36,1.6,5.39,2c0,.17-.66.55-1.91.6a7,7,0,0,1-4.49-1.5,6,6,0,0,1-2.22-3.94C273.14,160.84,273.44,160.14,273.63,160.16Z" style="fill: rgb(38, 50, 56); transform-origin: 277.556px 163.806px;" id="el2hg08wga7ja" class="animable"></path><path d="M273.47,132c-.21.71-2.78.55-5.76,1.1s-5.35,1.53-5.78.93c-.2-.28.18-1,1.11-1.7a9.73,9.73,0,0,1,4.22-1.79,9.86,9.86,0,0,1,4.58.24C273,131.15,273.55,131.66,273.47,132Z" style="fill: rgb(38, 50, 56); transform-origin: 267.678px 132.297px;" id="elijy3ye5sncb" class="animable"></path><path d="M297.38,135c-.6.48-2.43-.46-4.76-.9s-4.38-.38-4.73-1.06c-.15-.33.27-.85,1.23-1.24a7.69,7.69,0,0,1,7.64,1.58C297.48,134.08,297.65,134.72,297.38,135Z" style="fill: rgb(38, 50, 56); transform-origin: 292.681px 133.261px;" id="el2wyv52gtodz" class="animable"></path><path d="M280.85,105.26c0,.14,0,.27.07.41l-.06,0C280.85,105.55,280.85,105.41,280.85,105.26Z" style="fill: rgb(38, 50, 56); transform-origin: 280.885px 105.465px;" id="elutpecis6am" class="animable"></path><path d="M242.07,192.33c4.17-1.14,7-5.17,8.06-9.36s.63-8.58.35-12.89-.4-8.78,1.18-12.79c1.07-2.72,2.89-5.14,3.54-8,1.12-4.9-1.41-10.17.08-15,1-3.35,3.84-5.79,6.1-8.48a31,31,0,0,0,7.19-19.64,40.36,40.36,0,0,0-16.93,4.29,26.62,26.62,0,0,0-12,12.42c-2.44,5.55-2.54,11.8-2.61,17.86q-.27,25.38-.53,50.75" style="fill: rgb(38, 50, 56); transform-origin: 252.535px 149.25px;" id="el9tjohwia2u5" class="animable"></path><path d="M267.49,109.87c1.66,2.95,4.85,4.73,8.07,5.77s6.61,1.5,9.82,2.6a26.18,26.18,0,0,1,17.17,22.36,25.35,25.35,0,0,0-32.43-34.7" style="fill: rgb(38, 50, 56); transform-origin: 286.347px 122.278px;" id="elkl92x3dqoi" class="animable"></path><path d="M235.34,127.94c1.15-7.7,2.5-8.36.41-12.86s-9.75-8.82-14.7-8.43-9.41,4.73-9.48,9.69c-.07,5.37,4.49,9.75,9.38,12a11.52,11.52,0,0,0-3.41,2.08,3.87,3.87,0,0,0-1.2,3.64c.53,1.91,3,2.73,4.9,2.19s3.39-2,4.78-3.46c-.42,1.86,1.43,3.68,3.33,3.69a5.45,5.45,0,0,0,4.51-3,15.81,15.81,0,0,0,1.48-5.48" style="fill: rgb(38, 50, 56); transform-origin: 224.206px 121.553px;" id="elplkornl7cjd" class="animable"></path><path d="M229.87,138a3.93,3.93,0,0,1,0-.94,24.52,24.52,0,0,1,.18-2.54,39.31,39.31,0,0,1,5.38-15.82c.56-.91,1-1.64,1.41-2.12a3.42,3.42,0,0,1,.6-.72c.07,0-.66,1.16-1.69,3a48,48,0,0,0-3.36,7.6,48.84,48.84,0,0,0-2,8.08C230.06,136.63,230,138,229.87,138Z" style="fill: #151515; transform-origin: 233.643px 126.93px;" id="elav8zkzgroo4" class="animable"></path><path d="M233.44,124.94a13.16,13.16,0,0,1,1.65.12,30.51,30.51,0,0,0,4.48,0,28,28,0,0,0,23.49-15.59,30,30,0,0,0,1.72-4.14,13,13,0,0,1,.53-1.56s0,.15-.06.42-.13.69-.28,1.2a24.79,24.79,0,0,1-1.58,4.25,27.54,27.54,0,0,1-23.79,15.79,26.12,26.12,0,0,1-4.53-.2c-.53-.06-.94-.16-1.21-.21A1.5,1.5,0,0,1,233.44,124.94Z" style="fill: rgb(69, 90, 100); transform-origin: 249.375px 114.612px;" id="ell5ik0i7bic" class="animable"></path><path d="M262.22,125.76a6.29,6.29,0,0,1-1,.8,13,13,0,0,1-1.26.84c-.51.31-1.07.68-1.74,1a32.1,32.1,0,0,1-4.8,2.09,37.21,37.21,0,0,1-6.25,1.48,36.37,36.37,0,0,1-6.41.27,31.85,31.85,0,0,1-5.19-.7c-.73-.13-1.38-.34-1.95-.49a13.61,13.61,0,0,1-1.44-.47,5.68,5.68,0,0,1-1.19-.5c0-.1,1.76.55,4.66,1.1a34.74,34.74,0,0,0,5.13.58A35.67,35.67,0,0,0,253.25,130a35.48,35.48,0,0,0,4.79-2C260.68,126.77,262.16,125.67,262.22,125.76Z" style="fill: rgb(69, 90, 100); transform-origin: 246.605px 129.017px;" id="eliasrgdak7gq" class="animable"></path><path d="M305.26,138.11c-.05,0-.05-.74-.17-2.07a27.26,27.26,0,0,0-1-5.53,22.12,22.12,0,0,0-3.78-7.35,24.71,24.71,0,0,0-8-6.23c-3.23-1.66-6.5-2.88-9.43-4.08a56.11,56.11,0,0,1-7.6-3.63,26.56,26.56,0,0,1-2.69-1.82c-.74-.6-1.36-1.15-1.85-1.61l-1-1.15c-.23-.27-.35-.42-.33-.43a2.47,2.47,0,0,1,.41.36l1.09,1.07c.51.43,1.14,1,1.88,1.53s1.65,1.16,2.7,1.73a60.78,60.78,0,0,0,7.6,3.51c2.93,1.17,6.21,2.38,9.49,4a25.17,25.17,0,0,1,8.1,6.4,22,22,0,0,1,3.76,7.55,25.51,25.51,0,0,1,.9,5.62c0,.67,0,1.19,0,1.54A2.24,2.24,0,0,1,305.26,138.11Z" style="fill: rgb(69, 90, 100); transform-origin: 287.374px 121.16px;" id="elo66zxr50b4l" class="animable"></path><polygon points="312.93 335.83 320.48 348.59 260.25 381.86 262.4 335.83 274.03 325.62 312.93 335.83" style="fill: rgb(38, 50, 56); transform-origin: 290.365px 353.74px;" id="el7y4aubtpjbj" class="animable"></polygon><path d="M184,270.17s9.24-53.12,11.19-55.86,9.76-8.2,9.76-8.2l19.53,47.21-2.72,18.06Z" style="fill: rgb(69, 90, 100); transform-origin: 204.24px 238.745px;" id="ellfay1nd6o2" class="animable"></path><path d="M239.88,193.34c-1.56.19-27.21,7-34.91,12.77L221,271.16l5.07,59L280.2,334l35.7,6.82-3.1-6.76s1.38,2.47.59-2.6-12.69-19.92-12.1-23.63,5.07-9.77,6.44-17.19a180.57,180.57,0,0,0,1.39-22.57c.25-25.13-.74-61.69-.74-61.69l-24.1-9c-8.13,10.24-29.86,8.11-40.45-5.73Z" style="fill: rgb(69, 90, 100); transform-origin: 260.435px 266.235px;" id="elhdns47u68u" class="animable"></path><path d="M308,206.3s13.82,6.65,16.51,16.63,11.9,47.4,11.9,47.4-21.11,1.32-27.26-2.22S308,206.3,308,206.3Z" style="fill: rgb(69, 90, 100); transform-origin: 321.246px 238.435px;" id="el86py670bl1k" class="animable"></path><path d="M222.16,272.77a2.54,2.54,0,0,1-.07-.67c0-.49-.06-1.12-.1-1.9-.12-1.65-.35-4-.77-7a205.11,205.11,0,0,0-4.81-22.61,148.44,148.44,0,0,0-7.55-21.82c-.67-1.31-1.2-2.55-1.79-3.56s-1.06-1.91-1.52-2.59l-1.1-1.55a3.53,3.53,0,0,1-.36-.57,3.91,3.91,0,0,1,.44.5c.3.39.7.88,1.19,1.5s1,1.57,1.61,2.57,1.17,2.23,1.86,3.55a135.75,135.75,0,0,1,7.73,21.84,180.08,180.08,0,0,1,4.66,22.69c.38,2.94.55,5.34.61,7v1.91A3.84,3.84,0,0,1,222.16,272.77Z" style="fill: rgb(38, 50, 56); transform-origin: 213.142px 241.635px;" id="elsohwqlolcco" class="animable"></path><path d="M220,264.29a6.69,6.69,0,0,1-1.35.19c-.87.08-2.13.16-3.7.21a83,83,0,0,1-12.21-.56,83.9,83.9,0,0,1-12-2.36c-1.5-.42-2.71-.8-3.54-1.09a6.43,6.43,0,0,1-1.26-.5,7.47,7.47,0,0,1,1.32.31c.84.23,2.06.55,3.58.92A98.54,98.54,0,0,0,215,264.32c1.56,0,2.82,0,3.69-.05A7.58,7.58,0,0,1,220,264.29Z" style="fill: rgb(38, 50, 56); transform-origin: 202.97px 262.451px;" id="elm8jpgxjts4n" class="animable"></path><path d="M315.13,243.67c-.8-4.91-3.35-9.44-3.82-14.4-.36-3.84.56-7.68,1-11.52A44.57,44.57,0,0,0,304.76,188l-20.27,5.21c-2.61,4-1.2,9.45,1,13.74s5.18,8.4,5.58,13.2c.43,5.1-2.15,10.08-1.88,15.19.29,5.64,3.93,10.45,6.26,15.59s3,12.14-1.49,15.59a9.83,9.83,0,0,0,8.83-5.67c.06,1.71.11,3.42.16,5.13A21.32,21.32,0,0,0,315.13,243.67Z" style="fill: rgb(38, 50, 56); transform-origin: 299.207px 227.26px;" id="elw624pfelv3l" class="animable"></path><path d="M212.36,230.45a106.58,106.58,0,0,1-10.6,1.15,105.45,105.45,0,0,1-10.65.62c0-.14,4.74-.65,10.6-1.14S212.35,230.31,212.36,230.45Z" style="fill: rgb(255, 255, 255); transform-origin: 201.735px 231.317px;" id="el4mbb6cxhn8x" class="animable"></path><path d="M289.59,231.56c0,.14-16.5.95-36.86,1.8s-36.89,1.43-36.89,1.29,16.49-1,36.86-1.81S289.58,231.42,289.59,231.56Z" style="fill: rgb(255, 255, 255); transform-origin: 252.715px 233.105px;" id="eltxbdygaq6lk" class="animable"></path><path d="M325.1,228.24c0,.16-2.84-.5-6.35-.81s-6.38-.18-6.39-.34a20.57,20.57,0,0,1,6.44-.18A21,21,0,0,1,325.1,228.24Z" style="fill: rgb(255, 255, 255); transform-origin: 318.73px 227.501px;" id="el3gcqyfyfoxk" class="animable"></path><path d="M233.42,427c-2,.35-58,12.36-58,12.36l-7.7-25,54.89-21.72Z" style="fill: rgb(255, 190, 157); transform-origin: 200.57px 416px;" id="elbauk82ze1hv" class="animable"></path><path d="M179.79,409.56s-9,21.88,6.24,27.74l-4.7,6.23-38.71,24.33a5.9,5.9,0,0,1-7.75-1.09,5.7,5.7,0,0,1-.68-6.13c5.26-10.59,24.8-49.43,28.79-50.34l10.4-3.08c2.16-.64,5,.58,6.41,2.34Z" style="fill: #151515; transform-origin: 159.812px 437.945px;" id="elap9cqyq69ej" class="animable"></path><g id="el8es20flitpb"><g style="opacity: 0.6; transform-origin: 150.059px 437.525px;" class="animable" id="el1ipdiupxwvr"><path d="M134.28,465.88l32.31-56.71-2.27.71c-2.51.54-3.15,1.91-4.37,3.56-3.59,4.89-11.06,17.66-25.82,47a5.74,5.74,0,0,0,.15,5.4Z" style="fill: rgb(255, 255, 255); transform-origin: 150.059px 437.525px;" id="elkb21dxuxqdr" class="animable"></path></g></g><g id="elwhpyh2rb2oc"><g style="opacity: 0.6; transform-origin: 172.177px 412.375px;" class="animable" id="elybblesahl8c"><path d="M175.26,413.34a3.47,3.47,0,0,1-4,2.26,3.33,3.33,0,0,1-2.27-4c.47-1.63,2.7-3,4.28-2.37s2.76,2.93,1.91,4.41" style="fill: rgb(255, 255, 255); transform-origin: 172.177px 412.375px;" id="elc050aokz49e" class="animable"></path></g></g><path d="M153.77,446.39c-.05.35,3.12.68,5.62,3.38s2.74,5.81,3.09,5.78c.15,0,.35-.8.14-2.11a9.15,9.15,0,0,0-6.74-7.08C154.59,446.08,153.77,446.25,153.77,446.39Z" style="fill: rgb(38, 50, 56); transform-origin: 158.24px 450.88px;" id="elpoc34qhgbe" class="animable"></path><path d="M147.82,452.43c-.15.32,2.12,1.49,3.77,4s1.94,5,2.3,5,.65-2.86-1.28-5.69S147.87,452.11,147.82,452.43Z" style="fill: rgb(38, 50, 56); transform-origin: 150.983px 456.897px;" id="eljmbpqjo45sd" class="animable"></path><path d="M160.72,436.45c-.18.33,3.32,2.11,6.24,5.79s4,7.44,4.32,7.34-.19-4.2-3.37-8.1S160.78,436.15,160.72,436.45Z" style="fill: rgb(38, 50, 56); transform-origin: 166.038px 442.997px;" id="ele9ra8rp4uzw" class="animable"></path><path d="M173.27,431.54c-.28.25,1.88,2.81,3.22,6.6s1.37,7.12,1.73,7.13.91-3.49-.58-7.55S173.46,431.3,173.27,431.54Z" style="fill: rgb(38, 50, 56); transform-origin: 175.935px 438.397px;" id="elw752ygsql7" class="animable"></path><path d="M177.28,440.29a4.8,4.8,0,0,0,1.9-.92,14.57,14.57,0,0,0,4.12-4.06,6.48,6.48,0,0,0,1.45-3.92,2.29,2.29,0,0,0-1.66-2.06,3.75,3.75,0,0,0-2.64.39,8.1,8.1,0,0,0-3.33,9.77,9.38,9.38,0,0,0,8.64,5.87,3.24,3.24,0,0,0,2.47-1.12,2.24,2.24,0,0,0,0-2.65,8.06,8.06,0,0,0-3.41-2.37,16.31,16.31,0,0,0-5.62-1.35,5.07,5.07,0,0,0-2.11.14c0,.24,3.09,0,7.37,2a7.42,7.42,0,0,1,2.92,2.14,1.2,1.2,0,0,1,0,1.44,2.26,2.26,0,0,1-1.67.65,8.38,8.38,0,0,1-7.43-5.19,7,7,0,0,1,2.7-8.33,2.81,2.81,0,0,1,1.84-.35,1.24,1.24,0,0,1,.93,1.12,5.83,5.83,0,0,1-1.17,3.34C180,438.83,177.11,440.1,177.28,440.29Z" style="fill: rgb(38, 50, 56); transform-origin: 182.629px 437.301px;" id="elbg9adenufqs" class="animable"></path><path d="M194.16,270.57a290.38,290.38,0,0,0,2.3,32.44c2.11,14.54,5.13,22.79,8.51,26.82s7,3.26,7,3.26l33.78-51.82L235,275.71l-13.43,14.58.17-18.91Z" style="fill: rgb(255, 190, 157); transform-origin: 219.955px 301.859px;" id="ellyhmba97e8" class="animable"></path><path d="M265.62,382.26c-.27,2-5.3,59.09-5.3,59.09H234.19L229.6,382.5Z" style="fill: rgb(255, 190, 157); transform-origin: 247.61px 411.805px;" id="el9mxdmcrnscw" class="animable"></path><path d="M232.55,428.73s20.83,14.78,30.9,2l2.64,6.2,11.84,44.16a5.93,5.93,0,0,1-3.33,7.09,5.73,5.73,0,0,1-6.06-1.16c-8.57-8.15-39.92-38.27-39.62-42.36l.13-10.84a5.51,5.51,0,0,1,3.5-5.08Z" style="fill: #151515; transform-origin: 253.541px 458.659px;" id="elz3v01pl7ofk" class="animable"></path><g id="elu4cg3p0b9hb"><g style="opacity: 0.6; transform-origin: 251.231px 464.744px;" class="animable" id="el6qcsznp1tw9"><path d="M273.58,488.47l-44.67-47.59v2.37c-.22,2.57.9,3.58,2.12,5.23,3.61,4.87,13.61,15.77,37.33,38.53a5.71,5.71,0,0,0,5.21,1.46Z" style="fill: rgb(255, 255, 255); transform-origin: 251.231px 464.744px;" id="eljgbp7pxjl3l" class="animable"></path></g></g><g id="elr4jf5ofu73"><g style="opacity: 0.6; transform-origin: 233.674px 436.56px;" class="animable" id="el6j9ocvfex1e"><path d="M235.45,433.83a3.46,3.46,0,0,1,1,4.52,3.33,3.33,0,0,1-4.47,1c-1.43-.93-2.06-3.46-1-4.79s3.61-1.77,4.76-.52" style="fill: rgb(255, 255, 255); transform-origin: 233.674px 436.56px;" id="el1ryk5acn6dx" class="animable"></path></g></g><path d="M260.7,464.1c.32.15,1.56-2.78,4.88-4.37s6.36-.91,6.43-1.26c.05-.14-.66-.57-2-.75a9.16,9.16,0,0,0-8.75,4.35C260.64,463.22,260.56,464.05,260.7,464.1Z" style="fill: rgb(38, 50, 56); transform-origin: 266.327px 460.889px;" id="el0qnwqdoo8sug" class="animable"></path><path d="M264.71,471.56c.27.25,2.06-1.58,4.94-2.42s5.37-.38,5.46-.73-2.54-1.46-5.81-.44S264.42,471.42,264.71,471.56Z" style="fill: rgb(38, 50, 56); transform-origin: 269.894px 469.566px;" id="el4mncmkqdtp5" class="animable"></path><path d="M253.25,454.53c.26.27,3-2.56,7.37-4.25s8.28-1.6,8.29-2-4.07-1.06-8.74.82S253,454.38,253.25,454.53Z" style="fill: rgb(38, 50, 56); transform-origin: 261.071px 451.191px;" id="elmwjyzb5m6nb" class="animable"></path><path d="M252.26,441.09c.15.33,3.23-1,7.25-1.13s7.21.79,7.32.44-3.06-1.89-7.38-1.67S252.08,440.83,252.26,441.09Z" style="fill: rgb(38, 50, 56); transform-origin: 259.543px 439.926px;" id="elb4mp68lvch" class="animable"></path><path d="M261.8,439.84a4.93,4.93,0,0,0-.32-2.1,14.68,14.68,0,0,0-2.67-5.13,6.46,6.46,0,0,0-3.32-2.54,2.28,2.28,0,0,0-2.45,1,3.74,3.74,0,0,0-.41,2.64,8.1,8.1,0,0,0,8.36,6.06,9.39,9.39,0,0,0,8.16-6.53,3.28,3.28,0,0,0-.35-2.69,2.25,2.25,0,0,0-2.54-.74,8,8,0,0,0-3.27,2.56,16.43,16.43,0,0,0-2.95,5,5,5,0,0,0-.49,2.06c.22.11.88-3,4.08-6.45a7.46,7.46,0,0,1,2.91-2.16,1.21,1.21,0,0,1,1.39.39,2.28,2.28,0,0,1,.12,1.79,8.37,8.37,0,0,1-7.14,5.57,7,7,0,0,1-7.17-5,2.7,2.7,0,0,1,.21-1.85,1.23,1.23,0,0,1,1.35-.56,5.9,5.9,0,0,1,2.85,2.1C261.22,436.77,261.56,439.94,261.8,439.84Z" style="fill: rgb(38, 50, 56); transform-origin: 260.92px 434.76px;" id="elavbjqa91aj" class="animable"></path><path d="M331.53,270.52s-2.25,48.75-5.9,56.43-8.43,11.7-12.08,10.84-37.2-17.46-42.51-34.41L282,292s20.16,12.28,23.16,12.17l4-36.1Z" style="fill: rgb(255, 190, 157); transform-origin: 301.285px 302.987px;" id="el7zrhh7ejnr" class="animable"></path><path d="M317.6,316.4c-.09,0-.19-1.07-.74-2.69a14.44,14.44,0,0,0-3.52-5.56,14.21,14.21,0,0,0-5.69-3.31c-1.63-.5-2.71-.55-2.7-.65a2.16,2.16,0,0,1,.76,0,11.58,11.58,0,0,1,2,.32,13.18,13.18,0,0,1,9.46,9.12,11,11,0,0,1,.39,2A2,2,0,0,1,317.6,316.4Z" style="fill: rgb(235, 153, 110); transform-origin: 311.285px 310.278px;" id="elnzlnxbh9ocm" class="animable"></path><path d="M221.73,289.69a28.65,28.65,0,0,1-2.35,2.41c-1.46,1.46-3.44,3.52-5.49,5.92s-3.77,4.69-5,6.37a25.86,25.86,0,0,1-2,2.69,3.69,3.69,0,0,1,.4-.81c.29-.51.73-1.22,1.3-2.09a67.48,67.48,0,0,1,10.53-12.35c.76-.7,1.4-1.25,1.86-1.62S221.7,289.66,221.73,289.69Z" style="fill: rgb(235, 153, 110); transform-origin: 214.31px 298.383px;" id="el9kskynhxjbh" class="animable"></path><path d="M199.59,399.53s109-47.95,113.84-50.66S335,339.42,343.14,344s16.48,17.56,12.16,31.6-24,36.2-30.79,40.25S263.73,418,263.73,418l-51.82,15.45Z" style="fill: rgb(38, 50, 56); transform-origin: 278.035px 387.948px;" id="elegp5trpxlj7" class="animable"></path><path d="M341,391.8a6.55,6.55,0,0,1-.68.51c-.46.31-1.12.81-2,1.36a75.31,75.31,0,0,1-7.79,4.39,108.72,108.72,0,0,1-12.26,5.1c-4.71,1.66-10,3.2-15.56,4.64-11.17,2.84-21.35,5.07-28.59,7.19-3.63,1-6.54,2-8.53,2.63l-2.3.78a6.24,6.24,0,0,1-.82.25,4.34,4.34,0,0,1,.78-.34c.52-.21,1.27-.52,2.27-.88,2-.73,4.87-1.71,8.49-2.79,7.23-2.22,17.41-4.51,28.57-7.34,5.56-1.45,10.83-3,15.54-4.6a113.56,113.56,0,0,0,12.25-5c3.39-1.63,6.05-3.13,7.85-4.23.91-.53,1.58-1,2.06-1.28A4.34,4.34,0,0,1,341,391.8Z" style="fill: rgb(69, 90, 100); transform-origin: 301.735px 405.225px;" id="eljmhw8lxewdp" class="animable"></path><path d="M345.25,374a7.84,7.84,0,0,1,.27,2.41,23,23,0,0,1-2.79,11.31,7.64,7.64,0,0,1-1.37,2A31,31,0,0,0,345.25,374Z" style="fill: rgb(69, 90, 100); transform-origin: 343.444px 381.86px;" id="eljg79zhqvjyr" class="animable"></path><path d="M319.62,346.08a2.39,2.39,0,0,1-.52.27l-1.51.68L312,349.5c-4.7,2.11-11.12,5.17-18.17,8.63s-13.46,6.59-18.15,8.73c-2.35,1.07-4.26,1.91-5.59,2.47l-1.53.63a2.84,2.84,0,0,1-.55.19,2.08,2.08,0,0,1,.51-.29l1.49-.72,5.51-2.62c4.65-2.21,11-5.38,18.08-8.85s13.51-6.48,18.25-8.51c2.37-1,4.3-1.81,5.65-2.32l1.55-.58A3.4,3.4,0,0,1,319.62,346.08Z" style="fill: rgb(69, 90, 100); transform-origin: 293.815px 358.115px;" id="el6z81uwnzmgs" class="animable"></path><path d="M310.73,226.92a9.72,9.72,0,0,1,.35,1.68c.2,1.08.42,2.66.64,4.62a99.76,99.76,0,0,1-1.4,30.71c-.4,1.93-.76,3.48-1.06,4.55a11.91,11.91,0,0,1-.5,1.64,9.6,9.6,0,0,1,.3-1.69c.24-1.07.55-2.64.9-4.57a114.31,114.31,0,0,0,1.4-30.6c-.18-2-.34-3.54-.48-4.64A11.72,11.72,0,0,1,310.73,226.92Z" style="fill: rgb(38, 50, 56); transform-origin: 310.537px 248.52px;" id="elhfs67c0ac4" class="animable"></path><path d="M282.56,262.69l-12.81,29.17s-51.41,15.79-56.48,20.71H209.6l28.85-33.83s22.86-12.83,29.27-14.6,13.06-2.83,13.06-2.83Z" style="fill: rgb(255, 255, 255); transform-origin: 246.08px 286.94px;" id="elkejd2f058qo" class="animable"></path><path d="M242.27,280.91s17.51-10.2,25.65-12.8a143.91,143.91,0,0,1,15.66-4l-12.7,28.8-33.53,7.4Z" style="fill: #151515; transform-origin: 260.465px 282.21px;" id="elugsxgyd4y7" class="animable"></path><path d="M258.35,281.46s-1.37-2.65-.53-3.92,10-2.46,15.78-3.16,9.34.89,9,6.14a7.16,7.16,0,0,1,1.95,5.46c-.31,3.27-1.95,3.8-1.95,3.8s1.75,4,0,6.12-2.42,1.79-2.42,1.79a7.1,7.1,0,0,1-2.39,4.17c-2,1.53-6.35,2.33-6.35,2.33L260.6,282Z" style="fill: rgb(255, 190, 157); transform-origin: 271.059px 289.207px;" id="elzf7oyfvpj8" class="animable"></path><path d="M278.93,280.91a13.43,13.43,0,0,1-2.67.44c-1.66.2-4,.42-6.51.57s-4.85.22-6.53.22a13.33,13.33,0,0,1-2.7-.12,15.54,15.54,0,0,1,2.69-.25l6.51-.37,6.5-.41A14.78,14.78,0,0,1,278.93,280.91Z" style="fill: rgb(235, 153, 110); transform-origin: 269.725px 281.522px;" id="el0ronzbaa1sso" class="animable"></path><path d="M278.42,289a44.85,44.85,0,0,1-6.91-.1,44.26,44.26,0,0,1-6.88-.63,47.33,47.33,0,0,1,6.91.11A46.65,46.65,0,0,1,278.42,289Z" style="fill: rgb(235, 153, 110); transform-origin: 271.525px 288.64px;" id="el1btdorfoyq2" class="animable"></path><path d="M278,295.65a16.79,16.79,0,0,1-10.29-1.33c.05-.15,2.27.61,5.1,1S278,295.49,278,295.65Z" style="fill: rgb(235, 153, 110); transform-origin: 272.855px 295.12px;" id="elz6zqsia3vh" class="animable"></path><path d="M282.55,289.75s.2.26.41.82a10.35,10.35,0,0,1,.54,2.43,28.49,28.49,0,0,1,.1,3.69,11.48,11.48,0,0,1-.19,2.2,4.66,4.66,0,0,1-1.14,2.14,10.22,10.22,0,0,1-3.88,2.4,16,16,0,0,1-3.6.9,10.67,10.67,0,0,1-2.49.05,2.17,2.17,0,0,1-.9-.19,21.15,21.15,0,0,0,3.34-.23,17.33,17.33,0,0,0,3.47-1,10.06,10.06,0,0,0,3.67-2.3,4.08,4.08,0,0,0,1-1.91,11.5,11.5,0,0,0,.21-2.1,34.14,34.14,0,0,0,0-3.63A19.21,19.21,0,0,0,282.55,289.75Z" style="fill: rgb(235, 153, 110); transform-origin: 277.51px 297.09px;" id="elk5y2u0rp1q" class="animable"></path><path d="M244.29,280.65s3.28-3.75,6.58-4,10.8-1.44,14.11,4.82,7.5,25.27,7.61,32.16-6.22,96.27-6.22,96.27H229.65l-3.36-21.4-23.37,9.94s-9.33-6-10.23-19.78.83-30.86,3.86-35.36S244.29,280.65,244.29,280.65Z" style="fill: rgb(38, 50, 56); transform-origin: 232.522px 343.148px;" id="elvkv3awh5fz" class="animable"></path><path d="M272.15,320.46s0,.15,0,.45l-.07,1.29c-.08,1.17-.18,2.85-.32,5-.29,4.4-.71,10.76-1.24,18.72s-1.12,17.55-1.77,28.35-1.36,22.82-2.13,35.67l0,.23H230.3l0-.21-4.41-22.63v0a107.1,107.1,0,0,1-5.19-33.69,145.37,145.37,0,0,1,2.65-26.88c1.41-7.46,2.94-13.32,4.06-17.31.54-2,1-3.53,1.33-4.56.16-.51.27-.89.36-1.18a3.46,3.46,0,0,1,.14-.39s0,.14-.1.41l-.32,1.18c-.27,1-.73,2.58-1.25,4.58-1.06,4-2.54,9.87-3.9,17.33a146.76,146.76,0,0,0-2.54,26.82,107.25,107.25,0,0,0,5.23,33.53h0v0c1.41,7.19,2.9,14.78,4.43,22.63l-.25-.21h35.85l-.26.24c.8-12.85,1.54-24.87,2.21-35.67s1.25-20.38,1.87-28.35,1.07-14.31,1.4-18.7c.17-2.17.3-3.85.4-5,.05-.56.08-1,.11-1.3S272.15,320.46,272.15,320.46Z" style="fill: rgb(69, 90, 100); transform-origin: 246.424px 356.745px;" id="elc7ex5di6ckw" class="animable"></path><path d="M260.41,249.66l-9.67.89,5.6,4.58a4.25,4.25,0,0,0,4.07-5.47Z" style="fill: rgb(255, 190, 157); transform-origin: 255.664px 252.395px;" id="elxl93v9o1fcp" class="animable"></path><path d="M238,252.65l-10.88-4.31a1.86,1.86,0,0,1-1-2.43h0a1.85,1.85,0,0,1,2.47-1l13.7,6,21.84,9.59,2.15,2.87-3.63.76Z" style="fill: rgb(38, 50, 56); transform-origin: 246.129px 254.44px;" id="elqgl8txgj43" class="animable"></path><path d="M235,275.71a6.6,6.6,0,0,1-1-4.33,17.37,17.37,0,0,0-.07-5.15s-1.21-3.94,0-5.48a4.82,4.82,0,0,0,1.07-3.09s.13-4,1.25-4.34,11.66-5.07,13.07-4.51,12.78,10.53,12.78,10.53,1.13,3-1.54,2.89l3.51,3.3-6.18,2.58L239.41,278S236.06,278.41,235,275.71Z" style="fill: rgb(255, 190, 157); transform-origin: 248.731px 263.393px;" id="elsy9xuk5k2mr" class="animable"></path><path d="M259.66,267.15a15.72,15.72,0,0,1-2.57-.34,56.08,56.08,0,0,0-12.42-.53,16.61,16.61,0,0,1-2.59.12,10.57,10.57,0,0,1,2.56-.48,39.18,39.18,0,0,1,6.28-.24,40.22,40.22,0,0,1,6.24.77A10.51,10.51,0,0,1,259.66,267.15Z" style="fill: rgb(235, 153, 110); transform-origin: 250.87px 266.398px;" id="elzkl1rzh84k" class="animable"></path><path d="M260.6,262.23a13,13,0,0,0-2.2-1.71,16.9,16.9,0,0,0-6.49-1.63c-2.63-.24-5.06-.12-6.82-.22a10.39,10.39,0,0,1-2.82-.33,26.83,26.83,0,0,1,2.83,0,67,67,0,0,1,6.86.06,15.23,15.23,0,0,1,6.63,1.84,6.3,6.3,0,0,1,1.6,1.37A2,2,0,0,1,260.6,262.23Z" style="fill: rgb(235, 153, 110); transform-origin: 251.435px 260.255px;" id="elx8xgrbol3hj" class="animable"></path><path d="M262.14,259.34a10.36,10.36,0,0,1-1.9-1.33c-1.14-.88-2.68-2.12-4.37-3.51s-3.19-2.67-4.27-3.62a10.69,10.69,0,0,1-1.67-1.62,10.23,10.23,0,0,1,1.91,1.34c1.14.87,2.68,2.11,4.37,3.5s3.19,2.68,4.26,3.63A10.35,10.35,0,0,1,262.14,259.34Z" style="fill: rgb(235, 153, 110); transform-origin: 256.035px 254.3px;" id="el8t1hgpr7vdv" class="animable"></path><path d="M240.18,277.53c0,.06-.47.24-1.3.21a5.35,5.35,0,0,1-3-1.07,5.44,5.44,0,0,1-1.84-2.6c-.24-.79-.2-1.3-.14-1.3s.17.47.49,1.17a5.77,5.77,0,0,0,4.52,3.43A7.91,7.91,0,0,1,240.18,277.53Z" style="fill: rgb(235, 153, 110); transform-origin: 237.017px 275.257px;" id="el97xq474elp7" class="animable"></path><path d="M212.23,311.7s-7.16,5.95-6.89,25.15-1.28,25.1-1.28,25.1h4.09l32.49-37.1A46.07,46.07,0,0,1,238.27,307c.41-6.75,6-26.31,6-26.31l-2,.26Z" style="fill: #151515; transform-origin: 224.165px 321.32px;" id="ela01lbwovsof" class="animable"></path><path d="M210.21,312s-7.16,6-6.9,25.15-1.27,25.1-1.27,25.1h4.08l32.5-37.1a46.07,46.07,0,0,1-2.37-17.89c.41-6.75,6-26.31,6-26.31l-3.82-2.17Z" style="fill: rgb(235, 235, 235); transform-origin: 222.145px 320.515px;" id="elfmjldaqunib" class="animable"></path><path d="M238.54,279.57s0,.07,0,.22l-.18.64-.73,2.47c-.67,2.12-1.53,5.24-2.52,9.13a104.73,104.73,0,0,0-2.45,13.89,54.66,54.66,0,0,0-.2,8.35c.08.72.15,1.45.22,2.18s.22,1.47.4,2.19l.27,1.09.35,1.07a8.65,8.65,0,0,0,1,2l.15.19-.16.16-2.12,2.13a287.22,287.22,0,0,0-22.06,25.32c-2.63,3.41-4.69,6.21-6.11,8.16-.68.95-1.23,1.69-1.63,2.24l-.43.58c-.1.13-.15.19-.16.18s0-.07.12-.21l.39-.61c.35-.53.86-1.31,1.55-2.3,1.36-2,3.38-4.82,6-8.26a263.48,263.48,0,0,1,22-25.47l2.12-2.13,0,.35a8.81,8.81,0,0,1-1.07-2.15l-.36-1.11-.27-1.12c-.18-.74-.27-1.49-.4-2.23s-.15-1.49-.22-2.22a54.28,54.28,0,0,1,.24-8.43,100.39,100.39,0,0,1,2.56-13.93c1-3.89,1.95-7,2.69-9.1.34-1,.62-1.84.82-2.44l.22-.63C238.5,279.63,238.53,279.56,238.54,279.57Z" style="fill: rgb(38, 50, 56); transform-origin: 220.374px 320.665px;" id="elnkvw5i5y3s" class="animable"></path><path d="M238.74,325.54a6,6,0,0,1-2.22-1c-1.16-.7-2-1.36-2-1.49a5.9,5.9,0,0,1,2.23,1C237.94,324.75,238.82,325.41,238.74,325.54Z" style="fill: rgb(38, 50, 56); transform-origin: 236.633px 324.295px;" id="el0sry0u7xa0xf" class="animable"></path><path d="M224.49,328.23a7.17,7.17,0,0,1-.28-1.39c-.15-.9-.3-2.22-.42-3.85a61.72,61.72,0,0,1,.41-12.77,62.69,62.69,0,0,1,3-12.42c.56-1.53,1.06-2.76,1.44-3.59a8,8,0,0,1,.64-1.27,7.12,7.12,0,0,1-.45,1.35c-.33.85-.77,2.09-1.28,3.63a71.68,71.68,0,0,0-2.86,12.37,72.41,72.41,0,0,0-.56,12.68c.08,1.62.17,2.94.26,3.84A8.84,8.84,0,0,1,224.49,328.23Z" style="fill: rgb(38, 50, 56); transform-origin: 226.456px 310.585px;" id="elaciswrzglqh" class="animable"></path><path d="M220.19,329.24a3.77,3.77,0,0,1-.42-1,19.77,19.77,0,0,1-.67-3,66.11,66.11,0,0,1-.31-10.11,38,38,0,0,1,.49-5.56,28.76,28.76,0,0,1,1.12-4.43,25.88,25.88,0,0,1,1.17-2.84,4.12,4.12,0,0,1,.57-1c.08,0-.63,1.48-1.39,3.94a32.32,32.32,0,0,0-1,4.38,42,42,0,0,0-.44,5.5,83.11,83.11,0,0,0,.16,10.06C219.74,327.7,220.28,329.22,220.19,329.24Z" style="fill: rgb(38, 50, 56); transform-origin: 220.433px 315.27px;" id="elokg6egp7ew" class="animable"></path><path d="M215.68,332.15a3.28,3.28,0,0,1,0-.85c0-.65.07-1.43.12-2.35.12-2,.32-4.8.57-8l.09.21a4.11,4.11,0,0,1,.72-6.79l.09.47a3.35,3.35,0,0,1-1.35-6.2l.32-.19-.08.36a2.53,2.53,0,0,1-1.54,1.77,1.29,1.29,0,0,1-.84.1s.3,0,.77-.26a2.37,2.37,0,0,0,1.29-1.67l.24.16a3.11,3.11,0,0,0-1.35,2.76,3,3,0,0,0,2.6,2.68l.81.09-.72.38a3.69,3.69,0,0,0-1.91,3,3.73,3.73,0,0,0,1.27,3l.1.08V321c-.28,3.22-.54,6-.75,8q-.17,1.36-.27,2.34A2.83,2.83,0,0,1,215.68,332.15Z" style="fill: rgb(38, 50, 56); transform-origin: 215.96px 320.3px;" id="el049x13yem2wc" class="animable"></path><path d="M213.65,335.59a2.82,2.82,0,0,1-.35-.8,17.39,17.39,0,0,1-.67-2.29,33.65,33.65,0,0,1-.78-7.82,67.84,67.84,0,0,1,.58-7.82,18.27,18.27,0,0,1,.55-3.2,23.22,23.22,0,0,1-.18,3.24c-.16,2-.4,4.74-.43,7.78a41,41,0,0,0,.62,7.74C213.36,334.38,213.74,335.56,213.65,335.59Z" style="fill: rgb(38, 50, 56); transform-origin: 212.754px 324.625px;" id="elezoq1205gui" class="animable"></path><path d="M209,344a4.46,4.46,0,0,1-.11-1.1c0-.71-.07-1.74-.1-3,0-2.54-.14-6-.07-9.93a67.13,67.13,0,0,1,.86-9.91c.22-1.25.45-2.26.63-2.95a4,4,0,0,1,.35-1.05c.08,0-.28,1.55-.62,4.06a86.36,86.36,0,0,0-.69,9.86c-.08,3.87-.05,7.38-.09,9.92,0,1.27,0,2.3-.06,3A4.24,4.24,0,0,1,209,344Z" style="fill: rgb(38, 50, 56); transform-origin: 209.636px 330.03px;" id="el8y5ts373yhn" class="animable"></path><path d="M226.29,387.76a5.46,5.46,0,0,1-1,.59l-2.8,1.41c-2.37,1.16-5.67,2.72-9.35,4.37s-7.05,3.05-9.51,4c-1.24.47-2.24.84-2.94,1.07a5.21,5.21,0,0,1-1.11.32,5.72,5.72,0,0,1,1-.51l2.88-1.22c2.42-1,5.76-2.5,9.44-4.15l9.41-4.23,2.86-1.26A5.6,5.6,0,0,1,226.29,387.76Z" style="fill: rgb(69, 90, 100); transform-origin: 212.935px 393.64px;" id="elte8250co0ak" class="animable"></path></g><g id="freepik--Plant--inject-12" class="animable" style="transform-origin: 102.809px 315.955px;"><path d="M112.81,386c-2.84-.14-3.68-4.15-2.62-6.8s3.15-5,3.18-7.83c0-2.47-1.54-4.72-1.69-7.18-.27-4.45,4-8.08,4.21-12.53.14-3.47-2.27-6.77-1.69-10.2.63-3.67,4.46-6.09,5.34-9.71.94-3.85-1.74-7.93-.71-11.77s5.52-6.62,4.88-10.52c-.21-1.29-1-2.42-1.34-3.68-.81-2.91.78-5.95,2.71-8.27s4.28-4.4,5.47-7.17c1.83-4.27.56-9.46,2.72-13.57,1.79-3.42,5.79-5.72,6.3-9.55,2,3.45,0,7.84.5,11.81.31,2.59,1.65,4.93,2.47,7.4A19.29,19.29,0,0,1,141,301.88c-1.74,3.06-4.42,5.94-4.28,9.46.16,4.25,4.42,7.33,5.17,11.52,1.07,6-5.31,11.39-4.43,17.41.23,1.56.94,3,1.07,4.59.46,5.32-5.58,9.09-6.5,14.35-.68,3.88,1.56,7.88.63,11.71-.71,2.94-3.25,5.59-2.63,8.55a20.55,20.55,0,0,0,1.63,3.58,6.85,6.85,0,0,1-1.07,7.07,5.94,5.94,0,0,1-6.87,1.41" style="fill: #151515; transform-origin: 126.618px 329.644px;" id="elvqxcgjy1rq" class="animable"></path><g id="elx2f3fw8s9gc"><g style="opacity: 0.5; transform-origin: 126.621px 329.659px;" class="animable" id="elq25tok69uuq"><path d="M131.69,383.05a20.55,20.55,0,0,1-1.63-3.58c-.62-3,1.92-5.61,2.63-8.55.93-3.83-1.31-7.83-.63-11.71.92-5.26,7-9,6.5-14.35-.13-1.57-.84-3-1.07-4.59-.88-6,5.5-11.41,4.43-17.41-.75-4.19-5-7.27-5.17-11.52-.14-3.52,2.54-6.4,4.28-9.46a19.29,19.29,0,0,0,1.51-15.42c-.82-2.47-2.16-4.81-2.47-7.4-.46-4,1.53-8.36-.5-11.81-.51,3.83-4.51,6.13-6.3,9.55-2.16,4.11-.89,9.3-2.72,13.57-1.19,2.77-3.55,4.84-5.47,7.17s-3.52,5.36-2.71,8.27c.35,1.26,1.13,2.39,1.34,3.68.64,3.9-3.86,6.7-4.88,10.52s1.65,7.92.71,11.77c-.88,3.62-4.71,6-5.34,9.71-.58,3.43,1.83,6.73,1.69,10.2-.19,4.45-4.48,8.08-4.21,12.53.15,2.46,1.72,4.71,1.69,7.18,0,2.84-2.12,5.19-3.18,7.83s-.22,6.66,2.62,6.8l10.94,5.5a5.94,5.94,0,0,0,6.87-1.41A6.85,6.85,0,0,0,131.69,383.05Z" style="fill: rgb(255, 255, 255); transform-origin: 126.621px 329.659px;" id="elfmqu9dw2jjj" class="animable"></path></g></g><path d="M128,380.45a7.74,7.74,0,0,1-1.1-4.21c.29-1.63,3-3.06,3.73-5.82.89-3.58-.72-9.91,0-13.52.92-4.91,6-8.14,5.79-13-.06-1.43.14-5.26,0-6.68-.54-5.49,4.28-9.18,3.58-14.63-.49-3.81-4.44-8.27-4.44-12.18,0-3.22,2.31-6.05,3.84-9a20.1,20.1,0,0,0,1.74-14.3c-.6-2.22-1.64-4.28-1.81-6.65-.26-3.63,1.53-7.8-.05-10.84-.53,3.56-3.92,5.94-5.52,9.2-1.92,3.92-1,8.62-2.68,12.67-1.07,2.63-3.09,4.69-4.76,6.95s-3.08,5.17-2.5,7.8a30.62,30.62,0,0,1,1,3.3c.41,3.55-3.41,6.42-4.37,10s1.12,7.17.22,10.79c-.84,3.39-4.16,8-4.8,11.42-.59,3.19,2.3,5.27,2.08,8.47-.3,4.11-4.42,9.09-4.33,13.17,0,2.26,1.93,3,1.84,5.26-.12,2.62-2.31,7.83-3.27,10.33a7.09,7.09,0,0,0,.68,7L125,392.09C130.48,389.49,130.24,384.19,128,380.45Z" style="fill: #151515; transform-origin: 126.655px 330.855px;" id="elqcy8cw2dtj" class="animable"></path><path d="M136.19,288.2a.8.8,0,0,1,0,.27c0,.21,0,.47,0,.79,0,.7,0,1.73-.13,3.06A14.94,14.94,0,0,1,135,297c-.72,1.79-2.24,3.4-3.68,5.24a9.76,9.76,0,0,0-1.74,3.19,11,11,0,0,0-.44,3.91c.13,2.76,1,5.63,1.38,8.77a13.31,13.31,0,0,1-.16,4.86,9.05,9.05,0,0,1-.95,2.36,21,21,0,0,0-1.29,2.14c-.7,1.5-.43,3.27-.07,5,.17.86.37,1.73.47,2.64a10.56,10.56,0,0,1-.07,2.75,21.73,21.73,0,0,1-1.68,5.13,41.62,41.62,0,0,0-1.89,4.81,12.48,12.48,0,0,0-.43,4.88,21.91,21.91,0,0,1,.18,4.85,14.67,14.67,0,0,1-1.55,4.36,17.4,17.4,0,0,0-1.54,4c-.51,2.69.25,5.28.2,7.68a20.55,20.55,0,0,1-1.41,6.26,21.86,21.86,0,0,0-1.19,4.64,6.63,6.63,0,0,0,.31,3c.25.64.44,1,.41,1a5.76,5.76,0,0,1-.51-.94,6.57,6.57,0,0,1-.4-3,21.44,21.44,0,0,1,1.12-4.71,20.4,20.4,0,0,0,1.32-6.17,35.19,35.19,0,0,0-.3-3.69,13.93,13.93,0,0,1,.06-4.07c.52-2.84,2.6-5.26,3-8.31a21.89,21.89,0,0,0-.19-4.75,12.79,12.79,0,0,1,.43-5.05c.93-3.33,3-6.36,3.55-9.89a10,10,0,0,0,.06-2.62c-.1-.87-.29-1.73-.46-2.59-.35-1.7-.66-3.59.11-5.26a21.89,21.89,0,0,1,1.32-2.19,8.8,8.8,0,0,0,.91-2.23,13,13,0,0,0,.16-4.69c-.38-3.08-1.22-6-1.34-8.8a11.31,11.31,0,0,1,.49-4,10,10,0,0,1,1.83-3.28c1.48-1.86,3-3.41,3.7-5.14a15.41,15.41,0,0,0,1.16-4.63c.15-1.31.18-2.34.22-3,0-.32,0-.59,0-.79A.94.94,0,0,1,136.19,288.2Z" style="fill: rgb(38, 50, 56); transform-origin: 127.559px 338.335px;" id="eljbfaztzjyl" class="animable"></path><path d="M95.35,387.43c-4,.58-6.23-4.75-5.49-8.7s3-7.78,2.26-11.73c-.64-3.43-3.43-6.11-4.31-9.49-1.59-6.08,3.37-12.29,2.4-18.5-.75-4.85-5-8.77-5.12-13.67-.14-5.27,4.51-9.66,4.73-14.92.24-5.6-4.58-10.52-4.21-16.11s5.83-10.69,3.88-15.92c-.65-1.73-2-3.08-2.86-4.73-1.92-3.81-.55-8.45,1.48-12.2s4.73-7.26,5.62-11.43c1.36-6.41-1.82-13.26,0-19.54,1.55-5.23,6.46-9.51,6.11-15,3.76,4.22,2.21,10.85,3.94,16.23,1.13,3.5,3.62,6.37,5.44,9.57a27.22,27.22,0,0,1,2.13,21.79c-1.57,4.71-4.49,9.43-3.34,14.26,1.39,5.85,8.13,9,10.32,14.56,3.13,8-4.24,17.23-1.36,25.33.74,2.09,2.12,3.92,2.74,6.06,2.09,7.25-5.25,14.12-5.09,21.67.13,5.55,4.33,10.49,4.09,16-.18,4.28-3,8.63-1.3,12.57.73,1.71,2.19,3,3.23,4.52a9.64,9.64,0,0,1,.46,10.08A8.39,8.39,0,0,1,112,392" style="fill: #151515; transform-origin: 103.696px 303.854px;" id="elclihzxs20ap" class="animable"></path><g id="elg5as10wwg2j"><g style="opacity: 0.5; transform-origin: 103.734px 303.899px;" class="animable" id="elddi4s83q39d"><path d="M120.69,378.13c-1-1.54-2.5-2.81-3.23-4.52-1.68-3.94,1.12-8.29,1.3-12.57.24-5.55-4-10.49-4.09-16-.16-7.55,7.18-14.42,5.09-21.67-.62-2.14-2-4-2.74-6.06-2.88-8.1,4.49-17.32,1.36-25.33-2.19-5.6-8.93-8.71-10.32-14.56-1.15-4.83,1.77-9.56,3.34-14.27a27.2,27.2,0,0,0-2.13-21.78c-1.82-3.2-4.31-6.07-5.44-9.57-1.73-5.38-.18-12-3.94-16.23.35,5.45-4.56,9.73-6.11,15-1.87,6.28,1.31,13.13,0,19.54-.89,4.17-3.59,7.68-5.62,11.43s-3.4,8.39-1.48,12.2c.82,1.65,2.21,3,2.86,4.73,2,5.23-3.51,10.35-3.88,15.92s4.45,10.51,4.21,16.11c-.22,5.26-4.87,9.65-4.73,14.92.13,4.9,4.37,8.82,5.12,13.67,1,6.21-4,12.41-2.4,18.5.88,3.38,3.67,6.06,4.31,9.49.74,3.95-1.52,7.78-2.26,11.73s1.52,9.28,5.49,8.7L112,392a8.39,8.39,0,0,0,9.13-3.83A9.64,9.64,0,0,0,120.69,378.13Z" style="fill: rgb(255, 255, 255); transform-origin: 103.734px 303.899px;" id="elx11mt96sh7a" class="animable"></path></g></g><path d="M114.84,375.54c-1.1-1.2-2.65-3.86-2.67-5.53,0-2.33,3.38-5.07,3.57-9.08.25-5.21-3.71-13.55-3.75-18.74-.06-7.05,6.09-12.92,4.47-19.62-.48-2-1.25-7.33-1.83-9.25-2.26-7.46,3.41-13.89,1-21.25-1.73-5.14-8.42-10.24-9.5-15.65-.88-4.47,1.55-9,2.87-13.5a28.49,28.49,0,0,0-1.5-20.29c-1.45-2.91-3.46-5.49-4.34-8.72-1.35-5,0-11.22-3-15,.23,5.08-3.81,9.31-5.13,14.27-1.58,6,.93,12.22-.24,18.28-.77,3.94-3,7.34-4.69,10.94s-2.86,8-1.34,11.48c.66,1.51,1.77,2.71,2.28,4.3,1.54,4.81-3,9.84-3.32,15.07s3.52,9.64,3.27,14.89c-.24,4.93-3.58,12.22-3.52,17.14,0,4.58,4.63,6.67,5.19,11.17.72,5.77-3.62,13.8-2.39,19.42.68,3.12,3.5,3.61,4,6.79.56,3.66-1.05,11.48-1.7,15.21s0,6.39,2.87,9.57l18.59,5.05C120.79,387.38,119,380.1,114.84,375.54Z" style="fill: #151515; transform-origin: 103.004px 305.7px;" id="ellyprtci1kaj" class="animable"></path><path d="M101,245.48a47.77,47.77,0,0,1,1,5.74,22.11,22.11,0,0,1-.25,6.82,17.33,17.33,0,0,1-1.46,4c-.67,1.36-1.48,2.74-2.21,4.23a13.85,13.85,0,0,0-1.56,4.92,15.21,15.21,0,0,0,.46,5.57c.93,3.8,2.9,7.55,4.31,11.78a18.85,18.85,0,0,1,1.1,6.74,12.83,12.83,0,0,1-.67,3.5,29.07,29.07,0,0,0-1.2,3.34c-.57,2.3.3,4.7,1.26,6.95.48,1.14,1,2.3,1.37,3.52a14.28,14.28,0,0,1,.65,3.8,30,30,0,0,1-.92,7.55,58.21,58.21,0,0,0-1.3,7.19,18,18,0,0,0,0,3.52,18.61,18.61,0,0,0,.73,3.39,31.17,31.17,0,0,1,1.56,6.65,20.61,20.61,0,0,1-.93,6.44,24.35,24.35,0,0,0-1,5.94,19.32,19.32,0,0,0,1,5.52,51.1,51.1,0,0,1,1.4,5.08,18.68,18.68,0,0,1,.23,4.79c-.1,1.52-.28,2.93-.45,4.25a30.67,30.67,0,0,0-.37,6.77,9.34,9.34,0,0,0,1.27,4c.52.82.88,1.21.85,1.23a8.81,8.81,0,0,1-.94-1.18,9.34,9.34,0,0,1-1.37-4.07,30.58,30.58,0,0,1,.29-6.83c.15-1.32.32-2.73.41-4.22a18.48,18.48,0,0,0-.26-4.71,51,51,0,0,0-1.42-5,19.39,19.39,0,0,1-1-5.64,24.61,24.61,0,0,1,1-6,20.43,20.43,0,0,0,.9-6.3,30.66,30.66,0,0,0-1.56-6.55,19.91,19.91,0,0,1-.75-3.46,18.24,18.24,0,0,1,0-3.62,59.48,59.48,0,0,1,1.3-7.26,29.8,29.8,0,0,0,.91-7.42,13.85,13.85,0,0,0-.63-3.68c-.37-1.18-.87-2.32-1.35-3.47a20.85,20.85,0,0,1-1.22-3.54A8,8,0,0,1,100,302a30,30,0,0,1,1.22-3.39,12.67,12.67,0,0,0,.66-3.36,18.4,18.4,0,0,0-1.07-6.58c-1.38-4.18-3.34-7.95-4.28-11.82a15.71,15.71,0,0,1-.43-5.71,14.16,14.16,0,0,1,1.61-5c.76-1.5,1.58-2.87,2.25-4.22a17.28,17.28,0,0,0,1.47-3.94,21.92,21.92,0,0,0,.33-6.75c-.17-1.86-.41-3.29-.56-4.26-.07-.47-.12-.84-.17-1.11A2.7,2.7,0,0,1,101,245.48Z" style="fill: rgb(38, 50, 56); transform-origin: 100.94px 317.095px;" id="elajw0qro12tn" class="animable"></path><path d="M92.86,390.05c-2.27,1.11-4.65-1.64-5-4.15s.3-5.24-.91-7.46c-1-1.93-3.23-3-4.41-4.84-2.13-3.34-.36-8-2.14-11.54-1.39-2.76-4.69-4.28-5.71-7.19-1.1-3.12.83-6.65,0-9.84-.94-3.4-4.78-5.41-5.64-8.83s1.43-7.53-.75-10.28a32.09,32.09,0,0,0-2.63-2.28c-1.88-1.91-2-4.95-1.47-7.59s1.43-5.25,1.16-7.92c-.43-4.1-3.65-7.58-3.75-11.71-.08-3.43,2-6.94.76-10.13,3.07,1.8,3.42,6.06,5.5,8.95,1.35,1.88,3.4,3.11,5.11,4.68a17.12,17.12,0,0,1,5.48,12.62c0,3.13-.87,6.52.76,9.19,2,3.23,6.6,3.79,9,6.71,3.42,4.19.79,11.13,4.08,15.43.85,1.11,2,1.94,2.81,3.09,2.65,3.94-.41,9.47,1.15,14,1.14,3.3,4.61,5.44,5.54,8.81.72,2.59-.11,5.74,1.65,7.78a18.68,18.68,0,0,0,2.81,2.07,6.08,6.08,0,0,1,2.22,5.95,5.29,5.29,0,0,1-4.72,4.06" style="fill: #151515; transform-origin: 85.1px 338.297px;" id="elvn9nxyo0uao" class="animable"></path><g id="elzt78q7mn92k"><g style="opacity: 0.5; transform-origin: 85.1037px 338.297px;" class="animable" id="elt7wfmj6rowq"><path d="M106.23,379.58a18.68,18.68,0,0,1-2.81-2.07c-1.76-2-.93-5.19-1.65-7.78-.93-3.37-4.4-5.51-5.54-8.81-1.56-4.49,1.5-10-1.15-14-.78-1.15-2-2-2.81-3.09-3.29-4.3-.66-11.24-4.08-15.43-2.39-2.92-7-3.48-9-6.71-1.63-2.67-.79-6.06-.76-9.19A17.12,17.12,0,0,0,73,299.92c-1.71-1.57-3.76-2.8-5.11-4.68-2.08-2.89-2.43-7.15-5.5-8.95,1.27,3.19-.84,6.7-.76,10.13.1,4.13,3.32,7.61,3.75,11.71.27,2.67-.67,5.29-1.16,7.92s-.41,5.68,1.47,7.59a32.09,32.09,0,0,1,2.63,2.28c2.18,2.75-.1,6.87.75,10.28s4.7,5.43,5.64,8.83c.88,3.19-1,6.72,0,9.84,1,2.91,4.32,4.43,5.71,7.19,1.78,3.53,0,8.2,2.14,11.54,1.18,1.85,3.36,2.91,4.41,4.84,1.21,2.22.6,4.95.91,7.46s2.7,5.26,5,4.15l10.87-.46a5.29,5.29,0,0,0,4.72-4.06A6.08,6.08,0,0,0,106.23,379.58Z" style="fill: rgb(255, 255, 255); transform-origin: 85.1037px 338.297px;" id="elv5xybsz2fqm" class="animable"></path></g></g><path d="M102.23,379.16a6.89,6.89,0,0,1-2.67-2.79c-.48-1.39,1-3.69.38-6.12-.86-3.17-4.83-7.39-5.86-10.49-1.4-4.21,1.14-8.91-1.12-12.61-.67-1.08-2.16-4.14-2.88-5.18-2.8-4-.65-9-3.54-12.9-2-2.75-7-4.51-8.71-7.54-1.4-2.5-.82-5.69-.89-8.63a17.92,17.92,0,0,0-4.83-11.85c-1.43-1.47-3.12-2.62-4.28-4.38-1.76-2.71-2.18-6.72-4.71-8.4,1.12,3-.49,6.31-.32,9.53.21,3.87,2.93,7.14,3.39,11,.31,2.5-.37,5-.69,7.45s-.16,5.34,1.42,7.13a27.78,27.78,0,0,1,2.2,2.14c1.85,2.58.13,6.45.92,9.65s4,5.09,4.83,8.28c.81,3,.23,8,1.21,10.94.92,2.74,4.06,3.1,5.27,5.68,1.55,3.32.5,9,2.32,12.09,1,1.74,2.79,1.48,3.7,3.29,1,2.09,1.59,7.08,1.93,9.44a6.3,6.3,0,0,0,3.56,5.17l12.11-.57C108.08,385.1,105.6,381.09,102.23,379.16Z" style="fill: #151515; transform-origin: 84.5898px 339.165px;" id="el4jd87965bf6" class="animable"></path><path d="M68.78,304a.93.93,0,0,1,.13.2c.1.16.21.36.35.61.3.54.75,1.34,1.23,2.42a13.81,13.81,0,0,1,1.19,4.14,22.05,22.05,0,0,1-.59,5.67,8.32,8.32,0,0,0,0,3.22,9.52,9.52,0,0,0,1.34,3.22c1.29,2.08,3.19,3.94,4.86,6.2a11.91,11.91,0,0,1,2,3.85,8.46,8.46,0,0,1,.28,2.25A18.6,18.6,0,0,0,79.5,338a7.15,7.15,0,0,0,2.08,3.87c.51.59,1,1.18,1.51,1.84a9.77,9.77,0,0,1,1.14,2.17,19.77,19.77,0,0,1,.91,4.72,36.69,36.69,0,0,0,.6,4.55,11,11,0,0,0,1.78,4,20.13,20.13,0,0,1,2.23,3.69,13.29,13.29,0,0,1,.68,4.06,15.35,15.35,0,0,0,.52,3.74c.76,2.31,2.47,4,3.46,5.88A18.55,18.55,0,0,1,96,382a19.52,19.52,0,0,0,1.07,4.12,5.93,5.93,0,0,0,1.52,2.17c.47.4.75.56.74.59a4,4,0,0,1-.8-.51,5.75,5.75,0,0,1-1.63-2.18A18.88,18.88,0,0,1,95.75,382a18.51,18.51,0,0,0-1.64-5.35c-1-1.83-2.72-3.49-3.55-5.93s-.25-5.21-1.23-7.75a19.88,19.88,0,0,0-2.2-3.6,11.34,11.34,0,0,1-1.85-4.12c-.71-3-.45-6.22-1.52-9.2A8.51,8.51,0,0,0,82.69,344c-.45-.63-1-1.22-1.48-1.82A7.55,7.55,0,0,1,79,338.05a20.87,20.87,0,0,1,.08-2.27,7.89,7.89,0,0,0-.25-2.12A11.6,11.6,0,0,0,77,330c-1.62-2.23-3.52-4.11-4.84-6.26a10,10,0,0,1-1.37-3.36,8.92,8.92,0,0,1,0-3.34,21.74,21.74,0,0,0,.65-5.59,13.37,13.37,0,0,0-1.09-4.09c-.45-1.08-.86-1.9-1.13-2.45l-.31-.64A.67.67,0,0,1,68.78,304Z" style="fill: rgb(38, 50, 56); transform-origin: 84.0551px 346.44px;" id="eluqm5lo2dqy" class="animable"></path><polygon points="75.49 380.48 80.19 390.05 137.54 390.05 144.01 380.48 75.49 380.48" style="fill: rgb(69, 90, 100); transform-origin: 109.75px 385.265px;" id="elvg2v7zuitp" class="animable"></polygon><polygon points="81.57 386.75 90.15 416.38 128.78 416.42 136.56 386.8 81.57 386.75" style="fill: rgb(69, 90, 100); transform-origin: 109.065px 401.585px;" id="elr7269uw8p0c" class="animable"></polygon><path d="M137.28,390c0,.13-12.79.24-28.57.24s-28.58-.11-28.58-.24,12.79-.25,28.58-.25S137.28,389.84,137.28,390Z" style="fill: rgb(38, 50, 56); transform-origin: 108.705px 389.995px;" id="elxcl5iug97te" class="animable"></path></g><defs>     <filter id="active" height="200%">         <feMorphology in="SourceAlpha" result="DILATED" operator="dilate" radius="2"></feMorphology>                <feFlood flood-color="#32DFEC" flood-opacity="1" result="PINK"></feFlood>        <feComposite in="PINK" in2="DILATED" operator="in" result="OUTLINE"></feComposite>        <feMerge>            <feMergeNode in="OUTLINE"></feMergeNode>            <feMergeNode in="SourceGraphic"></feMergeNode>        </feMerge>    </filter>    <filter id="hover" height="200%">        <feMorphology in="SourceAlpha" result="DILATED" operator="dilate" radius="2"></feMorphology>                <feFlood flood-color="#ff0000" flood-opacity="0.5" result="PINK"></feFlood>        <feComposite in="PINK" in2="DILATED" operator="in" result="OUTLINE"></feComposite>        <feMerge>            <feMergeNode in="OUTLINE"></feMergeNode>            <feMergeNode in="SourceGraphic"></feMergeNode>        </feMerge>            <feColorMatrix type="matrix" values="0   0   0   0   0                0   1   0   0   0                0   0   0   0   0                0   0   0   1   0 "></feColorMatrix>    </filter></defs></svg>