<svg class="animated" id="freepik_stories-baby-shark" xmlns="http://www.w3.org/2000/svg" viewBox="0 0 500 500" version="1.1" xmlns:xlink="http://www.w3.org/1999/xlink" xmlns:svgjs="http://svgjs.com/svgjs"><style>svg#freepik_stories-baby-shark:not(.animated) .animable {opacity: 0;}svg#freepik_stories-baby-shark.animated #freepik--Crab--inject-140 {animation: 3s Infinite  linear heartbeat;animation-delay: 1s;}svg#freepik_stories-baby-shark.animated #freepik--Fishes--inject-140 {animation: 3s Infinite  linear floating;animation-delay: 1s;}            @keyframes heartbeat {                0% {                    transform: scale(1);                }                10% {                    transform: scale(1.1);                }                30% {                    transform: scale(1);                }                40% {                    transform: scale(1);                }                50% {                    transform: scale(1.1);                }                60% {                    transform: scale(1);                }                100% {                    transform: scale(1);                }            }                    @keyframes floating {                0% {                    opacity: 1;                    transform: translateY(0px);                }                50% {                    transform: translateY(-10px);                }                100% {                    opacity: 1;                    transform: translateY(0px);                }            }        </style><g id="freepik--background-complete--inject-140" class="animable" style="transform-origin: 245.902px 253.439px;"><path d="M141.93,330.65Q152,402.28,162.05,473.91l5.23.17C164,425.42,160.39,375.79,141.93,330.65Z" style="fill: rgb(235, 235, 235); transform-origin: 154.605px 402.365px;" id="elbx41utal6qw" class="animable"></path><path d="M197.8,323.94c-14.05,15.39-19.7,36.57-23.26,57.11-5,29.12-5.51,63.51-4,93l7.34.17A404.35,404.35,0,0,1,197.8,323.94Z" style="fill: rgb(235, 235, 235); transform-origin: 183.796px 399.08px;" id="elr0akpff0u7q" class="animable"></path><path d="M145.63,415.4c-1.62-7.09-3.46-14.31-7.52-20.36-5.47-8.17-14.38-13.33-23.36-17.35s-18.41-7.24-26.51-12.8c9,14.83,29.57,18.77,40,32.65,5.2,6.9,7.36,15.55,9.39,23.95,4.45,18.32,7.18,34.16,11.63,52.48h6A467.93,467.93,0,0,0,145.63,415.4Z" style="fill: rgb(235, 235, 235); transform-origin: 121.75px 419.43px;" id="el53b2hf9bu6u" class="animable"></path><path d="M183.25,474.08s5-56.9,8.78-67.34,39.05-39.31,38.71-37.95-26.49,32.94-30.23,39.39-10.18,65.9-10.18,65.9Z" style="fill: rgb(235, 235, 235); transform-origin: 206.996px 421.412px;" id="el6x41wg6t54t" class="animable"></path><path d="M393.22,302.15c-5.38,4.59-10.23,8.13-11.05,14.57-.3,2.39-.18,4.89-1,7.15-1.24,3.28-4.43,5.72-5,9.19-.64,4.07,2.64,8.09,1.73,12.12-.72,3.17-3.86,5.33-4.73,8.47-1.21,4.32,2.21,8.55,2.6,13,.29,3.23-1,6.36-1.66,9.54s-.72,7.78,1.87,9.73l10-1.89a5.89,5.89,0,0,1-1-5.71c.67-1.78,1.74-3.45,2-5.33.44-3.57-2.21-6.85-2.33-10.45-.15-4.18,3.1-7.79,3.49-12,.43-4.53-2.58-9-1.48-13.46.8-3.22,3.64-5.6,4.6-8.77.9-2.94.07-6.09-.51-9.11C389.49,312.72,390.37,308.58,393.22,302.15Z" style="fill: rgb(245, 245, 245); transform-origin: 383.066px 344.035px;" id="eld6g5qoqurdk" class="animable"></path><path d="M420.51,341.72c.13,2.22-1.6,4.19-3.59,5.17s-4.25,1.26-6.42,1.78-4.39,1.43-5.66,3.25c-1.45,2.09-1.42,5.06-3.24,6.83-2.51,2.44-7.29,1.41-9.4,4.2s-.23,7.1-2.64,9.38c-.92.87-2.23,1.16-3.34,1.77-3.05,1.67-4.31,7.55-2.48,10.51l10.31-2.09c2.38-.8,3.47-2.74,4-5.2s.93-5.18,2.83-6.83,5.18-1.73,7.21-3.5c3.34-2.92,1.91-9,5.16-12,1.64-1.52,4.05-1.84,5.9-3.08A7.17,7.17,0,0,0,420.51,341.72Z" style="fill: rgb(245, 245, 245); transform-origin: 402.467px 363.165px;" id="elyygi75chmsn" class="animable"></path><path d="M407.82,106.38C364.48,87.05,314.68,88.67,310,88.87a.55.55,0,0,1-.52-.28c-.8-1.39-5-8-21.22-26.62-18.64-21.39-32.89-26.32-37.83-28.51s-7.12-.55-9.19,3.29-.68,8.77,2.61,19.73C247,66.7,242,89.66,241.36,92.76a.57.57,0,0,1-.44.43l-82.19,18.58a.54.54,0,0,1-.58-.22c-4-5.44-15.05-8.17-18.16-8.84a.56.56,0,0,0-.68.65l2,12.35a.56.56,0,0,1-.44.65L102.33,125a.57.57,0,0,1-.68-.46c-2.35-12.4-7-18.66-13.79-29.47C75.61,75.7,56.18,60.84,34.1,54.81a.57.57,0,0,0-.55,1c11.61,11.49,17,27,17.39,43.52.31,12.92-3.22,26.29.93,38.52,3.6,10.6,12.53,18.76,16,29.4,3.75,11.46.6,24-4.36,35.08a.57.57,0,0,0,.38.79C74,205.58,85,200.56,91.65,192.55c6.83-8.19,9.81-18.94,11.08-29.53a107.45,107.45,0,0,0,.55-19,.55.55,0,0,1,.58-.6c15.29.6,35.09,3.83,39,4.49a.57.57,0,0,1,.44.77l-6.08,15.7a.57.57,0,0,0,.43.77c8.64,1.41,21.37-7.88,23.22-9.28a.57.57,0,0,1,.51-.09l8.41,2.48a.57.57,0,0,1,.37.78l-3.31,7.56a.57.57,0,0,0,.37.79c8,2,17.82-4.88,19.42-6a.56.56,0,0,1,.5-.09l74.51,21.6a.57.57,0,0,1,.27.93l-27.25,30.46a5.16,5.16,0,0,0,5,8.45c31.68-7.35,63.17-31.28,65.92-33.41a.61.61,0,0,1,.43-.11c1.51.23,11.09,1.23,49.66-2.23,42.76-3.84,100.33-40,102.52-45S453.33,126.66,407.82,106.38Z" style="fill: rgb(235, 235, 235); transform-origin: 245.902px 127.672px;" id="eli77skrosp1" class="animable"></path><path d="M421.42,160.66c-.15-3.84-3.46-7-7.11-8.16s-7.61-.85-11.43-.49l-102,9.43c-18.28,1.7-37,3.36-54.82-.85-10.48-2.48-20.49-6.94-31.16-8.34s-22.8,1-29.23,9.62l.17.09c.68-.46,1.07-.76,1.07-.76l75.66,21.93-14.37,16.06a106.71,106.71,0,0,0,26.06,6.38c2,.21,3.95.35,5.92.44a227.36,227.36,0,0,0,25.7-16.85s7.13,1.65,49.89-2.19a123.84,123.84,0,0,0,21.84-4.2L397.51,176c7.49-2.94,14.79-6.23,21.59-9.58A7.9,7.9,0,0,0,421.42,160.66Z" style="fill: rgb(245, 245, 245); transform-origin: 303.546px 178.846px;" id="elcykxg0fgt8u" class="animable"></path><path d="M230.4,217.24l53.28-59.39,51.54-1.48s-23.57,58.07-100.81,68.48A4.59,4.59,0,0,1,230.4,217.24Z" style="fill: rgb(235, 235, 235); transform-origin: 282.227px 190.629px;" id="ely0m334zj3q" class="animable"></path><path d="M338.49,126.43a36,36,0,0,1,.64,22,.12.12,0,0,0,.24.06,36.16,36.16,0,0,0-.64-22.09c-.05-.15-.29-.08-.24.07Z" style="fill: rgb(224, 224, 224); transform-origin: 339.639px 137.449px;" id="elqqde541igyg" class="animable"></path><path d="M343.63,124.58a66.25,66.25,0,0,1,1.43,25.28c0,.16.22.22.24.06a66.54,66.54,0,0,0-1.43-25.41.13.13,0,0,0-.24.07Z" style="fill: rgb(224, 224, 224); transform-origin: 344.773px 137.232px;" id="eleap8zir0zse" class="animable"></path><path d="M351,120.51a136.36,136.36,0,0,1,2.81,27.85.13.13,0,0,0,.25,0,136.41,136.41,0,0,0-2.82-27.92c0-.16-.27-.09-.24.07Z" style="fill: rgb(224, 224, 224); transform-origin: 352.529px 134.402px;" id="el09s6o52b5g2q" class="animable"></path><path d="M419.32,124.38a4.33,4.33,0,1,1-1.5-.19" style="fill: rgb(224, 224, 224); transform-origin: 418.034px 128.517px;" id="el2a1474nqnci" class="animable"></path><path d="M428.46,271.25c-3.95.95-7.71-2.26-11.77-2.58-.85-.07-1.92.16-2.13,1s.42,1.37,1,1.85a42,42,0,0,0,5,3.65,31.36,31.36,0,0,0-3.53,4.66c-.45.74-.86,1.74-.3,2.4s2,.25,2.83-.34l8.09-5.58a3.44,3.44,0,0,1-.91,3.15,10.13,10.13,0,0,1-2.78,2c3,1.71,6.51,2.24,9.92,2.74,4.22.62,8.54,1.23,12.74.48s8.35-3.14,10.11-7c-2-2.38-3.21-5.28-4.85-7.92s-3.88-5.13-6.88-5.9-6.28.37-9.27,1.44-6.31,2-9.28.92a4.91,4.91,0,0,0-1.38-.43,1.17,1.17,0,0,0-1.2.63,1.52,1.52,0,0,0,.26,1.24,7.78,7.78,0,0,0,4.86,3.58" style="fill: rgb(235, 235, 235); transform-origin: 435.624px 274.317px;" id="eltb4b1sct6k" class="animable"></path><path d="M434.16,276.85a55.48,55.48,0,0,0-.89-10.84,17.49,17.49,0,0,1-2.28.5c.69,4.49,1.43,9.6,1.71,14.14C433.93,279.93,434.14,278.27,434.16,276.85Z" style="fill: rgb(250, 250, 250); transform-origin: 432.579px 273.33px;" id="el1od7ed5iwyu" class="animable"></path><path d="M438.18,264.36l-2.26.76q.79,7.28,1.58,14.54a1.89,1.89,0,0,0,.19.76.62.62,0,0,0,.66.32c.26-.07.4-.34.5-.59A19.37,19.37,0,0,0,438.18,264.36Z" style="fill: rgb(250, 250, 250); transform-origin: 438.068px 272.555px;" id="el0e325p1slh2q" class="animable"></path><path d="M445.56,264c0,3.82-.15,7.89-.51,11.7a12.64,12.64,0,0,1-.94,4.22c-.17.35-.44.73-.83.74-.59,0-.79-.76-.82-1.34-.24-5.3-.38-10.46-.4-15.75A8.66,8.66,0,0,1,445.56,264Z" style="fill: rgb(250, 250, 250); transform-origin: 443.81px 272.1px;" id="el1jbb221iulai" class="animable"></path><path d="M449,266.1a88.79,88.79,0,0,0,0,11.14c.05.49.22,1.11.71,1.18s.87-.62,1-1.17c.65-3,.91-4.14,1.36-7.17A18.47,18.47,0,0,0,449,266.1Z" style="fill: rgb(250, 250, 250); transform-origin: 450.448px 272.262px;" id="elykx3qdd640l" class="animable"></path><path d="M453.42,276.22a.48.48,0,0,1-.51.45.49.49,0,0,1-.45-.51.48.48,0,0,1,.51-.45A.47.47,0,0,1,453.42,276.22Z" style="fill: rgb(224, 224, 224); transform-origin: 452.941px 276.19px;" id="elmoeftw3pr7a" class="animable"></path><path d="M293.64,373.12a2.46,2.46,0,0,1-1.07-1.7c0-1.35,2-1.67,3.23-1.21,3.56,1.28,6.32,5.08,10.09,4.73a12.39,12.39,0,0,1,2.63-.29c1.78.22,2.85,2,3.94,3.43s3,2.76,4.54,1.78c.84-.54,1.15-1.6,1.68-2.45s1.69-1.56,2.49-1a2.5,2.5,0,0,1,.66,1.88c.37,4.82,3.07,9.22,6.54,12.58s7.69,5.84,11.86,8.28c-2.2-9-13.37-13.37-16-22.25-.63-2.14-.7-4.41-1.24-6.58-1.38-5.45-6.6-10.16-12.18-9.45-1,.13-2.14.4-3-.18-1.29-.88-.71-3.11.66-3.86s3.05-.52,4.59-.25a7.48,7.48,0,0,0-7.84-3.13c-1.46.35-2.83,1.16-4.33,1.15s-3.13-1.48-2.51-2.85c1-2.17,5.13-.28,6.34-2.33.81-1.37-.58-2.95-1.77-4s-2.39-2.87-1.31-4,3.1,0,4.27,1.17L325,362c1.85,1.87,3.77,3.88,4.35,6.45a22.49,22.49,0,0,1,0,5.44,6.93,6.93,0,0,0,1.5,5.1c1.27,1.3,3.81,1.41,4.71-.17a4.64,4.64,0,0,0,.27-2.84c-.44-3.92-.95-8-3.19-11.26s-5.78-5.24-7.13-8.79c-1-2.73-.69-6.18-2.89-8.09a10.35,10.35,0,0,0-3.87-1.68,5.56,5.56,0,0,1-3.46-2.28c-.68-1.25-.1-3.2,1.31-3.36,2-.22,3.29,2.92,5.19,2.36,1.19-.35,1.46-2.06.81-3.11a6.14,6.14,0,0,0-3-2.08L313.49,335c-1.46-.62-3.15-1.56-3.21-3.14s1.64-2.65,3.16-2.59a8.3,8.3,0,0,1,4.16,1.78,8.65,8.65,0,0,1-1.59-3,2.9,2.9,0,0,1,1-3.07c1.42-.93,3.38.16,4.24,1.62s1.06,3.22,1.8,4.75,2.42,2.88,4,2.32c1.42-.49,2-2.33,1.59-3.77a7.62,7.62,0,0,0-2.72-3.52,14.28,14.28,0,0,1-3.2-3.15,3.76,3.76,0,0,1-.07-4.23c.95-1.17,3.22-1,3.67.39-.35-1.85-.3-4.39,1.52-4.88s3.05,1.48,3.65,3.14a34.48,34.48,0,0,1,1.82,16.2c-.43,3.33-1.35,6.59-1.68,9.93s0,6.9,1.8,9.72a48.71,48.71,0,0,0,4,4.61,17.83,17.83,0,0,1,3.69,15.29c1.18-.3,1.77-1.59,2.41-2.63s1.93-2,3-1.41a1.94,1.94,0,0,1,.54,2.4,7.55,7.55,0,0,1-1.66,2.09,15,15,0,0,0-4,11.86c2.21-.49,2.69-4.6,4.91-4.15,1.46.29,1.62,2.43.81,3.67s-2.18,2.06-2.9,3.35a4.28,4.28,0,0,0,1.85,5.73c2,.95,4.16-.52,5.58-2.27a16.64,16.64,0,0,0,3.37-12.3c-.07-3.71-2.69-6.85-4-9.36-1.65-3.07-4.91-5.09-6.35-8.27s-1.08-7.54-3.69-10c-1.3-1.24-3.08-1.76-4.71-2.5s-3.28-1.89-3.66-3.64,1.39-3.83,3-3.1c.81.35,1.43,1.28,2.3,1.16s1.25-1.29.95-2.14a11,11,0,0,0-1.48-2.22,2.17,2.17,0,0,1-.21-2.49,1.83,1.83,0,0,1,2.58.08,5.35,5.35,0,0,1,1.23,2.58c.69,2.6,1.39,5.19,2.09,7.79.18.68.51,1.5,1.21,1.58s1.18-.58,1.47-1.19a12.16,12.16,0,0,0,.26-9.42,17.42,17.42,0,0,0-5.82-7.58,20.74,20.74,0,0,1-3.48-2.91,4.41,4.41,0,0,1-1-4.21c.53-1.42,2.5-2.25,3.68-1.29,1,.83.95,2.35,1.28,3.61.74,2.83,3.57,4.49,5.64,6.57a14.86,14.86,0,0,1,3.26,15.47c-.65,1.7-1.61,3.26-2.2,5a6.4,6.4,0,0,0,.16,5.27c.92,1.57,3.2,2.38,4.65,1.29,1.17-.89,1.38-2.57,1.23-4a14.19,14.19,0,0,1-.28-4.39c.3-1.44,1.68-2.81,3.1-2.41a3.06,3.06,0,0,1,1.83,2.19c1.34,4.4-1.86,8.84-2.37,13.41a11.84,11.84,0,0,0,3.46,9.67,6.65,6.65,0,0,1,1.69-3.67c1-.9,3-.85,3.5.41a2.9,2.9,0,0,1-.2,2.15,11.26,11.26,0,0,1-3.9,4.92c1.62,3.26.78,7.23-.84,10.49s-4,6.12-5.52,9.41-1.88,7.93-.08,11.09L338.4,414.4a8.6,8.6,0,0,0-8.25-5c-1.8.12-3.55.83-5.35.74s-3.78-1.49-3.53-3.27a3,3,0,0,1,2.2-2.28,8.82,8.82,0,0,1,3.32-.18,2.15,2.15,0,1,1,1.63-3.95c1,.52,1.41,1.72,2.19,2.53s2.52.94,2.73-.17a2,2,0,0,0-.63-1.51c-1.84-2.28-3.81-4.67-6.56-5.71-5.67-2.14-12.5,2.16-17.89-.61a3.4,3.4,0,0,1-2-2.5c-.16-1.9,2.18-3.07,4.07-2.91s3.71,1.08,5.61,1,3.91-2,3-3.7a3,3,0,0,0-3.12-1.22c-1.18.15-2.31.64-3.49.72a2.81,2.81,0,0,1-2.95-1.52,1.62,1.62,0,0,1,1.36-2A50.38,50.38,0,0,1,293.64,373.12Z" style="fill: rgb(235, 235, 235); transform-origin: 328.52px 364.417px;" id="elstgclfcfi7f" class="animable"></path><polygon points="273.53 473.47 318.89 419.95 350.06 410.67 371.29 382.29 396.98 378.08 423.8 422.99 431.62 474.4 273.53 473.47" style="fill: rgb(235, 235, 235); transform-origin: 352.575px 426.24px;" id="elox4mxikmli8" class="animable"></polygon></g><g id="freepik--Floor--inject-140" class="animable" style="transform-origin: 251.425px 474.77px;"><path d="M484.29,474.77c0,.14-104.27.26-232.85.26s-232.88-.12-232.88-.26,104.25-.26,232.88-.26S484.29,474.63,484.29,474.77Z" style="fill: rgb(38, 50, 56); transform-origin: 251.425px 474.77px;" id="elp4quus3u9q" class="animable"></path></g><g id="freepik--Crab--inject-140" class="animable" style="transform-origin: 258.3px 449.543px;"><path d="M274.13,451.63A14.72,14.72,0,0,0,277.5,449a5.17,5.17,0,0,0,1.39-3.93c-.08-.62-.32-1.22-.42-1.84a16.31,16.31,0,0,1,0-2.32,9.78,9.78,0,0,0-.65-3.5,3.43,3.43,0,0,0-1.39-1.89,2.56,2.56,0,0,0-3.18.89,4.2,4.2,0,0,0-.45,3.48,12.51,12.51,0,0,0,1.59,3.24,6.62,6.62,0,0,0-.92,5.94" style="fill: #E346D7; transform-origin: 275.757px 443.46px;" id="ellxnmkyi1vng" class="animable"></path><path d="M275.16,437.53a3.86,3.86,0,0,0,2.52-2,5.66,5.66,0,0,0,.51-3.25A7.6,7.6,0,0,0,270,425.5a1.12,1.12,0,0,0-.85.36,1.15,1.15,0,0,0,0,1l2.17,6.39a13.47,13.47,0,0,1-5-3.69,7.7,7.7,0,0,0,.06,5.59,6.05,6.05,0,0,0,4.2,3.55,5,5,0,0,0,5.05-1.91" style="fill: #E346D7; transform-origin: 272.035px 432.141px;" id="el9rotk4hxp9n" class="animable"></path><path d="M274.67,454.33c1.73-2,5.09-2.22,6.37-4.54.41-.75.61-1.73,1.37-2.13.49-.25,1.13-.21,1.52-.6a2.26,2.26,0,0,0,.45-1.09,6,6,0,0,1,1.46-2.65,2.13,2.13,0,0,1,2.2-.76,2.09,2.09,0,0,1,1,1.95,5.47,5.47,0,0,1-3.17,5,4.48,4.48,0,0,1-.76,2.77,8.92,8.92,0,0,1-3.27,2.58,15.61,15.61,0,0,1-3.23,1.52A8.15,8.15,0,0,1,273,456" style="fill: #E346D7; transform-origin: 281.023px 449.602px;" id="elmjlnfu54pbr" class="animable"></path><path d="M272.66,459.24a9.94,9.94,0,0,1,4.09-.88,3.38,3.38,0,0,1,3.14,2.36,6.8,6.8,0,0,1,2.37,1.58,3.8,3.8,0,0,1,1.07,2.59c0,.51-.15,1-.19,1.51a12.68,12.68,0,0,0,.54,3.38,4.24,4.24,0,0,1-.17,2.57,2,2,0,0,1-2.12,1.14,2.37,2.37,0,0,1-1.45-1.54,5.44,5.44,0,0,1,0-4,2.82,2.82,0,0,1-2.44-2,8.38,8.38,0,0,1-.18-3.35,6.63,6.63,0,0,1-5.92-2.11" style="fill: #E346D7; transform-origin: 277.602px 465.937px;" id="elfn83e19x995" class="animable"></path><path d="M270.21,461.47a7.25,7.25,0,0,1,1.66.37,2.4,2.4,0,0,1,1.29,1.05,1.49,1.49,0,0,1-.09,1.61,3.85,3.85,0,0,1,1.28,2.31,7,7,0,0,1-.11,2.69,3.79,3.79,0,0,1-.87,1.93,1.65,1.65,0,0,1-1.95.38,2.22,2.22,0,0,1-.85-1.79,18.6,18.6,0,0,1,.27-4.34,4.22,4.22,0,0,1-3.28-2.78" style="fill: #E346D7; transform-origin: 270.996px 466.723px;" id="elsodto2wnw79" class="animable"></path><path d="M274.44,443.48c0-.06.21-.31.75-.49a3,3,0,0,1,3.65,1.67c.21.52.18.88.12.89s-.18-.3-.45-.72a3.36,3.36,0,0,0-1.39-1.24,3.22,3.22,0,0,0-1.85-.24C274.78,443.42,274.48,443.55,274.44,443.48Z" style="fill: rgb(38, 50, 56); transform-origin: 276.722px 444.201px;" id="el8u62ea0wacu" class="animable"></path><path d="M271.57,438.39a30.44,30.44,0,0,0,3-.89,30.81,30.81,0,0,0,2.71-1.63,5.76,5.76,0,0,1-5.74,2.52Z" style="fill: rgb(38, 50, 56); transform-origin: 274.41px 437.168px;" id="elyx8h5assjr" class="animable"></path><path d="M283.61,447.53c0-.15,1-.12,1.75.75s.64,1.88.5,1.84-.26-.79-.89-1.5S283.59,447.67,283.61,447.53Z" style="fill: rgb(38, 50, 56); transform-origin: 284.785px 448.791px;" id="elvhprsytahql" class="animable"></path><path d="M279.46,451.39c0-.07.25-.15.66-.08a2.43,2.43,0,0,1,1.42.77,2.46,2.46,0,0,1,.64,1.48c0,.41-.08.66-.14.65s-.15-1-.89-1.78S279.44,451.54,279.46,451.39Z" style="fill: rgb(38, 50, 56); transform-origin: 280.82px 452.747px;" id="ell65hebx5o7e" class="animable"></path><path d="M277.59,462.86c-.15,0-.19-.95.6-1.72s1.75-.73,1.73-.59-.74.32-1.36,1S277.73,462.88,277.59,462.86Z" style="fill: rgb(38, 50, 56); transform-origin: 278.712px 461.665px;" id="elmozwly1zt7" class="animable"></path><path d="M280.23,468.42c-.06,0,0-.24.14-.52a2.11,2.11,0,0,1,1-.77,2.09,2.09,0,0,1,1.27-.06c.31.09.47.24.44.3s-.75-.05-1.53.25S280.36,468.49,280.23,468.42Z" style="fill: rgb(38, 50, 56); transform-origin: 281.645px 467.712px;" id="el8d4b5xygw2p" class="animable"></path><path d="M270.6,466.2c-.06,0-.11-.21,0-.51a1.75,1.75,0,0,1,.72-.95,1.8,1.8,0,0,1,1.17-.29c.31,0,.47.16.45.22s-.71.08-1.33.5S270.74,466.23,270.6,466.2Z" style="fill: rgb(38, 50, 56); transform-origin: 271.738px 465.321px;" id="elwh4nnaqfn7b" class="animable"></path><path d="M242.1,453a15.06,15.06,0,0,1,5.12-9.26,16.52,16.52,0,0,1,10.86-4.06c10.33,0,15.64,6.71,16.86,10.27s.94,9.45-3.68,12.14-13.48,5-19.25,3-10.68-6.9-9.92-12Z" style="fill: #E346D7; transform-origin: 258.785px 452.763px;" id="elcdshqaiw6s" class="animable"></path><path d="M275.46,453.8a6.34,6.34,0,0,1-1.24.53c-.8.31-2,.69-3.48,1.1a51.31,51.31,0,0,1-24,.64,35.42,35.42,0,0,1-3.54-.91,5.93,5.93,0,0,1-1.27-.46,7.15,7.15,0,0,1,1.32.26c.84.21,2.05.47,3.56.75a56.84,56.84,0,0,0,23.8-.64c1.5-.36,2.7-.68,3.52-.94A7.7,7.7,0,0,1,275.46,453.8Z" style="fill: rgb(38, 50, 56); transform-origin: 258.695px 455.496px;" id="elrelj19r63eg" class="animable"></path><path d="M255.94,436.8a.69.69,0,1,1-.69-.68A.68.68,0,0,1,255.94,436.8Z" style="fill: rgb(38, 50, 56); transform-origin: 255.25px 436.81px;" id="els9dd6nahm3f" class="animable"></path><path d="M260.15,437.48a.69.69,0,1,1-.68-.68A.69.69,0,0,1,260.15,437.48Z" style="fill: rgb(38, 50, 56); transform-origin: 259.46px 437.49px;" id="elal2uhgqr8tc" class="animable"></path><path d="M242.47,451.73a15,15,0,0,1-3.37-2.65,5.17,5.17,0,0,1-1.39-3.93c.08-.62.32-1.22.42-1.84a16.31,16.31,0,0,0,0-2.32,10,10,0,0,1,.65-3.5,3.43,3.43,0,0,1,1.39-1.89,2.56,2.56,0,0,1,3.18.89,4.2,4.2,0,0,1,.45,3.48,12.45,12.45,0,0,1-1.59,3.23,6.64,6.64,0,0,1,.92,5.95" style="fill: #E346D7; transform-origin: 240.843px 443.549px;" id="elx05sumt0rga" class="animable"></path><path d="M241.44,437.63a3.82,3.82,0,0,1-2.51-2,5.67,5.67,0,0,1-.52-3.25,7.6,7.6,0,0,1,8.17-6.75,1.05,1.05,0,0,1,.85.36,1.15,1.15,0,0,1,0,1l-2.17,6.39a13.39,13.39,0,0,0,5-3.69,7.67,7.67,0,0,1-.06,5.58,6,6,0,0,1-4.2,3.56,5,5,0,0,1-5.05-1.91" style="fill: #E346D7; transform-origin: 244.557px 432.272px;" id="elioec3bzve6" class="animable"></path><path d="M241.93,454.43c-1.73-2-5.09-2.22-6.37-4.54-.41-.75-.61-1.73-1.37-2.13-.49-.25-1.13-.21-1.52-.6a2.26,2.26,0,0,1-.45-1.09,6,6,0,0,0-1.46-2.65,2.13,2.13,0,0,0-2.2-.76,2.09,2.09,0,0,0-1,1.95,5.45,5.45,0,0,0,3.17,5,4.49,4.49,0,0,0,.76,2.78,9,9,0,0,0,3.27,2.58,15.61,15.61,0,0,0,3.23,1.52,8.21,8.21,0,0,0,5.59-.32" style="fill: #E346D7; transform-origin: 235.567px 449.715px;" id="el08v9umpzerug" class="animable"></path><path d="M243.94,459.34a9.9,9.9,0,0,0-4.09-.88,3.39,3.39,0,0,0-3.14,2.36,6.8,6.8,0,0,0-2.37,1.58,3.78,3.78,0,0,0-1.07,2.59c0,.51.15,1,.19,1.51a12.68,12.68,0,0,1-.54,3.38,4.21,4.21,0,0,0,.17,2.56,2,2,0,0,0,2.12,1.15,2.39,2.39,0,0,0,1.45-1.54,5.44,5.44,0,0,0,0-4,2.82,2.82,0,0,0,2.44-2,8.38,8.38,0,0,0,.18-3.35,6.63,6.63,0,0,0,5.92-2.11" style="fill: #E346D7; transform-origin: 238.998px 466.036px;" id="elftxp306t8fb" class="animable"></path><path d="M246.39,461.57a7.8,7.8,0,0,0-1.66.36,2.46,2.46,0,0,0-1.29,1.06,1.49,1.49,0,0,0,.09,1.61,3.82,3.82,0,0,0-1.28,2.31,7,7,0,0,0,.11,2.69,3.79,3.79,0,0,0,.87,1.93,1.65,1.65,0,0,0,2,.38,2.22,2.22,0,0,0,.85-1.79,18.69,18.69,0,0,0-.27-4.35A4.21,4.21,0,0,0,249,463" style="fill: #E346D7; transform-origin: 245.584px 466.832px;" id="elt9mznqvxats" class="animable"></path><path d="M242.16,443.58c0,.07-.34-.06-.83-.13a3.22,3.22,0,0,0-1.85.24,3.3,3.3,0,0,0-1.39,1.24c-.27.42-.37.73-.45.72s-.09-.37.12-.89a3,3,0,0,1,3.65-1.67C242,443.27,242.19,443.52,242.16,443.58Z" style="fill: rgb(38, 50, 56); transform-origin: 239.875px 444.301px;" id="el3cj14g1bif9" class="animable"></path><path d="M245,438.49a5.76,5.76,0,0,1-5.74-2.52c.11-.11,1.11.94,2.71,1.63A30.44,30.44,0,0,0,245,438.49Z" style="fill: rgb(38, 50, 56); transform-origin: 242.13px 437.264px;" id="elcwputaoz2fu" class="animable"></path><path d="M233,447.63c0,.14-.75.37-1.36,1.09s-.74,1.51-.89,1.5-.26-1,.5-1.84S233,447.48,233,447.63Z" style="fill: rgb(38, 50, 56); transform-origin: 231.821px 448.893px;" id="elmro8q4l1zwj" class="animable"></path><path d="M237.14,451.49c0,.14-1,.23-1.69,1s-.74,1.78-.88,1.78-.17-.24-.15-.65a2.44,2.44,0,0,1,.64-1.48,2.48,2.48,0,0,1,1.42-.78C236.89,451.34,237.14,451.42,237.14,451.49Z" style="fill: rgb(38, 50, 56); transform-origin: 235.777px 452.813px;" id="eldjqyvl64vsn" class="animable"></path><path d="M239,463c-.14,0-.32-.73-1-1.35s-1.38-.81-1.36-1,.95-.2,1.73.59S239.16,463,239,463Z" style="fill: rgb(38, 50, 56); transform-origin: 237.861px 461.771px;" id="elnyi3tuvsybo" class="animable"></path><path d="M236.37,468.52c-.13.07-.54-.53-1.32-.8s-1.47-.11-1.53-.25.13-.21.44-.3a2,2,0,0,1,1.27.06,2.11,2.11,0,0,1,1,.77C236.41,468.28,236.43,468.49,236.37,468.52Z" style="fill: rgb(38, 50, 56); transform-origin: 234.955px 467.81px;" id="elkcpgaf8on9i" class="animable"></path><path d="M246,466.3c-.14,0-.36-.62-1-1s-1.31-.36-1.33-.5.14-.18.45-.22a1.8,1.8,0,0,1,1.17.29,1.75,1.75,0,0,1,.72,1C246.11,466.09,246.06,466.29,246,466.3Z" style="fill: rgb(38, 50, 56); transform-origin: 244.868px 465.436px;" id="el4lzq989av9t" class="animable"></path><path d="M256.6,440.3c-.13.07-.58-.69-1-1.69s-.65-1.86-.52-1.9.59.71,1,1.69A4.12,4.12,0,0,1,256.6,440.3Z" style="fill: rgb(38, 50, 56); transform-origin: 255.822px 438.506px;" id="el3poc4pobf5y" class="animable"></path><path d="M259.31,440.28c-.15,0-.29-.63-.21-1.42s.34-1.39.48-1.36.11.66,0,1.41S259.45,440.27,259.31,440.28Z" style="fill: rgb(38, 50, 56); transform-origin: 259.375px 438.889px;" id="el41ba1dp41os" class="animable"></path><g id="el64ss6mw76ed"><g style="opacity: 0.2; transform-origin: 258.423px 456.798px;" class="animable" id="elw6pzwzg1xae"><path d="M243.37,455c0,.6.66,1,1.21,1.21a33.84,33.84,0,0,0,26.26.4,7.19,7.19,0,0,0,2.43-1.44c.14-.14.27-.35.17-.51s-.38-.15-.58-.09a48.08,48.08,0,0,1-14.65,2A88.07,88.07,0,0,1,243.46,455" id="el4lec6oq73u" class="animable" style="transform-origin: 258.423px 456.798px;"></path></g></g></g><g id="freepik--Plants--inject-140" class="animable" style="transform-origin: 251.205px 400.885px;"><path d="M143.86,398a3.45,3.45,0,0,0,.61-2.77c-.66-1.8-3.41-1.29-4.89-.07-4.13,3.41-6,9.8-11.2,11.15a17.1,17.1,0,0,0-3.64.87c-2.27,1.14-2.85,4-3.61,6.46s-2.73,5.14-5.21,4.55c-1.38-.33-2.3-1.58-3.42-2.46s-3-1.27-3.77-.09c-.54.81-.24,1.88,0,2.82,1.81,6.6.31,13.77-2.7,19.92s-7.47,11.47-11.86,16.72c-1.37-13,11.43-24.24,10.64-37.33-.19-3.16-1.18-6.22-1.48-9.37-.78-7.93,3.93-16.71,11.71-18.44,1.42-.32,3-.5,3.9-1.67,1.31-1.8-.53-4.49-2.72-4.84s-4.32.77-6.25,1.87a10.63,10.63,0,0,1,9-7.94c2.11-.22,4.33.2,6.33-.54s3.47-3.47,2-5c-2.35-2.43-7,2.08-9.58-.08-1.73-1.44-.65-4.21.45-6.18s1.81-5-.19-6-4.15,1.47-5.14,3.6L96.67,398.07c-1.57,3.39-3.17,7-2.71,10.69.32,2.56,1.6,4.88,2.54,7.29s1.51,5.17.44,7.52-4.41,3.7-6.37,2a6.53,6.53,0,0,1-1.72-3.65c-1.28-5.44-2.56-11.15-1.13-16.55,1.38-5.21,5.2-9.77,5.29-15.15.08-4.13-2-8.57,0-12.17,1-1.76,2.75-2.88,4.36-4.09s3.21-2.72,3.52-4.71-1.41-4.31-3.36-3.84c-2.73.65-3,5.46-5.79,5.62-1.75.1-2.94-2-2.57-3.75s1.72-3,3-4.21l7-6.46c1.65-1.53,3.45-3.6,2.76-5.74s-3.44-2.75-5.45-1.94-3.41,2.63-4.7,4.37a12.16,12.16,0,0,0,.68-4.8,4.13,4.13,0,0,0-2.83-3.61c-2.34-.55-4.44,1.84-4.88,4.2s.12,4.81-.13,7.2-1.85,5-4.25,5c-2.14,0-3.79-2.15-3.92-4.28s.85-4.16,1.93-6a19.86,19.86,0,0,0,2.76-5.74c.45-2.08-.11-4.56-1.93-5.67s-4.79.15-4.7,2.28c-.42-2.64-1.7-6-4.36-5.79s-3.37,3.43-3.38,5.94a48.9,48.9,0,0,0,5.34,22.48c2.17,4.24,5,8.15,7,12.45s3.33,9.18,2.25,13.82c-.66,2.82-2.15,5.37-3.16,8.09a25.23,25.23,0,0,0,2.4,22.16c-1.73.16-3.12-1.27-4.48-2.35s-3.55-1.79-4.66-.45a2.73,2.73,0,0,0,.42,3.45,10.5,10.5,0,0,0,3.21,2,21.33,21.33,0,0,1,11,13.93c-3.19.4-5.8-4.85-8.55-3.19-1.8,1.08-1,4,.68,5.28s3.89,1.71,5.47,3.08a6.06,6.06,0,0,1,.27,8.53c-2.26,2.25-5.79,1.3-8.52-.35C66.7,445.75,65,436.2,65,436.2c-1.68-5,.31-10.43.91-14.42.73-4.89,4.12-9.14,4.51-14.07.4-5.1-2.18-10.58.12-15.16,1.13-2.26,3.27-3.81,5.09-5.57s3.46-4.1,3.13-6.61-3.69-4.45-5.52-2.7c-.9.86-1.29,2.39-2.51,2.66s-2.28-1.14-2.29-2.41a15.08,15.08,0,0,1,.92-3.67c.31-1.23.17-2.77-.92-3.43s-2.78.13-3.4,1.35a7.62,7.62,0,0,0-.4,4q.46,5.7.94,11.39c.09,1,0,2.25-.86,2.69s-1.85-.21-2.54-.88A17.3,17.3,0,0,1,57.34,377a24.79,24.79,0,0,1,4.13-12.9,29.52,29.52,0,0,0,3.25-5.55c.75-2,.75-4.47-.64-6.11s-4.41-1.8-5.52,0c-1,1.58-.14,3.59,0,5.43.36,4.14-2.62,7.7-4.38,11.46a21.09,21.09,0,0,0,3,22.21c1.68,1.95,3.72,3.57,5.33,5.57s2.78,4.59,2.3,7.11-3.12,4.7-5.58,3.94c-2-.62-3.08-2.76-3.57-4.79s-.65-4.2-1.73-6-3.6-2.95-5.29-1.73a4.31,4.31,0,0,0-1.4,3.79c.32,6.52,6.71,10.9,9.6,16.76a16.82,16.82,0,0,1,0,14.56c-1-1.64-2.2-3.38-4-4.09s-4.38.29-4.47,2.23a4.11,4.11,0,0,0,1.29,2.76,16,16,0,0,0,7.56,4.7c-.59,5.12,2.43,10,6.15,13.59s8.22,6.27,11.88,9.91,6.3,9.68,5.42,14.76l23.19-.16a12.15,12.15,0,0,1,8.59-10.66c2.46-.7,5.13-.6,7.49-1.59s4.34-3.79,3.14-6.05a4.32,4.32,0,0,0-4-2,12.92,12.92,0,0,0-4.51,1.35,3,3,0,1,0-4.07-4.49c-1.07,1.19-1.06,3-1.71,4.44s-2.91,2.46-3.72,1.08a2.86,2.86,0,0,1,.11-2.32c1.37-3.93,2.86-8.05,6-10.76,6.53-5.57,17.71-3.11,23.57-9.39,1.09-1.16,1.94-2.77,1.53-4.3-.7-2.61-4.38-3.06-6.83-1.93s-4.42,3.21-7,4-6.19-.83-5.81-3.5c.24-1.67,1.94-2.75,3.59-3.12s3.38-.25,5-.7,3.23-1.76,3.19-3.45a2.29,2.29,0,0,0-2.75-2A71.55,71.55,0,0,0,143.86,398Z" style="fill: rgb(69, 90, 100); transform-origin: 95.8725px 405.345px;" id="eldnbh9a0yp4s" class="animable"></path><path d="M445.18,327a51.72,51.72,0,0,0-30.91,21.5c-7.11,10.71-10.38,30.08-8.23,42.75l-.09.48c.66-4.53,4.81-7.68,8.87-9.81s8.57-3.93,11.25-7.65c2.83-3.94,3-9.19,2.51-14s-1.39-9.76-.28-14.49C430.26,337.31,438,331.73,445.18,327ZM415.5,374.18a1.59,1.59,0,0,1,0-3.17h.27a1.59,1.59,0,0,1-.24,3.16Zm8.78-10.92a7.53,7.53,0,0,0-1.7.71c-.89.76-.49,2.29-1.16,3.25a2,2,0,0,1-2.61.47,3,3,0,0,1-1.39-2.43,6.16,6.16,0,0,1,.61-2.82,12.78,12.78,0,0,1,5.44-6h0l.15-.1-.05.05a.77.77,0,0,1,.75.05,2,2,0,0,1,.65,1,8.62,8.62,0,0,1,.77,3.12A2.94,2.94,0,0,1,424.28,363.26Z" style="fill: rgb(69, 90, 100); transform-origin: 425.284px 359.365px;" id="eleq1mewktc4" class="animable"></path><path d="M397.46,461.9a20.7,20.7,0,0,1,1.46-6.09,6.86,6.86,0,0,1,4.58-4c1.55-.31,3.15.12,4.73.13,3.35,0,6.38-1.82,9.38-3.31s6.55-2.69,9.63-1.38c-3.41,1.2-6,4-8.64,6.44s-6,4.71-9.59,4.41c-1.37-.12-2.68-.6-4-.82a4.86,4.86,0,0,0-3.91.78,10.94,10.94,0,0,0-1.66,2.35c-.53.79-1,1.54-1.94,1.47" style="fill: rgb(69, 90, 100); transform-origin: 412.35px 454.294px;" id="elos15nj5fam" class="animable"></path><path d="M403.48,410.66c1.44-4.28,2.47-8.28,6.36-10.58,4.63-2.74,10.64-1.18,15.77-2.8,3-.95,5.53-2.93,8-4.87l21.26-16.76c1,2.82-.35,6-2.27,8.29s-4.39,4.15-6.09,6.62c-4,5.85-3.4,14.56-8.89,19.06-3.33,2.74-8,3.05-12.31,2.56s-8.53-1.63-12.83-1.35-8.29,3.43-11.35,6.45" style="fill: rgb(69, 90, 100); transform-origin: 428.169px 396.465px;" id="el34mpli0d726" class="animable"></path><path d="M417.73,353.62s-.07.1-.22.26l-.69.71a14.09,14.09,0,0,0-1.07,1.19,18.58,18.58,0,0,0-1.36,1.71,36.73,36.73,0,0,0-5.71,12.6,68.2,68.2,0,0,0-1.72,9.46c-.38,3.43-.57,7.13-.77,11s-.41,8-.95,12.21a51.69,51.69,0,0,1-3.12,12.79c-1.67,4.23-4.06,8-6,11.7A33.22,33.22,0,0,0,392,438.64a30.2,30.2,0,0,0,.68,10.91,42,42,0,0,0,3.3,9,114.85,114.85,0,0,0,7.18,11.95l2.12,3.15c.22.35.4.62.54.83a1.36,1.36,0,0,1,.17.29,1.45,1.45,0,0,1-.21-.26l-.59-.8-2.2-3.1a104.56,104.56,0,0,1-7.34-11.89,41.57,41.57,0,0,1-3.39-9.07,30.55,30.55,0,0,1-.74-11.07A33.53,33.53,0,0,1,395.63,427c2-3.76,4.36-7.48,6-11.65a51.94,51.94,0,0,0,3.11-12.66c.54-4.2.76-8.29,1-12.18s.42-7.6.83-11.05a67.19,67.19,0,0,1,1.78-9.51,36.07,36.07,0,0,1,5.91-12.62,19.66,19.66,0,0,1,1.4-1.69,11.59,11.59,0,0,1,1.12-1.16l.72-.68Z" style="fill: rgb(38, 50, 56); transform-origin: 404.523px 414.195px;" id="elh7rji0gqhhq" class="animable"></path><path d="M446.41,385s-.67.5-1.69,1.6a21.26,21.26,0,0,0-3.42,5.31c-1.19,2.41-2.2,5.48-4,8.6a15.6,15.6,0,0,1-3.67,4.3A9.45,9.45,0,0,1,428,407a17.62,17.62,0,0,1-5.93-1.27,18,18,0,0,0-5.38-1.12,14.48,14.48,0,0,0-8.78,2.64,14.89,14.89,0,0,0-4.23,4.63c-.76,1.3-1,2.1-1.07,2.08a2.21,2.21,0,0,1,.17-.58,11.71,11.71,0,0,1,.72-1.59,14.58,14.58,0,0,1,4.19-4.84,14.75,14.75,0,0,1,9-2.82,18.21,18.21,0,0,1,5.53,1.12,17.61,17.61,0,0,0,5.76,1.23,9,9,0,0,0,5.35-2.07,15.2,15.2,0,0,0,3.57-4.15c1.81-3,2.86-6.1,4.1-8.51a20.05,20.05,0,0,1,3.6-5.29,11.82,11.82,0,0,1,1.33-1.14A2.18,2.18,0,0,1,446.41,385Z" style="fill: rgb(38, 50, 56); transform-origin: 424.51px 399.48px;" id="el02w5ppkvyo" class="animable"></path><path d="M418.93,451.19a3,3,0,0,1-.63.86,10.32,10.32,0,0,1-2.21,1.87,11.63,11.63,0,0,1-4,1.58,11.24,11.24,0,0,1-2.56.18,18,18,0,0,1-2.7-.37,14.49,14.49,0,0,0-2.63-.29,5.11,5.11,0,0,0-2.3.57,7.18,7.18,0,0,0-2.79,3,19.76,19.76,0,0,0-1.14,2.6,3.64,3.64,0,0,1-.42,1,4.09,4.09,0,0,1,.22-1,16.35,16.35,0,0,1,1-2.71,7.31,7.31,0,0,1,2.89-3.21,5.46,5.46,0,0,1,2.52-.66,14.07,14.07,0,0,1,2.73.29,18.19,18.19,0,0,0,2.64.37A10.27,10.27,0,0,0,412,455a11.51,11.51,0,0,0,3.9-1.42A18.29,18.29,0,0,0,418.93,451.19Z" style="fill: rgb(38, 50, 56); transform-origin: 408.24px 456.69px;" id="el4h0zggolyjm" class="animable"></path><path d="M430.34,417.28c-2.2,2.8-6,3.7-9.56,4.06s-7.26.4-10.39,2.11c-3.67,2-6,6.09-9.93,7.55-4.22,1.58-9.87,0-12.7,3.53a6.93,6.93,0,0,0-.65,6.78c.85,2.22,3.34,4.45,4.91,6.24-.51-2,1.34-3.93,3.28-4.64s4.07-.47,6.11-.24,4.21.4,6.09-.45c3.9-1.75,4.8-6.86,7.69-10,2.62-2.84,6.62-3.83,10-5.68S431.71,420.88,430.34,417.28ZM426,423.91a1.13,1.13,0,0,1-.65.52,11.46,11.46,0,0,1-4,1.26c-.4,0-.9-.05-1-.43a.67.67,0,0,1,.13-.61,1.92,1.92,0,0,1,.5-.4,7.16,7.16,0,0,1,3-1.15h0a2.5,2.5,0,0,1,1.35-.15C425.8,423,426.19,423.5,426,423.91Z" style="fill: rgb(69, 90, 100); transform-origin: 408.591px 432.415px;" id="eljg42hp34u4" class="animable"></path><path d="M417.06,426a17.52,17.52,0,0,0-5.05,3,15.17,15.17,0,0,0-2,2.17c-.64.85-1.24,1.83-2,2.8a7.34,7.34,0,0,1-3,2.45,9.26,9.26,0,0,1-4.13.46c-1.41-.09-2.75-.34-4.05-.37a8.35,8.35,0,0,0-3.61.59,4.24,4.24,0,0,0-2.23,2.26,6.27,6.27,0,0,0-.42,2.84,10,10,0,0,0,.57,2.35c.24.69.45,1.28.61,1.77a8.67,8.67,0,0,1,.29,1.15c.05.27.06.41,0,.41s-.16-.54-.53-1.49c-.19-.51-.42-1.08-.68-1.74a9.7,9.7,0,0,1-.67-2.42,6.42,6.42,0,0,1,.39-3,4.7,4.7,0,0,1,2.43-2.54,8.9,8.9,0,0,1,3.83-.66c1.34,0,2.69.27,4.07.36a8.68,8.68,0,0,0,3.9-.42,6.86,6.86,0,0,0,2.82-2.27c.75-.93,1.37-1.91,2-2.76a14.73,14.73,0,0,1,2.1-2.19,14.15,14.15,0,0,1,3.75-2.23,9.91,9.91,0,0,1,1.13-.38A1.23,1.23,0,0,1,417.06,426Z" style="fill: rgb(38, 50, 56); transform-origin: 403.591px 436.94px;" id="elro8lw7amiz9" class="animable"></path><path d="M381.18,404.23c-3.46,3.18-8.3,4.8-11.12,8.55-2.62,3.47-3,8.08-3.29,12.41a50.46,50.46,0,0,0,.18,12.1c.7,4,3.33,12,6.49,14.49a7.31,7.31,0,0,0,4.9-4.15A21.74,21.74,0,0,0,380,441.2q.78-5.35,1.57-10.7A42.61,42.61,0,0,1,384,420c1.49-3.5,3.87-6.53,5.74-9.84,5.41-9.65,6.11-21.15,6.68-32.2C388.41,384.31,388.72,397.28,381.18,404.23Zm3.36,7.72a5.83,5.83,0,0,1-1.17,1.45,4,4,0,0,1-1.13.87,1.31,1.31,0,0,1-1.35-.12,1.57,1.57,0,0,1-.24-1.7,4.11,4.11,0,0,1,2.29-2.68,1.16,1.16,0,0,1,1.61.39A1.89,1.89,0,0,1,384.54,412Z" style="fill: rgb(69, 90, 100); transform-origin: 381.455px 414.87px;" id="el8bb2ljbv9xo" class="animable"></path><path d="M374.58,422.15a2.07,2.07,0,0,1,.11.59,15.64,15.64,0,0,1,.15,1.71,34,34,0,0,1-.3,6.31c-.31,2.65-.91,5.77-1.36,9.25a29.38,29.38,0,0,0,.37,11.27,26.18,26.18,0,0,0,.87,2.85c.38.9.72,1.81,1.16,2.65a36.36,36.36,0,0,0,2.8,4.71,62.29,62.29,0,0,0,5.95,7.16c1.83,1.92,3.37,3.42,4.43,4.47l1.22,1.2c.28.28.42.44.4.45a2.76,2.76,0,0,1-.47-.37l-1.29-1.13c-1.1-1-2.69-2.47-4.56-4.36a59.72,59.72,0,0,1-6.07-7.15,33.77,33.77,0,0,1-2.86-4.75c-.46-.86-.81-1.78-1.2-2.7A27.2,27.2,0,0,1,372.7,440c.49-3.5,1.12-6.61,1.48-9.24a39.53,39.53,0,0,0,.46-6.25C374.63,423,374.53,422.15,374.58,422.15Z" style="fill: rgb(38, 50, 56); transform-origin: 381.318px 448.46px;" id="eluql9rio2lg" class="animable"></path><path d="M378.73,462.84c-.93-3.55-5.57-5.37-9.24-5.37s-7.24,1.25-10.91,1.39c-3.35.12-6.65-.67-10-1.07s-6.88-.33-9.78,1.34c1,1.23,2.8,1.5,4.39,1.42a20.2,20.2,0,0,1,4.78-.16c2.9.55,5,3.19,7.8,4.07,3,1,6.28-.3,9.39-1,4.16-.95,9.5-1.57,13.63-.53" style="fill: rgb(69, 90, 100); transform-origin: 358.795px 461.147px;" id="eluh3uptipar" class="animable"></path><path d="M352.57,459.55s.3-.39,1.06-.3,1.67.5,2.9.79a32,32,0,0,0,9.69,1c1.9-.08,3.73-.35,5.42-.39a13.1,13.1,0,0,1,4.45.55,7.29,7.29,0,0,1,2.64,1.47,2.69,2.69,0,0,1,.72.84,8.82,8.82,0,0,0-3.47-2,13.37,13.37,0,0,0-4.33-.42c-1.65.07-3.46.35-5.41.43a29.43,29.43,0,0,1-9.81-1.21c-1.23-.35-2.17-.82-2.83-.95A1.75,1.75,0,0,0,352.57,459.55Z" style="fill: rgb(38, 50, 56); transform-origin: 366.01px 461.373px;" id="elwy688spvnbb" class="animable"></path></g><g id="freepik--Fishes--inject-140" class="animable" style="transform-origin: 221.36px 147.119px;"><path d="M364,51.34s-8,2.35-10.52,1.09a19.9,19.9,0,0,1-3.62-2.19s4,1,3.54,0a3.37,3.37,0,0,0-1.52-1.43s4.71.76,4.21,0-6.31-1.76-6.57-1.93-11.35-6.82-20.27-4.21-8.16,7.57-7.74,8.67,9.42,12.62,31.13,8.75c0,0-3.28-2.1-2.19-2.52a18.83,18.83,0,0,1,3.53-.68s5.14,3.7,7.58,3.45c0,0-3.71-4.12-3-4.63S363.44,55.13,364,51.34Z" style="fill: #E346D7; transform-origin: 342.644px 51.4726px;" id="elt762pymuoxb" class="animable"></path><g id="eliwtnuxq4aq"><g style="opacity: 0.3; transform-origin: 343.063px 50.895px;" class="animable" id="elqqsdqv4l6di"><path d="M342.74,43.79c.45.15.94.33,1.45.54A27.62,27.62,0,0,1,341.84,58C342.09,53.15,342.38,48.61,342.74,43.79Z" style="fill: rgb(255, 255, 255); transform-origin: 343.063px 50.895px;" id="el8ays9ddunn3" class="animable"></path></g></g><g id="elwhlbwau13dr"><g style="opacity: 0.3; transform-origin: 336.895px 49.37px;" class="animable" id="el5hkkhs5zlz"><path d="M335.92,42.19c.76.08,1.54.2,2.35.36-.61,4.64-1.25,9.35-1.86,14a7.54,7.54,0,0,1-.87-4.11C335.5,48.93,335.62,45.67,335.92,42.19Z" style="fill: rgb(255, 255, 255); transform-origin: 336.895px 49.37px;" id="el3tin63hdpyw" class="animable"></path></g></g><g id="el8yfkgm3wq2j"><g style="opacity: 0.3; transform-origin: 330.856px 48.02px;" class="animable" id="el9f2yf1blh4w"><path d="M330.27,42.4c.5-.1,1-.18,1.59-.24a36.55,36.55,0,0,1-1.26,11.72C329.36,50.24,329.81,46.23,330.27,42.4Z" style="fill: rgb(255, 255, 255); transform-origin: 330.856px 48.02px;" id="eleqmcolgue5g" class="animable"></path></g></g><g id="elnid2c97waue"><g style="opacity: 0.3; transform-origin: 348.099px 52.335px;" class="animable" id="elk5zh6d866e"><path d="M349,47.22a39.63,39.63,0,0,1-1.29,10.28,17,17,0,0,1,.05-8.48,2.93,2.93,0,0,1,1.1-1.85" style="fill: rgb(255, 255, 255); transform-origin: 348.099px 52.335px;" id="el6wfqqw50vac" class="animable"></path></g></g><circle cx="325.22" cy="48.84" r="0.52" id="elsgdz8zkcgpn" class="animable" style="transform-origin: 325.22px 48.84px;"></circle><path d="M90.24,241.56c-3.2,1-6.45-1.47-9.79-1.53-.71,0-1.58.23-1.71.92s.42,1.1.91,1.47a34,34,0,0,0,4.26,2.75,25.5,25.5,0,0,0-2.66,4c-.34.63-.63,1.47-.13,2s1.62.1,2.3-.43l6.36-5a2.8,2.8,0,0,1-.58,2.62A8.36,8.36,0,0,1,87,250.13c2.55,1.25,5.46,1.51,8.28,1.74,3.5.3,7.08.59,10.49-.24s6.69-3,7.94-6.28c-1.74-1.86-2.9-4.18-4.37-6.26s-3.45-4-5.95-4.5-5.13.63-7.54,1.65-5.07,2-7.57,1.22a3.93,3.93,0,0,0-1.16-.28,1,1,0,0,0-.95.58,1.25,1.25,0,0,0,.28,1,6.35,6.35,0,0,0,4.17,2.69" style="fill: #E346D7; transform-origin: 96.2153px 243.321px;" id="el07dy6zfx7ae9" class="animable"></path><g id="elmoykggfsnfk"><g style="opacity: 0.3; transform-origin: 93.6404px 243.025px;" class="animable" id="elcauamv1is5"><path d="M95.2,245.86A45.63,45.63,0,0,0,93.92,237a14,14,0,0,1-1.85.53c.8,3.65,1.66,7.81,2.12,11.52C95.16,248.4,95.25,247,95.2,245.86Z" style="fill: rgb(255, 255, 255); transform-origin: 93.6404px 243.025px;" id="elfdr903ep1tc" class="animable"></path></g></g><g id="elfc7jwn14z9e"><g style="opacity: 0.3; transform-origin: 98.0256px 242.138px;" class="animable" id="el2rtdv2wxvif"><path d="M97.87,235.41l-1.81.73q1,5.94,2,11.87a1.63,1.63,0,0,0,.2.61.51.51,0,0,0,.56.23c.21-.07.3-.3.38-.51A16,16,0,0,0,97.87,235.41Z" style="fill: rgb(255, 255, 255); transform-origin: 98.0256px 242.138px;" id="elcxex6ir8q08" class="animable"></path></g></g><g id="el2m3ps58i5zd"><g style="opacity: 0.3; transform-origin: 102.569px 241.48px;" class="animable" id="elkvxbo9ada6"><path d="M103.91,234.71c.21,3.14.27,6.49.17,9.63a10.13,10.13,0,0,1-.56,3.51c-.12.3-.33.63-.65.65-.48,0-.68-.58-.74-1.06-.46-4.33-.84-8.56-1.12-12.91A7.25,7.25,0,0,1,103.91,234.71Z" style="fill: rgb(255, 255, 255); transform-origin: 102.569px 241.48px;" id="elft8jwy8gg2o" class="animable"></path></g></g><g id="elhkko2pai2wi"><g style="opacity: 0.3; transform-origin: 108.19px 241.336px;" class="animable" id="elrq9xgjqj6v9"><path d="M106.82,236.3a74.4,74.4,0,0,0,.59,9.14c.06.4.23.9.64.93s.69-.55.76-1c.38-2.49.53-3.44.75-6A15.27,15.27,0,0,0,106.82,236.3Z" style="fill: rgb(255, 255, 255); transform-origin: 108.19px 241.336px;" id="elinngvn9ojw" class="animable"></path></g></g><path d="M111,244.38a.4.4,0,0,1-.79,0,.4.4,0,1,1,.79,0Z" id="elhyykdw8ay1" class="animable" style="transform-origin: 110.605px 244.317px;"></path><path d="M130.49,220.46c-3.19,1-6.44-1.47-9.79-1.53-.7,0-1.57.23-1.7.92s.42,1.1.9,1.47a34.75,34.75,0,0,0,4.26,2.75,25,25,0,0,0-2.66,4c-.33.63-.62,1.47-.13,2s1.63.1,2.31-.43l6.36-5a2.78,2.78,0,0,1-.59,2.62,8.48,8.48,0,0,1-2.18,1.76c2.55,1.25,5.45,1.51,8.28,1.74,3.5.3,7.07.59,10.48-.24s6.7-3,7.95-6.28c-1.74-1.86-2.9-4.18-4.38-6.26s-3.44-4-5.94-4.5-5.14.62-7.54,1.65-5.08,2-7.57,1.22a3.93,3.93,0,0,0-1.16-.28,1,1,0,0,0-1,.58,1.25,1.25,0,0,0,.28,1,6.33,6.33,0,0,0,4.16,2.69" style="fill: #E346D7; transform-origin: 136.48px 222.211px;" id="ele7ww7amywc4" class="animable"></path><g id="ellw7bfuhlvyk"><g style="opacity: 0.3; transform-origin: 133.9px 221.935px;" class="animable" id="el6paqesishap"><path d="M135.46,224.76a46.42,46.42,0,0,0-1.28-8.85,14,14,0,0,1-1.85.53c.8,3.65,1.66,7.81,2.12,11.52C135.42,227.3,135.51,225.93,135.46,224.76Z" style="fill: rgb(255, 255, 255); transform-origin: 133.9px 221.935px;" id="ela6z05n45ym" class="animable"></path></g></g><g id="el40quqonwfv8"><g style="opacity: 0.3; transform-origin: 138.274px 221.037px;" class="animable" id="eljvfk1qx57o"><path d="M138.13,214.31l-1.82.73,2,11.87a1.34,1.34,0,0,0,.2.61.5.5,0,0,0,.55.23c.21-.07.31-.31.38-.51A16,16,0,0,0,138.13,214.31Z" style="fill: rgb(255, 255, 255); transform-origin: 138.274px 221.037px;" id="elv7q7hpwz76m" class="animable"></path></g></g><g id="ellfnfm39cbrn"><g style="opacity: 0.3; transform-origin: 142.827px 220.38px;" class="animable" id="elibfq55hegqr"><path d="M144.17,213.61c.21,3.14.27,6.49.16,9.63a10.13,10.13,0,0,1-.56,3.51c-.12.3-.32.63-.64.65-.48,0-.69-.58-.74-1.06-.46-4.33-.84-8.56-1.12-12.91A7.25,7.25,0,0,1,144.17,213.61Z" style="fill: rgb(255, 255, 255); transform-origin: 142.827px 220.38px;" id="elqrf6nogrsfl" class="animable"></path></g></g><g id="el1ox6vu36zxq"><g style="opacity: 0.3; transform-origin: 148.45px 220.236px;" class="animable" id="ele0vnoj4fpb"><path d="M147.08,215.2a75.85,75.85,0,0,0,.58,9.14c.07.4.24.9.65.93s.68-.55.75-1c.38-2.49.54-3.44.76-6A15.6,15.6,0,0,0,147.08,215.2Z" style="fill: rgb(255, 255, 255); transform-origin: 148.45px 220.236px;" id="elxc8ppa9jen" class="animable"></path></g></g><path d="M151.24,223.28a.39.39,0,0,1-.4.39.38.38,0,0,1-.39-.39.39.39,0,0,1,.39-.4A.4.4,0,0,1,151.24,223.28Z" id="elocgbzvvspl" class="animable" style="transform-origin: 150.845px 223.275px;"></path></g><g id="freepik--baby-shark--inject-140" class="animable" style="transform-origin: 258.103px 261.984px;"><path d="M355.21,205.71a67.5,67.5,0,0,0-37.08-6.89c-21.65,2-64.57,14.4-64.57,14.4s-12.43-12.39-32.71-7.27a1.12,1.12,0,0,0-.43,2,125.74,125.74,0,0,1,13.13,13.32c3.43,4.53-2.19,9.7-2.19,9.7S215,253.29,212.09,260.11L205,263.5a2.34,2.34,0,0,0-.77,3.62l1.62,1.9-5.78,9.58S183.39,275.85,176,280s-20.9,12.28-19.53,14.74,3.89,2.35,8.93,2.13,8-1.71,12.16,2.85,9.85,12.08,16.08,12.58,5.11-3,12.29,1.3,6.67,12.61,8.77,11.83,7.88-10.34,6.94-16.22-11.27-17.84-8.92-21.72l2.35-3.89-1.12.05c3.31-4.12,25.6-5,38.47-4.31a291.8,291.8,0,0,0,29.81,0s-.38,4.68-5.13,9.16-.25,5.15-.25,5.15,23.61-.35,28.41-21c0,0,19.19-6.51,28.42-22.2,0,0,5.71-6.48,4-9,0,0,10.35-7.07,13.68-11.71a77.93,77.93,0,0,0,6.44-10.66C358,218.58,363.64,209.28,355.21,205.71Z" style="fill: rgb(69, 90, 100); transform-origin: 258.103px 261.984px;" id="el2o07ed0g186" class="animable"></path><path d="M271.91,263.93c-11.36,2.61-23.16,3.09-34.43,6.11a78.87,78.87,0,0,0-23.79,10.89,12.53,12.53,0,0,0-4.34,4.25c-.94,1.81-.64,4.33,3.29,5.39a5.17,5.17,0,0,1,.56-3.92c4.51-5.64,25.87-7.94,38.75-7.37,15.73.69,30.28,0,30.28,0s-.38,4.68-5.13,9.16-.25,5.15-.25,5.15,23.61-.35,28.41-21c0,0,19.19-6.51,28.42-22.2,0,0,5.71-6.48,4-9,0,0,10.35-7.07,13.68-11.71,2-2.72,3.78-5.74,5-7.87a20.06,20.06,0,0,0,1.21-2.25C329.21,234,303,256.79,271.91,263.93Z" style="fill: rgb(245, 245, 245); transform-origin: 283.237px 256.575px;" id="elr8syyvql2op" class="animable"></path><path d="M323.33,242.41a9.63,9.63,0,0,1,2.15.2,30.2,30.2,0,0,0,5.13.39,21.26,21.26,0,0,0,5-1,10.58,10.58,0,0,1,2.09-.57,8,8,0,0,1-2,.92,17.21,17.21,0,0,1-5.11,1.18,21.71,21.71,0,0,1-5.22-.55A8.33,8.33,0,0,1,323.33,242.41Z" style="fill: rgb(38, 50, 56); transform-origin: 330.515px 242.481px;" id="elnzkd6z4igzh" class="animable"></path><path d="M352.57,218.68c-.08-.13.5-.64,1.29-1.16s1.49-.83,1.57-.71-.5.64-1.29,1.15S352.65,218.8,352.57,218.68Z" style="fill: rgb(38, 50, 56); transform-origin: 354px 217.744px;" id="elu3miihuyryj" class="animable"></path><path d="M302.35,248.26a42.75,42.75,0,0,0-1.66-7.36,42.46,42.46,0,0,0-3.43-6.71,6.8,6.8,0,0,1,1.44,1.71,21.46,21.46,0,0,1,2.48,4.83,21,21,0,0,1,1.18,5.29A7.12,7.12,0,0,1,302.35,248.26Z" style="fill: rgb(38, 50, 56); transform-origin: 299.852px 241.225px;" id="elwbgpl6ka28o" class="animable"></path><path d="M308.58,246.88c-.08,0-.26-1.06-.69-2.74a34.74,34.74,0,0,0-2.33-6.34,33.67,33.67,0,0,0-3.55-5.75,27.51,27.51,0,0,1-1.72-2.24,10.4,10.4,0,0,1,2,2,28.07,28.07,0,0,1,3.73,5.75,28.36,28.36,0,0,1,2.22,6.49A10.72,10.72,0,0,1,308.58,246.88Z" style="fill: rgb(38, 50, 56); transform-origin: 304.436px 238.345px;" id="el1ep2qzroo31" class="animable"></path><path d="M311.32,243.6s0-.2,0-.51a8.9,8.9,0,0,0-.12-1.35,22,22,0,0,0-1.31-4.3,27.75,27.75,0,0,0-2.06-4,13,13,0,0,1-1-1.59,5.19,5.19,0,0,1,1.32,1.38,19.45,19.45,0,0,1,2.23,4,15.84,15.84,0,0,1,1.19,4.46,5.14,5.14,0,0,1,0,1.41C311.44,243.45,311.35,243.61,311.32,243.6Z" style="fill: rgb(38, 50, 56); transform-origin: 309.224px 237.725px;" id="elmbz2vpbetwg" class="animable"></path><path d="M325.21,220.65a5.75,5.75,0,1,0,1.94,7.89A5.75,5.75,0,0,0,325.21,220.65Z" style="fill: rgb(250, 250, 250); transform-origin: 322.228px 225.567px;" id="elxq3ndrwhagj" class="animable"></path><path d="M324.27,221.75a5.4,5.4,0,1,0,1.83,7.41A5.39,5.39,0,0,0,324.27,221.75Z" style="fill: rgb(38, 50, 56); transform-origin: 321.478px 226.371px;" id="elufw58a9ner" class="animable"></path><path d="M326.12,222c.06.13-.52.54-1.23,1s-1.28.92-1.38.82.34-.71,1.08-1.24S326.06,221.83,326.12,222Z" style="fill: rgb(255, 255, 255); transform-origin: 324.81px 222.889px;" id="el28ehkjdzjed" class="animable"></path><path d="M198.14,307.62a28.73,28.73,0,0,1,.32-3.18c.22-2,.44-4.68.48-7.68s-.11-5.73-.28-7.69a27.23,27.23,0,0,1-.23-3.2A15.74,15.74,0,0,1,199,289a55.15,55.15,0,0,1,.43,7.73,54.11,54.11,0,0,1-.64,7.73A14.89,14.89,0,0,1,198.14,307.62Z" style="fill: rgb(38, 50, 56); transform-origin: 198.788px 296.745px;" id="elh9ylvgk64e" class="animable"></path><path d="M193.68,292.48a19.27,19.27,0,0,1-11,5.68c0-.16,2.7-.81,5.74-2.39S193.58,292.36,193.68,292.48Z" style="fill: rgb(38, 50, 56); transform-origin: 188.18px 295.317px;" id="el664sklw5j3p" class="animable"></path><path d="M324,234.54a13.55,13.55,0,0,0-4.57-2.06,13.23,13.23,0,0,0-5,.27,3.05,3.05,0,0,1,1.4-.64,8.4,8.4,0,0,1,7.11,1.33C323.72,234,324.07,234.5,324,234.54Z" style="fill: rgb(38, 50, 56); transform-origin: 319.219px 233.184px;" id="elb95ofj9vvvb" class="animable"></path><path d="M280.67,208a4.78,4.78,0,0,1-1,.34l-2.67.75-8.83,2.44c-3.45.95-6.59,1.76-8.88,2.29-1.14.27-2.07.47-2.72.6a4.35,4.35,0,0,1-1,.14,3.45,3.45,0,0,1,1-.34l2.68-.75,8.83-2.44c3.45-1,6.59-1.77,8.88-2.3,1.14-.26,2.07-.46,2.71-.59A3.84,3.84,0,0,1,280.67,208Z" style="fill: rgb(255, 255, 255); transform-origin: 268.12px 211.28px;" id="elaxyr422kyu" class="animable"></path><path d="M248.76,212.86a50.74,50.74,0,0,0-7.54-4,50.88,50.88,0,0,0-8.26-2.13,9.09,9.09,0,0,1,2.53.12,26.33,26.33,0,0,1,5.91,1.53,25.92,25.92,0,0,1,5.41,2.84A8.77,8.77,0,0,1,248.76,212.86Z" style="fill: rgb(255, 255, 255); transform-origin: 240.86px 209.776px;" id="eli283kptk4y9" class="animable"></path><path d="M357.84,219.05a4.48,4.48,0,0,1-.25.48l-.78,1.38c-.71,1.21-1.75,3-3.15,5.23-.7,1.12-1.49,2.36-2.39,3.69-.46.66-.92,1.36-1.48,2a23,23,0,0,1-1.87,2,80.91,80.91,0,0,1-10.1,7.72l.08-.23a4,4,0,0,1,0,2.5,10.89,10.89,0,0,1-1,2.34,26.32,26.32,0,0,1-3,4.35l0,0-1.61,2.31-.81,1.18-.91,1.13c-.62.76-1.23,1.53-1.87,2.29l-2.06,2.2a59.7,59.7,0,0,1-9.75,8.05,73.75,73.75,0,0,1-25.54,10.16A103.56,103.56,0,0,1,272.75,280c-6,.13-11.85-.24-17.37-.5s-10.78-.48-15.69-.27a68.66,68.66,0,0,0-13.52,1.73,49.11,49.11,0,0,0-5.7,1.71,25.54,25.54,0,0,0-4.79,2.22,6.35,6.35,0,0,0-2.83,3.43,6.06,6.06,0,0,0,.24,3.75,29,29,0,0,0,2.46,4.76c.31.54.54.94.69,1.22s.21.43.21.43l-.26-.4c-.17-.29-.42-.68-.73-1.19a27.15,27.15,0,0,1-2.56-4.76,6.27,6.27,0,0,1-.29-3.88,6.58,6.58,0,0,1,2.91-3.6,25.49,25.49,0,0,1,4.84-2.29,47,47,0,0,1,5.72-1.76,69.3,69.3,0,0,1,13.59-1.8c4.93-.23,10.2-.05,15.73.22s11.33.6,17.34.47a104.21,104.21,0,0,0,18.46-2.12,73.5,73.5,0,0,0,25.38-10.07,59.15,59.15,0,0,0,9.68-7.95l2.06-2.18c.63-.75,1.24-1.52,1.85-2.27l.91-1.12c.27-.39.54-.78.82-1.16l1.6-2.29v0h0a26.43,26.43,0,0,0,3-4.26,11.41,11.41,0,0,0,1-2.26,3.7,3.7,0,0,0,.07-2.25l-.06-.14.13-.09a80.87,80.87,0,0,0,10.1-7.63,21,21,0,0,0,3.34-3.95c.92-1.32,1.72-2.55,2.43-3.66,1.42-2.22,2.5-4,3.23-5.17l.83-1.35C357.73,219.2,357.84,219.05,357.84,219.05Z" style="fill: rgb(38, 50, 56); transform-origin: 285.135px 258.765px;" id="elnp8iogaypi9" class="animable"></path><path d="M305.28,247.09l-24.67,12.39c.89,4.74,1.79,9.52,1.57,14.34s-1.66,9.73-4.91,13.29a12.46,12.46,0,0,0-2.1,2.55c-.51,1-1,2.75-.27,3.56s2.22.74,3.7.63A34.23,34.23,0,0,0,294,288.6a24.22,24.22,0,0,0,10.23-12.35,56.55,56.55,0,0,0,2.44-16.75C306.51,254.37,305.82,252.19,305.28,247.09Z" style="fill: rgb(69, 90, 100); transform-origin: 290.6px 270.503px;" id="elhx57w84o8l7" class="animable"></path><path d="M277.27,287.11a3.91,3.91,0,0,1,.58-.91,28,28,0,0,0,1.58-2.42,22.53,22.53,0,0,0,2.8-9,35.17,35.17,0,0,0-.54-9.49c-.44-2.41-.81-3.88-.72-3.91a4.85,4.85,0,0,1,.36,1c.2.66.46,1.62.72,2.83a31.23,31.23,0,0,1,.69,9.61,21.08,21.08,0,0,1-3,9.14,20.3,20.3,0,0,1-1.73,2.36A4.48,4.48,0,0,1,277.27,287.11Z" style="fill: rgb(38, 50, 56); transform-origin: 280.059px 274.245px;" id="el57gjek8p23" class="animable"></path><path d="M274.9,293.22s.21,0,.61.13a12.22,12.22,0,0,0,1.76.16,23.57,23.57,0,0,0,6.42-.95,33.64,33.64,0,0,0,8.86-3.71,37.35,37.35,0,0,0,4.63-3.31c.76-.64,1.51-1.31,2.23-2a15.27,15.27,0,0,0,2-2.3,29.38,29.38,0,0,0,4.08-11,57.47,57.47,0,0,0,.59-16.13c-.06-.77-.17-1.36-.21-1.77a2.61,2.61,0,0,1,0-.62,2.73,2.73,0,0,1,.15.61c.07.4.22,1,.31,1.75a46.91,46.91,0,0,1,.48,6.55,51.81,51.81,0,0,1-.8,9.7,29.22,29.22,0,0,1-4.13,11.18,15.41,15.41,0,0,1-2.09,2.37c-.73.73-1.49,1.41-2.26,2.05a36.92,36.92,0,0,1-4.71,3.33,33,33,0,0,1-9,3.66,21.87,21.87,0,0,1-6.52.79,9,9,0,0,1-1.77-.26A1.69,1.69,0,0,1,274.9,293.22Z" style="fill: rgb(38, 50, 56); transform-origin: 290.857px 272.72px;" id="elynkvr9uem6j" class="animable"></path></g><g id="freepik--Bubbles--inject-140" class="animable" style="transform-origin: 267.3px 268.441px;"><path d="M383,174a3.19,3.19,0,1,1-3.19-3.19A3.19,3.19,0,0,1,383,174Z" style="fill: rgb(250, 250, 250); transform-origin: 379.81px 174px;" id="elhxxv4hzmfg" class="animable"></path><path d="M383,174s-.05-.29-.2-.76a3.14,3.14,0,0,0-1.17-1.63,3,3,0,0,0-2.82-.38,3,3,0,0,0,0,5.54,3,3,0,0,0,2.82-.38,3.19,3.19,0,0,0,1.17-1.64c.15-.47.16-.75.2-.75s.09.28,0,.8a3.15,3.15,0,0,1-1.15,1.88,3.34,3.34,0,0,1-3.21.54,3.42,3.42,0,0,1,0-6.45,3.39,3.39,0,0,1,3.21.54,3.18,3.18,0,0,1,1.15,1.88A1.44,1.44,0,0,1,383,174Z" style="fill: rgb(38, 50, 56); transform-origin: 379.708px 173.998px;" id="elt5fruk0zo4c" class="animable"></path><path d="M382.09,173.69c.14,0,.39.71,0,1.51s-1.16,1-1.2.91.42-.5.74-1.15S381.94,173.72,382.09,173.69Z" style="fill: rgb(38, 50, 56); transform-origin: 381.593px 174.91px;" id="elg5vm3kzq365" class="animable"></path><g id="elvcfnxyjev0e"><circle cx="376.63" cy="112.4" r="4.11" style="fill: rgb(250, 250, 250); transform-origin: 376.63px 112.4px; transform: rotate(-0.29deg);" class="animable" id="el66hldj6tpt7"></circle></g><path d="M380.16,110.29s-.23-.29-.7-.73a4.17,4.17,0,0,0-2.4-1.06,3.94,3.94,0,0,0-3.43,1.46,3.88,3.88,0,0,0,3.74,6.24,4,4,0,0,0,2.91-2.34,4.16,4.16,0,0,0,.19-2.62c-.16-.61-.35-.93-.31-.95a2,2,0,0,1,.5.9,4,4,0,0,1,0,2.8,4.27,4.27,0,0,1-3.16,2.68,4.33,4.33,0,0,1-4.2-7,4.24,4.24,0,0,1,3.85-1.52,4.06,4.06,0,0,1,2.49,1.28A2.14,2.14,0,0,1,380.16,110.29Z" style="fill: rgb(38, 50, 56); transform-origin: 376.611px 112.434px;" id="elv1aoo7jj2hd" class="animable"></path><path d="M378.93,110.54c.08-.11.82.55.89,1.69s-.55,1.9-.66,1.8.22-.82.14-1.76S378.81,110.63,378.93,110.54Z" style="fill: rgb(38, 50, 56); transform-origin: 379.367px 112.283px;" id="el8q8jz6eu2hw" class="animable"></path><path d="M366.35,153a7.65,7.65,0,1,1-10.5-2.63A7.66,7.66,0,0,1,366.35,153Z" style="fill: rgb(250, 250, 250); transform-origin: 359.786px 156.931px;" id="eluauokl440bp" class="animable"></path><path d="M366.35,153c-.05,0-.38-.57-1.24-1.41a7.64,7.64,0,0,0-4.5-2.08,7.46,7.46,0,0,0-6.57,2.75,7.34,7.34,0,0,0-1.62,4,7.4,7.4,0,0,0,4.5,7.5,7.32,7.32,0,0,0,4.28.45,7.51,7.51,0,0,0,3.52-1.71,7.36,7.36,0,0,0,2-2.79,7.61,7.61,0,0,0,.3-4.95c-.33-1.15-.72-1.73-.66-1.75a1.83,1.83,0,0,1,.27.4,5.75,5.75,0,0,1,.58,1.29,7.67,7.67,0,0,1-.14,5.15,7.86,7.86,0,0,1-10.34,4.38,7.86,7.86,0,0,1-4.81-8,7.85,7.85,0,0,1,1.75-4.24,7.75,7.75,0,0,1,7-2.81,7.62,7.62,0,0,1,4.6,2.29,6,6,0,0,1,.87,1.12A2.48,2.48,0,0,1,366.35,153Z" style="fill: rgb(38, 50, 56); transform-origin: 359.736px 156.977px;" id="elb0kumdqkkdn" class="animable"></path><path d="M364.05,153.43c.05-.05.36.21.7.76a5.5,5.5,0,0,1,.34,4.87c-.27.59-.54.89-.59.86a12,12,0,0,0,.47-3.3A11.54,11.54,0,0,0,364.05,153.43Z" style="fill: rgb(38, 50, 56); transform-origin: 364.777px 156.673px;" id="elnselo47p4lb" class="animable"></path><path d="M374.51,188.73a6.38,6.38,0,1,1-6.38-6.38A6.38,6.38,0,0,1,374.51,188.73Z" style="fill: rgb(250, 250, 250); transform-origin: 368.13px 188.73px;" id="eluqamy9qb3a" class="animable"></path><path d="M374.51,188.73c-.06,0,0-.57-.3-1.53a6.37,6.37,0,0,0-2.33-3.39A6.19,6.19,0,0,0,366,183a6,6,0,0,0-2.84,2.14A6.15,6.15,0,0,0,366,194.5a6.22,6.22,0,0,0,5.84-.84,6.35,6.35,0,0,0,2.33-3.39c.27-1,.24-1.54.3-1.54s0,.14,0,.41a4.94,4.94,0,0,1-.13,1.18A6.36,6.36,0,0,1,372.1,194a6.58,6.58,0,0,1-9.32-1.29,6.62,6.62,0,0,1,0-7.85,6.57,6.57,0,0,1,9.32-1.3,6.41,6.41,0,0,1,2.31,3.64,4.82,4.82,0,0,1,.13,1.17C374.54,188.59,374.53,188.73,374.51,188.73Z" style="fill: rgb(38, 50, 56); transform-origin: 368.016px 188.78px;" id="eluugkq1pov8d" class="animable"></path><path d="M371.4,184.53c0-.05.45.16.94.73a4.75,4.75,0,0,1,.46,5.47c-.38.64-.76.92-.8.88s.2-.41.47-1a5.22,5.22,0,0,0-.43-5.09C371.67,184.9,371.35,184.59,371.4,184.53Z" style="fill: rgb(38, 50, 56); transform-origin: 372.426px 188.068px;" id="elsjvftvt1e4" class="animable"></path><circle cx="160.96" cy="204.03" r="3.78" style="fill: rgb(250, 250, 250); transform-origin: 160.96px 204.03px;" id="ellz5hyk01ija" class="animable"></circle><path d="M164.75,204c-.05,0-.05-.33-.22-.9a3.79,3.79,0,0,0-1.39-2,3.64,3.64,0,0,0-3.39-.47,3.56,3.56,0,0,0,0,6.66,3.62,3.62,0,0,0,3.39-.47,3.79,3.79,0,0,0,1.39-2c.17-.56.17-.9.22-.9a2,2,0,0,1,0,.95,3.85,3.85,0,0,1-1.37,2.21,3.94,3.94,0,0,1-3.77.62,4,4,0,0,1,0-7.56,4,4,0,0,1,3.77.63,3.83,3.83,0,0,1,1.37,2.2A2,2,0,0,1,164.75,204Z" style="fill: rgb(38, 50, 56); transform-origin: 160.868px 203.925px;" id="elcf2438tdzeh" class="animable"></path><path d="M162.9,201.54s.31.05.62.39a2.71,2.71,0,0,1,.7,1.61,2.75,2.75,0,0,1-.42,1.71c-.25.38-.49.53-.54.49a6.86,6.86,0,0,0,.44-2.15A6.43,6.43,0,0,0,162.9,201.54Z" style="fill: rgb(38, 50, 56); transform-origin: 163.565px 203.643px;" id="elj1r3u5546fb" class="animable"></path><circle cx="153.73" cy="192.98" r="1.89" style="fill: rgb(235, 235, 235); transform-origin: 153.73px 192.98px;" id="elzfcx99drgvs" class="animable"></circle><path d="M155.62,193a2.59,2.59,0,0,0-.86-1.36,1.71,1.71,0,0,0-1.59-.19,1.66,1.66,0,0,0,0,3.1,1.71,1.71,0,0,0,1.59-.2,2.58,2.58,0,0,0,.86-1.35s.08.17,0,.48a1.88,1.88,0,0,1-.68,1.17,2.05,2.05,0,0,1-2,.35,2.13,2.13,0,0,1,0-4,2.05,2.05,0,0,1,2,.36,1.86,1.86,0,0,1,.68,1.16C155.7,192.81,155.65,193,155.62,193Z" style="fill: rgb(38, 50, 56); transform-origin: 153.603px 193.002px;" id="el2hwrhndcg32" class="animable"></path><circle cx="286.47" cy="424.78" r="3.78" style="fill: rgb(235, 235, 235); transform-origin: 286.47px 424.78px;" id="eloly5icquea" class="animable"></circle><path d="M290.25,424.78s-.05-.33-.21-.9a3.85,3.85,0,0,0-1.39-2,3.62,3.62,0,0,0-3.39-.46,3.55,3.55,0,0,0,0,6.65,3.62,3.62,0,0,0,3.39-.46,3.83,3.83,0,0,0,1.39-2c.16-.56.17-.9.21-.9a1.72,1.72,0,0,1,0,1,3.74,3.74,0,0,1-1.36,2.21,3.94,3.94,0,0,1-3.77.62,4,4,0,0,1,0-7.56,4,4,0,0,1,3.77.63,3.74,3.74,0,0,1,1.36,2.21A1.66,1.66,0,0,1,290.25,424.78Z" style="fill: rgb(38, 50, 56); transform-origin: 286.376px 424.765px;" id="el3nm749fc12" class="animable"></path><path d="M288.41,422.29c0-.05.31,0,.62.39a2.79,2.79,0,0,1,.28,3.32c-.25.39-.5.54-.55.49a6.47,6.47,0,0,0,.44-2.15A6.28,6.28,0,0,0,288.41,422.29Z" style="fill: rgb(38, 50, 56); transform-origin: 289.07px 424.387px;" id="elmp1bpcu5ek8" class="animable"></path><circle cx="292.15" cy="415.39" r="1.89" style="fill: rgb(235, 235, 235); transform-origin: 292.15px 415.39px;" id="elvqcp2ugw44" class="animable"></circle><path d="M294,415.39c-.1,0,0-.76-.86-1.36a1.73,1.73,0,0,0-1.6-.19,1.66,1.66,0,0,0,0,3.1,1.73,1.73,0,0,0,1.6-.2c.82-.59.76-1.39.86-1.35s.08.17,0,.48a1.93,1.93,0,0,1-.68,1.17,2.05,2.05,0,0,1-2,.35,2.12,2.12,0,0,1,0-4,2.05,2.05,0,0,1,2,.36,1.91,1.91,0,0,1,.68,1.16C294.12,415.22,294.07,415.39,294,415.39Z" style="fill: rgb(38, 50, 56); transform-origin: 291.988px 415.392px;" id="elgema5yfuh0k" class="animable"></path></g><defs>     <filter id="active" height="200%">         <feMorphology in="SourceAlpha" result="DILATED" operator="dilate" radius="2"></feMorphology>                <feFlood flood-color="#32DFEC" flood-opacity="1" result="PINK"></feFlood>        <feComposite in="PINK" in2="DILATED" operator="in" result="OUTLINE"></feComposite>        <feMerge>            <feMergeNode in="OUTLINE"></feMergeNode>            <feMergeNode in="SourceGraphic"></feMergeNode>        </feMerge>    </filter>    <filter id="hover" height="200%">        <feMorphology in="SourceAlpha" result="DILATED" operator="dilate" radius="2"></feMorphology>                <feFlood flood-color="#ff0000" flood-opacity="0.5" result="PINK"></feFlood>        <feComposite in="PINK" in2="DILATED" operator="in" result="OUTLINE"></feComposite>        <feMerge>            <feMergeNode in="OUTLINE"></feMergeNode>            <feMergeNode in="SourceGraphic"></feMergeNode>        </feMerge>            <feColorMatrix type="matrix" values="0   0   0   0   0                0   1   0   0   0                0   0   0   0   0                0   0   0   1   0 "></feColorMatrix>    </filter></defs></svg>