<svg xmlns="http://www.w3.org/2000/svg" viewBox="0 0 750 500"><g id="freepik--background-complete--inject-79"><circle cx="667.69" cy="92.54" r="32.28" transform="matrix(0.29, -0.96, 0.96, 0.29, 387.16, 705.47)" style="fill:#ebebeb"></circle><circle cx="669.17" cy="93.26" r="30.8" transform="translate(13.97 258.16) rotate(-22.06)" style="fill:#dbdbdb"></circle><circle cx="669.17" cy="93.26" r="28.86" style="fill:#fff"></circle><path d="M697.38,87.14c-13.15,8-34.74,21-46.82,28.18a29,29,0,0,1-7.88-10.6l39.92-37A28.93,28.93,0,0,1,697.38,87.14Z" style="fill:#ebebeb;opacity:0.5"></path><path d="M698,94.27a28.71,28.71,0,0,1-1.91,9.38l-36,17a29.16,29.16,0,0,1-4.55-2C666.44,112.43,686.3,101,698,94.27Z" style="fill:#ebebeb;opacity:0.5"></path><rect x="668.89" y="66.5" width="0.56" height="4.37" style="fill:#c7c7c7"></rect><rect x="656.6" y="69.79" width="0.56" height="4.37" transform="translate(52.01 338.06) rotate(-30)" style="fill:#c7c7c7"></rect><rect x="647.61" y="78.78" width="0.56" height="4.37" transform="translate(253.78 601.55) rotate(-60)" style="fill:#c7c7c7"></rect><rect x="642.41" y="92.98" width="4.37" height="0.56" style="fill:#c7c7c7"></rect><rect x="645.7" y="105.27" width="4.37" height="0.56" transform="matrix(0.87, -0.5, 0.5, 0.87, 34.05, 338.14)" style="fill:#c7c7c7"></rect><rect x="654.7" y="114.27" width="4.37" height="0.56" transform="translate(229.57 626.42) rotate(-60.04)" style="fill:#c7c7c7"></rect><rect x="668.89" y="115.65" width="0.56" height="4.37" style="fill:#c7c7c7"></rect><rect x="681.18" y="112.36" width="0.56" height="4.37" transform="translate(34.03 356.08) rotate(-30)" style="fill:#c7c7c7"></rect><rect x="690.18" y="103.36" width="0.56" height="4.37" transform="translate(253.79 650.7) rotate(-60)" style="fill:#c7c7c7"></rect><rect x="691.56" y="92.98" width="4.37" height="0.56" style="fill:#c7c7c7"></rect><rect x="688.27" y="80.69" width="4.37" height="0.56" transform="translate(52.05 356.15) rotate(-30.01)" style="fill:#c7c7c7"></rect><rect x="679.27" y="71.7" width="4.37" height="0.56" transform="translate(278.66 626.34) rotate(-60.03)" style="fill:#c7c7c7"></rect><polygon points="669.59 68.48 670.54 95.21 667.8 95.17 668.85 68.47 669.59 68.48" style="fill:#c7c7c7"></polygon><polygon points="686.24 83.94 668.26 95.42 666.95 93.01 685.89 83.28 686.24 83.94" style="fill:#a6a6a6"></polygon><path d="M670.11,93.26a.94.94,0,1,1-.94-.93A.93.93,0,0,1,670.11,93.26Z" style="fill:#c7c7c7"></path><path d="M614.53,245.94H499.72V57.69H614.53Zm-110.81-4H610.53V61.69H503.72Z" style="fill:#ebebeb"></path><rect x="555.12" y="62.73" width="4" height="181.21" style="fill:#ebebeb"></rect><rect x="496.09" y="65.77" width="122.06" height="5.57" style="fill:#ebebeb"></rect><rect x="496.09" y="72.04" width="122.06" height="5.57" style="fill:#ebebeb"></rect><rect x="496.09" y="78.3" width="122.06" height="5.57" style="fill:#ebebeb"></rect><rect x="496.09" y="84.57" width="122.06" height="5.57" style="fill:#ebebeb"></rect><rect x="496.09" y="90.84" width="122.06" height="5.57" style="fill:#ebebeb"></rect><rect x="496.09" y="97.1" width="122.06" height="5.57" style="fill:#ebebeb"></rect><rect x="496.09" y="103.37" width="122.06" height="5.57" style="fill:#ebebeb"></rect><rect x="496.09" y="109.64" width="122.06" height="5.57" style="fill:#ebebeb"></rect><rect x="496.09" y="115.9" width="122.06" height="5.57" style="fill:#ebebeb"></rect><rect x="605.27" y="64.64" width="1" height="108.39" style="fill:#263238"></rect><polygon points="607.55 177.69 604 177.69 604.89 172.59 606.66 172.59 607.55 177.69" style="fill:#263238"></polygon><rect x="608.88" y="64.64" width="1" height="135.73" style="fill:#263238"></rect><polygon points="611.15 204.12 607.6 204.12 608.49 199.02 610.26 199.02 611.15 204.12" style="fill:#263238"></polygon><rect x="489.88" y="56.9" width="134.48" height="11.65" style="fill:#dbdbdb"></rect><path d="M250.28,245.94H135.47V57.69H250.28Zm-110.81-4H246.28V61.69H139.47Z" style="fill:#ebebeb"></path><rect x="190.88" y="62.73" width="4" height="181.21" style="fill:#ebebeb"></rect><rect x="131.85" y="65.77" width="122.06" height="5.57" style="fill:#ebebeb"></rect><rect x="131.85" y="72.04" width="122.06" height="5.57" style="fill:#ebebeb"></rect><rect x="131.85" y="78.3" width="122.06" height="5.57" style="fill:#ebebeb"></rect><rect x="131.85" y="84.57" width="122.06" height="5.57" style="fill:#ebebeb"></rect><rect x="131.85" y="90.84" width="122.06" height="5.57" style="fill:#ebebeb"></rect><rect x="131.85" y="97.1" width="122.06" height="5.57" style="fill:#ebebeb"></rect><rect x="131.85" y="103.37" width="122.06" height="5.57" style="fill:#ebebeb"></rect><rect x="131.85" y="109.64" width="122.06" height="5.57" style="fill:#ebebeb"></rect><rect x="131.85" y="115.9" width="122.06" height="5.57" style="fill:#ebebeb"></rect><rect x="241.03" y="64.64" width="1" height="108.39" style="fill:#263238"></rect><polygon points="243.31 177.69 239.76 177.69 240.65 172.59 242.42 172.59 243.31 177.69" style="fill:#263238"></polygon><rect x="244.63" y="64.64" width="1" height="135.73" style="fill:#263238"></rect><polygon points="246.91 204.12 243.36 204.12 244.25 199.02 246.02 199.02 246.91 204.12" style="fill:#263238"></polygon><rect x="125.64" y="56.9" width="134.48" height="11.65" style="fill:#dbdbdb"></rect><rect x="41.71" y="281.31" width="666.58" height="11.67" style="fill:#ebebeb"></rect><path d="M57.91,95.35,71,95.07,77.69,95c2.23,0,4.47,0,6.7,0h.44v.45l.06,11.19v.5h-.5L71.15,107c-4.41,0-8.83-.11-13.24-.16h-.28v-.27c0-1.9.08-3.78.13-5.65Zm0,0,.14,5.66c.05,1.86.11,3.7.13,5.53l-.27-.27c4.41,0,8.83-.16,13.24-.16L84.39,106l-.5.5,0-11.19.45.45c-2.18,0-4.36,0-6.55-.06l-6.58-.11Z" style="fill:#ebebeb"></path><path d="M72.68,81.24,85.81,81l6.66-.11c2.22,0,4.46,0,6.69,0h.44v.45l0,11.19v.5h-.5l-13.24-.06c-4.41,0-8.83-.11-13.24-.16H72.4v-.27c0-1.9.08-3.78.13-5.65Zm0,0,.14,5.66c.05,1.86.11,3.7.13,5.53l-.27-.27c4.41,0,8.83-.16,13.24-.16l13.24-.07-.5.5.06-11.19.44.45c-2.18,0-4.36,0-6.54-.06L86,81.52Z" style="fill:#ebebeb"></path><path d="M315.84,318.13l13.12-.28,6.66-.11c2.23-.05,4.46,0,6.7-.05h.44v.45l.06,11.19v.5h-.5l-13.24-.06c-4.42,0-8.83-.11-13.24-.17h-.28v-.27c0-1.9.09-3.79.13-5.65Zm0,0,.14,5.65c0,1.87.11,3.71.13,5.54l-.27-.27c4.41-.05,8.82-.16,13.24-.17l13.24-.06-.5.5.05-11.19.45.45c-2.19,0-4.36,0-6.55-.06l-6.58-.11Z" style="fill:#ebebeb"></path><path d="M330.61,304l13.12-.28,6.66-.11c2.23-.05,4.47,0,6.7-.05h.44V304l.06,11.19v.5h-.5l-13.24-.06c-4.42,0-8.83-.11-13.24-.17h-.28v-.27c0-1.9.09-3.79.14-5.65Zm0,0,.14,5.66c0,1.86.11,3.7.13,5.53l-.27-.27c4.41-.05,8.82-.16,13.24-.17l13.24-.06-.5.5.05-11.19.45.45c-2.18,0-4.36,0-6.55-.06L344,304.3Z" style="fill:#ebebeb"></path><path d="M43.14,81.24,56.26,81l6.66-.11c2.23,0,4.47,0,6.7,0h.44v.45l.06,11.19v.5h-.5l-13.24-.06c-4.42,0-8.83-.11-13.24-.16h-.28v-.27c0-1.9.09-3.78.13-5.65Zm0,0,.14,5.66c0,1.86.11,3.7.13,5.53l-.27-.27c4.41,0,8.82-.16,13.24-.16l13.24-.07-.5.5,0-11.19.45.45c-2.18,0-4.36,0-6.55-.06l-6.58-.11Z" style="fill:#ebebeb"></path><path d="M411.66,222.58l-13.12.28-6.66.11c-2.23.05-4.47,0-6.7.05h-.44v-.45l-.06-11.19v-.5h.5l13.24.06c4.42,0,8.83.11,13.24.16h.28v.27c0,1.9-.09,3.78-.14,5.65Zm0,0-.14-5.66c0-1.86-.11-3.7-.13-5.53l.27.27c-4.41.05-8.82.16-13.24.16l-13.24.07.5-.5-.05,11.19-.45-.45c2.18,0,4.36,0,6.55.06l6.58.11Z" style="fill:#ebebeb"></path><path d="M692.09,344.27l-13.12.27-6.66.12c-2.23,0-4.47,0-6.7,0h-.44v-.44l-.06-11.19v-.51h.5l13.24.06c4.41,0,8.83.11,13.24.16h.28v.27c0,1.89-.08,3.78-.13,5.65Zm0,0-.14-5.66c-.05-1.86-.11-3.7-.13-5.53l.27.27c-4.41,0-8.83.16-13.24.16l-13.24.07.5-.5-.05,11.19-.45-.45c2.18,0,4.36,0,6.55.05l6.58.12Z" style="fill:#ebebeb"></path><path d="M706.86,358.38l-13.12.27-6.66.12c-2.23,0-4.47,0-6.7.05h-.44v-.44l-.06-11.19v-.51h.5l13.24.06c4.42,0,8.83.11,13.24.16h.28v.27c0,1.89-.09,3.78-.13,5.65Zm0,0-.14-5.66c0-1.86-.11-3.7-.13-5.53l.27.27c-4.41.05-8.82.16-13.24.16l-13.24.06.5-.49,0,11.19-.45-.45c2.18,0,4.36,0,6.55.05l6.58.12Z" style="fill:#ebebeb"></path><path d="M84.62,358.38l-13.13.27-6.66.12c-2.23,0-4.46,0-6.69.05h-.45v-.44l0-11.19v-.51h.51l13.24.06c4.41,0,8.82.11,13.24.16h.27v.27c0,1.89-.09,3.78-.13,5.65Zm0,0-.15-5.66c0-1.86-.11-3.7-.13-5.53l.28.27c-4.42.05-8.83.16-13.24.16l-13.24.06.49-.49-.05,11.19-.44-.45c2.18,0,4.35,0,6.54.05l6.58.12Z" style="fill:#ebebeb"></path><path d="M665.5,81.24,678.62,81l6.66-.11c2.23,0,4.47,0,6.7,0h.44v.45l.06,11.19v.5H692l-13.24-.06c-4.42,0-8.83-.11-13.24-.16h-.28v-.27c0-1.9.09-3.78.14-5.65Zm0,0,.14,5.66c0,1.86.11,3.7.13,5.53l-.27-.27c4.41,0,8.82-.16,13.24-.16L692,91.93l-.5.5,0-11.19.45.45c-2.18,0-4.36,0-6.55-.06l-6.58-.11Z" style="fill:#ebebeb"></path></g><g id="freepik--Shadows--inject-79"><ellipse cx="559.12" cy="422.4" rx="137.11" ry="21.23" style="fill:#ebebeb"></ellipse><ellipse cx="183.16" cy="411.26" rx="126.67" ry="18.02" style="fill:#ebebeb"></ellipse></g><g id="freepik--Shelf--inject-79"><rect x="274.45" y="171.38" width="201.11" height="7.25" transform="translate(750 350.01) rotate(180)" style="fill:#455a64"></rect><rect x="459.03" y="178.63" width="7.25" height="23.98" style="fill:#455a64"></rect><rect x="459.03" y="178.63" width="7.25" height="7.41" style="fill:#263238"></rect><rect x="283.71" y="178.63" width="7.25" height="23.98" style="fill:#455a64"></rect><rect x="283.71" y="178.63" width="7.25" height="7.41" style="fill:#263238"></rect><rect x="379.03" y="142.46" width="46.2" height="11.63" transform="translate(550.41 -253.85) rotate(90)" style="fill:#FFC727"></rect><rect x="399.59" y="119.43" width="5.08" height="11.63" transform="translate(527.38 -276.88) rotate(90)" style="fill:#263238"></rect><rect x="401.19" y="129.42" width="1.88" height="11.63" transform="translate(537.36 -266.89) rotate(90)" style="fill:#263238"></rect><rect x="399.59" y="156.97" width="5.08" height="11.63" transform="translate(564.91 -239.34) rotate(90)" style="fill:#263238"></rect><rect x="365.3" y="140.37" width="53.89" height="8.13" transform="translate(536.68 -247.81) rotate(90)" style="fill:#37474f"></rect><rect x="381.92" y="130.48" width="20.73" height="4.88" transform="translate(525.2 -259.36) rotate(90)" style="fill:#FFC727"></rect><rect x="325.41" y="145.49" width="53.89" height="8.13" transform="translate(708.09 8.23) rotate(135.33)" style="fill:#FFC727"></rect><rect x="339.17" y="149.86" width="20.73" height="4.88" transform="translate(705.2 14.91) rotate(135.33)" style="fill:#fff"></rect><rect x="360.81" y="144.02" width="40.94" height="13.81" transform="translate(532.2 -230.36) rotate(90)" style="fill:#ebebeb"></rect><rect x="379.37" y="158.24" width="3.82" height="13.81" transform="translate(546.42 -216.14) rotate(90)" style="fill:#455a64"></rect><rect x="380.54" y="153.09" width="1.48" height="13.81" transform="translate(541.27 -221.29) rotate(90)" style="fill:#455a64"></rect><rect x="393.48" y="147.39" width="38.47" height="9.54" transform="translate(564.87 -260.56) rotate(90)" style="fill:#a6a6a6"></rect><rect x="410.92" y="160.75" width="3.59" height="9.54" transform="translate(578.23 -247.19) rotate(90)" style="fill:#ebebeb"></rect><rect x="410.92" y="137.87" width="3.59" height="9.54" transform="translate(555.36 -270.07) rotate(90)" style="fill:#ebebeb"></rect><rect x="412.02" y="142.82" width="1.39" height="9.54" transform="translate(560.3 -265.13) rotate(90)" style="fill:#ebebeb"></rect><path d="M335.39,130.25a27.15,27.15,0,0,1-5.21,16.05h0a27.32,27.32,0,1,1-22.1-43.38q1.13,0,2.22.09a27.17,27.17,0,0,1,12,3.87,27.27,27.27,0,0,1,13.13,23.36Z" style="fill:#455a64"></path><path d="M314,143.14c-.35.92.23,1,.26,1.34s0,1.11-1.11,2.22-2.94.88-3.32,1.34-1,2.41-2,3.06-1.07.26-2.37.53-2.29,2-2.68,2.76.08,2.14-.84,2.18-1.34-1.95-2.18-3a7.23,7.23,0,0,1-1.38-3.3c-.26-1.26.16-3.9,0-4.93s-2.9-2.87-3.9-4.13-2.37-3.79-2.29-4.63a3.47,3.47,0,0,1,1.14-2.11c.46-.34.27-.53.35-.84s.46-.38.53-.76-.22-1.53-.61-1.72-.65.45-.88.34-.92-.92-1.18-1-.19.5-.58-.22-.57-2.57-.88-2.87-.53.53-1.26,0-1-1.57-1.34-1.73-.73,0-1-.57.28-1.72,0-1.61-.87,1-1,.16.76-3.68.61-5.21A6.07,6.07,0,0,1,287.5,114s.15-.85.31-1.38,3.44-2.68,3.82-3.29a2.85,2.85,0,0,0,.27-1.09,27.21,27.21,0,0,1,16.18-5.3q1.13,0,2.22.09l.08.1a3.23,3.23,0,0,0,1.66,1c1,.35,1.2.81,1,1.19a1,1,0,0,1-.92.49c-.38,0-.74-.18-1.14.08s-.82,1.63-1.36,1.7-1.47-1.22-1.68-1.6.46-1.2.15-1.58-.86-.31-1.73-.39-2.88.26-2.81.59,3-.05,3,.61-2.12,1.79-2.5,1.69-.89-.77-1.45-.85-1,.39-1.38.44-.77-.39-1.3-.28-.67.56-.95.74-.94.18-1,.58.85.64,1.08.9-.29,1.12-.06,1.3,1.66-1.07,2-1.38.66-1.63,1.43-1.61,1,1.33,1.27,1.46.82-.31,1.66-.13,1.43,2,1.58,2.57.51,1.13.21,1.36a2.22,2.22,0,0,1-1.87-.51c-.17-.36.92-.9.85-1a1.09,1.09,0,0,0-1-.11c-.33.2-.48.62-.84.72s-1.3-1-1.56-.66.26,1.27.51,1.5,1.2.36,1.28.61-.64.82-1.51.77-1.58-.72-1.91-.44-.15,1-.38,1.28-1.48.08-2.09.74-.9,1.66-1.51,2.22-.89-.16-1.71.64-.94,2.55-1,3.16,0,1.09-.2,1a1.69,1.69,0,0,1-.56-1c-.08-.33.18-.89.18-1.09a3.6,3.6,0,0,0-1.87-1.35c-.68-.11-1.3.46-1.81.86s-1.42.34-1.76.67a8.7,8.7,0,0,0-.33,4c.26.69.59.69,1.41.33s.35-1,.84-.89a1.14,1.14,0,0,1,.74,1.07c0,.41-1,1.38-.85,1.66s1,0,1.38.07.61.39.49,1.43-.05,1.87.56,2.21.95-.5,1.22-.38.65.72,1,.69.19-.39.91-.62.46-.38.62-.84a.83.83,0,0,1,1.1-.61c.5.23.16.57.2,1s.91.42,1.6.65a20,20,0,0,1,2.45.46c1.38.45,1.46,1.83,2,2.06s2.49-.15,3.86.84,1,2.83,1.69,3.37a15.7,15.7,0,0,0,4.24,1.45c1,.19,1.15-.49,2-.3a1.7,1.7,0,0,1,1.53,1.53C317.31,140.17,314.32,142.22,314,143.14Z" style="fill:#FFC727"></path><path d="M293.42,123.58c0,.21.66.3,1.43.74s1,1.7,1.45,1.68.28-.61.43-.77a.48.48,0,0,0,0-.81c-.4-.33-.8-1-1.55-1.15s-.87-.41-1.2-.38A.57.57,0,0,0,293.42,123.58Z" style="fill:#FFC727"></path><path d="M297.63,125.72c-.12.31,0,.53.81.74s1.58-.21,1.33-.37-.64-.09-.49-.37.11-.69-.56-.61S297.73,125.44,297.63,125.72Z" style="fill:#FFC727"></path><path d="M300.48,125.81c-.27,0-.43.52-.15.83s.28.25.61,0,.84-.39.72-.64S300.76,125.76,300.48,125.81Z" style="fill:#FFC727"></path><path d="M302.7,126.85c.13-.39.77,0,1.05.4a1.67,1.67,0,0,1,0,1.43c-.15.43-.26.94-.61.74s0-.82,0-1.18S302.6,127.16,302.7,126.85Z" style="fill:#FFC727"></path><path d="M313.7,105.57c-.14.32.48.43.84.64s.64.33.84,0a.56.56,0,0,0-.36-.79C314.74,105.34,313.82,105.26,313.7,105.57Z" style="fill:#FFC727"></path><path d="M318.52,108.55c.23.25.63.21.91.56s.18,1,.54,1.15.61,0,.64-.25-.51-.9-.46-1,.74.17.89.56-.15.92.21,1,.28-.36.43-.46.48,0,.46-.36a2.38,2.38,0,0,0-.77-1.2,2.85,2.85,0,0,0-1.14-.61,1.68,1.68,0,0,0-1.38.2C318.57,108.37,318.37,108.4,318.52,108.55Z" style="fill:#FFC727"></path><path d="M329.55,113.36a.49.49,0,0,1-.14.27c-.54.38-1.18-.95-1.92-1.2s-1.07-1.2-1.22-1-.1.49-.33.82-.56.26-.72.89.72,1.81.51,2.2-.45.25-.86.23-.33.33-.87.18-.08-.82-.92-1.61-1.12-1-.94-1.3-.08-.87.3-.92.69.51.95.66.59-.3.61-.71-.89-1-1.22-1.29a2.24,2.24,0,0,1-.23-1.7c.12-.23.51-.15.61-.71.06-.33-.46-.88-.9-1.28A27.5,27.5,0,0,1,329.55,113.36Z" style="fill:#FFC727"></path><path d="M333.36,136.23c.08-.82-.33-.87.08-2.38a4.38,4.38,0,0,0-.74-3.44c-.31-.33-1-.23-1.51.1s-.15.59-.51.72-.71-.08-1,0-.64.86-1.35.84-1.18-1.05-1.71-1.77-1.64-1.19-2-2.08.33-2.27.18-3.32-.85-.82-1-1.4.1-.31.28-.87-.21-.87.15-1.84,1-1.45.84-1.88a7.28,7.28,0,0,1-.66-1.66c0-.51.48-.49,1.45-1.2s1.23-.66,2-.41a10.5,10.5,0,0,0,1.63.46c.43.08,1,1.2,1.2,1.15s.2-.38.28-.87a1.07,1.07,0,0,1,.32-.55,27.37,27.37,0,0,1-1.08,30.52C332.78,142.33,333.28,137,333.36,136.23Z" style="fill:#FFC727"></path><path d="M339.5,130.25a31,31,0,0,1-.88,8.35l-.24,1-.33,1-.68,2-.87,1.94c-.15.32-.28.65-.45,1l-.53.93a31.23,31.23,0,0,1-5.12,6.78l-1.56,1.47c-.51.5-1.12.89-1.67,1.34a34.69,34.69,0,0,1-3.57,2.39c-.62.35-1.27.65-1.91,1l-1,.47c-.33.15-.67.27-1,.4l-2,.76-2.08.56-1,.27-1.06.17-2.13.35-2.15.12-1.08.07c-.36,0-.72,0-1.08,0l-2.15-.09c-.72-.08-1.43-.21-2.14-.31a34.23,34.23,0,0,1-4.22-.94c-.68-.22-1.35-.48-2-.72l-1-.37c-.33-.14-.65-.31-1-.46l-1.95-.94-1.85-1.11a15.63,15.63,0,0,1-1.78-1.23c-.57-.44-1.16-.85-1.71-1.32a35.11,35.11,0,0,1-3.09-3,30.89,30.89,0,0,1-4.89-7.09l-.92-1.95c-.28-.66-.5-1.35-.75-2l-.36-1c-.11-.34-.18-.69-.27-1l-.52-2.09a33.77,33.77,0,0,1-.51-8.57,31.23,31.23,0,0,1,18.67-26.44,32,32,0,0,0-12.16,11.08,31.23,31.23,0,0,0-5,15.46,33.9,33.9,0,0,0,.67,8.11l.52,2c.09.33.16.66.27,1l.36.95c.25.64.46,1.28.74,1.9l.9,1.83a15.31,15.31,0,0,0,1,1.76c.37.57.67,1.18,1.09,1.71a29.94,29.94,0,0,0,2.56,3.16,31.13,31.13,0,0,0,2.92,2.82c.51.44,1.08.81,1.61,1.23l.82.6c.27.2.57.36.86.54a31,31,0,0,0,31,1.16,33.44,33.44,0,0,0,6.63-4.78,30.59,30.59,0,0,0,5.2-6.35l.56-.87c.18-.29.32-.61.48-.91l.95-1.84.77-1.93.38-1,.28-1c.19-.67.39-1.33.57-2l.37-2c.06-.34.13-.68.18-1l.09-1Z" style="fill:#263238"></path><polygon points="297.27 105.52 293.58 107.28 290.97 99.48 292.87 98.58 297.27 105.52" style="fill:#263238"></polygon><rect x="306.68" y="161.67" width="3.97" height="9.72" style="fill:#263238"></rect><rect x="294.12" y="167.78" width="29.09" height="3.61" style="fill:#263238"></rect><path d="M436.08,109.33c10.25,10,12,25.55,9.81,39.14-.06.31-.53.23-.53-.06,0-3.1.09-6.16.08-9.22-.06-.14-.1-.27-.16-.41a20.74,20.74,0,0,1-6.66-7.15c-1.71-3.37-2.38-7.16-3.69-10.68-.12-.34.24-.24.47-.06,6.24,4.59,8.22,9.54,10,16.15a54.48,54.48,0,0,0-1.08-10.29c-1.35-6.28-4-12.49-8.52-17.15A.19.19,0,0,1,436.08,109.33Z" style="fill:#263238"></path><path d="M434.16,110.5c-1.77.06-2.87,2.88-4.25,3.7a1.31,1.31,0,0,1-1.94-.31c-1.36-1.9.51-4.24,2.26-5.55-1.25.51-2.3,1.42-3.65,1.68a1.27,1.27,0,0,1-1.65-1c-.6-2.59,2.65-3.74,4.88-3.8-1.08-.75-4.18-2.79-2.53-3.79s5.3,1.91,6.49,2.87c1.74,1.41,3.82,3.53,3.9,5.74C437.77,112.63,435.51,111,434.16,110.5Z" style="fill:#FFC727"></path><path d="M434.16,110.5c-1.77.06-2.87,2.88-4.25,3.7a1.31,1.31,0,0,1-1.94-.31c-1.36-1.9.51-4.24,2.26-5.55-1.25.51-2.3,1.42-3.65,1.68a1.27,1.27,0,0,1-1.65-1c-.6-2.59,2.65-3.74,4.88-3.8-1.08-.75-4.18-2.79-2.53-3.79s5.3,1.91,6.49,2.87c1.74,1.41,3.82,3.53,3.9,5.74C437.77,112.63,435.51,111,434.16,110.5Z" style="opacity:0.1"></path><path d="M434.67,110.93c-2.26-1-6.59.45-7-.4-.74-1.73,2.72-2.93,4.59-3.16-1.72-.46-5-1.2-4.92-2.86.12-2,5.06-.29,7.55,1.63,3.15,2.41,3.13,4.73,2.61,5.2C436.82,112,435,111.1,434.67,110.93Z" style="fill:#FFC727"></path><path d="M459.42,108.34c-10.62,9.63-12.93,25.07-11.29,38.74,0,.31.52.24.53-.05.12-3.09.14-6.16.27-9.21.06-.14.11-.27.17-.4a20.69,20.69,0,0,0,6.93-6.9c1.84-3.3,2.65-7.06,4.09-10.53.14-.33-.22-.24-.47-.08-6.4,4.36-8.57,9.23-10.61,15.76a55.32,55.32,0,0,1,1.47-10.24c1.59-6.22,4.49-12.33,9.17-16.81C459.85,108.45,459.6,108.17,459.42,108.34Z" style="fill:#263238"></path><path d="M461.3,109.58c1.76.13,2.75,3,4.09,3.86a1.33,1.33,0,0,0,2-.23c1.43-1.85-.34-4.26-2.05-5.64,1.24.56,2.24,1.51,3.59,1.82a1.27,1.27,0,0,0,1.68-.93c.7-2.56-2.51-3.84-4.73-4,1.11-.71,4.28-2.63,2.67-3.7s-5.37,1.71-6.59,2.63c-1.79,1.35-3.95,3.38-4.11,5.58C457.61,111.57,459.92,110.07,461.3,109.58Z" style="fill:#FFC727"></path><path d="M461.3,109.58c1.76.13,2.75,3,4.09,3.86a1.33,1.33,0,0,0,2-.23c1.43-1.85-.34-4.26-2.05-5.64,1.24.56,2.24,1.51,3.59,1.82a1.27,1.27,0,0,0,1.68-.93c.7-2.56-2.51-3.84-4.73-4,1.11-.71,4.28-2.63,2.67-3.7s-5.37,1.71-6.59,2.63c-1.79,1.35-3.95,3.38-4.11,5.58C457.61,111.57,459.92,110.07,461.3,109.58Z" style="opacity:0.1"></path><path d="M460.77,110c2.29-.93,6.56.7,7-.13.81-1.71-2.6-3-4.46-3.33,1.74-.4,5.06-1,5-2.68,0-2-5-.48-7.6,1.34-3.24,2.29-3.3,4.61-2.8,5.1C458.58,111,460.39,110.15,460.77,110Z" style="fill:#FFC727"></path><path d="M448.56,133.78a105.54,105.54,0,0,1-3.3,15.24.38.38,0,0,1-.74-.15c.69-4.7,2-9.31,2.66-14A70.56,70.56,0,0,0,448,120.5c-.45-7.91-2.6-16.33-7.76-22.52-.11-.14.13-.35.25-.21,10.33,12,8.69,26.82,8.68,28.14,1.46-5,3-10.7,8.5-15.78.24-.22.43-.12.39.26-1,9.25-3.57,14.08-8.93,19C449,130.88,448.79,132.34,448.56,133.78Z" style="fill:#263238"></path><path d="M440.15,99.37c-1.86-.82-4.43,1.54-6.26,1.7A1.52,1.52,0,0,1,432,99.78c-.45-2.66,2.66-4.15,5.15-4.63-1.57-.09-3.11.32-4.64-.09a1.46,1.46,0,0,1-1.21-1.86c.68-3,4.63-2.54,7-1.48-.74-1.32-2.93-5-.71-5.21s4.53,4.65,5.28,6.24c1.1,2.35,2.19,5.59,1.16,7.92C442.82,103.4,441.28,100.62,440.15,99.37Z" style="fill:#FFC727"></path><path d="M440.15,99.37c-1.86-.82-4.43,1.54-6.26,1.7A1.52,1.52,0,0,1,432,99.78c-.45-2.66,2.66-4.15,5.15-4.63-1.57-.09-3.11.32-4.64-.09a1.46,1.46,0,0,1-1.21-1.86c.68-3,4.63-2.54,7-1.48-.74-1.32-2.93-5-.71-5.21s4.53,4.65,5.28,6.24c1.1,2.35,2.19,5.59,1.16,7.92C442.82,103.4,441.28,100.62,440.15,99.37Z" style="opacity:0.1"></path><path d="M440.46,100.08c-1.82-2.2-7.06-2.85-7-3.92.1-2.18,4.29-1.67,6.34-1-1.55-1.35-4.59-3.78-3.65-5.45,1.14-2,5.38,2.25,7,5.49,2.05,4.09.86,6.49.08,6.71C442.17,102.25,440.76,100.44,440.46,100.08Z" style="fill:#FFC727"></path><path d="M455.36,136.57l4.55,34.82H432.18c.57-3.08,5.73-34.86,5.73-34.86Z" style="fill:#FFC727"></path></g><g id="freepik--Tables--inject-79"><polygon points="51.34 369.58 89.15 369.34 126.96 369.25 202.57 369.08 278.19 369.25 316 369.34 353.81 369.58 316 369.83 278.19 369.92 202.57 370.08 126.96 369.92 89.15 369.83 51.34 369.58" style="fill:#263238"></polygon><polygon points="396.36 369.58 434.17 369.34 471.97 369.25 547.59 369.08 623.2 369.25 661.01 369.34 698.82 369.58 661.01 369.83 623.2 369.92 547.59 370.08 471.97 369.92 434.17 369.83 396.36 369.58" style="fill:#263238"></polygon></g><g id="freepik--Notebooks--inject-79"><polygon points="530.79 404.28 648.52 383.42 699.76 416.56 583.96 444.84 530.79 404.28" style="fill:#FFC727"></polygon><path d="M538,404.35l48.67,37.25,108.52-26.42-49.56-31.79s-32,1.56-33.46,1.89-15.93,5-15.93,5-19.84,1.8-21.2,2.13S538,404.35,538,404.35Z" style="fill:#fff"></path><polygon points="596.22 390.26 602.16 394.85 608.05 399.48 619.78 408.83 631.42 418.3 637.21 423.07 642.95 427.89 637.01 423.31 631.12 418.68 619.39 409.32 607.75 399.86 601.96 395.09 596.22 390.26" style="fill:#dbdbdb"></polygon><path d="M604.05,415.14c1.37-.32,2.75-.58,4.14-.83s2.77-.46,4.17-.67,2.79-.37,4.19-.52,2.81-.28,4.22-.35c-1.38.33-2.76.59-4.15.84s-2.77.46-4.16.66-2.78.38-4.19.52S605.47,415.07,604.05,415.14Z" style="fill:#dbdbdb"></path><path d="M579.35,427c3.62-1.37,7.26-2.68,10.9-4s7.31-2.53,11-3.78c1.83-.63,3.67-1.21,5.53-1.78a9.59,9.59,0,0,1,1.45-.3l1.44-.22,2.87-.39c3.84-.48,7.68-.95,11.53-1.32-3.81.66-7.63,1.24-11.45,1.84l-2.87.43a22.37,22.37,0,0,0-2.8.53c-1.84.57-3.67,1.21-5.51,1.8l-11,3.63C586.73,424.63,583.05,425.82,579.35,427Z" style="fill:#dbdbdb"></path><path d="M582.75,429.61c3.51-1.36,7-2.66,10.57-3.95s7.08-2.52,10.63-3.76c1.77-.63,3.56-1.22,5.35-1.8.46-.14.9-.28,1.38-.41s.94-.16,1.41-.23l2.79-.4c3.73-.47,7.47-.92,11.21-1.27-3.7.65-7.42,1.22-11.13,1.81l-2.79.42c-.46.08-.93.14-1.36.25s-.88.26-1.32.41l-5.34,1.8c-3.57,1.19-7.11,2.44-10.68,3.61S586.34,428.47,582.75,429.61Z" style="fill:#dbdbdb"></path><path d="M586.16,431.86q5.36-1.83,10.73-3.53c3.58-1.17,7.19-2.25,10.79-3.36,1.81-.55,3.59-1.1,5.46-1.55l5.55-1.08c3.7-.68,7.41-1.36,11.13-1.95-3.67.88-7.35,1.68-11,2.48L613.26,424c-1.78.45-3.6,1.05-5.4,1.56-3.62,1.05-7.21,2.17-10.83,3.2S589.79,430.86,586.16,431.86Z" style="fill:#dbdbdb"></path><path d="M639.32,419q5-1.95,10.08-3.55c.85-.27,1.7-.55,2.56-.79.43-.11.86-.23,1.32-.33l1.32-.23,5.25-.95c3.51-.64,7-1.22,10.53-1.83s7-1.18,10.53-1.74c-3.48.72-7,1.43-10.47,2.1s-7,1.38-10.49,2l-5.25,1-1.31.25c-.41.09-.84.21-1.26.34l-2.56.75C646.17,417.07,642.76,418.1,639.32,419Z" style="fill:#dbdbdb"></path><path d="M636.07,416q4.92-1.61,9.92-2.93c1.67-.45,3.31-.92,5-1.23l5.08-.94c3.39-.65,6.78-1.24,10.17-1.85s6.79-1.18,10.19-1.75q-5.06,1.1-10.12,2.12c-3.38.68-6.75,1.38-10.14,2l-5.07,1c-.85.15-1.66.38-2.5.58l-2.51.62C642.8,414.49,639.44,415.29,636.07,416Z" style="fill:#dbdbdb"></path><path d="M632.92,413.32q4.89-1.57,9.85-2.89c1.66-.43,3.3-.9,5-1.25l5.07-.81c3.38-.53,6.77-1,10.16-1.53s6.77-1,10.16-1.44q-5,.94-10.1,1.82c-3.37.58-6.74,1.17-10.12,1.71-1.68.28-3.39.54-5.05.84l-5,1.22Q637.94,412.25,632.92,413.32Z" style="fill:#dbdbdb"></path><path d="M630.2,411.29c3.16-1.38,6.39-2.56,9.67-3.63.41-.14.82-.26,1.25-.37a10.25,10.25,0,0,1,1.3-.25l2.56-.34,5.12-.66c6.83-.84,13.66-1.66,20.5-2.38-6.8,1-13.61,2-20.43,2.92l-5.11.7-2.55.35a14.19,14.19,0,0,0-2.45.62C636.78,409.26,633.52,410.37,630.2,411.29Z" style="fill:#dbdbdb"></path><path d="M627.24,408.85c3.16-1.38,6.39-2.56,9.67-3.64.41-.13.82-.25,1.25-.36a8.51,8.51,0,0,1,1.3-.25l2.56-.34,5.12-.66c6.83-.85,13.66-1.66,20.5-2.39-6.8,1-13.62,2-20.43,2.93l-5.11.69-2.55.36a13.43,13.43,0,0,0-2.46.62C633.82,406.81,630.56,407.93,627.24,408.85Z" style="fill:#dbdbdb"></path><path d="M624.27,406.41c3.17-1.39,6.4-2.56,9.68-3.64.41-.13.82-.26,1.25-.36a7.45,7.45,0,0,1,1.3-.25l2.56-.34,5.12-.66c6.83-.85,13.66-1.66,20.5-2.39-6.8,1-13.62,2-20.43,2.93l-5.11.69-2.56.36a13.54,13.54,0,0,0-2.45.62C630.85,404.37,627.6,405.49,624.27,406.41Z" style="fill:#dbdbdb"></path><path d="M621.31,404c3.16-1.38,6.4-2.56,9.68-3.63.41-.14.82-.26,1.24-.37a8.6,8.6,0,0,1,1.31-.24l2.56-.35,5.11-.66c6.83-.84,13.67-1.66,20.51-2.38-6.81,1-13.62,2-20.43,2.92l-5.12.7-2.55.36a14.39,14.39,0,0,0-2.45.61C627.89,401.93,624.64,403.05,621.31,404Z" style="fill:#dbdbdb"></path><path d="M617.41,401.88c3.16-1.39,6.39-2.56,9.67-3.64.41-.13.82-.26,1.25-.36a7.45,7.45,0,0,1,1.3-.25l2.56-.34,5.12-.66c6.83-.85,13.66-1.66,20.5-2.39-6.8,1-13.62,2-20.43,2.93l-5.11.69-2.56.36a13.54,13.54,0,0,0-2.45.62C624,399.84,620.73,401,617.41,401.88Z" style="fill:#dbdbdb"></path><path d="M613.61,399.82c3.16-1.39,6.39-2.56,9.67-3.64.41-.13.82-.26,1.25-.37a8.48,8.48,0,0,1,1.3-.24l2.56-.35,5.12-.65c6.83-.85,13.66-1.66,20.5-2.39-6.8,1-13.62,2-20.43,2.93l-5.11.69-2.55.36a13.43,13.43,0,0,0-2.46.62C620.19,397.78,616.93,398.9,613.61,399.82Z" style="fill:#dbdbdb"></path><path d="M610.65,397.37c3.15-1.38,6.38-2.55,9.65-3.63.41-.13.82-.25,1.25-.36a8.51,8.51,0,0,1,1.3-.25l2.56-.3,5.13-.57c6.83-.72,13.66-1.41,20.51-2-6.81.9-13.63,1.72-20.45,2.54l-5.12.61-2.55.32a13.4,13.4,0,0,0-2.44.61C617.21,395.34,614,396.46,610.65,397.37Z" style="fill:#dbdbdb"></path><path d="M607.68,394.93c3.15-1.38,6.38-2.55,9.64-3.62.41-.14.82-.26,1.25-.37a7.36,7.36,0,0,1,1.31-.24l2.56-.26,5.12-.47c6.84-.58,13.67-1.12,20.52-1.57-6.82.76-13.64,1.43-20.47,2.12l-5.11.5-2.56.27a12.72,12.72,0,0,0-2.43.61C614.24,392.9,611,394,607.68,394.93Z" style="fill:#dbdbdb"></path><path d="M604.72,392.49c3.15-1.38,6.36-2.55,9.62-3.62.41-.13.82-.26,1.24-.37a7.29,7.29,0,0,1,1.32-.23l2.56-.19,5.13-.3c3.42-.19,6.84-.33,10.26-.49s6.84-.27,10.26-.38c-6.83.52-13.66,1-20.49,1.42l-5.12.33-2.55.21a12.18,12.18,0,0,0-2.42.59C611.27,390.47,608,391.58,604.72,392.49Z" style="fill:#dbdbdb"></path><path d="M589.56,435.2c3.63-1.14,7.28-2.22,10.94-3.28s7.32-2.07,11-3.1c1.84-.51,3.66-1,5.54-1.45l5.58-1.19c3.73-.76,7.46-1.52,11.2-2.2-3.68,1-7.39,1.83-11.09,2.71L617.15,428c-1.82.45-3.66,1-5.5,1.47l-11,2.95C596.94,433.34,593.26,434.3,589.56,435.2Z" style="fill:#dbdbdb"></path><path d="M641.68,421.89c3.67-1.06,7.36-2.06,11.05-3s7.39-1.92,11.09-2.88c1.86-.47,3.69-.91,5.59-1.33l5.62-1.08c3.76-.68,7.52-1.36,11.29-2-3.72.88-7.45,1.67-11.19,2.47l-5.61,1.15c-1.84.41-3.7.92-5.55,1.36l-11.13,2.72C649.13,420.19,645.41,421.07,641.68,421.89Z" style="fill:#dbdbdb"></path><polygon points="125.65 389.38 243.38 368.52 294.62 401.67 178.81 429.95 125.65 389.38" style="fill:#455a64"></polygon><path d="M132.84,389.45l48.67,37.26L290,400.28l-49.56-31.79s-32,1.56-33.47,1.9-15.92,5-15.92,5-19.84,1.79-21.21,2.13S132.84,389.45,132.84,389.45Z" style="fill:#fff"></path><polygon points="191.08 375.37 197.02 379.95 202.91 384.58 214.64 393.94 226.28 403.4 232.07 408.17 237.81 413 231.87 408.42 225.97 403.78 214.25 394.43 202.61 384.96 196.82 380.19 191.08 375.37" style="fill:#dbdbdb"></polygon><path d="M174.21,412.06c3.62-1.37,7.25-2.68,10.9-4s7.31-2.53,11-3.78q2.74-.93,5.53-1.78a9.59,9.59,0,0,1,1.45-.3l1.44-.21,2.87-.4c3.84-.48,7.68-.94,11.53-1.32-3.81.66-7.63,1.24-11.45,1.84l-2.87.43a22.37,22.37,0,0,0-2.8.53c-1.84.57-3.67,1.21-5.51,1.8l-11,3.63C181.58,409.73,177.9,410.92,174.21,412.06Z" style="fill:#dbdbdb"></path><path d="M169.32,409.36c3.61-1.37,7.25-2.68,10.9-4s7.31-2.53,11-3.78q2.75-.93,5.53-1.78a9.34,9.34,0,0,1,1.45-.3l1.44-.21,2.87-.4c3.84-.48,7.68-.94,11.53-1.32-3.81.66-7.64,1.24-11.45,1.84l-2.87.43a22.88,22.88,0,0,0-2.81.53c-1.83.57-3.66,1.21-5.5,1.8l-11,3.63C176.69,407,173,408.22,169.32,409.36Z" style="fill:#dbdbdb"></path><path d="M164.43,406.66c3.61-1.37,7.25-2.68,10.9-4s7.3-2.53,11-3.78q2.75-.93,5.53-1.77a8.65,8.65,0,0,1,1.46-.31l1.44-.21,2.87-.39c3.84-.49,7.68-1,11.53-1.33-3.82.66-7.64,1.24-11.46,1.84l-2.86.43a22.19,22.19,0,0,0-2.81.53c-1.83.57-3.66,1.21-5.5,1.8l-11,3.63C171.8,404.33,168.12,405.52,164.43,406.66Z" style="fill:#dbdbdb"></path><path d="M159.53,404c3.62-1.37,7.26-2.68,10.9-4s7.31-2.53,11-3.78q2.74-.93,5.53-1.77a8.45,8.45,0,0,1,1.46-.31l1.43-.21,2.88-.39c3.84-.49,7.67-.95,11.52-1.33-3.81.66-7.63,1.24-11.45,1.84l-2.86.43a22.19,22.19,0,0,0-2.81.53c-1.84.57-3.66,1.21-5.5,1.8l-11,3.63C166.91,401.63,163.23,402.82,159.53,404Z" style="fill:#dbdbdb"></path><path d="M177.61,414.72q5.26-2,10.57-4c3.52-1.31,7.08-2.52,10.63-3.77,1.77-.62,3.56-1.22,5.35-1.79.45-.14.89-.29,1.38-.41s.94-.17,1.41-.24l2.79-.39c3.73-.48,7.47-.93,11.21-1.28-3.7.65-7.42,1.22-11.13,1.81l-2.79.43c-.46.07-.93.14-1.36.24s-.88.27-1.32.41l-5.34,1.8c-3.57,1.19-7.11,2.44-10.68,3.62S181.2,413.58,177.61,414.72Z" style="fill:#dbdbdb"></path><path d="M181,417q5.34-1.83,10.73-3.53c3.58-1.17,7.19-2.25,10.79-3.36,1.81-.54,3.59-1.1,5.46-1.55l5.55-1.08c3.7-.67,7.4-1.35,11.13-1.95-3.67.89-7.35,1.68-11,2.48l-5.53,1.14c-1.78.45-3.6,1-5.4,1.55-3.62,1-7.21,2.17-10.83,3.2S184.65,416,181,417Z" style="fill:#dbdbdb"></path><path d="M234.18,404.12c3.32-1.3,6.68-2.47,10.08-3.55.85-.26,1.69-.54,2.56-.78.43-.12.86-.24,1.32-.33l1.32-.24,5.25-.94c3.5-.64,7-1.22,10.52-1.84s7-1.18,10.54-1.74q-5.22,1.08-10.47,2.11c-3.5.67-7,1.37-10.49,2l-5.25,1-1.31.25c-.41.09-.84.22-1.26.34l-2.56.75C241,402.18,237.62,403.2,234.18,404.12Z" style="fill:#dbdbdb"></path><path d="M230.93,401.11q4.92-1.61,9.91-2.93c1.67-.44,3.32-.92,5-1.22L251,396c3.39-.64,6.78-1.23,10.17-1.84s6.79-1.19,10.19-1.75c-3.37.72-6.74,1.44-10.12,2.12s-6.75,1.38-10.14,2l-5.07,1c-.85.15-1.66.37-2.5.58l-2.51.61Q236,400,230.93,401.11Z" style="fill:#dbdbdb"></path><path d="M227.77,398.42q4.9-1.57,9.86-2.89c1.66-.43,3.3-.9,5-1.25l5.08-.8c3.38-.54,6.77-1,10.15-1.54s6.78-1,10.17-1.43c-3.36.62-6.73,1.24-10.1,1.81s-6.74,1.17-10.12,1.71c-1.68.29-3.39.55-5.05.85l-5,1.21Q232.81,397.35,227.77,398.42Z" style="fill:#dbdbdb"></path><path d="M225.06,396.39c3.16-1.38,6.39-2.56,9.67-3.63.41-.14.82-.26,1.25-.37a8.48,8.48,0,0,1,1.3-.24l2.56-.35,5.12-.66c6.83-.84,13.66-1.66,20.5-2.38-6.8,1-13.62,2-20.43,2.92l-5.11.7-2.55.36a14.26,14.26,0,0,0-2.46.61C231.64,394.36,228.38,395.48,225.06,396.39Z" style="fill:#dbdbdb"></path><path d="M222.1,394c3.16-1.38,6.39-2.56,9.67-3.63.41-.14.82-.26,1.25-.37a9.93,9.93,0,0,1,1.3-.25l2.56-.34,5.12-.66c6.83-.84,13.66-1.66,20.5-2.38-6.8,1-13.62,2-20.43,2.92l-5.11.7-2.56.36a14.39,14.39,0,0,0-2.45.61C228.67,391.92,225.42,393,222.1,394Z" style="fill:#dbdbdb"></path><path d="M219.13,391.51c3.16-1.38,6.4-2.56,9.68-3.64.41-.13.82-.25,1.25-.36a9.62,9.62,0,0,1,1.3-.25l2.56-.34,5.12-.66c6.82-.85,13.66-1.66,20.5-2.38-6.8,1-13.62,2-20.43,2.92l-5.12.69-2.55.36a14.42,14.42,0,0,0-2.45.62C225.71,389.48,222.46,390.59,219.13,391.51Z" style="fill:#dbdbdb"></path><path d="M216.17,389.07c3.16-1.38,6.39-2.56,9.67-3.64.42-.13.83-.25,1.25-.36a8.63,8.63,0,0,1,1.31-.25l2.56-.34,5.11-.66c6.83-.85,13.66-1.66,20.51-2.39-6.81,1-13.62,2-20.44,2.93l-5.11.69-2.55.36A13.54,13.54,0,0,0,226,386C222.75,387,219.5,388.15,216.17,389.07Z" style="fill:#dbdbdb"></path><path d="M212.26,387c3.17-1.38,6.4-2.56,9.68-3.64.41-.13.82-.25,1.25-.36a9.93,9.93,0,0,1,1.3-.25l2.56-.34,5.12-.66c6.83-.85,13.66-1.66,20.5-2.38-6.8,1-13.62,2-20.43,2.92l-5.11.69-2.56.36a14.42,14.42,0,0,0-2.45.62C218.84,385,215.59,386.06,212.26,387Z" style="fill:#dbdbdb"></path><path d="M208.47,384.92c3.16-1.38,6.39-2.56,9.67-3.64.41-.13.82-.25,1.25-.36a8.51,8.51,0,0,1,1.3-.25l2.56-.34,5.12-.66c6.83-.85,13.66-1.66,20.5-2.39-6.8,1-13.62,2-20.43,2.93l-5.11.69-2.56.36a14.42,14.42,0,0,0-2.45.62C215.05,382.89,211.79,384,208.47,384.92Z" style="fill:#dbdbdb"></path><path d="M205.5,382.48c3.16-1.38,6.39-2.56,9.66-3.63.41-.14.82-.26,1.25-.37a8.48,8.48,0,0,1,1.3-.24l2.56-.31,5.12-.57c6.84-.72,13.67-1.4,20.51-2-6.81.9-13.63,1.72-20.44,2.55l-5.12.6-2.55.32a13.4,13.4,0,0,0-2.44.61C212.07,380.45,208.82,381.56,205.5,382.48Z" style="fill:#dbdbdb"></path><path d="M202.54,380c3.15-1.37,6.37-2.55,9.64-3.62.41-.14.82-.26,1.25-.37a8.05,8.05,0,0,1,1.3-.24l2.57-.25,5.12-.47c6.84-.59,13.67-1.13,20.52-1.58-6.82.76-13.64,1.44-20.47,2.12l-5.11.5-2.56.28a13.47,13.47,0,0,0-2.43.6C209.1,378,205.86,379.12,202.54,380Z" style="fill:#dbdbdb"></path><path d="M199.58,377.59c3.15-1.37,6.36-2.55,9.62-3.62.41-.13.82-.26,1.24-.36a6.53,6.53,0,0,1,1.32-.24l2.56-.18,5.13-.31c3.42-.19,6.84-.33,10.26-.49s6.84-.27,10.26-.37c-6.83.51-13.66,1-20.49,1.41l-5.12.34-2.55.2a11.89,11.89,0,0,0-2.42.6C206.13,375.57,202.89,376.68,199.58,377.59Z" style="fill:#dbdbdb"></path><path d="M184.42,420.3c3.63-1.14,7.28-2.22,10.94-3.28s7.32-2.07,11-3.1c1.84-.51,3.66-1,5.54-1.45l5.58-1.19c3.73-.76,7.46-1.52,11.2-2.2-3.68,1-7.39,1.84-11.09,2.71L212,413.05c-1.82.45-3.66,1-5.5,1.47l-11,3C191.8,418.44,188.12,419.4,184.42,420.3Z" style="fill:#dbdbdb"></path><path d="M236.54,407q5.51-1.59,11.05-3.05c3.68-1,7.39-1.92,11.09-2.87,1.86-.48,3.69-.92,5.59-1.34l5.62-1.07c3.76-.69,7.51-1.37,11.29-2-3.72.88-7.46,1.68-11.19,2.48l-5.61,1.14c-1.84.42-3.7.92-5.55,1.36L247.7,404.4C244,405.29,240.27,406.17,236.54,407Z" style="fill:#dbdbdb"></path></g><g id="freepik--character-2--inject-79"><polygon points="416.19 369.47 504.57 369.47 486.95 266.97 420.86 266.97 416.19 369.47" style="fill:#dbdbdb"></polygon><polygon points="416.19 369.47 423.94 369.47 428.29 266.97 420.86 266.97 416.19 369.47" style="fill:#a6a6a6"></polygon><path d="M457.66,328.34c9.52,12.31,26.44,17.31,41.3,18.56,15.15,1.28,32.24.18,46.11-6.6,6.08-3,11.69-7.35,15.3-13.13,3.89-6.2,4.46-12.78.52-18.74-3.17-4.8-10.24-8.33-10.17-12.67s3.66-7.71,4.72-11.86c1.79-7.11-1.94-12.52-6.81-17.24-11.5-11.22-8-25.66-15-39.45-3.95-7.85-15.26-22.4-36.1-16.26-7.93,2.34-13.46,9.47-16.81,16.89-3.93,8.74-1.46,20.37-6.23,28.75-4.08,7.14-9.88,8.19-13.79,15.69-1.7,3.25-2.55,7.07.77,14.89,1.21,2.82,2.46,7.12,1.25,10.44-1.69,4.59-7.16,6.6-9,11.39C451.11,315.59,453.46,322.91,457.66,328.34Z" style="fill:#263238"></path><path d="M555.72,328.91c7.13-1,10.36-10.88,5.95-16-2.8-3.25-7.07-4.81-9.87-8.06-4.61-5.33-.33-10,2.3-15.11,5.71-11.08-1.68-18.75-9.51-25.8-6-5.35-7.07-11.38-7.33-19.11,0-.12.2-.13.21,0,.46,5.69,1.15,11.29,5,15.81,3.13,3.67,7.35,6.21,10.38,10,5.09,6.38,5.61,13.22,1.82,20.35-1.08,2-3.12,4.35-3.59,6.59-1.09,5.3,2.83,8.11,6.54,10.79,2.85,2.06,6,4.34,7,7.91,1.55,5.39-3.34,12.59-8.86,13.08C555.53,329.37,555.43,329,555.72,328.91Z" style="fill:#263238"></path><path d="M551.76,334.27c4.4-2.59,9.18-4.94,11.82-9.55,3.91-6.84-.75-12.11-5.1-17.07-1.87-2.13-3.42-4.25-3.28-7.2.22-4.43,3.47-8.09,4.07-12.47,1.42-10.46-8.73-17-13.77-24.72-5.16-7.93-6.73-17.15-8.51-26.25a.15.15,0,0,1,.3-.06c2.35,11.63,5.58,22.57,13.57,31.63,5.57,6.32,11.5,13.16,8.74,22.15-.68,2.2-2,4.2-2.64,6.4-1.25,4.38-.11,7.25,2.72,10.44s5.88,6.2,6.34,10.5c.89,8.35-7.43,13.75-13.93,16.86A.37.37,0,0,1,551.76,334.27Z" style="fill:#263238"></path><path d="M451.82,306.36c3.57-5,9.21-7.5,7.78-14.74-1-5-3.64-9-2.61-14.26.84-4.37,3.64-7.73,6.93-10.58,4.18-3.63,8.79-6.55,11.85-11.29,3.33-5.17,4.85-11.25,6.42-17.11,0-.12.23-.07.2,0-1.65,8-3.66,16.17-9.69,22.11-3.14,3.1-6.95,5.44-10.06,8.57-5.6,5.64-5.57,11.85-3.2,18.94,1.1,3.26,2.06,6.52.58,9.83s-4.62,5.34-6.81,8.1c-9.32,11.73,4.88,26.71,16.65,28.9.53.1.46.92-.08.84-8.81-1.38-18.1-9.46-20-18.22A13.93,13.93,0,0,1,451.82,306.36Z" style="fill:#263238"></path><path d="M452.2,312.66c.1-5.27,3.37-8.18,5.89-12.31,4-6.49-.13-12.91-.61-19.77-.34-4.79,1.59-8.84,4.52-12.32,3.95-4.7,9-8,12.23-13.43A34.3,34.3,0,0,0,479,235.72c0-.13.17-.11.18,0a32.53,32.53,0,0,1-8.43,24.93c-4,4.26-9.3,7.73-11.51,13.46-2.34,6.07.7,11.62,1.52,17.66A13.47,13.47,0,0,1,458.16,302c-1.59,2.25-3.54,4.31-4.43,7-1.2,3.68-.41,7.79,1.09,11.29,4.73,11.09,16.3,18,27.32,19.84.39.06.36.7,0,.64a38.39,38.39,0,0,1-25.24-15.23C454.21,321.88,452.12,317.33,452.2,312.66Z" style="fill:#263238"></path><path d="M489.63,288.21c1.28,12.81,9.22,56.49,22.35,68.51,8.85,8.1,50.35,14.88,61.07,13.32,4.39-.64,3.93-37.88-.58-39.34-4.91-1.58-40.74-.13-43.65-2.17S511.74,297.7,501,282.87C494.57,274,488.41,276,489.63,288.21Z" style="fill:#dd6a57"></path><path d="M568.93,330.23c16.58-1.32,34.57-.4,49.39,8.64a8.62,8.62,0,0,1,3.7,4.25c6.71,3.94,6.87,8.29,6.87,8.29,5.14,5.58,4.69,10.06,4.69,10.06s7.84,4.7,5.78,9.91c-2.29,5.85-12.85-1.9-21.26-2.62-19.28-1.63-47.14,1.44-52.74,1.52Z" style="fill:#dd6a57"></path><path d="M599.1,352.85c5.66.6,11.24,1,16.79,2.39,6.1,1.49,11.71,3.95,17.49,6.3a.15.15,0,0,0,.13-.27c-9.78-5.92-23-9-34.39-8.67C598.85,352.61,598.82,352.82,599.1,352.85Z" style="fill:#263238"></path><path d="M598.39,341.08c5.48.88,15.1,2.49,30.42,10.5.05,0,.11-.06.06-.09a59,59,0,0,0-30.43-10.67C598.09,340.79,598,341,598.39,341.08Z" style="fill:#263238"></path><path d="M598.13,334.74c9.26,1.86,14.86,4.2,23.83,8.4,0,0,.11-.06.06-.09-9.7-5.84-13.87-6.87-23.87-8.64C597.81,334.35,597.77,334.67,598.13,334.74Z" style="fill:#263238"></path><path d="M594.75,368.26c-2.6.79-2.21,2.15,2.28,3.91s23.72,4.91,22.06,11.53-28.75,1.78-36-1.72-17.73-11.7-17.73-11.7C570.82,370.17,584,368.63,594.75,368.26Z" style="fill:#dd6a57"></path><path d="M495.57,325l24.87-13.33s1.7,3.23-.47,4.8-4.64-.61-4.64-.61.87,2.7-1.37,4.14-4.33-1.22-4.33-1.22.75,3.42-1.67,4.73-4.67-1.32-4.67-1.32a3.62,3.62,0,0,1-1.67,4.6C498.13,328.63,495.57,325,495.57,325Z" style="fill:#fff"></path><path d="M495.62,326.5l25.57-14.34s-10-17.69-20.19-31-14.29-5.66-12.82,8.8S495.62,326.5,495.62,326.5Z" style="fill:#455a64"></path><path d="M516.76,307.66a235,235,0,0,0-21.82,11.21c-.11.06,0,.23.1.18a238.82,238.82,0,0,0,21.84-11.18C517,307.8,516.88,307.6,516.76,307.66Z" style="fill:#263238"></path><path d="M516.36,314.86,495.62,326.5s-6-22.09-7.44-36.55c-.7-6.88-.15-12.22,1.74-14.49Z" style="fill:#263238"></path><path d="M429.31,369.47l84.42,0c.19-.34-4.23-72.28-12.77-90.33-2.89-6.12-13.11-10.61-23-3.3C451.29,295.71,429.31,369.47,429.31,369.47Z" style="fill:#455a64"></path><path d="M500.22,327.09s5.41-7.65,6.09-15.67c.42-4.86-1.54-9.54-3.38-8.87-3.72,1.35-3.38,11.12-3.38,11.12s-1.29-11-5.8-10.88-4.31,8.37-2.49,12.49A30.06,30.06,0,0,0,500.22,327.09Z" style="fill:#37474f"></path><path d="M487.34,272c-4.62-.42-5.42,9.68-1.61,17.48,2.46,5,6.7,7.87,8.15,7.75s1.93-4.41,1.93-4.41,2.3,3.59,4.24,2.89C502.46,294.8,497.89,272.92,487.34,272Z" style="fill:#fff"></path><path d="M485,275.17c-.21,1.68,3.52,14.44,10.73,16.69,2.35.73,6.9-11.91,6.9-11.91l.55-.86,7.68-12-13.49-17.54S485.06,274.46,485,275.17Z" style="fill:#dd6a57"></path><path d="M510.83,267.1l-7.68,12-.55.86s-.83,2.29-2,4.86c-9.14-4.95-10.92-13.82-11-19.53,3.5-7.21,7.71-15.72,7.71-15.72Z" style="fill:#263238"></path><path d="M542.19,252c-3.66,30.3-22.22,31.53-28.75,30.73-5.93-.72-26-3.93-25.52-34.45s15.75-38.38,29.4-37.45S545.84,221.69,542.19,252Z" style="fill:#dd6a57"></path><path d="M537.72,250.44c-.68-.22-1.28-.54-1.94-.82a3.41,3.41,0,0,1-1.82-1.21,1.07,1.07,0,0,1,.25-1.3,2.69,2.69,0,0,1,2.73-.12,4,4,0,0,1,2.17,1.84A1.16,1.16,0,0,1,537.72,250.44Z" style="fill:#263238"></path><path d="M517.18,247.49c.72,0,1.39,0,2.11,0a3.38,3.38,0,0,0,2.14-.45,1.08,1.08,0,0,0,.25-1.3,2.69,2.69,0,0,0-2.49-1.12,4,4,0,0,0-2.7.91A1.16,1.16,0,0,0,517.18,247.49Z" style="fill:#263238"></path><path d="M519.25,251.85c-3.26-.81-4.63,5.76-1.61,6.5S522,252.52,519.25,251.85Z" style="fill:#263238"></path><path d="M517.88,251.93c-.65.25-1.35.79-2,.71s-1.28-.9-1.66-1.67c0-.08-.11,0-.13.05-.28,1.26-.07,2.65,1.24,3.12s2.31-.51,2.89-1.71C518.28,252.21,518.15,251.82,517.88,251.93Z" style="fill:#263238"></path><path d="M534.07,254.2c3.32.46,2.15,7.06-.92,6.64S531.28,253.81,534.07,254.2Z" style="fill:#263238"></path><path d="M535.37,254.87c.46.45.86,1.17,1.48,1.32s1.37-.44,1.95-1c.06-.07.11,0,.09.09-.18,1.26-.83,2.5-2.09,2.53s-1.77-1.2-1.85-2.51C534.94,255,535.18,254.7,535.37,254.87Z" style="fill:#263238"></path><path d="M516.6,270c.36.6.68,1.37,1.39,1.62a5.57,5.57,0,0,0,2.3.05.08.08,0,0,1,.06.13,2.83,2.83,0,0,1-2.84.43,2.21,2.21,0,0,1-1.13-2.18C516.38,269.92,516.55,269.92,516.6,270Z" style="fill:#263238"></path><path d="M526.57,264.31a45.59,45.59,0,0,1-.46,4.56c0,.14-.38.13-.88.07,0,0,0,0-.05,0a6.93,6.93,0,0,1-6.13-3.86.15.15,0,0,1,.25-.15,10.5,10.5,0,0,0,5.88,3c.18-.38.14-5.42.36-5.34.92.35,2.52,1.1,3.12,1.38.16-2,.33-7.81.63-11.51,0-.23.38-.23.39,0a97.64,97.64,0,0,1,.21,13.05C529.87,265.83,527.1,264.67,526.57,264.31Z" style="fill:#263238"></path><path d="M525.33,267.81a8.45,8.45,0,0,1-3.6,2.36,3.72,3.72,0,0,1-2.33,0c-1.65-.57-1.57-2.11-1.15-3.41a8.86,8.86,0,0,1,.91-2A11.08,11.08,0,0,0,525.33,267.81Z" style="fill:#263238"></path><path d="M521.73,270.17a3.72,3.72,0,0,1-2.33,0c-1.65-.57-1.57-2.11-1.15-3.41C520,267.05,521.71,268.41,521.73,270.17Z" style="fill:#ff9cbd"></path><path d="M487.73,248.62c3.39.55,14.13-6.73,18-22.81,0,0-4.45,14.21-6,16.09s6-4.1,9.29-17c0,0,6.06,6.8,11.83,9.89s9.54,3.85,10.08,3.51-7.88-5.2-9.7-8.57c0,0,14.67,11.23,22.08,13.47.86.26,5.87-17.44-4.1-27.63s-30.25-6.06-36.28-2.37c0,0-6-.46-14.26,6.76S484.08,248,487.73,248.62Z" style="fill:#263238"></path><polygon points="499.58 243.34 492.64 235.84 490.8 237.83 498.52 244.44 499.58 243.34" style="fill:#FFC727"></polygon><polygon points="497.97 245.4 489.81 239.25 488.35 241.54 497.12 246.67 497.97 245.4" style="fill:#FFC727"></polygon><path d="M492.45,251.18s-4.56-10.69-9.28-9.25-2.65,16,1.93,18.87a5.16,5.16,0,0,0,7.34-1.3Z" style="fill:#dd6a57"></path><path d="M483.87,246.08a.07.07,0,0,0-.06.13c3.19,2.14,4.35,5.75,4.93,9.37-.77-1.5-2-2.51-4-1.63-.11,0-.05.2,0,.2A3.17,3.17,0,0,1,488,256a14.63,14.63,0,0,1,1.06,3.11c.1.35.7.3.65-.09,0,0,0-.05,0-.08C490.69,254.47,488.54,247.53,483.87,246.08Z" style="fill:#263238"></path><path d="M492.33,249.3a9.86,9.86,0,0,0-1.94-3.55,11.66,11.66,0,0,0-1.51-1.47,10.4,10.4,0,0,0-1.76-1.27c-.17-.09-.46-.15-.3,0,1.12.63,2,2.45,2.54,3.6a31.09,31.09,0,0,1,1.28,3.54,79.5,79.5,0,0,1,1.64,8.68c.05.24.43.32.47,0A22.27,22.27,0,0,0,492.33,249.3Z" style="fill:#ebebeb"></path><path d="M495,273.49a7.27,7.27,0,0,1-3.57-2.71A44.52,44.52,0,0,1,487,265a29,29,0,0,1-2-4.28l.05,0a7.12,7.12,0,0,0,1.73.8c.39.83.82,1.65,1.27,2.46a30.21,30.21,0,0,0,3.36,4.88l1.92,2.24c.6.69,1.32,1.29,1.88,2A.2.2,0,0,1,495,273.49Z" style="fill:#ebebeb"></path><path d="M492.1,257.52c.2-1.46,12.2,1.88,14.54,1.9s17.36-1,22.61,0c3.51.68,8.72,4.78,11.77,4.72.77,0-4.16,11.52-10.27,17.21-1.69,1.58-10.56,3-14.25,2.65-9.64-.83-21.31-8.33-23.51-10.89C491.78,271.69,491.34,263,492.1,257.52Z" style="fill:#ebebeb"></path><path d="M539.07,266a11.07,11.07,0,0,1-4.09-1.14c-1.23-.55-2.46-1.09-3.71-1.57a20.16,20.16,0,0,0-8.37-1.11c-3,.16-6,.68-9,.88a38.21,38.21,0,0,1-9.18-.61c-1.67-.28-3.33-.62-5-1s-3.48-.71-5.19-1.18c-.09,0-.13.12,0,.15,1.51.42,3,1,4.5,1.42s3,.85,4.56,1.17a40.63,40.63,0,0,0,8.93.95c6-.07,12-2.07,17.87-.14,1.48.48,2.88,1.19,4.37,1.63a13.87,13.87,0,0,0,4.34.63C539.14,266.05,539.13,266,539.07,266Z" style="fill:#dbdbdb"></path><path d="M532.18,278.31c-4.51,2.19-9.63,2.39-14.54,1.8a36.08,36.08,0,0,1-7.65-1.56c-2.53-.89-5-2.09-7.42-3.22a62.69,62.69,0,0,1-7.86-4.15c-.08-.05-.17.07-.1.13a50.55,50.55,0,0,0,6.89,4.3c2.43,1.25,4.91,2.5,7.45,3.5A31.78,31.78,0,0,0,517,280.9a33.19,33.19,0,0,0,7.52.17,17.11,17.11,0,0,0,7.71-2.67C532.3,278.36,532.24,278.28,532.18,278.31Z" style="fill:#dbdbdb"></path><path d="M536.92,269.52c-2.73,0-5.17-.83-7.76-1.58a24.37,24.37,0,0,0-8.12-.62,73.83,73.83,0,0,1-16.79-1.11A63,63,0,0,1,495.1,264c-.09,0-.13.12,0,.15a76.29,76.29,0,0,0,8.11,2.42,61.11,61.11,0,0,0,8.19,1.25,68,68,0,0,0,8.44.19,33.7,33.7,0,0,1,8.69.29c2.74.61,5.59,1.91,8.44,1.39C537,269.64,537,269.52,536.92,269.52Z" style="fill:#dbdbdb"></path><path d="M534.91,273.34c-1.29.18-2.56.47-3.85.65s-2.6.3-3.91.38a56.07,56.07,0,0,1-8,0A67.82,67.82,0,0,1,503.87,271c-1.38-.43-2.76-.9-4.13-1.38l-2.06-.69a19.46,19.46,0,0,1-2.36-.84c-.11-.05-.18.12-.06.15a37.13,37.13,0,0,1,3.89,1.56c1.18.47,2.37.9,3.57,1.32a77.19,77.19,0,0,0,7.64,2.29,53.3,53.3,0,0,0,15.82,1.5,42.23,42.23,0,0,0,4.2-.51,28,28,0,0,0,4.55-1S535,273.34,534.91,273.34Z" style="fill:#dbdbdb"></path><path d="M470.61,289.26c-10.28,28.48-8.45,73.75-5.82,85.25,4,17.51,59.26,32.26,70.16,35.92,4.65,1.56,12.32-42.34,7.39-44.11-4.3-1.54-47.32-11.46-47.66-13.38-.28-1.58-7.24-37.71-11.11-60.76C480.23,272.32,473.32,281.73,470.61,289.26Z" style="fill:#dd6a57"></path><path d="M583.25,339.53s-3.32-8.68-9.7-5.55S572,345.05,572,345.05Z" style="fill:#eb9481"></path><rect x="585.56" y="338.62" width="12.53" height="65.25" transform="translate(1286.68 443.86) rotate(153.87)" style="fill:#FFC727"></rect><rect x="570.56" y="341.51" width="14.63" height="2.59" transform="translate(1247.67 396.02) rotate(153.87)" style="fill:#37474f"></rect><rect x="571.82" y="344.08" width="14.63" height="2.59" transform="translate(1251.2 400.37) rotate(153.87)" style="fill:#37474f"></rect><path d="M600.57,403.3l7.78,5.15,2.56,1.71.23-3.08.69-9.31-1.85-.9s-.39,2-.4,2l-1.86-.9s-.38,2-.39,2l-1.83-.91s-.41,2-.43,2l-1.83-.92s-.41,2-.42,2l-1.83-.91Z" style="fill:#ebebeb"></path><polygon points="608.35 408.45 610.9 410.16 611.14 407.08 608.35 408.45" style="fill:#37474f"></polygon><path d="M604.25,375.11c-.83,5.57-14.41,2.38-14.41,2.38a10.42,10.42,0,0,1,3.33,6.24c.41,4.27-6.1,6.78-6.1,6.78a12.9,12.9,0,0,1,2.46,7.15c0,4.12-6.23,7.59-6.23,7.59a11.28,11.28,0,0,1-1.8,7.65c-4.24,5.85-15.25,5.09-22.25,4.69s-26.49-8.13-30.35-9.23l2.24-45s31.92-7.1,40.09-5.45C578.11,359.33,605.51,366.58,604.25,375.11Z" style="fill:#dd6a57"></path><path d="M589.75,377.31c-7-3.23-14.68-4.79-22.15-6.22a.13.13,0,0,0,0,.26c7.44,1.33,14.7,4.68,22.08,6.31A.19.19,0,0,0,589.75,377.31Z" style="fill:#263238"></path><path d="M587,389.91a20.21,20.21,0,0,0-5.12-1.07c-1.84-.26-3.68-.48-5.52-.68-3.69-.39-7.39-.7-11.1-.9-.16,0-.22.25,0,.26,3.67.4,7.35.85,11,1.4q2.75.42,5.49.87a22.89,22.89,0,0,0,5.2.62A.27.27,0,0,0,587,389.91Z" style="fill:#263238"></path><path d="M583.14,405.23c-1.36-.65-3.17-.6-4.66-.72l-5.05-.46c-3.37-.33-6.74-.65-10.09-1.09a.13.13,0,0,0-.05.26c3.41.46,6.81,1,10.22,1.41,1.67.21,3.35.42,5,.61a13,13,0,0,0,4.6.16A.09.09,0,0,0,583.14,405.23Z" style="fill:#263238"></path><path d="M581.09,360.49c-4.25-1.41-8.59-3.18-13.13-3.15a117.87,117.87,0,0,0-13.66,1.09q-6.74.82-13.39,2.2c-2.25.47-4.47,1-6.7,1.53a10.73,10.73,0,0,1-6.54.06c-2.54-.56-5.07-1.19-7.59-1.84-1.22-.32-2.44-.62-3.66-1s-2.61-.61-3.91-.95c-.19-.05-.24.22-.07.29,1.07.41,2.11.89,3.21,1.25s2.24.73,3.37,1.08c2.18.67,4.39,1.25,6.6,1.8s4.3,1.21,6.53.91,4.27-.95,6.39-1.42a157.75,157.75,0,0,1,27.11-3.64,31.93,31.93,0,0,1,7.81.5c1.22.24,2.42.55,3.63.81s2.62.47,3.93.71A.14.14,0,0,0,581.09,360.49Z" style="fill:#263238"></path><path d="M461.45,326.81l28.12-2.4s.27,3.65-2.34,4.23-4-2.39-4-2.39a3.69,3.69,0,0,1-2.9,3.25c-2.63.43-3.49-2.84-3.49-2.84s-.67,3.44-3.41,3.68-3.77-3-3.77-3a3.61,3.61,0,0,1-3.35,3.56C462.36,331.16,461.45,326.81,461.45,326.81Z" style="fill:#fff"></path><path d="M460.9,328.21l29.15-3S487.91,305,483.8,288.7s-10.88-10.85-15.25,3S460.9,328.21,460.9,328.21Z" style="fill:#455a64"></path><path d="M487.78,319.29a235.47,235.47,0,0,0-24.48,1.65c-.12,0-.1.21,0,.21a235.81,235.81,0,0,0,24.48-1.63C487.93,319.51,487.91,319.29,487.78,319.29Z" style="fill:#263238"></path><path d="M485.76,297.75c.86,3.42,1.58,6.87,2.22,10.34,0-1.19,0-2.39-.05-3.58,0-.15.23-.14.23,0,0,1.11,0,2.23.08,3.34l0,1.61v.29c.08.47.17.94.25,1.41v0s0,0,0,0l.06.37c.75,4.52,1.7,9.14,1.79,13.73,0,.16-.22.15-.26,0-1.21-4.47-1.69-9.18-2.43-13.74s-1.46-9.21-2-13.84A.05.05,0,1,1,485.76,297.75Z" style="fill:#263238"></path><path d="M462.47,315.13c0-.23.09-.46.13-.69,0-.41-.05-.83-.07-1.23,0-.66,0-1.33,0-2,0-1.35.12-2.71.21-4.05,0-.06.09-.06.09,0,0,1.33.07,2.66.07,4,0,.64,0,1.27,0,1.91a1.09,1.09,0,0,0,0,.18c.7-3.59,1.46-7.16,2.37-10.71,0-.09.17-.06.16,0-.5,4.36-1.18,8.67-2,13A111.87,111.87,0,0,1,461,327.87c.28,0,.56.05.85.1a.11.11,0,0,1,0,.22c-.39.1-.78.12-1.17.22a.3.3,0,0,1-.35-.31C460.58,323.76,461.66,319.41,462.47,315.13Z" style="fill:#263238"></path></g><g id="freepik--character-1--inject-79"><polygon points="60.71 369.47 149.08 369.47 131.46 266.97 65.38 266.97 60.71 369.47" style="fill:#dbdbdb"></polygon><polygon points="60.71 369.47 68.46 369.47 72.81 266.97 65.38 266.97 60.71 369.47" style="fill:#a6a6a6"></polygon><path d="M137,285.46c1.55,12.77,9.54,59.7,22.68,71.72,8.85,8.09,51.16,11.63,61.88,10.06,4.38-.64,3.11-34.63-1.4-36.08-4.91-1.59-37.6-.51-40.5-2.55s-18.39-30-29.13-44.87C144.05,274.86,136.08,278.26,137,285.46Z" style="fill:#eb9481"></path><path d="M216.71,367.58c4.14.13,27-.21,32.24-1.7s20-6.87,19.24-11S263,352,263,352s6.48-3.47,4.75-7.34C266.39,341.57,260,343,260,343s6.9-4.18,4.7-7.8c-2-3.29-8.47-.06-8.47-.06s5.42-4.08,2.87-6.88c-3.05-3.37-12.43,3.69-18.32,4.9-1.34.28-27.55,3.65-27.55,3.65Z" style="fill:#eb9481"></path><path d="M256.31,334.75c-7.56,4.58-10.82,6.25-19.29,6.93-.16,0-.18.26,0,.26,8.35.09,12.37-1.61,19.57-6.87C256.92,334.82,256.66,334.54,256.31,334.75Z" style="fill:#263238"></path><path d="M260,342.92c-7.64,4.75-11.84,5.73-20.66,7.09-.12,0-.1.24,0,.23,8.76-.62,13.84-1.37,20.85-7.11C260.5,342.87,260.32,342.7,260,342.92Z" style="fill:#263238"></path><path d="M262.58,352.06c-7.73,4.06-12.32,5.58-21,5.8a.16.16,0,0,0,0,.32c8.92.64,14.66-1.21,21.15-5.87C263.12,352,263.06,351.8,262.58,352.06Z" style="fill:#263238"></path><path d="M206.45,330.92l15-4.58c4.66-1.4,17.26-7.19,20.66-4.76,3.82,2.73-5.45,11.3-13.74,13.87,0,0,.09,14.25-7.75,17.09S206.45,330.92,206.45,330.92Z" style="fill:#eb9481"></path><path d="M227.66,336c.23,5.54-1.6,12.63-6.16,15.76a.13.13,0,0,0,.13.22c5.34-2.7,7.54-10.87,7-15.81C228.56,335.23,227.6,334.58,227.66,336Z" style="fill:#263238"></path><path d="M148.05,344.42,175.33,318s-12.59-21.4-23.3-33.54-17.14-11.81-15.33,11.84S148.05,344.42,148.05,344.42Z" style="fill:#FFC727"></path><path d="M169.75,312.55c-2.18,1.61-21.2,20.9-22.77,23.11-.08.11.07.25.18.17,2.2-1.62,21.14-21,22.7-23.18C169.9,312.59,169.81,312.5,169.75,312.55Z" style="fill:#263238"></path><path d="M159.49,333.33l-11.44,11.08s-9.54-24.49-11.35-48.14c-1.17-15.33,1.11-20.86,5.79-19.54Z" style="fill:#263238"></path><path d="M77.48,369.47l81.77.09c.18-.33-3.61-70.48-11.93-88.07-2.82-6-12.77-10.34-22.37-3.21C98.93,297.6,77.43,369.37,77.48,369.47Z" style="fill:#FFC727"></path><path d="M157.57,343.92H86.28c.65-1.69,1.32-3.43,2-5.21h68.8C157.27,340.48,157.42,342.22,157.57,343.92Z" style="fill:#455a64"></path><path d="M158.43,355.12H82.18c.57-1.64,1.2-3.38,1.86-5.21h74C158.19,351.74,158.31,353.48,158.43,355.12Z" style="fill:#455a64"></path><path d="M159.13,366.32H78.44c.43-1.36,1-3.12,1.69-5.21h78.7C159,363.19,159.06,365,159.13,366.32Z" style="fill:#455a64"></path><path d="M135.44,272.66C131,274.1,130,280.14,135,286s10.35,8.23,13.63,7.4c3.91-1,4.12-8.36.46-13.68C146.65,276.13,141.91,270.54,135.44,272.66Z" style="fill:#455a64"></path><path d="M133.86,276c.12,1.64,6.09,13.14,13.4,13.94,2.38.25,4.36-12.69,4.36-12.69l.36-.92,5.09-12.91-16.2-14.23S133.82,275.26,133.86,276Z" style="fill:#eb9481"></path><path d="M157.06,263.38,152,276.28l-.37.93s-.36,2.35-1,5c-9.66-3-13-11.17-14.2-16.6,2-7.55,4.41-16.48,4.41-16.48Z" style="fill:#263238"></path><path d="M184.72,249.49c-4.13,29.44-22.23,30.29-28.58,29.39-5.76-.81-25.28-4.32-24.21-34s16.06-37.09,29.33-35.93S188.84,220.05,184.72,249.49Z" style="fill:#eb9481"></path><path d="M180.4,247.89a18.5,18.5,0,0,1-1.88-.83,3.36,3.36,0,0,1-1.75-1.21,1.07,1.07,0,0,1,.27-1.27,2.62,2.62,0,0,1,2.65-.06,3.85,3.85,0,0,1,2.09,1.84A1.13,1.13,0,0,1,180.4,247.89Z" style="fill:#263238"></path><path d="M160.44,244.63a20.22,20.22,0,0,0,2.06,0,3.36,3.36,0,0,0,2.09-.4,1,1,0,0,0,.27-1.26,2.62,2.62,0,0,0-2.4-1.14,3.89,3.89,0,0,0-2.65.83A1.12,1.12,0,0,0,160.44,244.63Z" style="fill:#263238"></path><path d="M162.37,248.92c-3.15-.85-4.61,5.52-1.69,6.31S165,249.63,162.37,248.92Z" style="fill:#263238"></path><path d="M176.76,251.48c3.23.51,2,6.93-1,6.45S174.06,251.06,176.76,251.48Z" style="fill:#263238"></path><path d="M159.46,266.55c.34.59.63,1.35,1.32,1.6a5.29,5.29,0,0,0,2.24.09.07.07,0,0,1,0,.13,2.72,2.72,0,0,1-2.77.37,2.15,2.15,0,0,1-1.05-2.15C159.25,266.47,159.41,266.47,159.46,266.55Z" style="fill:#263238"></path><path d="M168,264.78a8.37,8.37,0,0,1-3.56,2.23,3.76,3.76,0,0,1-2.27-.08c-1.59-.59-1.48-2.09-1.06-3.34a9,9,0,0,1,.93-1.89A10.77,10.77,0,0,0,168,264.78Z" style="fill:#fff"></path><path d="M166.37,266.14l-.36.23a6.75,6.75,0,0,1-1.5-.61C165.14,265.9,165.76,266,166.37,266.14Z" style="fill:#dbdbdb"></path><path d="M163,265a5.19,5.19,0,0,1-1.09-.58,5.42,5.42,0,0,1-.81-.71l0-.14a1.72,1.72,0,0,0,.07-.21A21.63,21.63,0,0,0,163,265Z" style="fill:#dbdbdb"></path><path d="M169.28,261.19s-.23,3.05-.54,4.44c0,.13-.37.12-.85.05h-.06a6.79,6.79,0,0,1-5.9-3.87.15.15,0,0,1,.25-.15,10.21,10.21,0,0,0,5.68,3c.18-.36.23-5.27.44-5.19.9.36,2.44,1.12,3,1.4.2-2,.47-7.6.84-11.2,0-.22.37-.22.38,0a94.85,94.85,0,0,1-.05,12.71C172.46,262.73,169.78,261.55,169.28,261.19Z" style="fill:#263238"></path><path d="M133.34,249.54c5.84.83,10-13.39,10-13.39s7.77-.64,13.7-13c0,0,1.15,14.13,25.34,18a20.85,20.85,0,0,0,1.77-12.67,87.86,87.86,0,0,1,2.31,14.28s11.13-17.85-3.51-29.44c-5.83-4.6-16-6.91-33.43-3.72,0,0-.33-10-2.42-9.27s-1.15,10.2-1.15,10.2-6.11-4-7.64-2.9c-1.31.92,4.66,4.46,4.66,4.46s-11.19.34-12.85,12.66C128.63,236.05,130.45,249.12,133.34,249.54Z" style="fill:#263238"></path><path d="M144.9,212.47a12.61,12.61,0,0,0-15.3,6.7c-1.44,3.21-1.63,7.05-1.46,10.51a44.11,44.11,0,0,0,2.23,11c.07.19.37.06.3-.14a33.26,33.26,0,0,1-1.42-10.13,30.55,30.55,0,0,1,1.17-9.71,12.09,12.09,0,0,1,14.39-7.85C145,212.86,145.09,212.53,144.9,212.47Z" style="fill:#263238"></path><path d="M170.54,206.29a48.49,48.49,0,0,0-12.66,1,35.58,35.58,0,0,0-11.38,3.91.16.16,0,0,0,.13.29c7.15-2.73,15.12-3.55,22.73-3.56,7.13,0,14.93,2.23,18.42,9a.1.1,0,0,0,.18-.08C185.08,209.93,177.57,206.78,170.54,206.29Z" style="fill:#263238"></path><path d="M137.14,248.85s-4.24-10.5-8.87-9.18-2.87,15.51,1.53,18.41A5,5,0,0,0,137,257Z" style="fill:#eb9481"></path><path d="M128.88,243.72a.07.07,0,0,0-.06.13c3.06,2.14,4.12,5.68,4.62,9.22-.72-1.48-1.93-2.48-3.88-1.67-.1,0-.05.2.05.2a3.09,3.09,0,0,1,3.08,1.81,14.83,14.83,0,0,1,1,3c.09.34.67.3.64-.07a.28.28,0,0,1,0-.09C135.36,252,133.4,245.22,128.88,243.72Z" style="fill:#263238"></path><path d="M136.85,246.94a10,10,0,0,0-1.85-3.55,10.39,10.39,0,0,0-1.43-1.46,9.46,9.46,0,0,0-1.68-1.28c-.16-.09-.43-.15-.27-.05,1.06.64,1.92,2.45,2.4,3.6a31.47,31.47,0,0,1,1.22,3.54,84.33,84.33,0,0,1,1.56,8.68c0,.24.41.32.45,0A23.44,23.44,0,0,0,136.85,246.94Z" style="fill:#ebebeb"></path><path d="M139.41,271.13a7,7,0,0,1-3.4-2.71,42.94,42.94,0,0,1-4.21-5.74,30.39,30.39,0,0,1-2-4.58,6.67,6.67,0,0,0,1.62.79c.43.95.89,1.89,1.38,2.81a29.9,29.9,0,0,0,3.19,4.88c.6.75,1.21,1.49,1.82,2.24s1.26,1.29,1.79,2A.19.19,0,0,1,139.41,271.13Z" style="fill:#ebebeb"></path><path d="M136.63,255.16c.19-1.45,11.58,1.88,13.8,1.9s16.48-1,21.46,0c3.33.68,8.28,4.79,11.18,4.72.72,0-3.95,11.52-9.75,17.22-1.61,1.57-10,2.95-13.54,2.64-9.14-.83-20.22-8.33-22.31-10.89C136.32,269.33,135.91,260.66,136.63,255.16Z" style="fill:#ebebeb"></path><path d="M181.22,263.6a10.11,10.11,0,0,1-3.89-1.15c-1.16-.55-2.33-1.09-3.52-1.57a18.26,18.26,0,0,0-7.95-1.11c-2.86.16-5.69.69-8.55.89a35.46,35.46,0,0,1-8.72-.61c-1.58-.29-3.16-.62-4.72-1s-3.31-.71-4.92-1.18c-.1,0-.13.12,0,.15,1.44.42,2.84,1,4.27,1.43s2.88.84,4.33,1.16a36.76,36.76,0,0,0,8.48.95c5.67-.07,11.4-2.07,17-.14,1.4.49,2.72,1.19,4.14,1.63a12.57,12.57,0,0,0,4.12.63C181.28,263.69,181.27,263.6,181.22,263.6Z" style="fill:#dbdbdb"></path><path d="M174.67,276c-4.28,2.19-9.14,2.39-13.8,1.8a32.4,32.4,0,0,1-7.27-1.56,76.75,76.75,0,0,1-7-3.22,56.78,56.78,0,0,1-7.47-4.15c-.07,0-.16.08-.09.13a46.73,46.73,0,0,0,6.54,4.31c2.31,1.24,4.66,2.5,7.07,3.5a29.26,29.26,0,0,0,7.65,1.78,29.93,29.93,0,0,0,7.14.17,15.8,15.8,0,0,0,7.32-2.66C174.78,276,174.73,275.92,174.67,276Z" style="fill:#dbdbdb"></path><path d="M179.17,267.16c-2.59,0-4.91-.83-7.36-1.58a21.78,21.78,0,0,0-7.71-.61,66.61,66.61,0,0,1-15.94-1.12,56.73,56.73,0,0,1-8.68-2.24c-.09,0-.13.12,0,.16a72.29,72.29,0,0,0,7.7,2.42,57,57,0,0,0,7.78,1.24,59.6,59.6,0,0,0,8,.19,29.94,29.94,0,0,1,8.24.3c2.6.6,5.3,1.9,8,1.38C179.26,267.28,179.24,267.16,179.17,267.16Z" style="fill:#dbdbdb"></path><path d="M177.27,271c-1.23.17-2.44.46-3.66.64s-2.47.3-3.71.38a49.31,49.31,0,0,1-7.59,0,62,62,0,0,1-14.51-3.34c-1.31-.44-2.62-.91-3.92-1.39l-1.95-.69a16,16,0,0,1-2.25-.84c-.1-.05-.16.12-.06.15a34.12,34.12,0,0,1,3.7,1.56c1.12.47,2.25.9,3.39,1.32a72.68,72.68,0,0,0,7.25,2.3,48.45,48.45,0,0,0,15,1.49,38.48,38.48,0,0,0,4-.5,25.68,25.68,0,0,0,4.31-1S177.31,271,177.27,271Z" style="fill:#dbdbdb"></path><path d="M142.85,395.12s-8.92,2.55-6.36,9.18,10.89,2.51,10.89,2.51Z" style="fill:#eb9481"></path><rect x="168.94" y="356.71" width="12.53" height="65.25" transform="translate(475.14 85.5) rotate(68.86)" style="fill:#FFC727"></rect><rect x="138.34" y="399.46" width="14.63" height="2.59" transform="translate(466.9 120.36) rotate(68.86)" style="fill:#37474f"></rect><rect x="141.01" y="398.43" width="14.63" height="2.59" transform="translate(467.65 117.21) rotate(68.86)" style="fill:#37474f"></rect><path d="M207.89,383.42l5.81-7.31,1.93-2.4-3-.5-9.21-1.49-1.06,1.76s1.93.56,2,.58l-1.06,1.76,2,.58-1.07,1.74s1.94.58,2,.6L205,380.48l2,.6-1.07,1.74S207.86,383.4,207.89,383.42Z" style="fill:#ebebeb"></path><polygon points="213.7 376.12 215.63 373.71 212.58 373.21 213.7 376.12" style="fill:#37474f"></polygon><path d="M119.9,282.93c-20,17.19-53.69,63.72-49.87,74.56,7,20,62.51,32.07,73.29,35.11,4.59,1.3,10-41.78,5.07-43.27-4.25-1.29-33.63-3.23-34.51-6.94-.37-1.53,9.64-23.05,16.56-47.71C135.75,275.79,125.81,277.83,119.9,282.93Z" style="fill:#eb9481"></path><path d="M137,349.6s2.63.27,16.73-.56c9.74-.58,33.86,4.24,45.36,29.16,4.4,9.55-.37,16.81-6.71,7.7-4.47-6.41-7-11.24-9-12.92,0,0-.77,11.93-6.67,15.58A127.64,127.64,0,0,1,160.62,397a27,27,0,0,1-1.85-2.86,14.56,14.56,0,0,1-15.45-1.51Z" style="fill:#eb9481"></path><path d="M163.16,350c4.05,3.13,12.51,9.91,17.51,17.87,5.55,8.84,13.87,27.36,7.3,31.39-4.81,2.95-8.61-3.84-8.61-3.84s1.82,8.38-3.11,10.1c-4.5,1.57-7.12-3.86-7.12-3.86s.23,5.27-4.39,5.94c-5.55.82-5.13-10.37-11.47-14.41C151.85,392.25,163.16,350,163.16,350Z" style="fill:#eb9481"></path><path d="M170.36,372.15c3.32,3.57,8.79,13.61,9.11,23.05,0,.22-.15.34-.2.14a102.58,102.58,0,0,0-9-23.14C170.25,372.15,170.32,372.11,170.36,372.15Z" style="fill:#263238"></path><path d="M161.6,378c2.55,3.38,7.73,14,7.72,23.56,0,.21-.17.32-.21.13a109.57,109.57,0,0,0-7.6-23.64C161.49,378,161.57,378,161.6,378Z" style="fill:#263238"></path><path d="M192.42,366.63a49.57,49.57,0,0,0-26.29-16.41,42.84,42.84,0,0,0-4.23-.87,25.4,25.4,0,0,0-4.35-.39.08.08,0,0,0,0,.16c1.26.29,2.55.5,3.83.77s2.42.56,3.62.89a55.9,55.9,0,0,1,7.3,2.56,59.21,59.21,0,0,1,13.27,7.84,78,78,0,0,1,6.56,5.77C192.32,367.15,192.59,366.84,192.42,366.63Z" style="fill:#263238"></path><path d="M82.14,326.8l37.64,5.07s9-23.12,11.94-39.05-1.32-20.77-18.79-4.72S82.14,326.8,82.14,326.8Z" style="fill:#FFC727"></path><path d="M120.37,324.77c-2.6-.77-29.46-4.32-32.17-4.25-.13,0-.15.21,0,.25,2.63.77,29.49,4.22,32.18,4.15C120.43,324.92,120.44,324.79,120.37,324.77Z" style="fill:#263238"></path><path d="M128.29,310.37c-.48,1.06-1,2.11-1.52,3.14-.18.34-.34.69-.51,1,.13-.44.28-.87.41-1.32.81-2.67,1.47-5.39,2.19-8.09,0-.08-.09-.1-.12,0-1.7,4.74-3.36,9.47-5,14.24q-1.18,3.48-2.35,7c-.41,1.21-.81,2.43-1.2,3.65-.15.45-.23,1.41-.73,1.57a6.92,6.92,0,0,1-2,0c-.12,0-.14.2,0,.22.67.08,1.33.26,2,.33a1,1,0,0,0,.76-.13,2.45,2.45,0,0,0,.59-1.1c.25-.65.48-1.32.72-2,.94-2.58,1.82-5.19,2.65-7.79.53-1.65,1.07-3.29,1.6-4.93.46-.83.93-1.67,1.31-2.54.45-1.05.88-2.12,1.27-3.21C128.36,310.36,128.31,310.34,128.29,310.37Z" style="fill:#263238"></path></g><g id="freepik--Books--inject-79"><rect x="266.33" y="350.82" width="85.65" height="18.64" style="fill:#FFC727"></rect><rect x="272.72" y="350.82" width="9.23" height="18.64" style="fill:#37474f"></rect><rect x="285.38" y="350.82" width="3.85" height="18.64" style="fill:#37474f"></rect><rect x="340.99" y="350.82" width="9.23" height="18.64" style="fill:#37474f"></rect><rect x="269.96" y="336.91" width="59.41" height="13.91" style="fill:#455a64"></rect><rect x="329.38" y="336.91" width="25.64" height="13.91" style="fill:#455a64"></rect><rect x="269.96" y="338.36" width="59.41" height="11.02" style="fill:#fff"></rect><path d="M273.81,340.63q6.94-.15,13.89-.2l13.89-.05,13.89.05q6.94.06,13.9.2-6.94.14-13.9.19l-13.89.05-13.89-.05Q280.76,340.76,273.81,340.63Z" style="fill:#dbdbdb"></path><path d="M273.81,342.79q6.94-.14,13.89-.19l13.89-.06,13.89.06q6.94,0,13.9.19-6.94.13-13.9.19l-13.89.06L287.7,343Q280.76,342.93,273.81,342.79Z" style="fill:#dbdbdb"></path><path d="M273.81,345q6.94-.13,13.89-.19l13.89-.06,13.89.06q6.94,0,13.9.19-6.94.14-13.9.19l-13.89.06-13.89-.06Q280.76,345.1,273.81,345Z" style="fill:#dbdbdb"></path><path d="M273.81,347.11q6.94-.14,13.89-.19l13.89-.06,13.89.06q6.94,0,13.9.19-6.94.15-13.9.2l-13.89.05-13.89-.06Q280.76,347.26,273.81,347.11Z" style="fill:#dbdbdb"></path><rect x="276.05" y="321.67" width="65.6" height="15.24" style="fill:#37474f"></rect><rect x="328.58" y="321.67" width="6.11" height="15.24" style="fill:#FFC727"></rect><rect x="322.2" y="321.67" width="2.37" height="15.24" style="fill:#FFC727"></rect><rect x="436.56" y="403.63" width="64.22" height="15.84" transform="translate(937.33 823.09) rotate(180)" style="fill:#263238"></rect><rect x="408.85" y="403.63" width="27.71" height="15.84" transform="translate(845.4 823.09) rotate(180)" style="fill:#263238"></rect><rect x="436.56" y="405.27" width="64.22" height="12.55" transform="translate(937.33 823.09) rotate(180)" style="fill:#fff"></rect><path d="M496.61,415.24q-7.5.13-15,.19l-15,.06-15-.06q-7.5,0-15-.19,7.5-.14,15-.19l15-.06,15,.06Q489.1,415.1,496.61,415.24Z" style="fill:#dbdbdb"></path><path d="M496.61,412.78q-7.5.14-15,.19l-15,.06-15-.06q-7.5,0-15-.19,7.5-.13,15-.19l15-.06,15,.06Q489.1,412.64,496.61,412.78Z" style="fill:#dbdbdb"></path><path d="M496.61,410.32q-7.5.14-15,.19l-15,.06-15-.06q-7.5-.06-15-.19,7.5-.15,15-.2l15-.05,15,.05Q489.1,410.18,496.61,410.32Z" style="fill:#dbdbdb"></path><path d="M496.61,407.85q-7.5.15-15,.2l-15,.05-15-.05q-7.5-.06-15-.2,7.5-.14,15-.19l15-.06,15,.06Q489.1,407.72,496.61,407.85Z" style="fill:#dbdbdb"></path><rect x="426.29" y="389.05" width="77.04" height="14.57" transform="translate(929.63 792.68) rotate(180)" style="fill:#FFC727"></rect><rect x="466.46" y="391.9" width="29.63" height="8.75" transform="translate(962.55 792.56) rotate(180)" style="fill:#fff"></rect></g></svg>