<svg class="animated" id="freepik_stories-calculator" xmlns="http://www.w3.org/2000/svg" viewBox="0 0 500 500" version="1.1" xmlns:xlink="http://www.w3.org/1999/xlink" xmlns:svgjs="http://svgjs.com/svgjs"><style>svg#freepik_stories-calculator:not(.animated) .animable {opacity: 0;}svg#freepik_stories-calculator.animated #freepik--background-complete--inject-16 {animation: 3s Infinite  linear heartbeat;animation-delay: 1s;}            @keyframes heartbeat {                0% {                    transform: scale(1);                }                10% {                    transform: scale(1.1);                }                30% {                    transform: scale(1);                }                40% {                    transform: scale(1);                }                50% {                    transform: scale(1.1);                }                60% {                    transform: scale(1);                }                100% {                    transform: scale(1);                }            }        </style><g id="freepik--background-complete--inject-16" class="animable animator-active" style="transform-origin: 245.866px 223.77px;"><g id="elfa03zlq1dli"><rect x="312.82" y="40.91" width="136.06" height="207.55" style="fill: rgb(235, 235, 235); transform-origin: 380.85px 144.685px; transform: rotate(180deg);" class="animable"></rect></g><g id="el8z0mpqy52k"><rect x="391.37" y="49.23" width="57.51" height="92.32" style="fill: rgb(255, 255, 255); transform-origin: 420.125px 95.39px; transform: rotate(180deg);" class="animable"></rect></g><g id="elzpumatmiizh"><rect x="327.58" y="49.23" width="57.51" height="92.32" style="fill: rgb(255, 255, 255); transform-origin: 356.335px 95.39px; transform: rotate(180deg);" class="animable"></rect></g><g id="elvzk6w882y6e"><rect x="391.37" y="147.83" width="57.51" height="92.32" style="fill: rgb(255, 255, 255); transform-origin: 420.125px 193.99px; transform: rotate(180deg);" class="animable"></rect></g><g id="elo71ek89sjl"><rect x="327.58" y="147.83" width="57.51" height="92.32" style="fill: rgb(255, 255, 255); transform-origin: 356.335px 193.99px; transform: rotate(180deg);" class="animable"></rect></g><polygon points="365.31 40.91 312.82 40.91 312.82 337.85 343.2 337.85 322 186.75 365.31 40.91" style="fill: rgb(219, 219, 219); transform-origin: 339.065px 189.38px;" id="ele2l74nfnn2k" class="animable"></polygon><polygon points="356.22 48.94 347.9 83.45 339.43 117.93 322.48 186.87 322.49 186.7 330.33 258.75 334.25 294.78 338 330.82 333.76 294.83 329.67 258.82 321.5 186.81 321.49 186.72 321.52 186.63 338.79 117.77 347.43 83.34 356.22 48.94" style="fill: rgb(235, 235, 235); transform-origin: 338.855px 189.88px;" id="el5s8gcwy4rj" class="animable"></polygon><polygon points="315.95 55.03 316.19 84.81 316.33 114.59 316.45 174.15 316.33 233.7 316.19 263.48 315.95 293.26 315.7 263.48 315.56 233.7 315.45 174.15 315.56 114.59 315.7 84.81 315.95 55.03" style="fill: rgb(235, 235, 235); transform-origin: 315.95px 174.145px;" id="elvqf38otsisi" class="animable"></polygon><path d="M325.75,60.61l-1.62,31.65-1.77,31.65-3.56,63.28v0c.35,11.76.57,23.51.87,35.26l.83,35.26.83,35.26L322,328.2,320.83,293l-1-35.26-1-35.25c-.32-11.76-.71-23.51-1-35.26v0l3.87-63.27,2-31.63Z" style="fill: rgb(235, 235, 235); transform-origin: 321.79px 194.405px;" id="elttcerdy7jk" class="animable"></path><path d="M332.59,323.63l-3.44-34.16-3.33-34.18c-2.13-22.79-4.34-45.57-6.4-68.37v-.13l9.73-53.21L334.1,107l5-26.58-4.6,26.66-4.67,26.64L320.37,187v-.13c2.18,22.79,4.19,45.59,6.29,68.39l3,34.2Z" style="fill: rgb(235, 235, 235); transform-origin: 329.26px 202.025px;" id="ele5n37xusdp" class="animable"></path><g id="elgohnib7r41b"><rect x="312.82" y="184.26" width="11.85" height="6.92" style="fill: rgb(219, 219, 219); transform-origin: 318.745px 187.72px; transform: rotate(180deg);" class="animable"></rect></g><polygon points="396.4 40.91 448.88 40.91 448.88 337.85 418.5 337.85 439.71 186.75 396.4 40.91" style="fill: rgb(219, 219, 219); transform-origin: 422.64px 189.38px;" id="elpeilwlh9b6" class="animable"></polygon><polygon points="405.49 48.94 414.28 83.34 422.92 117.77 440.19 186.63 440.21 186.72 440.2 186.81 432.04 258.82 427.95 294.83 423.71 330.82 427.46 294.78 431.38 258.75 439.22 186.7 439.23 186.87 422.28 117.93 413.81 83.45 405.49 48.94" style="fill: rgb(235, 235, 235); transform-origin: 422.85px 189.88px;" id="el29660ixwewg" class="animable"></polygon><polygon points="445.76 55.03 446 84.81 446.14 114.59 446.26 174.15 446.15 233.7 446.01 263.48 445.76 293.26 445.52 263.48 445.38 233.7 445.26 174.15 445.38 114.59 445.52 84.81 445.76 55.03" style="fill: rgb(235, 235, 235); transform-origin: 445.76px 174.145px;" id="elk8eurwqxo" class="animable"></polygon><path d="M436,60.61,438,92.24,440,123.87l3.88,63.27v0c-.26,11.75-.65,23.5-1,35.26l-1,35.25-1,35.26-1.17,35.25.67-35.27.83-35.26.83-35.26c.29-11.75.52-23.5.87-35.26v0l-3.56-63.28-1.77-31.65Z" style="fill: rgb(235, 235, 235); transform-origin: 439.94px 194.385px;" id="elm9d5do075o" class="animable"></path><path d="M429.12,323.63,432,289.42l3-34.2c2.1-22.8,4.11-45.6,6.29-68.39V187l-9.48-53.25-4.67-26.64L422.6,80.41l5,26.58,4.94,26.59,9.73,53.21v.13c-2,22.8-4.27,45.58-6.4,68.37l-3.32,34.18Z" style="fill: rgb(235, 235, 235); transform-origin: 432.435px 202.02px;" id="el8y9aaf9vxob" class="animable"></path><rect x="437.03" y="184.26" width="11.85" height="6.92" style="fill: rgb(219, 219, 219); transform-origin: 442.955px 187.72px;" id="elr5mihy2vwu" class="animable"></rect><path d="M90.4,299.46a43.71,43.71,0,0,1-2.14,16.69,45.72,45.72,0,0,1-3.14,7.21c-1.57,3-3.19,5.85-3.12,9.23.31.24-.8.12-.81-.21-8.57-5.79-20-7.61-26.25-16.49-3-4.2-4.22-9.34-4.62-14.41-.43-5.52-.19-11.58,1.63-16.85,1.53-4.45,4.53-8.63,9-10.53s10.35-1.32,14.88.48C85.58,278.47,89.73,289.66,90.4,299.46Z" style="fill: rgb(235, 235, 235); transform-origin: 70.3159px 302.82px;" id="el6cbpwy7cet" class="animable"></path><path d="M89.88,366.17c-.91-4.17-1.81-8.34-2.76-12.5-1.84-8.16-3.79-16.3-6-24.36q-2-7.24-4.29-14.37a82.71,82.71,0,0,1,1.74-8.59c1-3.41,2.36-6.69,3.64-10,.08-.2-.25-.34-.35-.15-2.38,4.53-5.47,10.33-6,15.87-1.79-5.38-3.73-10.71-5.86-16a66.19,66.19,0,0,1,1.39-12.82.16.16,0,0,0-.3-.08,45.83,45.83,0,0,0-1.75,11.27c-1.63-4-3.37-7.87-5.25-11.73-.17-.35-.65-.05-.51.29,2.87,6.75,5.48,13.61,7.9,20.55a43.31,43.31,0,0,0-13.43-9.22c-.22-.1-.41.21-.19.32a51.37,51.37,0,0,1,14.43,11.24q2.58,7.62,4.88,15.32C72,315.31,64.61,311.1,57.34,308.59c-.25-.08-.35.3-.11.39,8.39,3.25,14.69,8.64,20.78,15q.9,3.12,1.76,6.24Q83,342.06,85.89,354q1.38,5.73,2.7,11.47c.94,4.12,1.6,8.44,2.93,12.44.13.39.8.35.75-.1A116.61,116.61,0,0,0,89.88,366.17Z" style="fill: rgb(219, 219, 219); transform-origin: 74.6828px 330.365px;" id="elq8h98my8fc" class="animable"></path><path d="M80.74,290.82a22.24,22.24,0,0,0-3.85,7.8c0,.07.09.13.12.05a70.74,70.74,0,0,1,4.11-7.62C81.28,290.8,80.91,290.6,80.74,290.82Z" style="fill: rgb(219, 219, 219); transform-origin: 79.0246px 294.717px;" id="el92fuxp77h6" class="animable"></path><path d="M63.3,308.27a23.52,23.52,0,0,0-7.83-3.33c-.07,0-.13.09,0,.12,1.25.64,2.58,1.12,3.85,1.72s2.51,1.32,3.8,1.89A.23.23,0,0,0,63.3,308.27Z" style="fill: rgb(219, 219, 219); transform-origin: 59.3851px 306.806px;" id="elzctoxb8594a" class="animable"></path><path d="M60.53,285.45a16.49,16.49,0,0,0-2.46-1.8.14.14,0,0,0-.17.22,16.83,16.83,0,0,0,2.42,1.85C60.48,285.83,60.69,285.57,60.53,285.45Z" style="fill: rgb(219, 219, 219); transform-origin: 59.2226px 284.688px;" id="elc4d2mo1rcaf" class="animable"></path><path d="M118.11,316.79c-6.55,1.67-13.12,3.19-19.67,4.84-.56.15-10.68-21.24-6.31-31.88,4-9.86,12.7-17,22.81-20,4.68-1.39,10.41-2.49,15.25-1.22,4.3,1.13,7.23,4.8,8.48,8.94,1.7,5.62.8,12.21-.46,17.83a31.19,31.19,0,0,1-6.94,14.3C127.68,313.54,123.21,315.5,118.11,316.79Z" style="fill: rgb(235, 235, 235); transform-origin: 115.322px 294.801px;" id="elxtlho3je2ka" class="animable"></path><path d="M128.26,297.24a85.79,85.79,0,0,1-12.88,4.5,52.89,52.89,0,0,0-8.59,2.74c3-6,6.21-11.84,9.62-17.62,4.23-1.05,8.7-2.77,12-5.6a.18.18,0,0,0-.22-.28c-3.54,2.3-7.4,3.61-11.28,5.11.92-1.55,1.85-3.11,2.8-4.66.26-.43-.33-.89-.64-.48a137.3,137.3,0,0,0-9.8,15.09,70.71,70.71,0,0,1-.11-14.18.1.1,0,0,0-.19,0,47.2,47.2,0,0,0-.45,15.55c-2.44,4.44-4.69,9-6.73,13.63-.63-2.85-1.48-5.67-2-8.54A38.8,38.8,0,0,1,99.3,290c0-.12-.16-.14-.19,0a44,44,0,0,0,1.82,23c-1.19,2.78-2.33,5.58-3.39,8.39A169.82,169.82,0,0,0,87.2,365.89a.28.28,0,0,0,.55.06,222.58,222.58,0,0,1,11.37-44c2.1-5.57,4.47-11,7-16.24,3.87-1,7.73-2.37,11.54-3.52a36.1,36.1,0,0,0,10.69-4.73A.14.14,0,0,0,128.26,297.24Z" style="fill: rgb(219, 219, 219); transform-origin: 107.83px 323.474px;" id="el38lxe10tmpy" class="animable"></path><path d="M134.53,291.39c-4,1.25-7.83,3.07-11.84,4.35-.19.06-.1.35.09.32,4.22-.7,8.42-1.83,11.9-4.44C134.81,291.52,134.67,291.34,134.53,291.39Z" style="fill: rgb(219, 219, 219); transform-origin: 128.658px 293.722px;" id="elhc5j2cw8vka" class="animable"></path><path d="M102.56,281.59c0-.21-.25-.34-.32-.13-1.23,3.61-2.13,7.45-1.22,11.22,0,.15.27.16.28,0C101.64,288.92,101.57,285.26,102.56,281.59Z" style="fill: rgb(219, 219, 219); transform-origin: 101.604px 287.075px;" id="elvn5og6ov93" class="animable"></path><path d="M119.24,273.8a9.6,9.6,0,0,0-2,6.14c0,.14.22.23.26.06.56-2.07,1.44-3.94,2.16-5.94A.27.27,0,0,0,119.24,273.8Z" style="fill: rgb(219, 219, 219); transform-origin: 118.449px 276.923px;" id="elpyi5m9wbbm" class="animable"></path><path d="M138.71,331.72c-1.9,6-6.41,14.35-13.55,14.42-4.63,0-9.29-.51-13.94-.57-5-.08-10-.07-14.91.23-.41,0,.6-14.89,12.54-22.15,3.35-2,7.44-2.68,11.24-3.5a52.1,52.1,0,0,1,13.28-1.38c2.74.11,5,.69,6,3.5S139.62,328.85,138.71,331.72Z" style="fill: rgb(235, 235, 235); transform-origin: 118.042px 332.447px;" id="elbctdl2joph" class="animable"></path><path d="M133.57,324.18c-2.9.74-5.83,1.6-8.74,2.53a31.29,31.29,0,0,1,2.4-2.35c1.26-1,2.63-1.87,4-2.78.11-.08,0-.3-.1-.24a16.37,16.37,0,0,0-7.05,5.61c-3.63,1.17-7.23,2.46-10.69,3.88a39.68,39.68,0,0,0-6.84,3.61,27,27,0,0,1,2.47-4.31c1.59-2.06,3.73-3.2,5.81-4.66a.19.19,0,0,0-.19-.32,17,17,0,0,0-9.31,10.11,38.82,38.82,0,0,0-6.78,6.15c-7.91,9-14.13,20.92-14.15,33.11,0,.29.46.38.52.07A67.57,67.57,0,0,1,100,342.21q.86-1,1.74-1.89a54.71,54.71,0,0,1,6.53-.49c2.54,0,5.07.38,7.6.58,4.17.34,8.78.39,12.54-1.71.17-.09.06-.38-.13-.31-8.38,3.05-17.18-.82-25.59,1a39.4,39.4,0,0,1,12.4-8l.77-.31c5.38.65,11.07,2.05,16.31.3.15-.05.09-.29-.07-.24-5.07,1.26-9.92-.33-14.92-.58,5.44-2.12,11-3.81,16.45-5.91C134.06,324.47,134.07,324.05,133.57,324.18Z" style="fill: rgb(219, 219, 219); transform-origin: 109.175px 348.057px;" id="el5e17l2pc5y" class="animable"></path><path d="M136,329.48a73.45,73.45,0,0,1-7.84.59c-.06,0-.08.1,0,.11a16.3,16.3,0,0,0,7.9-.5A.1.1,0,0,0,136,329.48Z" style="fill: rgb(219, 219, 219); transform-origin: 132.12px 329.963px;" id="el2idmsfkugii" class="animable"></path><path d="M118.25,324.31a12.62,12.62,0,0,0-3.87,2.7c-.14.12,0,.36.19.25.66-.48,1.34-.93,2-1.37a19.38,19.38,0,0,0,1.89-1.19C118.66,324.55,118.47,324.24,118.25,324.31Z" style="fill: rgb(219, 219, 219); transform-origin: 116.434px 325.794px;" id="elxgfiirwtjbq" class="animable"></path><path d="M76.07,343.71c.08.2-.2.38-.31.17h0a.28.28,0,0,1-.19.12A119.08,119.08,0,0,1,61,346.54c-3.95.35-8.51.57-12-1.72-4.69-3.11-7.77-11.42-5.24-16.69,3-6.27,12-2.87,16.56-.64A33.22,33.22,0,0,1,76.07,343.71Z" style="fill: rgb(235, 235, 235); transform-origin: 59.468px 335.651px;" id="elecod5tjdj0u" class="animable"></path><path d="M79.57,346.61A46.58,46.58,0,0,0,70.86,340,29.91,29.91,0,0,0,62,331c-.17-.11-.32.16-.16.28a39.67,39.67,0,0,1,7.44,7.83,81.66,81.66,0,0,0-10.93-5,14.6,14.6,0,0,0-5.87-5.89s-.11.05-.06.08a24.12,24.12,0,0,1,5.3,5.57c-2.22-.83-4.46-1.6-6.71-2.34-.2-.07-.27.24-.08.31,4,1.56,8.07,3.21,12,5.1a46.18,46.18,0,0,1-14.56,0,.11.11,0,0,0-.06.21,28.78,28.78,0,0,0,15.46.23,73.85,73.85,0,0,1,7.33,4.1,18.41,18.41,0,0,0-5.93.49A45.11,45.11,0,0,1,54.8,343.1c-.13,0-.17.21,0,.23,6,1,11.75-1.7,17.74-1a47.55,47.55,0,0,1,6.23,5.09,47.07,47.07,0,0,1,9.1,12.83c2.52,5.13,3.88,10.57,5.92,15.87a.19.19,0,0,0,.37-.1C92.39,365.58,87.18,354.05,79.57,346.61Z" style="fill: rgb(219, 219, 219); transform-origin: 71.2047px 352.241px;" id="elwip5j11nyme" class="animable"></path><path d="M61.35,332.28a6.83,6.83,0,0,0-1.54-1.88A6.13,6.13,0,0,0,58,329.06c-.06,0-.09.06-.06.1.5.57,1.19,1,1.72,1.52s1,1.17,1.53,1.7A.09.09,0,0,0,61.35,332.28Z" style="fill: rgb(219, 219, 219); transform-origin: 59.6463px 330.742px;" id="el5wm6x3iu04u" class="animable"></path><path d="M51.39,335.52c-.89-.23-1.84-.21-2.75-.4a22.18,22.18,0,0,1-2.67-.8.11.11,0,0,0-.09.2,8.87,8.87,0,0,0,5.51,1.28A.15.15,0,0,0,51.39,335.52Z" style="fill: rgb(219, 219, 219); transform-origin: 48.6545px 335.077px;" id="el7e51mbq8rp" class="animable"></path><polygon points="108.3 357.67 107.31 368.86 103.97 406.63 74.39 406.63 70.21 368.86 68.98 357.67 108.3 357.67" style="fill: rgb(199, 199, 199); transform-origin: 88.64px 382.15px;" id="el2cfhtpbahaq" class="animable"></polygon><polygon points="108.3 357.67 107.31 368.86 70.21 368.86 68.98 357.67 108.3 357.67" style="fill: rgb(166, 166, 166); transform-origin: 88.64px 363.265px;" id="el9fweq085ovp" class="animable"></polygon><rect x="66.05" y="354.62" width="45.18" height="9.08" style="fill: rgb(199, 199, 199); transform-origin: 88.64px 359.16px;" id="eluo71qpeljf" class="animable"></rect><rect x="250" y="99.11" width="31.89" height="7.74" style="fill: rgb(235, 235, 235); transform-origin: 265.945px 102.98px;" id="elm3tthkfzzzd" class="animable"></rect><g id="el6vh61cpcv7s"><rect x="250" y="99.11" width="31.89" height="7.74" style="fill: rgb(235, 235, 235); transform-origin: 265.945px 102.98px; transform: rotate(90deg);" class="animable"></rect></g><rect x="75.39" y="118.03" width="31.89" height="7.74" style="fill: rgb(235, 235, 235); transform-origin: 91.335px 121.9px;" id="elhwzcjwo6pd" class="animable"></rect><circle cx="91.34" cy="109.82" r="3.87" style="fill: rgb(235, 235, 235); transform-origin: 91.34px 109.82px;" id="el3gstaiv9njl" class="animable"></circle><circle cx="91.34" cy="133.97" r="3.87" style="fill: rgb(235, 235, 235); transform-origin: 91.34px 133.97px;" id="el6mr6uomy72" class="animable"></circle><g id="el7dilil38nf7"><rect x="149.48" y="62.9" width="31.89" height="7.74" style="fill: rgb(235, 235, 235); transform-origin: 165.425px 66.77px; transform: rotate(-45deg);" class="animable"></rect></g><g id="elhpwqxh3dn1b"><rect x="149.48" y="62.9" width="31.89" height="7.74" style="fill: rgb(235, 235, 235); transform-origin: 165.425px 66.77px; transform: rotate(45deg);" class="animable"></rect></g><rect x="53.25" y="197.72" width="31.89" height="7.74" style="fill: rgb(235, 235, 235); transform-origin: 69.195px 201.59px;" id="eluiyp3nw5iv8" class="animable"></rect><rect x="53.25" y="183.35" width="31.89" height="7.74" style="fill: rgb(235, 235, 235); transform-origin: 69.195px 187.22px;" id="elqxvmx2eg2ua" class="animable"></rect></g><g id="freepik--Shadow--inject-16" class="animable" style="transform-origin: 250px 439.23px;"><path d="M448.31,439.23c0,11.28-88.78,20.42-198.31,20.42S51.69,450.51,51.69,439.23,140.47,418.81,250,418.81,448.31,428,448.31,439.23Z" style="fill: rgb(235, 235, 235); transform-origin: 250px 439.23px;" id="el1njzj67gfgy" class="animable"></path></g><g id="freepik--Floor--inject-16" class="animable" style="transform-origin: 249.995px 406.445px;"><polygon points="46.98 406.44 97.74 406.2 148.49 406.11 250 405.95 351.51 406.11 402.26 406.2 453.01 406.44 402.26 406.69 351.51 406.78 250 406.94 148.49 406.78 97.74 406.69 46.98 406.44" style="fill: rgb(38, 50, 56); transform-origin: 249.995px 406.445px;" id="el6y4vyv44sjs" class="animable"></polygon></g><g id="freepik--Calculator--inject-16" class="animable" style="transform-origin: 316.505px 282.18px;"><rect x="222.8" y="125.12" width="202.05" height="314.12" style="fill: rgb(255, 199, 39); transform-origin: 323.825px 282.18px;" id="el7o5dv5a6gdg" class="animable"></rect><rect x="208.16" y="125.12" width="202.05" height="314.12" style="fill: rgb(255, 199, 39); transform-origin: 309.185px 282.18px;" id="elyxyym0xt0g" class="animable"></rect><g id="el5vmsbwfgiax"><rect x="208.16" y="125.12" width="202.05" height="314.12" style="opacity: 0.1; transform-origin: 309.185px 282.18px;" class="animable"></rect></g><rect x="223.72" y="205.26" width="38.85" height="38.85" style="fill: rgb(255, 255, 255); transform-origin: 243.145px 224.685px;" id="elinozwfzx7an" class="animable"></rect><rect x="267.74" y="205.26" width="38.85" height="38.85" style="fill: rgb(255, 255, 255); transform-origin: 287.165px 224.685px;" id="elln1azamv57d" class="animable"></rect><rect x="311.77" y="205.26" width="38.85" height="38.85" style="fill: rgb(255, 199, 39); transform-origin: 331.195px 224.685px;" id="el3ket3sz307i" class="animable"></rect><rect x="355.79" y="205.26" width="38.85" height="38.85" style="fill: rgb(255, 199, 39); transform-origin: 375.215px 224.685px;" id="eljd9z1bjn7k" class="animable"></rect><rect x="223.72" y="249.82" width="38.85" height="38.85" style="fill: rgb(55, 71, 79); transform-origin: 243.145px 269.245px;" id="eliarzd93uvhb" class="animable"></rect><rect x="267.74" y="249.82" width="38.85" height="38.85" style="fill: rgb(55, 71, 79); transform-origin: 287.165px 269.245px;" id="elc2uhauty0an" class="animable"></rect><rect x="311.77" y="249.82" width="38.85" height="38.85" style="fill: rgb(55, 71, 79); transform-origin: 331.195px 269.245px;" id="elpae9twebxkq" class="animable"></rect><rect x="355.79" y="250.1" width="38.85" height="38.85" style="fill: rgb(255, 255, 255); transform-origin: 375.215px 269.525px;" id="elbesm7ov1zcg" class="animable"></rect><rect x="223.72" y="294.38" width="38.85" height="38.85" style="fill: rgb(55, 71, 79); transform-origin: 243.145px 313.805px;" id="elj4gmf898oyo" class="animable"></rect><rect x="267.74" y="294.38" width="38.85" height="38.85" style="fill: rgb(55, 71, 79); transform-origin: 287.165px 313.805px;" id="elpsr39d9n1mg" class="animable"></rect><rect x="311.77" y="294.38" width="38.85" height="38.85" style="fill: rgb(55, 71, 79); transform-origin: 331.195px 313.805px;" id="el8efh2ug7462" class="animable"></rect><rect x="355.79" y="294.38" width="38.85" height="38.85" style="fill: rgb(255, 255, 255); transform-origin: 375.215px 313.805px;" id="elvn38q4z9dwj" class="animable"></rect><rect x="223.72" y="338.94" width="38.85" height="38.85" style="fill: rgb(55, 71, 79); transform-origin: 243.145px 358.365px;" id="el8zo5hxk91or" class="animable"></rect><rect x="267.74" y="338.94" width="38.85" height="38.85" style="fill: rgb(55, 71, 79); transform-origin: 287.165px 358.365px;" id="eler7smww4r4o" class="animable"></rect><rect x="311.77" y="338.94" width="38.85" height="38.85" style="fill: rgb(55, 71, 79); transform-origin: 331.195px 358.365px;" id="elvn92f31l5o7" class="animable"></rect><rect x="355.79" y="338.94" width="38.85" height="38.85" style="fill: rgb(255, 255, 255); transform-origin: 375.215px 358.365px;" id="el24ka0q5fhzm" class="animable"></rect><rect x="223.72" y="383.5" width="38.85" height="38.85" style="fill: rgb(55, 71, 79); transform-origin: 243.145px 402.925px;" id="elvqrjtouoa78" class="animable"></rect><rect x="267.74" y="383.5" width="38.85" height="38.85" style="fill: rgb(55, 71, 79); transform-origin: 287.165px 402.925px;" id="elhmp4o6m87i" class="animable"></rect><rect x="311.77" y="383.5" width="38.85" height="38.85" style="fill: rgb(255, 255, 255); transform-origin: 331.195px 402.925px;" id="el1v0ra3jqjx2" class="animable"></rect><rect x="355.79" y="383.5" width="38.85" height="38.85" style="fill: rgb(255, 255, 255); transform-origin: 375.215px 402.925px;" id="elx31ki4hfipm" class="animable"></rect><path d="M237.37,220.91v0a2.73,2.73,0,0,1,2.69-2.89,2.69,2.69,0,0,1,2.65,2.86v0a2.74,2.74,0,0,1-2.69,2.9A2.7,2.7,0,0,1,237.37,220.91Zm3.9,0v0c0-.9-.52-1.65-1.25-1.65s-1.21.75-1.21,1.62v0c0,.93.52,1.65,1.25,1.65S241.27,221.78,241.27,220.91Zm-2,7.55,7.43-10.14a.6.6,0,0,1,.55-.29.63.63,0,0,1,.64.63.75.75,0,0,1-.14.42l-7.43,10.14a.67.67,0,0,1-.56.29.62.62,0,0,1-.63-.63A.73.73,0,0,1,239.23,228.46Zm5-1.76v0a2.73,2.73,0,0,1,2.69-2.89,2.7,2.7,0,0,1,2.65,2.86v0a2.74,2.74,0,0,1-2.68,2.9A2.71,2.71,0,0,1,244.21,226.7Zm3.9,0v0c0-.9-.52-1.65-1.24-1.65s-1.22.75-1.22,1.62v0c0,.93.52,1.65,1.25,1.65S248.11,227.57,248.11,226.7Z" style="fill: rgb(55, 71, 79); transform-origin: 243.49px 223.795px;" id="elm7c8iio5pu" class="animable"></path><path d="M321.35,223.61a5.94,5.94,0,0,1,5.93-5.83,6,6,0,0,1,3.74,1.27.93.93,0,0,1-1.13,1.47,4.06,4.06,0,0,0-2.61-.89,4.29,4.29,0,0,0-2.91,1.16,4,4,0,0,0-1.18,2.82,3.91,3.91,0,0,0,1.18,2.81,4.3,4.3,0,0,0,2.91,1.17,4.08,4.08,0,0,0,2.61-.89,1,1,0,0,1,1.29.17,1,1,0,0,1-.16,1.3,6.06,6.06,0,0,1-3.74,1.26A5.91,5.91,0,0,1,321.35,223.61Z" style="fill: rgb(55, 71, 79); transform-origin: 326.35px 223.605px;" id="elkxns82hufia" class="animable"></path><path d="M334.32,228.54V219a.87.87,0,0,1,.89-.89h5.28a.9.9,0,0,1,0,1.79h-4.38v3h3.77a.9.9,0,0,1,0,1.8h-3.77v3h4.38a.92.92,0,0,1,.89.91.91.91,0,0,1-.89.89h-5.24s0,0,0,0v0A.88.88,0,0,1,334.32,228.54Z" style="fill: rgb(55, 71, 79); transform-origin: 337.848px 223.806px;" id="elh7him080si" class="animable"></path><path d="M370.17,223.61a5.94,5.94,0,0,1,5.93-5.83,6,6,0,0,1,3.74,1.27.93.93,0,0,1-1.13,1.47,4.08,4.08,0,0,0-2.61-.89,4.29,4.29,0,0,0-2.91,1.16,4,4,0,0,0-1.18,2.82,3.91,3.91,0,0,0,1.18,2.81,4.3,4.3,0,0,0,2.91,1.17,4.1,4.1,0,0,0,2.61-.89,1,1,0,0,1,1.29.17,1,1,0,0,1-.16,1.3,6.09,6.09,0,0,1-3.74,1.26A5.91,5.91,0,0,1,370.17,223.61Z" style="fill: rgb(55, 71, 79); transform-origin: 375.17px 223.605px;" id="elfvtjyy2bh4s" class="animable"></path><path d="M246.69,264.78l-4,9.56a.85.85,0,0,1-.82.54.86.86,0,0,1-.34-.07.91.91,0,0,1-.49-1.16l3.5-8.3h-4.18a.92.92,0,0,1-.89-.91.89.89,0,0,1,.89-.89h5.55a.47.47,0,0,1,.16,0,1.4,1.4,0,0,1,.34.13l0,.05s.05,0,.06.06.05.05.07.07,0,.05,0,.06l0,.08.06.09s0,.06,0,.08a.19.19,0,0,1,0,.08,1,1,0,0,1,0,.35A.5.5,0,0,1,246.69,264.78Z" style="fill: rgb(255, 255, 255); transform-origin: 243.08px 269.212px;" id="elutdts5edon" class="animable"></path><path d="M290.7,271a3.87,3.87,0,1,1-6-3.22,2.67,2.67,0,1,1,4.81-1.6,2.62,2.62,0,0,1-.54,1.6A3.88,3.88,0,0,1,290.7,271Zm-1.77,0a2.11,2.11,0,0,0-2.08-2.11,2.13,2.13,0,0,0-2.12,2.11,2.11,2.11,0,0,0,2.12,2.08A2.08,2.08,0,0,0,288.93,271Zm-3-4.82a.91.91,0,1,0,1.82,0,.9.9,0,0,0-.89-.89A.91.91,0,0,0,285.92,266.21Z" style="fill: rgb(255, 255, 255); transform-origin: 286.83px 269.197px;" id="elimw9i6j3dqm" class="animable"></path><path d="M327.07,267.47a3.93,3.93,0,0,1,7.83-.4l0,0c0,.3,0,.61,0,.92a9.3,9.3,0,0,1-.57,3.31,5.64,5.64,0,0,1-2.09,2.77,4.59,4.59,0,0,1-2.42.76.9.9,0,0,1-.94-.86.92.92,0,0,1,.87-.93,3,3,0,0,0,1.52-.46,3.12,3.12,0,0,0,1-1.13,2.74,2.74,0,0,0,.21-.42,3.8,3.8,0,0,1-1.55.32A3.91,3.91,0,0,1,327.07,267.47Zm1.8,0a2.13,2.13,0,1,0,4.25,0,2.13,2.13,0,0,0-4.25,0Z" style="fill: rgb(255, 255, 255); transform-origin: 330.985px 269.225px;" id="elpgh7fb1ovy" class="animable"></path><path d="M371.74,269.53a1,1,0,0,1,1-1h5a1,1,0,0,1,0,1.93h-5A1,1,0,0,1,371.74,269.53Z" style="fill: rgb(55, 71, 79); transform-origin: 375.109px 269.495px;" id="el6zppjd3fuy5" class="animable"></path><path d="M247.48,316.15a.89.89,0,0,1-.91.89h-.16v1.23a.89.89,0,0,1-1.78,0V317h-5.09a.77.77,0,0,1-.55-.2.86.86,0,0,1-.15-1.24l6-7.44s0,0,0,0l0-.07A.18.18,0,0,0,245,308s0,0,.06-.05,0,0,.1,0,0-.05.06-.05l.1,0a.1.1,0,0,0,.07,0h.27a.12.12,0,0,0,.08,0s.07,0,.1,0l.06,0,.09.06s0,0,.08.05,0,0,0,0,.05,0,.05,0l.07.07,0,.06a.3.3,0,0,1,.07.08.11.11,0,0,0,0,.07.19.19,0,0,1,0,.09s0,.05,0,.07a.13.13,0,0,1,0,.09s0,.05,0,.09v6.58h.16A.9.9,0,0,1,247.48,316.15Zm-2.85-4.89-3.22,4h3.22Z" style="fill: rgb(255, 255, 255); transform-origin: 243.062px 313.53px;" id="elq1rs0k2n8n" class="animable"></path><path d="M289.3,312.3a4,4,0,0,1,1.18,2.85A4.07,4.07,0,0,1,289.3,318a4,4,0,0,1-2.83,1.18h0a3.92,3.92,0,0,1-2.81-1.18.9.9,0,0,1,0-1.3.92.92,0,0,1,1.29,0,2.16,2.16,0,0,0,3.09,0,2.19,2.19,0,0,0,.65-1.53,2.19,2.19,0,0,0-2.18-2.19,2.19,2.19,0,0,0-1.56.63.91.91,0,0,1-1.29,0c-.07-.06-.11-.14-.18-.21s0-.05,0-.05a.12.12,0,0,0,0-.08c0-.05,0-.08,0-.11s0,0,0,0a.66.66,0,0,1,0-.28l.49-4.19a.93.93,0,0,1,.4-.64s.05,0,.06,0,0,0,.05,0a1,1,0,0,1,.42-.1h4.78a.92.92,0,1,1,0,1.83h-4l-.2,1.6a4.53,4.53,0,0,1,1.09-.14A4,4,0,0,1,289.3,312.3Z" style="fill: rgb(255, 255, 255); transform-origin: 287.039px 313.563px;" id="elg4844l19ar" class="animable"></path><path d="M334.92,315.24a3.93,3.93,0,0,1-7.83.41s0,0,0,0c0-.3,0-.61,0-.92a9.52,9.52,0,0,1,.56-3.31,5.69,5.69,0,0,1,2.09-2.77,4.63,4.63,0,0,1,2.43-.76.89.89,0,0,1,.93.86.94.94,0,0,1-.87.94,2.9,2.9,0,0,0-1.52.45,3.4,3.4,0,0,0-1,1.13c-.08.13-.14.28-.21.42a3.8,3.8,0,0,1,1.55-.32A3.93,3.93,0,0,1,334.92,315.24Zm-1.8,0a2.13,2.13,0,1,0-4.25,0,2.13,2.13,0,0,0,4.25,0Z" style="fill: rgb(255, 255, 255); transform-origin: 331.005px 313.495px;" id="elxridsjttfo" class="animable"></path><path d="M372.08,314.3a.84.84,0,0,1,0-1.68h6.54a.84.84,0,1,1,0,1.68Zm4.38-4.25v.08a1.12,1.12,0,0,1-2.23,0v-.08a1.12,1.12,0,0,1,2.23,0Zm0,6.74v.09a1.12,1.12,0,0,1-2.23,0v-.09a1.12,1.12,0,0,1,2.23,0Z" style="fill: rgb(55, 71, 79); transform-origin: 375.35px 313.465px;" id="eljuxbn0okhzg" class="animable"></path><path d="M244.85,353.28v9.55a.9.9,0,0,1-.91.89.87.87,0,0,1-.88-.89v-8l-.65.37a.8.8,0,0,1-.45.13.9.9,0,0,1-.47-1.66l2-1.19.06,0s.05,0,.08-.05h.1s.05,0,.06,0a.25.25,0,0,1,.12,0h.17a.1.1,0,0,0,.07,0c.05,0,.06,0,.1,0a.08.08,0,0,1,.06,0s.07.05.1.05l.06.05.07.05a.12.12,0,0,1,.06.06l0,.06.07.07v0s0,0,0,.05,0,.05,0,.08,0,.07,0,.08a.45.45,0,0,0,0,.08.17.17,0,0,0,0,.12Z" style="fill: rgb(255, 255, 255); transform-origin: 242.961px 358.071px;" id="elnq27676l099" class="animable"></path><path d="M290.76,362.83a.88.88,0,0,1-.89.89h-5.76a.88.88,0,0,1-.66-.29.9.9,0,0,1,.05-1.27l4.79-4.33a2.09,2.09,0,0,0-1.41-3.64,2.17,2.17,0,0,0-1.41.53l-.5.46a.9.9,0,0,1-1.2-1.33l.5-.45a3.85,3.85,0,0,1,2.61-1,3.9,3.9,0,0,1,2.88,1.28,3.82,3.82,0,0,1,1,2.61,3.9,3.9,0,0,1-1.28,2.88l-3.05,2.76h3.44A.9.9,0,0,1,290.76,362.83Z" style="fill: rgb(255, 255, 255); transform-origin: 286.986px 358.06px;" id="elfx7icaj8vhw" class="animable"></path><path d="M333.44,356.84a3.93,3.93,0,0,1,1.18,2.83,4,4,0,0,1-6.85,2.85.91.91,0,1,1,1.29-1.29,2.15,2.15,0,0,0,1.54.63,2.23,2.23,0,0,0,1.55-.63,2.17,2.17,0,0,0,.65-1.56,2.09,2.09,0,0,0-.65-1.53,2.17,2.17,0,0,0-1.54-.65.79.79,0,0,1-.66-.29s0,0,0,0a.91.91,0,0,1,0-1.29l1.65-1.68h-2.62a.92.92,0,0,1-.91-.93.9.9,0,0,1,.91-.9h4.77a.91.91,0,0,1,.81,1.34,1.88,1.88,0,0,1-.16.23l-2,2.1A3.55,3.55,0,0,1,333.44,356.84Z" style="fill: rgb(255, 255, 255); transform-origin: 331.085px 358.057px;" id="el5gcstg1sy17" class="animable"></path><path d="M378,357.05,376,359.71l1.92,2.67a.84.84,0,0,1-.16,1.16.93.93,0,0,1-.52.18,1.06,1.06,0,0,1-.71-.36L375,361.15l-1.62,2.21a.91.91,0,0,1-.67.36.88.88,0,0,1-.51-.18.81.81,0,0,1-.18-1.16l1.94-2.67L372,357.05a.79.79,0,0,1,.18-1.14.84.84,0,0,1,1.18.17l1.62,2.17,1.61-2.17a.91.91,0,0,1,1.23-.17A.82.82,0,0,1,378,357.05Z" style="fill: rgb(55, 71, 79); transform-origin: 374.994px 359.73px;" id="elpacwob0jtli" class="animable"></path><path d="M243.81,406a1.22,1.22,0,0,1,1.21,1.21,1.21,1.21,0,0,1-1.21,1.2,1.19,1.19,0,0,1-1.2-1.2A1.21,1.21,0,0,1,243.81,406Z" style="fill: rgb(255, 255, 255); transform-origin: 243.815px 407.205px;" id="el8yuu9fwjn7d" class="animable"></path><path d="M282.48,402.62a7,7,0,0,1,1.1-3.87,3.41,3.41,0,0,1,6,0,7.46,7.46,0,0,1,0,7.73,3.4,3.4,0,0,1-6,0A7,7,0,0,1,282.48,402.62Zm6.39,0a5.37,5.37,0,0,0-.78-2.88,1.87,1.87,0,0,0-1.5-1,2,2,0,0,0-1.54,1,5.67,5.67,0,0,0,0,5.74,2,2,0,0,0,1.54,1,1.91,1.91,0,0,0,1.5-1A5.35,5.35,0,0,0,288.87,402.62Z" style="fill: rgb(255, 255, 255); transform-origin: 286.569px 402.621px;" id="elezctklsn8w5" class="animable"></path><path d="M327.76,401.42a1,1,0,0,1,1-.94h5a.93.93,0,0,1,.93.94.91.91,0,0,1-.93.93h-5A.94.94,0,0,1,327.76,401.42Zm0,3a1,1,0,0,1,1-1h5a1,1,0,0,1,0,1.93h-5A1,1,0,0,1,327.76,404.41Z" style="fill: rgb(55, 71, 79); transform-origin: 331.225px 402.915px;" id="el7igvmkpsqmo" class="animable"></path><path d="M374.43,403.47h-2.3a.89.89,0,0,1-.89-.89.91.91,0,0,1,.89-.89h2.3v-2.24a.91.91,0,0,1,.92-.93.93.93,0,0,1,.92.93v2.24h2.3a.91.91,0,0,1,.89.89.89.89,0,0,1-.89.89h-2.3v2.25a.92.92,0,0,1-.92.92.91.91,0,0,1-.92-.92Z" style="fill: rgb(55, 71, 79); transform-origin: 375.35px 402.58px;" id="el5bkmbme20g7" class="animable"></path><path d="M292.73,219.2a.69.69,0,0,1-.69.69h-2c-.85,2.35-3,8.5-3.47,10.24a1.45,1.45,0,0,1-.35.55.75.75,0,0,1-.47.18.86.86,0,0,1-.65-.28s-2.16-2.11-2.83-2.86c-1-1.06-.55-1.56-.41-1.65a.82.82,0,0,1,.39-.13,1.26,1.26,0,0,1,.61.23l.7.73c.2.22.39.41.58.59l.55.56.62.62c.51-1.64,2.79-8.08,3.4-9.69h0a1.06,1.06,0,0,1,.19-.23.71.71,0,0,1,.52-.24H292A.69.69,0,0,1,292.73,219.2Z" style="fill: rgb(55, 71, 79); transform-origin: 287.184px 224.684px;" id="elp29ozzhl2qp" class="animable"></path><rect x="223.72" y="141.74" width="170.93" height="40.9" style="fill: rgb(69, 90, 100); transform-origin: 309.185px 162.19px;" id="elpgu9ssdra8j" class="animable"></rect><path d="M317.48,154v15.93a1.5,1.5,0,0,1-1.51,1.48,1.46,1.46,0,0,1-1.48-1.48V156.65l-1.08.63a1.39,1.39,0,0,1-.76.21,1.51,1.51,0,0,1-.78-2.78l3.32-2s.08,0,.11-.05.08-.06.13-.08l.16,0a.15.15,0,0,1,.11,0,.42.42,0,0,1,.19,0h.3s.08,0,.1,0a.29.29,0,0,1,.17.06s.08,0,.1,0,.11.08.17.08a.21.21,0,0,0,.1.08s.09.06.11.09.08.08.11.1a.52.52,0,0,1,.08.11l.11.11,0,.05s0,.06,0,.09.06.08.06.13,0,.11,0,.13a1.06,1.06,0,0,0,0,.14.25.25,0,0,0,.05.19Z" style="fill: rgb(255, 255, 255); transform-origin: 314.328px 161.99px;" id="elutxqecdrslr" class="animable"></path><path d="M333.11,169.94a1.46,1.46,0,0,1-1.48,1.48H322a1.44,1.44,0,0,1-1.11-.49,1.49,1.49,0,0,1,.08-2.1l8-7.24a3.35,3.35,0,0,0,1.14-2.59,3.53,3.53,0,0,0-.89-2.35,3.45,3.45,0,0,0-2.6-1.13,3.55,3.55,0,0,0-2.34.89l-.84.76a1.48,1.48,0,0,1-2.11-.11,1.5,1.5,0,0,1,.11-2.11l.84-.75a6.34,6.34,0,0,1,4.34-1.68,6.49,6.49,0,0,1,4.81,2.14,6.36,6.36,0,0,1,1.67,4.34,6.51,6.51,0,0,1-2.13,4.81l-5.1,4.61h5.75A1.49,1.49,0,0,1,333.11,169.94Z" style="fill: rgb(255, 255, 255); transform-origin: 326.803px 161.97px;" id="elbysured606n" class="animable"></path><path d="M347.07,160a6.55,6.55,0,0,1,2,4.72,6.7,6.7,0,0,1-11.44,4.75,1.52,1.52,0,0,1,0-2.16,1.54,1.54,0,0,1,2.16,0,3.6,3.6,0,0,0,2.56,1.06,3.71,3.71,0,0,0,2.59-1.06,3.6,3.6,0,0,0,1.08-2.59,3.5,3.5,0,0,0-1.08-2.56,3.58,3.58,0,0,0-2.56-1.08,1.35,1.35,0,0,1-1.11-.49s0,0,0,0a1.52,1.52,0,0,1,0-2.15l2.75-2.81h-4.37a1.53,1.53,0,0,1,0-3.05h8A1.51,1.51,0,0,1,349,154a1.61,1.61,0,0,1-.19.73,2,2,0,0,1-.27.38l-3.4,3.51A6,6,0,0,1,347.07,160Z" style="fill: rgb(255, 255, 255); transform-origin: 343.125px 162.007px;" id="eliql9odyj2mj" class="animable"></path><path d="M367.75,166.4a1.48,1.48,0,0,1-1.51,1.48H366v2.06a1.49,1.49,0,0,1-3,0v-2.06h-8.5a1.35,1.35,0,0,1-.92-.32,1.45,1.45,0,0,1-.24-2.08l10-12.42s0,0,.05-.05a.35.35,0,0,0,.08-.11.26.26,0,0,0,.14-.08s.08,0,.1-.08a.31.31,0,0,1,.17-.05c0-.06.05-.08.1-.08s.08,0,.17-.06.08,0,.1,0h.46a.24.24,0,0,0,.14,0s.11,0,.16.06l.11,0c.05.06.11.08.13.11l.14.08s0,0,0,0,.09,0,.09.05l.1.11a.76.76,0,0,1,.08.11.54.54,0,0,1,.11.13.17.17,0,0,0,.06.11c0,.06,0,.08.05.16s0,.08,0,.11a.39.39,0,0,1,0,.16c0,.06,0,.08,0,.14v11h.27A1.5,1.5,0,0,1,367.75,166.4ZM363,158.25l-5.37,6.66H363Z" style="fill: rgb(255, 255, 255); transform-origin: 360.378px 161.982px;" id="el56urbkr2l7w" class="animable"></path><path d="M381.2,160a6.61,6.61,0,0,1,2,4.75,6.69,6.69,0,0,1-2,4.72,6.61,6.61,0,0,1-4.72,2h-.06a6.53,6.53,0,0,1-4.69-2,1.47,1.47,0,0,1,0-2.16,1.53,1.53,0,0,1,2.15,0,3.62,3.62,0,0,0,5.16,0,3.68,3.68,0,0,0,1.08-2.56,3.64,3.64,0,0,0-3.64-3.65,3.65,3.65,0,0,0-2.6,1,1.51,1.51,0,0,1-2.15,0c-.11-.1-.19-.24-.3-.35s0-.08,0-.08a.17.17,0,0,0,0-.13c0-.08,0-.14,0-.19s0,0,0-.06a1.69,1.69,0,0,1,0-.45l.81-7a1.68,1.68,0,0,1,.68-1.08c.05,0,.08,0,.11,0s.05,0,.08-.05a1.45,1.45,0,0,1,.7-.17h8a1.53,1.53,0,1,1,0,3.06H375l-.32,2.67a7,7,0,0,1,1.81-.25A6.58,6.58,0,0,1,381.2,160Z" style="fill: rgb(255, 255, 255); transform-origin: 377.301px 162.005px;" id="elkr3v3uzwpek" class="animable"></path></g><g id="freepik--Character--inject-16" class="animable" style="transform-origin: 217.705px 261.251px;"><path d="M340.31,129.43l-.4.1a.24.24,0,0,1,.07-.12h0Z" style="fill: rgb(38, 50, 56); transform-origin: 340.11px 129.47px;" id="el7qd2lbtpcqr" class="animable"></path><path d="M371.34,178h0" style="fill: none; stroke: rgb(255, 152, 185); stroke-linecap: round; stroke-linejoin: round; stroke-width: 0px; transform-origin: 371.34px 178px;" id="el3a90e078bl9" class="animable"></path><path d="M371.34,178h0" style="fill: none; stroke: rgb(255, 152, 185); stroke-linecap: round; stroke-linejoin: round; stroke-width: 0px; transform-origin: 371.34px 178px;" id="el7m1zt9l6d6d" class="animable"></path><path d="M351.82,418.33l-.18,0v-.13Z" style="fill: rgb(221, 106, 87); transform-origin: 351.73px 418.265px;" id="el1vots0rlbla" class="animable"></path><path d="M138.28,134.35c1.74,12.86,11.32,43.39,18.47,45.34,6.66,1.8,35.93-6.92,39.7-12.73,2-3.11,10-31.67,6.43-30-4.52,2.15-37.67,18.91-39,18.57-2.88-.72-8.49-12.06-13.35-18.4C139.93,123.35,137.47,128.35,138.28,134.35Z" style="fill: rgb(119, 68, 66); transform-origin: 170.962px 154.115px;" id="elsz8yjdk9epm" class="animable"></path><path d="M158.28,147.12l-15,13.75s-5.31-19.64-5.91-28.73S144.2,124.07,158.28,147.12Z" style="fill: rgb(38, 50, 56); transform-origin: 147.808px 143.838px;" id="eljly2yimkoe" class="animable"></path><path d="M101.19,274.52S86.68,299.21,70.65,288s2.27-33.28,2.27-33.28Z" style="fill: rgb(255, 152, 185); transform-origin: 82.63px 272.82px;" id="el2rlogj3ovuh" class="animable"></path><g id="elaqf8m149n5"><rect x="126.99" y="82.47" width="34.54" height="201.34" style="fill: rgb(255, 199, 39); transform-origin: 144.26px 183.14px; transform: rotate(-144.92deg);" class="animable"></rect></g><g id="elvdhfas8q25"><rect x="126.99" y="82.47" width="34.54" height="201.34" style="opacity: 0.1; transform-origin: 144.26px 183.14px; transform: rotate(-144.92deg);" class="animable"></rect></g><g id="el4jf1m1rg7ar"><rect x="67.92" y="259.13" width="40.33" height="8" style="fill: rgb(69, 90, 100); transform-origin: 88.085px 263.13px; transform: rotate(-144.92deg);" class="animable"></rect></g><g id="elsx8znwoug1"><rect x="73" y="251.89" width="40.33" height="8" style="fill: rgb(69, 90, 100); transform-origin: 93.165px 255.89px; transform: rotate(-144.92deg);" class="animable"></rect></g><path d="M188,90.83,212.89,78l8.2-4.27-1.17,9.2-3.65,27.81-5.75,2.1s.11-6,.09-6.07l-5.75,2.09s.11-6,.09-6.07l-5.68,2.14s0-6,0-6.11l-5.68,2.14s0-6,0-6.12L188,96.94S188,90.93,188,90.83Z" style="fill: rgb(235, 235, 235); transform-origin: 204.545px 93.285px;" id="el9vsom1mh1fs" class="animable"></path><polygon points="212.89 77.96 221.09 73.69 219.91 82.89 212.89 77.96" style="fill: rgb(55, 71, 79); transform-origin: 216.99px 78.29px;" id="elipcsq1lt96e" class="animable"></polygon><g id="eli3duvjy1k5m"><g style="opacity: 0.1; transform-origin: 147.735px 178.19px;" class="animable"><path d="M111.51,245.5q10.72-15.87,21.67-31.6l21.92-31.43,22.12-31.29,11.14-15.59,11.24-15.52-10.79,15.84-10.88,15.77L156,183.11l-22.13,31.28Q122.77,230,111.51,245.5Z" id="el3uodj5wh3lj" class="animable" style="transform-origin: 155.555px 182.785px;"></path><path d="M103.69,240.91q10.73-15.89,21.67-31.6l21.92-31.44,22.13-31.28L180.55,131l11.23-15.52L181,131.31l-10.89,15.77-21.92,31.44L126.06,209.8Q114.95,225.4,103.69,240.91Z" id="eles65h8slvdh" class="animable" style="transform-origin: 147.735px 178.195px;"></path><path d="M95.87,236.32q10.72-15.88,21.67-31.61l21.92-31.43L161.59,142l11.14-15.59L184,110.88l-10.78,15.84-10.89,15.77-21.91,31.43-22.13,31.29C110.83,215.61,103.4,226,95.87,236.32Z" id="elxpip5q5otj9" class="animable" style="transform-origin: 139.935px 173.6px;"></path></g></g><path d="M201.72,134.86c.54,4.27,3.46,10.31,2.83,13.45a3.67,3.67,0,0,1-3.14,3.05s2.52,2.49,1.48,5.24c-.53,1.42-3.27,1.81-3.27,1.81a4.37,4.37,0,0,1,.86,4.48c-.85,1.9-3.46,2-3.46,2s.92,2.86-.57,4.53c-3,3.37-20.08-2.21-20.66-9.35-.27-3.33,3.82-1.74,3.82-1.74s-5.33-3.71-4.27-7.25,6.25-1.16,6.25-1.16-5.13-3.64-3.66-7.2,6.31-.43,6.31-.43-3-3.81-1.2-6.28c2.89-4.08,8.2,4,12.24,4.31l4.09-5.5Z" style="fill: rgb(119, 68, 66); transform-origin: 189.92px 152.624px;" id="el3aoz0fdumz5" class="animable"></path><path d="M203.38,141.35c-.17-4.09,5.82-7.11,6.23-11,.55-5.32-6.64-2.28-10.24,4.53l-1.87,5.78Z" style="fill: rgb(119, 68, 66); transform-origin: 203.57px 134.495px;" id="eltxyd408md9" class="animable"></path><path d="M196.61,165c.06,0,0,.1,0,.09a31.12,31.12,0,0,1-17.22-6.79c-.15-.13,0-.44.19-.33A63.66,63.66,0,0,0,196.61,165Z" style="fill: rgb(38, 50, 56); transform-origin: 187.983px 161.519px;" id="elmcgwl7fev0h" class="animable"></path><path d="M199.7,158.47c.06,0,0,.13,0,.13A29.17,29.17,0,0,1,181.34,150c-.16-.18-.13-.51.07-.32C184.88,152.91,194.05,157.15,199.7,158.47Z" style="fill: rgb(38, 50, 56); transform-origin: 190.482px 154.111px;" id="el7l7n28ett03" class="animable"></path><path d="M184,141.81c4.82,4.8,10.7,7.56,17.14,9.54.09,0,0,.14,0,.14-3.41-.11-7.39-1.8-10.37-3.37a18,18,0,0,1-6.9-6.14C183.77,141.87,183.91,141.7,184,141.81Z" style="fill: rgb(38, 50, 56); transform-origin: 192.508px 146.632px;" id="elgda1jgcaf4b" class="animable"></path><path d="M207.93,444.87c-2.29.74-67.66-.11-70.13-1.72-1-.6-1.38-10.13-1.57-21.66v-.36c0-2.38-.08-4.83-.08-7.31,0-.34,0-.68,0-1-.09-16.65.18-33.92.18-33.92l43.73.44-1.32,33.6-.05,1.33-.26,6.95,0,.72s24.88,11.51,27.4,13.57S210.22,444.14,207.93,444.87Z" style="fill: rgb(119, 68, 66); transform-origin: 172.549px 412.02px;" id="el5frynidtoou" class="animable"></path><path d="M207.93,444.87c-2.29.74-67.66-.11-70.13-1.72-1-.6-1.38-10.13-1.57-21.66v-.36c0-2.38-.08-4.83-.08-7.31,0-.34,0-.68,0-1l42.59.12-.05,1.33-.26,6.95,0,.72s24.88,11.51,27.4,13.57S210.22,444.14,207.93,444.87Z" style="fill: rgb(235, 235, 235); transform-origin: 172.558px 428.98px;" id="el23m273sptat" class="animable"></path><path d="M207.93,444.87c-1.42.46-26.74.31-46.57-.25-12.38-.34-22.61-.85-23.56-1.47s-1.37-9.86-1.56-21.18c0-.16,0-.32,0-.48s0-.25,0-.37l42.18.08,0,.72s24.88,11.51,27.4,13.57S210.22,444.14,207.93,444.87Z" style="fill: rgb(255, 199, 39); transform-origin: 172.602px 433.131px;" id="el8yfdx4bzq6h" class="animable"></path><path d="M207.22,442.33c-11-.42-55.48-1-66.41-.62-.08,0-.08.07,0,.07,10.91.65,55.39.92,66.41.73C207.45,442.5,207.45,442.34,207.22,442.33Z" style="fill: rgb(38, 50, 56); transform-origin: 174.071px 442.078px;" id="el2dj590uk1si" class="animable"></path><path d="M183.1,421.38c-4.33-.86-9.64-.27-13,2.78-.13.12,0,.3.18.26a61,61,0,0,1,12.78-2.49A.28.28,0,0,0,183.1,421.38Z" style="fill: rgb(38, 50, 56); transform-origin: 176.679px 422.723px;" id="el6artvsy0dys" class="animable"></path><path d="M186.2,423.31c-4.32-.87-9.63-.27-13,2.78-.13.11,0,.3.18.26a60.55,60.55,0,0,1,12.79-2.49A.28.28,0,0,0,186.2,423.31Z" style="fill: rgb(38, 50, 56); transform-origin: 179.781px 424.651px;" id="elriif23xhpvb" class="animable"></path><path d="M189.31,425.24c-4.33-.87-9.64-.27-13,2.77-.13.12,0,.3.18.26a61.61,61.61,0,0,1,12.78-2.49A.27.27,0,0,0,189.31,425.24Z" style="fill: rgb(38, 50, 56); transform-origin: 182.908px 426.576px;" id="elps3nwgitin" class="animable"></path><path d="M188.86,412c-1.67-2.37-4.86-1.36-6.69.14a23.22,23.22,0,0,0-6.81,9.85.11.11,0,0,0,.1.15c0,.33.3.69.68.55,3.59-1.27,7.6-2.2,10.7-4.54C188.65,416.78,190.44,414.24,188.86,412Zm-7.67,7.64c-1.75.67-3.53,1.25-5.26,2A69.15,69.15,0,0,1,180,416a24.58,24.58,0,0,1,2.33-2.46c1.3-1.15,6.44-3.58,5.62,1.16C187.53,417.29,183.28,418.84,181.19,419.64Z" style="fill: rgb(38, 50, 56); transform-origin: 182.411px 416.654px;" id="elba8m8ni94p" class="animable"></path><path d="M164.36,420.71c3.55,1.57,7.66,1.55,11.46,2,.39,0,.59-.37.52-.7a.12.12,0,0,0,.07-.17,23.2,23.2,0,0,0-8.89-8c-2.13-1-5.46-1.29-6.55,1.4S162.28,419.8,164.36,420.71Zm-1.92-3.12c-1.9-4.43,3.66-3.24,5.2-2.42a25.56,25.56,0,0,1,2.83,1.86,67.71,67.71,0,0,1,5.3,4.56c-1.85-.32-3.72-.47-5.58-.72C168,420.57,163.48,420,162.44,417.59Z" style="fill: rgb(38, 50, 56); transform-origin: 168.561px 417.917px;" id="elbl0rpos5lzn" class="animable"></path><path d="M161.36,444.62c-12.38-.34-22.61-.85-23.56-1.47s-1.37-9.86-1.56-21.18C141.32,426.5,153.93,437.75,161.36,444.62Z" style="fill: rgb(38, 50, 56); transform-origin: 148.8px 433.295px;" id="el4eq7u98jk4j" class="animable"></path><path d="M123.17,190.58S133,301,134.58,309.47c.37,1.92.6,12.36.75,25.78.34,29.28,0,86.32,0,86.32h46.08s-1.23-95.73-3.27-112.57-15.08-118.42-15.08-118.42Z" style="fill: rgb(55, 71, 79); transform-origin: 152.29px 306.075px;" id="elxh16raqywd" class="animable"></path><path d="M179.33,413.54c-7.19-.15-5.13-.2-12.32-.27-3.52,0-26.65-.24-29.93.3a.08.08,0,0,0,0,.15c3.29.55,26.41.34,29.93.31,7.19-.07,5.13-.13,12.32-.28C179.46,413.75,179.46,413.55,179.33,413.54Z" style="fill: rgb(38, 50, 56); transform-origin: 158.228px 413.656px;" id="elnno5s53nc4h" class="animable"></path><path d="M144.23,357q-.07-10-.15-20.05c-.05-6.48,0-13-.35-19.42-.62-13.1-3.28-26-5.17-38.92s-3.46-26-4.89-39c-1.6-14.6-3-29.22-4.52-43.83,0-.09-.16-.09-.15,0,2.17,26.08,4.59,52.16,8.2,78.09q1.35,9.68,3,19.31c1.07,6.51,2.14,13,2.65,19.59s.59,12.9.65,19.35q.11,10,.2,20c.15,14.83.15,41.9.29,56.74,0,.28.45.27.45,0C144.28,395.7,144.33,370.24,144.23,357Z" style="fill: rgb(38, 50, 56); transform-origin: 136.72px 302.389px;" id="eldgjmw6ci4nb" class="animable"></path><path d="M113.45,190.58S133,301,134.58,309.47c.37,1.92.6,12.36.75,25.78v0l22-144.71Z" style="fill: rgb(38, 50, 56); transform-origin: 135.39px 262.895px;" id="elqmvohawmx8r" class="animable"></path><path d="M153.7,448.77c-2.34.57-67.48-4.9-69.83-6.69-.9-.66-.66-10.2,0-21.72,0-.12,0-.24,0-.36.13-2.37.27-4.82.44-7.29,0-.34,0-.68.06-1,1.09-16.61,2.58-33.82,2.58-33.82l43.58,3.54-3.69,33.41-.14,1.33-.76,6.92-.07.71s24,13.25,26.37,15.48S156,448.2,153.7,448.77Z" style="fill: rgb(119, 68, 66); transform-origin: 119.079px 413.351px;" id="ellxg6nlkv55i" class="animable"></path><path d="M153.7,448.77c-2.34.57-67.48-4.9-69.83-6.69-.9-.66-.66-10.2,0-21.72,0-.12,0-.24,0-.36.13-2.37.27-4.82.44-7.29,0-.34,0-.68.06-1l42.47,3.13-.14,1.33-.76,6.92-.07.71s24,13.25,26.37,15.48S156,448.2,153.7,448.77Z" style="fill: rgb(235, 235, 235); transform-origin: 119.079px 430.261px;" id="elk6nsigrt9mj" class="animable"></path><path d="M153.7,448.77c-2.34.57-67.48-4.9-69.83-6.69-.9-.66-.66-10.2,0-21.72,0-.12,0-.24,0-.36l42.07,3.07-.07.71s24,13.25,26.37,15.48S156,448.2,153.7,448.77Z" style="fill: rgb(255, 199, 39); transform-origin: 119.079px 434.406px;" id="elzyaa2tbc3v" class="animable"></path><path d="M153.18,446.18c-11-1.19-55.27-5-66.2-5.32-.09,0-.09.06,0,.07,10.83,1.42,55.18,4.84,66.18,5.43C153.4,446.37,153.41,446.2,153.18,446.18Z" style="fill: rgb(38, 50, 56); transform-origin: 120.129px 443.61px;" id="elmvt5y8s2v3l" class="animable"></path><path d="M130.6,423.58c-4.25-1.17-9.59-.95-13.16,1.85-.13.11,0,.3.17.27a61.06,61.06,0,0,1,12.93-1.58A.28.28,0,0,0,130.6,423.58Z" style="fill: rgb(38, 50, 56); transform-origin: 124.085px 424.308px;" id="eleul9gtp99i9" class="animable"></path><path d="M133.56,425.72c-4.25-1.17-9.59-1-13.15,1.85-.14.11,0,.3.16.27a61,61,0,0,1,12.93-1.57A.28.28,0,0,0,133.56,425.72Z" style="fill: rgb(38, 50, 56); transform-origin: 127.06px 426.441px;" id="elsxjdng2yqvk" class="animable"></path><path d="M136.52,427.86c-4.25-1.17-9.59-.95-13.15,1.85-.14.11,0,.31.16.27a61.13,61.13,0,0,1,12.93-1.57A.28.28,0,0,0,136.52,427.86Z" style="fill: rgb(38, 50, 56); transform-origin: 130.02px 428.589px;" id="els0bjkgiuwjf" class="animable"></path><path d="M137,414.63c-1.5-2.49-4.75-1.7-6.68-.34a23.14,23.14,0,0,0-7.49,9.34.12.12,0,0,0,.09.17.54.54,0,0,0,.63.6c3.68-1,7.74-1.66,11-3.78C136.46,419.38,138.43,417,137,414.63Zm-8.19,7.08c-1.79.54-3.61,1-5.38,1.61a67.39,67.39,0,0,1,4.49-5.36,24.48,24.48,0,0,1,2.5-2.28c1.38-1.06,6.68-3.12,5.52,1.55C135.31,419.81,131,421.05,128.82,421.71Z" style="fill: rgb(38, 50, 56); transform-origin: 130.154px 418.71px;" id="elf51xsogwllk" class="animable"></path><path d="M112,421.58c3.44,1.82,7.54,2.09,11.29,2.77.39.07.62-.32.58-.65a.11.11,0,0,0,.07-.17,23.14,23.14,0,0,0-8.3-8.63c-2-1.18-5.35-1.67-6.62.94S110,420.52,112,421.58Zm-1.69-3.24c-1.58-4.56,3.89-3,5.36-2a24.46,24.46,0,0,1,2.69,2,65.92,65.92,0,0,1,5,4.93c-1.82-.45-3.67-.74-5.51-1.12C115.57,421.69,111.13,420.85,110.26,418.34Z" style="fill: rgb(38, 50, 56); transform-origin: 116.305px 419.151px;" id="elewpyamobil" class="animable"></path><path d="M127.74,422.49l-46-1.95S93.56,316.86,93.79,310.65c.61-16.11,11.31-120.11,11.31-120.11h56.23s-3.55,24-9.62,39.23A71.31,71.31,0,0,0,140,235.14s-3.36,72.68-3.56,81.26C136,333.35,127.74,422.49,127.74,422.49Z" style="fill: rgb(55, 71, 79); transform-origin: 121.535px 306.515px;" id="elcdxgwc35aba" class="animable"></path><path d="M126.51,414.05c-7.17-.45-5.11-.42-12.29-.8-3.51-.18-26.61-1.36-29.92-.95-.07,0-.08.13,0,.14,3.27.69,26.38,1.46,29.9,1.58,7.19.23,5.12.09,12.31.24A.11.11,0,1,0,126.51,414.05Z" style="fill: rgb(38, 50, 56); transform-origin: 105.448px 413.24px;" id="elvkwu0rc0p4" class="animable"></path><path d="M109.22,196.71c-2.08,26.19-4.23,52.38-6.62,78.55s-12,116.46-14.24,131c0,.1.13.14.15,0,4.64-25.86,7.34-60.61,10.25-86.72s5.27-52.28,7.38-78.45c1.2-14.81,2.28-29.63,3.41-44.44C109.57,196.49,109.24,196.5,109.22,196.71Z" style="fill: rgb(38, 50, 56); transform-origin: 98.9554px 301.445px;" id="elxlvl6h08rw" class="animable"></path><path d="M153.72,228.73A87.41,87.41,0,0,0,140,235.14a.15.15,0,0,0,.13.28c4.64-2,9.37-3.89,13.89-6.14A.3.3,0,0,0,153.72,228.73Z" style="fill: rgb(38, 50, 56); transform-origin: 147.047px 232.063px;" id="elyo3ekidgwub" class="animable"></path><path d="M155.2,196.9c0-.16-.3-.2-.3,0a155.11,155.11,0,0,1-.77,15.5c-.22,2.39-2.14,15.6-6.29,14.64-.69-.17-1-.85-1.15-1.89a16.52,16.52,0,0,1,.55-4.05c.46-2.77.83-5.54,1.06-8.33a75.6,75.6,0,0,0-.16-15.63.14.14,0,0,0-.27,0,143.78,143.78,0,0,1-1.26,21.56c-.52,3.44-2.25,8.61,1.34,9.14s6-8.12,6.47-10.49A79.07,79.07,0,0,0,155.2,196.9Z" style="fill: rgb(38, 50, 56); transform-origin: 150.634px 212.314px;" id="elpbjo61sd0r" class="animable"></path><path d="M148,227.36a23.87,23.87,0,0,0-.93,2.74,6,6,0,0,0-.38,2.25c0,.14.2.16.28.06a8.13,8.13,0,0,0,1-2.19c.31-.85.64-1.69.93-2.54A.46.46,0,0,0,148,227.36Z" style="fill: rgb(38, 50, 56); transform-origin: 147.808px 229.757px;" id="elhktlv3xfkkj" class="animable"></path><path d="M101.67,210c.15.17,66.17-1.47,66.76-2.17.81-1-17.12-68.77-21.91-78.83-2-4.28-12.66-5.34-17-1.57-11,9.45-19.69,41.16-21.65,50.7C104.58,193.89,101.1,209.44,101.67,210Z" style="fill: rgb(255, 199, 39); transform-origin: 135.032px 167.564px;" id="el88c7cv6ydcn" class="animable"></path><path d="M136.94,148.82a7.6,7.6,0,0,1,.56,2.13,8.53,8.53,0,0,1-1.65-4A7.65,7.65,0,0,1,136.94,148.82Zm5.27,25.62a8,8,0,0,0,.56,2.13,7.59,7.59,0,0,0,1.09,1.91,7.89,7.89,0,0,0-.56-2.12A8,8,0,0,0,142.21,174.44Zm6.18,29.94a7.89,7.89,0,0,0,.56,2.12,7.65,7.65,0,0,0,1.09,1.92,8.44,8.44,0,0,0-1.65-4Zm-28.86-37.44a7.28,7.28,0,0,0,.56,2.13,7.56,7.56,0,0,0,1.08,1.91,8.56,8.56,0,0,0-1.64-4Zm-10.43,18.9a8.56,8.56,0,0,0,1.64,4,7.59,7.59,0,0,0-.55-2.13A7.91,7.91,0,0,0,109.1,185.84Zm25.46,11.87a8.56,8.56,0,0,0,1.64,4,7.21,7.21,0,0,0-.56-2.12A7.61,7.61,0,0,0,134.56,197.71Zm21-34.2a7.69,7.69,0,0,0,.56,2.13,7.56,7.56,0,0,0,1.08,1.91,7.59,7.59,0,0,0-.55-2.13A7.91,7.91,0,0,0,155.6,163.51Zm-28.14-4.71a7.54,7.54,0,0,0,2.12-.56,7.61,7.61,0,0,0,1.92-1.08,7.28,7.28,0,0,0-2.13.56A7.56,7.56,0,0,0,127.46,158.8Zm-7,23.81a7.86,7.86,0,0,0,2.13-.56,8,8,0,0,0,1.92-1.09,8.53,8.53,0,0,0-4,1.65Zm2,27,1.17,0,.45-.17a8,8,0,0,0,1.92-1.09,9,9,0,0,0-3.54,1.29ZM148,188a8.44,8.44,0,0,0,4-1.65,8.44,8.44,0,0,0-4,1.65Zm-19.67-50a8.44,8.44,0,0,0,4-1.65,8.44,8.44,0,0,0-4,1.65Zm-6.05,3.24a8.07,8.07,0,0,0-1.11,1.9,7.47,7.47,0,0,0-.58,2.12,7.44,7.44,0,0,0,1.11-1.9A7.92,7.92,0,0,0,122.31,141.25Zm-10.16,30.36a7.44,7.44,0,0,0-1.11,1.9,7.83,7.83,0,0,0-.59,2.12,7.8,7.8,0,0,0,1.11-1.9A8,8,0,0,0,112.15,171.61Zm-.45,27.71a8.28,8.28,0,0,0-1.11,1.9,8,8,0,0,0-.58,2.12,7.44,7.44,0,0,0,1.11-1.9A7.82,7.82,0,0,0,111.7,199.32ZM144.78,160a8,8,0,0,0-1.1,1.91,7.48,7.48,0,0,0-.59,2.12,7.8,7.8,0,0,0,1.11-1.9A7.63,7.63,0,0,0,144.78,160Zm-10.67,24.46a8.43,8.43,0,0,0-1.69,4,8.5,8.5,0,0,0,1.11-1.9A8,8,0,0,0,134.11,184.46Zm25.62,11.27a7.44,7.44,0,0,0-1.11,1.9,7.83,7.83,0,0,0-.59,2.12,7.44,7.44,0,0,0,1.11-1.9A8,8,0,0,0,159.73,195.73Zm-15.24-57a7.71,7.71,0,0,0-1.1,1.9,7.48,7.48,0,0,0-.59,2.12,8.43,8.43,0,0,0,1.69-4Zm8,14.82a8.07,8.07,0,0,0-1.9-1.11,7.47,7.47,0,0,0-2.12-.58,7.62,7.62,0,0,0,1.9,1.11A8,8,0,0,0,152.52,153.5ZM124.1,195.7a7.8,7.8,0,0,0-1.9-1.11,8,8,0,0,0-2.12-.59,8.58,8.58,0,0,0,4,1.7Zm35.75-17.07a8.43,8.43,0,0,0-4-1.69,8.5,8.5,0,0,0,1.9,1.11A8,8,0,0,0,159.85,178.63Zm-45.09-24.41a8.32,8.32,0,0,0,1.6.88,7.83,7.83,0,0,0,2.12.59,7.62,7.62,0,0,0-1.9-1.11,8,8,0,0,0-1.76-.53A1.15,1.15,0,0,0,114.76,154.22Zm29.78,42.37a7.8,7.8,0,0,0-1.9-1.11,7.67,7.67,0,0,0-2.12-.59,7.44,7.44,0,0,0,1.9,1.11A7.83,7.83,0,0,0,144.54,196.59Zm-8.74-27.42a7.8,7.8,0,0,0-1.9-1.11,7.67,7.67,0,0,0-2.12-.59,7.44,7.44,0,0,0,1.9,1.11A7.83,7.83,0,0,0,135.8,169.17Z" style="fill: rgb(255, 255, 255); transform-origin: 134.475px 172.995px;" id="el1vbkv48zti8" class="animable"></path><path d="M143.16,138.64c-3.78.6-10.5-6.09-12.67-10.87-.15-.33.59-3.62,1.29-7.65.42-2.45.83-5.19,1-7.72,0-.52,1.73.57,1.73.57l3.2,1,10.61,3.44a40.58,40.58,0,0,0-2.26,9.58,5.91,5.91,0,0,0,0,1c0,.05,0,.11,0,.18C146.29,130.24,146.81,138.06,143.16,138.64Z" style="fill: rgb(119, 68, 66); transform-origin: 139.395px 125.469px;" id="elbzcrlme4n4h" class="animable"></path><path d="M146.11,128.07c0,.05,0,.11,0,.18a10.1,10.1,0,0,1-1.63,0c-10.65-1-11-14.7-11-14.7l4.2.5,10.61,3.44a40.58,40.58,0,0,0-2.26,9.58A5.91,5.91,0,0,0,146.11,128.07Z" style="fill: rgb(38, 50, 56); transform-origin: 140.885px 120.916px;" id="el5osfu20fn5q" class="animable"></path><path d="M131.41,95.38c-1.85,5.6.75,21.93,4.67,25.65,5.69,5.39,15.18,6.11,19.81-.77,4.48-6.66.72-27.89-3.68-31.29C145.74,84,134.14,87.13,131.41,95.38Z" style="fill: rgb(119, 68, 66); transform-origin: 144.355px 105.917px;" id="el3w0scr9pzzq" class="animable"></path><path d="M135.68,120.86h0" style="fill: none; stroke: rgb(220, 106, 87); stroke-linecap: round; stroke-linejoin: round; stroke-width: 0px; transform-origin: 135.68px 120.86px;" id="elmm0ue9byzfg" class="animable"></path><path d="M147.18,106.31s-.08.07-.07.11c.21,1.1.26,2.39-.68,2.9,0,0,0,.08,0,.06C147.64,109,147.55,107.32,147.18,106.31Z" style="fill: rgb(38, 50, 56); transform-origin: 146.927px 107.847px;" id="elrcgsim8ld2l" class="animable"></path><path d="M146,105.31c-1.79.14-1.38,3.71.28,3.59S147.52,105.2,146,105.31Z" style="fill: rgb(38, 50, 56); transform-origin: 146.09px 107.105px;" id="el4j09bo81bt" class="animable"></path><path d="M153.44,105.39s.09,0,.09.08c.1,1.11.39,2.37,1.43,2.62,0,0,0,.07,0,.07C153.72,108.12,153.35,106.45,153.44,105.39Z" style="fill: rgb(38, 50, 56); transform-origin: 154.194px 106.775px;" id="elbrcs635r2v" class="animable"></path><path d="M154.29,104.12c1.77-.34,2.32,3.21.68,3.53S152.82,104.4,154.29,104.12Z" style="fill: rgb(38, 50, 56); transform-origin: 154.686px 105.884px;" id="eltc7377vh5h" class="animable"></path><path d="M144.43,103.84a13.45,13.45,0,0,0,1.32-.65,2.36,2.36,0,0,0,1.23-.91.75.75,0,0,0-.22-.9,1.87,1.87,0,0,0-1.91,0,2.74,2.74,0,0,0-1.45,1.37A.81.81,0,0,0,144.43,103.84Z" style="fill: rgb(38, 50, 56); transform-origin: 145.187px 102.506px;" id="elbmp8e2js1qn" class="animable"></path><path d="M155.47,102.16A11.94,11.94,0,0,1,154,102a2.33,2.33,0,0,1-1.45-.49.75.75,0,0,1-.06-.93,1.87,1.87,0,0,1,1.82-.56,2.74,2.74,0,0,1,1.8.86A.81.81,0,0,1,155.47,102.16Z" style="fill: rgb(38, 50, 56); transform-origin: 154.308px 101.064px;" id="elishrgeimgse" class="animable"></path><path d="M146.86,116.33c.3.23.6.55,1,.54a2.94,2.94,0,0,0,1.15-.41s.08,0,.06.05a1.5,1.5,0,0,1-1.34.76,1.19,1.19,0,0,1-1-.88A.06.06,0,0,1,146.86,116.33Z" style="fill: rgb(38, 50, 56); transform-origin: 147.898px 116.779px;" id="elhi5pus2poob" class="animable"></path><path d="M147.65,112.88a3.78,3.78,0,0,0,2.7,1.39,4.77,4.77,0,0,0,1.36-.09,1.1,1.1,0,0,0,.26-.06l.24-.07a.27.27,0,0,0,.19-.27h0a.43.43,0,0,0,0-.11h0l0-.1c-.07-.85-.3-2.14-.3-2.14.33.12,2,.66,1.92.21a56.2,56.2,0,0,0-2.77-11.23.1.1,0,0,0-.19,0c.47,3.54,1.57,7,2.11,10.52a6.82,6.82,0,0,0-1.84-.33c-.12.05.49,2.48.49,2.86v0a5.25,5.25,0,0,1-4-.76C147.65,112.72,147.57,112.8,147.65,112.88Z" style="fill: rgb(38, 50, 56); transform-origin: 150.821px 107.313px;" id="els4we0u1805n" class="animable"></path><path d="M151.16,113.8a4.47,4.47,0,0,1-1.63,1.59,1.92,1.92,0,0,1-1.21.22c-.91-.13-1-.94-.94-1.65a4.58,4.58,0,0,1,.27-1.11A5.82,5.82,0,0,0,151.16,113.8Z" style="fill: rgb(38, 50, 56); transform-origin: 149.263px 114.24px;" id="el7c7yipkwngv" class="animable"></path><path d="M149.53,115.39a1.92,1.92,0,0,1-1.21.22c-.91-.13-1-.94-.94-1.65A2.09,2.09,0,0,1,149.53,115.39Z" style="fill: rgb(255, 152, 185); transform-origin: 148.448px 114.792px;" id="elmcvtecqp25a" class="animable"></path><path d="M155.4,96.15c-5.23,3.91-12.82-1.36-12.82-1.36a5.86,5.86,0,0,1-5.79,3.95s-.68,9.15-3.08,9.24c-3.66.13-5.31-12.25-4.25-14.74S133.59,90,133.59,90a6,6,0,0,1,2.34-3.73c2.41-2,11.15.2,11.15.2a8,8,0,0,1,2.08-3.07,2.27,2.27,0,0,1,3.27.16,5.4,5.4,0,0,0-.78,2.28c-.32,2.69,1.85,2.6,1.73.18a3.72,3.72,0,0,0-.95-2.46c1-1.62,2.74-2.21,3.85-1.41C158.27,83.61,159.75,92.9,155.4,96.15Z" style="fill: rgb(38, 50, 56); transform-origin: 143.683px 94.8883px;" id="el7nh9lk0lrfx" class="animable"></path><path d="M134.58,108.72s-3.66-5.27-6.05-4,.35,8.94,3.15,10a2.85,2.85,0,0,0,3.82-1.52Z" style="fill: rgb(119, 68, 66); transform-origin: 131.558px 109.749px;" id="elzzd4xu313x" class="animable"></path><path d="M129.37,106.92c-.05,0-.05.06,0,.08,2,.8,3,2.62,3.72,4.51a1.59,1.59,0,0,0-2.36-.43c-.05,0,0,.11.06.1a1.74,1.74,0,0,1,1.92.62,8.19,8.19,0,0,1,.92,1.56c.09.18.41.09.35-.12l0,0C134,110.69,132.06,107.18,129.37,106.92Z" style="fill: rgb(38, 50, 56); transform-origin: 131.66px 110.188px;" id="elbywqzu00vb" class="animable"></path><polygon points="146.27 260.94 120.65 234.21 166.91 213.82 192.53 240.55 146.27 260.94" style="fill: rgb(235, 235, 235); transform-origin: 156.59px 237.38px;" id="el28x40fahehw" class="animable"></polygon><polygon points="148.03 262.77 122.4 236.04 168.66 215.65 194.29 242.38 148.03 262.77" style="fill: rgb(199, 199, 199); transform-origin: 158.345px 239.21px;" id="elheqi56obaj8" class="animable"></polygon><path d="M171.38,218.49a3.26,3.26,0,0,1-2.49.19c-.38-.12-.11-.51.26-.38a2.42,2.42,0,0,0,1.62-.07l.25-.12a1.81,1.81,0,0,0,.69-.58.63.63,0,0,0,.09-.38v0s0,0,0-.05l0-.06a.46.46,0,0,0-.19-.17,1.11,1.11,0,0,0-.49-.12,2.51,2.51,0,0,0-.62.08c-.1,0-.2,0-.31.07l-.06,0-.1,0-.06,0-.36-.38a3.94,3.94,0,0,1,1-.27,2,2,0,0,1,1.63.4.81.81,0,0,1,0,1.12A2.08,2.08,0,0,1,171.38,218.49Z" style="fill: rgb(166, 166, 166); transform-origin: 170.585px 217.528px;" id="elxnson0e4s1l" class="animable"></path><path d="M173.39,220.58a3.29,3.29,0,0,1-2.5.2c-.38-.13-.11-.52.26-.39a2.45,2.45,0,0,0,1.63-.07,1.08,1.08,0,0,0,.24-.12,1.7,1.7,0,0,0,.7-.58.63.63,0,0,0,.09-.38s0,0,0,0,0,0,0-.05l0,0a.5.5,0,0,0-.2-.18,1,1,0,0,0-.49-.11,2,2,0,0,0-.61.07c-.1,0-.2.05-.31.07l-.06,0-.1,0s0,0-.06,0l-.37-.38a3.94,3.94,0,0,1,1-.27,2,2,0,0,1,1.64.4.82.82,0,0,1,0,1.12A2.15,2.15,0,0,1,173.39,220.58Z" style="fill: rgb(166, 166, 166); transform-origin: 172.589px 219.645px;" id="el8jlir7p81p6" class="animable"></path><path d="M175.39,222.68a3.31,3.31,0,0,1-2.49.19c-.38-.13-.11-.51.26-.39a2.48,2.48,0,0,0,1.62-.06l.25-.12a1.75,1.75,0,0,0,.69-.59.5.5,0,0,0,.09-.37v0s0,0,0,0l-.05-.06a.35.35,0,0,0-.19-.17,1,1,0,0,0-.49-.12,2,2,0,0,0-.61.07l-.31.08-.07,0-.09,0-.07,0-.36-.38a3.94,3.94,0,0,1,1-.27,2,2,0,0,1,1.63.4.81.81,0,0,1,0,1.13A2.27,2.27,0,0,1,175.39,222.68Z" style="fill: rgb(166, 166, 166); transform-origin: 174.573px 221.741px;" id="elw3f8rbabpb8" class="animable"></path><path d="M177.4,224.77a3.29,3.29,0,0,1-2.5.19c-.38-.12-.11-.51.26-.38a2.45,2.45,0,0,0,1.63-.07l.25-.12a1.75,1.75,0,0,0,.69-.59.62.62,0,0,0,.09-.37s0,0,0,0a.17.17,0,0,1,0-.05l0-.06a.45.45,0,0,0-.19-.17,1.15,1.15,0,0,0-.5-.12,2.43,2.43,0,0,0-.61.08,2,2,0,0,0-.31.07l-.06,0a.17.17,0,0,0-.1,0s-.05,0-.06,0l-.36-.38a3.76,3.76,0,0,1,1-.28,2,2,0,0,1,1.64.41.82.82,0,0,1,0,1.12A2.25,2.25,0,0,1,177.4,224.77Z" style="fill: rgb(166, 166, 166); transform-origin: 176.604px 223.803px;" id="eljiv9gt4zwcn" class="animable"></path><path d="M179.4,226.86a3.26,3.26,0,0,1-2.49.19c-.38-.12-.11-.51.26-.38a2.42,2.42,0,0,0,1.62-.07l.25-.12a1.81,1.81,0,0,0,.69-.58.52.52,0,0,0,.09-.38v0s0,0,0-.05,0-.06,0-.06a.56.56,0,0,0-.2-.17,1.07,1.07,0,0,0-.49-.12,2.37,2.37,0,0,0-.61.08,1.55,1.55,0,0,0-.31.07l-.06,0a.29.29,0,0,0-.1,0s-.05,0-.06,0l-.37-.38a3.94,3.94,0,0,1,1-.27,2,2,0,0,1,1.64.4.81.81,0,0,1,0,1.12A2,2,0,0,1,179.4,226.86Z" style="fill: rgb(166, 166, 166); transform-origin: 178.605px 225.897px;" id="elbpl2c9uaqzo" class="animable"></path><path d="M181.41,229a3.26,3.26,0,0,1-2.49.2c-.39-.13-.12-.52.25-.39a2.45,2.45,0,0,0,1.63-.07,1.42,1.42,0,0,0,.25-.12,1.73,1.73,0,0,0,.69-.58.63.63,0,0,0,.09-.38s0,0,0,0,0,0,0-.05l0-.05a.42.42,0,0,0-.19-.18,1,1,0,0,0-.5-.11,2.08,2.08,0,0,0-.61.07c-.1,0-.2.05-.31.07l-.06,0-.1,0s-.05,0-.06,0l-.36-.38a3.76,3.76,0,0,1,1-.27,2,2,0,0,1,1.64.4.82.82,0,0,1,0,1.12A2.15,2.15,0,0,1,181.41,229Z" style="fill: rgb(166, 166, 166); transform-origin: 180.615px 228.04px;" id="el2d4qcl0xgqa" class="animable"></path><path d="M183.42,231.05a3.34,3.34,0,0,1-2.5.19c-.38-.13-.11-.51.26-.39a2.48,2.48,0,0,0,1.62-.06l.25-.12a1.75,1.75,0,0,0,.69-.59.56.56,0,0,0,.1-.37.1.1,0,0,1,0,0s0,0,0,0l0-.06a.42.42,0,0,0-.2-.17,1,1,0,0,0-.49-.12,2,2,0,0,0-.61.07l-.31.08-.06,0-.1,0-.06,0-.37-.38a3.94,3.94,0,0,1,1-.27,2,2,0,0,1,1.64.4.82.82,0,0,1,0,1.13A2.23,2.23,0,0,1,183.42,231.05Z" style="fill: rgb(166, 166, 166); transform-origin: 182.621px 230.11px;" id="ely2dlkip7i4" class="animable"></path><path d="M185.42,233.14a3.26,3.26,0,0,1-2.49.19c-.38-.12-.12-.51.26-.38a2.42,2.42,0,0,0,1.62-.07l.25-.12a1.75,1.75,0,0,0,.69-.59.62.62,0,0,0,.09-.37v0l0-.05,0-.06a.4.4,0,0,0-.19-.17,1.11,1.11,0,0,0-.49-.12,2.51,2.51,0,0,0-.62.08,2,2,0,0,0-.31.07l-.06,0a.17.17,0,0,0-.1,0s0,0-.06,0l-.36-.38a3.58,3.58,0,0,1,1-.28,2,2,0,0,1,1.63.41.81.81,0,0,1,0,1.12A2.25,2.25,0,0,1,185.42,233.14Z" style="fill: rgb(166, 166, 166); transform-origin: 184.624px 232.174px;" id="elsf30pas123" class="animable"></path><path d="M187.43,235.23a3.29,3.29,0,0,1-2.5.19c-.38-.12-.11-.51.26-.38a2.42,2.42,0,0,0,1.62-.07,1.45,1.45,0,0,0,.25-.12,1.74,1.74,0,0,0,.69-.58.58.58,0,0,0,.1-.38v0a.43.43,0,0,0,0-.05s0-.06,0-.06a.56.56,0,0,0-.2-.17,1.07,1.07,0,0,0-.49-.12,2.37,2.37,0,0,0-.61.08,2,2,0,0,0-.31.07l-.06,0a.29.29,0,0,0-.1,0s-.05,0-.06,0l-.37-.38a3.94,3.94,0,0,1,1-.27,2,2,0,0,1,1.64.4.81.81,0,0,1,0,1.12A2.05,2.05,0,0,1,187.43,235.23Z" style="fill: rgb(166, 166, 166); transform-origin: 186.63px 234.267px;" id="eldyp3vmk3wxv" class="animable"></path><path d="M189.43,237.32a3.26,3.26,0,0,1-2.49.2c-.38-.13-.11-.52.26-.39a2.42,2.42,0,0,0,1.62-.07,1.42,1.42,0,0,0,.25-.12,1.73,1.73,0,0,0,.69-.58.63.63,0,0,0,.09-.38v0s0,0,0,0l0-.05a.42.42,0,0,0-.19-.18,1,1,0,0,0-.49-.11,2,2,0,0,0-.61.07,2.82,2.82,0,0,0-.31.07l-.07,0-.1,0-.06,0-.36-.38a3.94,3.94,0,0,1,1-.27,2,2,0,0,1,1.63.4.8.8,0,0,1,0,1.12A2.08,2.08,0,0,1,189.43,237.32Z" style="fill: rgb(166, 166, 166); transform-origin: 188.637px 236.386px;" id="el0pdd7xx2u2ib" class="animable"></path><path d="M191.44,239.42a3.34,3.34,0,0,1-2.5.19c-.38-.13-.11-.51.26-.39a2.51,2.51,0,0,0,1.63-.06l.24-.12a1.72,1.72,0,0,0,.7-.59.62.62,0,0,0,.09-.37,0,0,0,0,1,0,0l0,0,0-.06a.42.42,0,0,0-.2-.17,1,1,0,0,0-.49-.12,2,2,0,0,0-.61.07l-.31.08-.06,0-.1,0-.06,0-.37-.38a3.94,3.94,0,0,1,1-.27,2,2,0,0,1,1.64.4.82.82,0,0,1,0,1.12A2.27,2.27,0,0,1,191.44,239.42Z" style="fill: rgb(166, 166, 166); transform-origin: 190.639px 238.48px;" id="elswqo7qdi05" class="animable"></path><path d="M193.44,241.51a3.26,3.26,0,0,1-2.49.19c-.38-.12-.11-.51.26-.38a2.42,2.42,0,0,0,1.62-.07l.25-.12a1.75,1.75,0,0,0,.69-.59.5.5,0,0,0,.09-.37v0s0,0,0,0l0-.06a.48.48,0,0,0-.2-.17,1.11,1.11,0,0,0-.49-.12,2.37,2.37,0,0,0-.61.08,1.55,1.55,0,0,0-.31.07l-.06,0-.1,0-.07,0-.36-.37a3.58,3.58,0,0,1,1-.28,2,2,0,0,1,1.63.41.8.8,0,0,1,0,1.12A2.17,2.17,0,0,1,193.44,241.51Z" style="fill: rgb(166, 166, 166); transform-origin: 192.642px 240.574px;" id="el14omtiishby" class="animable"></path><path d="M122,134.19C107.73,153.68,98.94,180.1,99.65,186c.78,6.54,8.91,28.88,17.9,39,2.37,2.66,22.17-17.36,19.76-20.31-4.66-5.68-13.65-22.2-13.91-25.89-.24-3.4,5.7-25,7.57-37.28C132.77,129.69,128.67,125.13,122,134.19Z" style="fill: rgb(119, 68, 66); transform-origin: 118.561px 177.323px;" id="elnhr7cbbcx4g" class="animable"></path><path d="M136.74,204s10,5,16.42,8.53c3.57,2,9.39,5.94,11.35,8.6,2.93,4,12.62,22.49,8.19,24.93-4,2.22-10.33-14.74-10.33-14.74s7.88,16.55,2.55,18.33S155,231.33,155,231.33s7.72,17.19,1.94,18.15c-4.37.73-9.55-17.25-9.55-17.25s6.53,14.82,2.07,15.76c-4.93,1-10.75-15.25-10.75-15.25-11.75.49-17.54-4.08-21.28-7.82C116.54,224,136.74,204,136.74,204Z" style="fill: rgb(119, 68, 66); transform-origin: 145.621px 226.881px;" id="el1fz3i34n59p" class="animable"></path><path d="M160,225.43c1,1.91,2,3.84,2.84,5.83s1.58,4,2.21,6.08a35.82,35.82,0,0,1,1.7,8.25c-.81-5-3.64-12.13-4.47-14.12s-1.54-4-2.36-6C159.91,225.41,160,225.39,160,225.43Z" style="fill: rgb(38, 50, 56); transform-origin: 163.335px 235.5px;" id="elc3i1kwrv8s" class="animable"></path><path d="M152.76,228.27c1.17,2.5,2.42,4.93,3.47,7.48s1.83,5,2.7,7.63c.07.2-.06.17-.13,0-1-2.56-2.08-4.85-3.09-7.41s-1.92-5.14-3-7.64C152.68,228.26,152.74,228.24,152.76,228.27Z" style="fill: rgb(38, 50, 56); transform-origin: 155.826px 235.888px;" id="elntse8uiaupd" class="animable"></path><path d="M146.1,229.59a61.87,61.87,0,0,1,4.44,11.84c.05.2-.11.14-.18-.06-1.4-4-2.47-7.08-4.39-11.71C145.94,229.59,146.06,229.52,146.1,229.59Z" style="fill: rgb(38, 50, 56); transform-origin: 148.257px 235.557px;" id="eleby0ox41ut5" class="animable"></path><path d="M108.23,154.22l21.1,5.1s3.24-14.82,2.57-23.94-6-7.6-11.37-.52S108.23,154.22,108.23,154.22Z" style="fill: rgb(38, 50, 56); transform-origin: 120.111px 144.18px;" id="el3idchhf50im" class="animable"></path></g><defs>     <filter id="active" height="200%">         <feMorphology in="SourceAlpha" result="DILATED" operator="dilate" radius="2"></feMorphology>                <feFlood flood-color="#32DFEC" flood-opacity="1" result="PINK"></feFlood>        <feComposite in="PINK" in2="DILATED" operator="in" result="OUTLINE"></feComposite>        <feMerge>            <feMergeNode in="OUTLINE"></feMergeNode>            <feMergeNode in="SourceGraphic"></feMergeNode>        </feMerge>    </filter>    <filter id="hover" height="200%">        <feMorphology in="SourceAlpha" result="DILATED" operator="dilate" radius="2"></feMorphology>                <feFlood flood-color="#ff0000" flood-opacity="0.5" result="PINK"></feFlood>        <feComposite in="PINK" in2="DILATED" operator="in" result="OUTLINE"></feComposite>        <feMerge>            <feMergeNode in="OUTLINE"></feMergeNode>            <feMergeNode in="SourceGraphic"></feMergeNode>        </feMerge>            <feColorMatrix type="matrix" values="0   0   0   0   0                0   1   0   0   0                0   0   0   0   0                0   0   0   1   0 "></feColorMatrix>    </filter></defs></svg>