<svg id="Capa_1" enable-background="new 0 0 512 512" height="512" viewBox="0 0 512 512" width="512" xmlns="http://www.w3.org/2000/svg"><g><g><g><g><circle cx="144.73" cy="130.813" fill="#ff5a9a" r="130.811"/><path d="m275.541 130.819c0 72.245-58.562 130.806-130.806 130.806-67.486 0-123.034-51.096-130.056-116.711 15.544 42.71 56.521 73.207 104.603 73.207 61.48 0 111.318-49.837 111.318-111.307 0-50.366-33.447-92.918-79.34-106.654 69.209 3.395 124.281 60.603 124.281 130.659z" fill="#f91e89"/><path d="m242.412 43.812c-24.032-26.967-59.063-43.92-98.052-43.811-63.022.175-115.988 45.605-127.926 105.31-2.282 11.413 6.525 22.045 18.164 22.045 8.858 0 16.416-6.291 18.154-14.977 8.589-42.93 46.568-75.369 91.979-75.369 27.812 0 52.834 12.168 70.025 31.461 7.035 7.895 19.324 8.108 26.801.631 6.893-6.892 7.341-18.012.855-25.29z" fill="#ff97c9"/><path d="m187.158 7.038c-13.415-4.599-27.814-7.079-42.799-7.037-34.318.095-65.644 13.617-88.993 35.552-7.765 7.294-7.444 19.705.521 26.78.103.092.207.184.31.276 6.992 6.213 17.595 6.218 24.415-.183 16.783-15.751 39.341-25.414 64.118-25.414 10.59 0 20.775 1.764 30.277 5.014 6.957 2.379 14.659.407 19.594-5.044l.256-.282c8.852-9.778 4.776-25.385-7.699-29.662z" fill="#ffc5e4"/></g><g><g><path d="m144.35 195.748c-18.495 0-34.596-12.502-39.155-30.403-2.161-8.49 2.968-17.124 11.457-19.286s17.123 2.968 19.285 11.457c.976 3.832 4.435 6.508 8.412 6.508 4.784 0 8.677-3.893 8.677-8.678s-3.893-8.678-8.677-8.678c-8.76 0-15.862-7.102-15.862-15.862s7.102-15.862 15.862-15.862c4.784 0 8.677-3.888 8.677-8.667 0-4.785-3.893-8.678-8.677-8.678-3.973 0-7.434 2.682-8.416 6.523-2.171 8.487-10.816 13.608-19.296 11.437-8.487-2.17-13.608-10.809-11.438-19.297 4.575-17.891 20.674-30.387 39.15-30.387 22.277 0 40.401 18.124 40.401 40.401 0 9.219-3.104 17.726-8.324 24.531 5.22 6.807 8.324 15.316 8.324 24.538.001 22.279-18.123 40.403-40.4 40.403z" fill="#ffc751"/></g></g></g><g><g><circle cx="355.864" cy="244.085" fill="#8f6bdd" r="130.811"/><path d="m486.673 244.088c0 72.245-58.562 130.806-130.806 130.806-72.245 0-130.817-58.561-130.817-130.806 0-3.119.106-6.207.328-9.263 4.431 58.287 53.126 104.19 112.544 104.19 62.337 0 112.872-50.536 112.872-112.872 0-59.418-45.904-108.114-104.19-112.544 3.056-.222 6.144-.328 9.263-.328 72.245 0 130.806 58.573 130.806 130.817z" fill="#8042e0"/><path d="m294.151 340.913c7.478-7.478 7.264-19.768-.631-26.804-19.292-17.191-31.462-42.211-31.462-70.021 0-51.73 42.087-93.806 93.806-93.806 27.812 0 52.834 12.168 70.025 31.461 7.035 7.895 19.324 8.108 26.801.631 6.893-6.893 7.34-18.013.855-25.291-24.033-26.968-59.063-43.92-98.053-43.812-71.613.199-130.246 58.832-130.445 130.445-.108 38.989 16.844 74.019 43.811 98.052 7.279 6.486 18.4 6.039 25.293-.855z" fill="#ab97f2"/><path d="m405.735 150.252.256-.282c8.852-9.776 4.777-25.383-7.698-29.66-13.415-4.6-27.815-7.08-42.8-7.038-47.863.133-89.922 26.371-112.616 65.139-7.223 12.338 1.586 27.861 15.882 27.861 6.636 0 12.692-3.602 16.038-9.333 16.278-27.883 46.522-46.658 81.067-46.658 10.589 0 20.774 1.764 30.276 5.014 6.958 2.38 14.659.408 19.595-5.043z" fill="#c3b9f9"/></g><g><g><path d="m382.01 309.022h-52.299c-6.328 0-12.051-3.762-14.562-9.572-2.509-5.81-1.325-12.556 3.013-17.163.114-.121 11.762-12.535 23.206-27.336 20.46-26.461 20.803-35.32 20.804-35.406 0-4.782-3.893-8.675-8.679-8.675-3.973 0-7.434 2.683-8.416 6.524-2.172 8.486-10.811 13.606-19.298 11.436-8.486-2.171-13.606-10.811-11.436-19.298 4.577-17.89 20.676-30.385 39.15-30.385 22.278 0 40.402 18.124 40.402 40.401 0 8.306-2.848 23.031-27.477 54.869-.753.972-1.504 1.934-2.252 2.882h17.843c8.76 0 15.862 7.102 15.862 15.862s-7.1 15.861-15.861 15.861z" fill="#ff5a9a"/></g></g></g><g><g><circle cx="185.502" cy="381.185" fill="#ffc751" r="130.811"/><path d="m316.31 381.183c0 72.245-58.561 130.817-130.806 130.817s-130.817-58.572-130.817-130.817c0-5.044.286-10.025.846-14.91 6.694 54.279 52.978 96.302 109.076 96.302 60.698 0 109.911-49.214 109.911-109.922 0-44.318-26.235-82.513-64.018-99.897 60.285 11.674 105.808 64.726 105.808 128.427z" fill="#ffaf40"/><path d="m283.077 294.064c-24.03-26.898-59.014-43.8-97.945-43.692-40.61.113-77.03 19.026-100.998 48.436-7.289 8.944-4.465 22.336 5.759 27.683.109.057.218.114.327.171 7.67 4.007 17.11 2.067 22.576-4.642 17.209-21.121 43.403-34.638 72.707-34.638 27.812 0 52.834 12.168 70.025 31.461 7.034 7.895 19.324 8.108 26.801.631 6.936-6.935 7.283-18.095.748-25.41z" fill="#ffe059"/><path d="m227.934 257.411c-13.416-4.6-27.816-7.08-42.802-7.039-17.776.049-34.747 3.707-50.224 10.266-9.837 4.169-13.874 15.949-8.847 25.376.058.109.116.218.174.326 4.424 8.299 14.419 11.951 23.089 8.309 11.138-4.678 23.361-7.267 36.179-7.267 10.588 0 20.772 1.764 30.273 5.013 6.958 2.379 14.66.408 19.597-5.043l.256-.282c8.853-9.774 4.78-25.382-7.695-29.659z" fill="#fff370"/></g><g><path d="m190.879 446.125c-8.76 0-15.862-7.102-15.862-15.862v-62.631c-.38.184-.763.367-1.152.547-7.945 3.692-17.378.242-21.068-7.702-3.691-7.944-.243-17.377 7.702-21.068 11.615-5.397 15.73-13.382 15.762-13.459 2.931-6.958 10.356-10.887 17.759-9.393 7.401 1.494 12.722 7.998 12.722 15.548v98.157c-.002 8.761-7.103 15.863-15.863 15.863z" fill="#f91e89"/></g></g></g><g><g><g><g><g><g><g><g><path d="m429.872 394.508c2.93-1.93 2.93-6.217 0-8.147-7.563-4.982-14.741-10.778-21.407-17.394-6.666-6.615-12.507-13.739-17.527-21.244-1.945-2.908-6.264-2.908-8.209 0-5.02 7.505-10.861 14.629-17.527 21.244s-13.845 12.412-21.407 17.394c-2.93 1.93-2.93 6.217 0 8.147 7.563 4.982 14.741 10.778 21.407 17.394 6.666 6.615 12.507 13.739 17.527 21.244 1.945 2.908 6.264 2.908 8.209 0 5.02-7.505 10.861-14.629 17.527-21.244 6.666-6.616 13.844-12.412 21.407-17.394z" fill="#ffe059"/></g></g><g><g><path d="m429.874 394.505c-7.562 4.982-14.739 10.776-21.408 17.395s-12.508 13.741-17.528 21.245c-1.946 2.903-6.26 2.903-8.206 0-5.02-7.504-10.859-14.627-17.528-21.245-.868-.861-1.748-1.71-2.64-2.546 1.178.098 2.368.147 3.57.147 22.883 0 41.539-18.034 42.307-40.559l.025.025c6.669 6.618 13.846 12.412 21.408 17.395 2.925 1.93 2.925 6.211 0 8.143z" fill="#ffc751"/></g></g></g></g></g></g></g></g><g><g><g><g><g><path d="m65.947 281.844c1.546-1.019 1.546-3.281 0-4.3-3.992-2.629-7.78-5.689-11.299-9.18-3.518-3.492-6.601-7.252-9.251-11.213-1.027-1.535-3.306-1.535-4.333 0-2.65 3.961-5.732 7.721-9.251 11.213s-7.307 6.551-11.299 9.18c-1.546 1.019-1.546 3.281 0 4.3 3.992 2.629 7.78 5.689 11.299 9.18 3.518 3.492 6.601 7.252 9.251 11.213 1.027 1.535 3.306 1.535 4.333 0 2.65-3.961 5.732-7.721 9.251-11.213 3.519-3.491 7.308-6.551 11.299-9.18z" fill="#ffe059"/></g></g><g><g><path d="m65.948 281.842c-3.991 2.63-7.779 5.688-11.299 9.181s-6.602 7.253-9.251 11.213c-1.027 1.532-3.304 1.532-4.331 0-2.65-3.961-5.731-7.72-9.251-11.213-.458-.455-.922-.902-1.394-1.344.622.052 1.25.078 1.884.078 12.078 0 21.924-9.518 22.33-21.407l.013.013c3.52 3.493 7.308 6.551 11.299 9.181 1.544 1.019 1.544 3.279 0 4.298z" fill="#ffc751"/></g></g></g></g></g><g><g><g><g><g><path d="m337.712 69.992c1.975-1.301 1.975-4.19 0-5.49-5.097-3.357-9.934-7.264-14.427-11.722s-8.429-9.259-11.812-14.317c-1.311-1.96-4.222-1.96-5.532 0-3.383 5.058-7.319 9.859-11.812 14.317s-9.33 8.365-14.427 11.722c-1.975 1.301-1.975 4.19 0 5.49 5.097 3.357 9.934 7.264 14.427 11.722 4.492 4.458 8.429 9.259 11.812 14.317 1.311 1.96 4.222 1.96 5.532 0 3.383-5.058 7.319-9.859 11.812-14.317 4.493-4.459 9.33-8.365 14.427-11.722z" fill="#ffe059"/></g></g><g><g><path d="m337.713 69.989c-5.096 3.358-9.933 7.262-14.427 11.723-4.494 4.46-8.429 9.26-11.812 14.317-1.312 1.957-4.219 1.957-5.53 0-3.383-5.057-7.318-9.857-11.812-14.317-.585-.58-1.178-1.152-1.779-1.716.794.066 1.596.099 2.406.099 15.421 0 27.994-12.154 28.512-27.333.008.008.008.008.017.017 4.494 4.46 9.331 8.365 14.427 11.723 1.97 1.301 1.97 4.186-.002 5.487z" fill="#ffc751"/></g></g></g></g></g><g><g><g><g><g><path d="m496.921 311.172c1.546-1.019 1.546-3.281 0-4.3-3.992-2.629-7.78-5.689-11.299-9.18-3.518-3.492-6.601-7.252-9.251-11.213-1.027-1.535-3.306-1.535-4.333 0-2.65 3.961-5.732 7.721-9.251 11.213-3.518 3.492-7.307 6.551-11.299 9.18-1.546 1.019-1.546 3.281 0 4.3 3.992 2.629 7.78 5.689 11.299 9.18 3.518 3.492 6.601 7.252 9.251 11.213 1.027 1.535 3.306 1.535 4.333 0 2.65-3.961 5.732-7.721 9.251-11.213s7.307-6.551 11.299-9.18z" fill="#ffe059"/></g></g><g><g><path d="m496.922 311.17c-3.991 2.63-7.779 5.688-11.299 9.181s-6.602 7.253-9.251 11.213c-1.027 1.532-3.304 1.532-4.331 0-2.65-3.961-5.731-7.72-9.251-11.213-.458-.455-.922-.903-1.394-1.344.622.052 1.25.078 1.884.078 12.078 0 21.924-9.518 22.33-21.407l.013.013c3.52 3.493 7.308 6.551 11.299 9.181 1.544 1.019 1.544 3.278 0 4.298z" fill="#ffc751"/></g></g></g></g></g></g></svg>