<?xml version="1.0" encoding="iso-8859-1"?>
<!-- Generator: Adobe Illustrator 19.0.0, SVG Export Plug-In . SVG Version: 6.00 Build 0)  -->
<svg version="1.1" id="Capa_1" xmlns="http://www.w3.org/2000/svg" xmlns:xlink="http://www.w3.org/1999/xlink" x="0px" y="0px"
	 viewBox="0 0 512 512" style="enable-background:new 0 0 512 512;" xml:space="preserve">
<g>
	<path style="fill:#1689FC;" d="M13.195,498.805C21.343,506.954,32.593,512,45,512h212l15-21.865V280.136L257,257l-20.64-15H16.855
		L0,257v210C0,479.407,5.046,490.657,13.195,498.805z"/>
	<path style="fill:#1689FC;" d="M512,257V45c0-12.407-5.046-23.657-13.195-31.805S479.407,0,467,0H257l-15,20.641v213.111L257,257
		l19.376,15h212.495L512,257z"/>
</g>
<path style="fill:#81C8EE;" d="M257,0H45C32.593,0,21.343,5.046,13.195,13.195S0,32.593,0,45v212h257V0z"/>
<g>
	<path style="fill:#E1E1E4;" d="M156.211,377l49.395-49.395c13.945-13.945-7.151-35.271-21.211-21.211L135,355.789l-49.395-49.395
		c-13.945-13.945-35.271,7.151-21.211,21.211L113.789,377l-49.395,49.395c-14.003,14.003,7.208,35.214,21.211,21.211L135,398.211
		l49.395,49.395c13.946,13.946,35.271-7.151,21.211-21.211L156.211,377z"/>
	<path style="fill:#E1E1E4;" d="M195,120h-45V75c0-19.773-30-19.854-30,0v45H75c-19.773,0-19.854,30,0,30h45v45
		c0,19.773,30,19.854,30,0v-45h45C214.773,150,214.854,120,195,120z"/>
</g>
<path style="fill:#D9D8DB;" d="M437,150H317c-19.773,0-19.854-30,0-30h120C456.773,120,456.854,150,437,150z"/>
<path style="fill:#FE52A2;" d="M498.805,498.805C506.954,490.657,512,479.407,512,467V257H257v255h210
	C479.407,512,490.657,506.954,498.805,498.805z"/>
<g>
	<path style="fill:#D9D8DB;" d="M437,362H317c-19.773,0-19.854-30,0-30h120C456.773,332,456.854,362,437,362z"/>
	<path style="fill:#D9D8DB;" d="M437,422H317c-19.773,0-19.854-30,0-30h120C456.773,392,456.854,422,437,422z"/>
</g>
<g>
</g>
<g>
</g>
<g>
</g>
<g>
</g>
<g>
</g>
<g>
</g>
<g>
</g>
<g>
</g>
<g>
</g>
<g>
</g>
<g>
</g>
<g>
</g>
<g>
</g>
<g>
</g>
<g>
</g>
</svg>
