<svg id="color" enable-background="new 0 0 24 24" height="512" viewBox="0 0 24 24" width="512" xmlns="http://www.w3.org/2000/svg"><path d="m14.25 3h-11.5c-1.52 0-2.75 1.23-2.75 2.75v12.5c0 1.52 1.23 2.75 2.75 2.75h11.5c.12 0 .24-.01.36-.03-.96-1.11-1.52-2.489-1.59-3.97h-9.27c-.41 0-.75-.34-.75-.75s.34-.75.75-.75h9.36c.109-.7.34-1.36.659-1.96-.14.13-.319.21-.52.21h-9.5c-.409 0-.749-.34-.749-.75s.34-.75.75-.75h9.5c.41 0 .75.34.75.75l-.03.2c.7-1.19 1.771-2.13 3.03-2.681v-4.769c0-1.52-1.23-2.75-2.75-2.75zm-1 7.5h-9.5c-.41 0-.75-.34-.75-.75s.34-.75.75-.75h9.5c.41 0 .75.34.75.75s-.34.75-.75.75z" fill="#2196f3"/><path d="m12.25 2h-1.1c-.33-1.15-1.39-2-2.65-2s-2.32.85-2.65 2h-1.1c-.41 0-.75.34-.75.75v2c0 .96.79 1.75 1.75 1.75h5.5c.96 0 1.75-.79 1.75-1.75v-2c0-.41-.34-.75-.75-.75z" fill="#1976d2"/><g fill="#fff"><path d="m14 9.75c0 .41-.34.75-.75.75h-9.5c-.41 0-.75-.34-.75-.75s.34-.75.75-.75h9.5c.41 0 .75.34.75.75z"/><path d="m14 13-.03.2c-.08.109-.14.22-.189.33l-.011.01c-.14.13-.319.21-.52.21h-9.5c-.41 0-.75-.34-.75-.75s.34-.75.75-.75h9.5c.41 0 .75.34.75.75z"/><path d="m13 16.51c0 .17 0 .33.02.49h-9.27c-.41 0-.75-.34-.75-.75s.34-.75.75-.75h9.36c-.07.33-.1.67-.11 1.01z"/></g><path d="m4 3h-1.25c-1.52 0-2.75 1.23-2.75 2.75v12.5c0 1.52 1.23 2.75 2.75 2.75h5.75v-4h-4.75c-.41 0-.75-.34-.75-.75 0-.41.34-.75.75-.75h4.75v-1.75h-4.75c-.41 0-.75-.34-.75-.75 0-.41.34-.75.75-.75h4.75v-1.75h-4.75c-.41 0-.75-.34-.75-.75 0-.41.34-.75.75-.75h4.75v-2.5h-2.75c-.96 0-1.75-.79-1.75-1.75z" fill="#1d83d4"/><path d="m8.5 0c-1.26 0-2.32.85-2.65 2h-1.1c-.41 0-.75.34-.75.75v.25 1.75c0 .96.79 1.75 1.75 1.75h2.75z" fill="#1667b7"/><path d="m8.5 9h-4.75c-.41 0-.75.34-.75.75 0 .41.34.75.75.75h4.75z" fill="#dedede"/><path d="m8.5 12.25h-4.75c-.41 0-.75.34-.75.75 0 .41.34.75.75.75h4.75z" fill="#dedede"/><path d="m8.5 15.5h-4.75c-.41 0-.75.34-.75.75 0 .41.34.75.75.75h4.75z" fill="#dedede"/><path d="m21.09 21.5h-3.15c-.316 0-.6-.199-.706-.497-.105-.293-.285-.548-.522-.736-1.113-.913-1.734-2.271-1.712-3.728.048-2.468 2.035-4.502 4.429-4.538h.065c1.169 0 2.274.455 3.118 1.288.895.881 1.388 2.067 1.388 3.341 0 1.386-.6 2.689-1.646 3.573-.255.219-.454.502-.557.795-.105.301-.389.502-.707.502z" fill="#ffc107"/><path d="m20.37 24h-1.74c-.656 0-1.32-.521-1.32-1.52v-1.03c0-.155-.025-.31-.075-.446-.082-.23 4.645-.207 4.552.023-.063.16-.096.336-.096.522v1.101c-.001.745-.593 1.35-1.321 1.35z" fill="#546e7a"/><path d="m19.494 12h-.065c-2.393.036-4.381 2.07-4.429 4.538-.022 1.458.599 2.815 1.712 3.728.237.188.417.442.522.734-.016-.107 1.02-.158 2.108-.158h.159v-8.842c-.003 0-.005 0-.007 0z" fill="#dea806"/><path d="m19.341 20.843c-1.088 0-2.124.051-2.108.158 0 .001 0 .002.001.003.05.137.075.291.075.446v1.03c0 .998.664 1.52 1.32 1.52h.87v-3.157c-.052 0-.105 0-.158 0z" fill="#49606a"/></svg>